<svg xmlns="http://www.w3.org/2000/svg" width="48" height="48" viewBox="0 0 48 48" fill="none"><path d="M25.996 47.5186C25.618 47.5186 25.244 47.4466 24.888 47.3046L8.886 40.9046C7.742 40.4466 7.002 39.3546 7 38.1226V3.47656C7 2.51456 7.468 1.60256 8.252 1.04056C8.272 1.02056 8.332 0.978562 8.396 0.944562C8.416 0.928562 8.478 0.896563 8.54 0.862563C8.544 0.860563 8.604 0.828563 8.606 0.826563C9.05 0.592563 9.516 0.476562 10 0.476562H38C39.654 0.476562 41 1.82256 41 3.47656V37.4766C41 39.1306 39.654 40.4766 38 40.4766H35V41.4766C35 43.1306 33.654 44.4766 32 44.4766H29V44.5226C29 45.3246 28.686 46.0786 28.118 46.6446C27.552 47.2086 26.8 47.5186 26 47.5186H25.996ZM9.12 3.00056C9.042 3.14456 9 3.30656 9 3.47656V38.1226C9 38.5326 9.248 38.8946 9.63 39.0486L25.63 45.4486C25.748 45.4966 25.872 45.5206 25.998 45.5206C26.268 45.5206 26.518 45.4166 26.706 45.2286C26.896 45.0406 27 44.7886 27 44.5226V10.8266C27 10.4166 26.752 10.0526 26.372 9.89856L9.12 3.00056ZM32 42.4766C32.552 42.4766 33 42.0286 33 41.4766V8.12656C33 7.64856 32.658 7.23456 32.188 7.14456L18.092 4.43456L27.114 8.04056C28.258 8.49856 29 9.59256 29 10.8266V42.4766H32ZM38 38.4766C38.552 38.4766 39 38.0286 39 37.4766V3.47656C39 2.92456 38.552 2.47656 38 2.47656H18.5L32.564 5.18056C33.976 5.45056 35 6.68856 35 8.12656V38.4766H38Z" fill="black"></path></svg>