<svg xmlns="http://www.w3.org/2000/svg" width="171" height="34" viewBox="0 0 171 34" fill="none"><path d="M36.1119 2.82234C33.3524 1.53122 30.4018 0.592888 27.317 0.0585938C26.9381 0.74354 26.4955 1.66481 26.1903 2.39767C22.9111 1.90452 19.6621 1.90452 16.4431 2.39767C16.138 1.66481 15.6854 0.74354 15.3031 0.0585938C12.215 0.592888 9.261 1.53467 6.50146 2.82917C0.935455 11.2401 -0.573397 19.4422 0.181031 27.5278C3.8727 30.2846 7.45037 31.9593 10.9677 33.0552C11.8361 31.86 12.6106 30.5894 13.2779 29.2504C12.0071 28.7675 10.79 28.1716 9.63991 27.4799C9.94501 27.2538 10.2434 27.0175 10.5318 26.7743C17.5463 30.0552 25.1677 30.0552 32.0984 26.7743C32.3901 27.0175 32.6885 27.2538 32.9902 27.4799C31.8368 28.175 30.6163 28.7709 29.3456 29.2538C30.0128 30.5894 30.784 31.8634 31.6558 33.0586C35.1764 31.9627 38.7574 30.2881 42.4491 27.5278C43.3343 18.1545 40.9369 10.0278 36.1119 2.82234ZM14.2335 22.5552C12.1278 22.5552 10.401 20.5894 10.401 18.1956C10.401 15.8018 12.091 13.8326 14.2335 13.8326C16.3761 13.8326 18.1029 15.7983 18.066 18.1956C18.0693 20.5894 16.3761 22.5552 14.2335 22.5552ZM28.3966 22.5552C26.291 22.5552 24.5641 20.5894 24.5641 18.1956C24.5641 15.8018 26.254 13.8326 28.3966 13.8326C30.5392 13.8326 32.266 15.7983 32.2291 18.1956C32.2291 20.5894 30.5392 22.5552 28.3966 22.5552Z" fill="#23272A"></path><path d="M57.2857 8.47715H66.4392C68.6458 8.47715 70.51 8.82988 72.0393 9.53195C73.5645 10.234 74.7081 11.2134 75.466 12.4669C76.2234 13.7203 76.6056 15.1552 76.6056 16.7717C76.6056 18.3538 76.21 19.7888 75.4187 21.073C74.6275 22.3607 73.4237 23.3778 71.8044 24.1278C70.1851 24.8778 68.1795 25.2545 65.7824 25.2545H57.2857V8.47715ZM65.6883 20.9908C67.1738 20.9908 68.3174 20.6107 69.1151 19.8538C69.9133 19.0936 70.3124 18.0593 70.3124 16.7477C70.3124 15.5319 69.9566 14.5627 69.246 13.8367C68.5354 13.1107 67.4589 12.7443 66.0202 12.7443H63.1568V20.9908H65.6883Z" fill="#23272A"></path><path d="M90.3096 25.2341C89.0421 24.8985 87.8985 24.4121 86.8828 23.7717V19.7923C87.6507 20.3984 88.6798 20.8985 89.9706 21.2923C91.2615 21.6827 92.5092 21.8779 93.7159 21.8779C94.2792 21.8779 94.7053 21.8026 94.9934 21.6518C95.282 21.5012 95.4264 21.3197 95.4264 21.1108C95.4264 20.8711 95.3492 20.6724 95.1915 20.5114C95.0337 20.3505 94.7286 20.2169 94.2763 20.1039L91.4596 19.4566C89.8468 19.0731 88.7031 18.5423 88.0229 17.8608C87.3421 17.1827 87.0032 16.2922 87.0032 15.1895C87.0032 14.2614 87.2983 13.4567 87.8955 12.7683C88.4887 12.08 89.3337 11.5491 90.43 11.1758C91.5268 10.7991 92.8072 10.6108 94.2793 10.6108C95.5935 10.6108 96.7973 10.7546 97.8942 11.0423C98.9905 11.33 99.8957 11.6964 100.617 12.145V15.9087C99.8787 15.4601 99.0337 15.1074 98.0683 14.8402C97.1059 14.5765 96.1171 14.4464 95.0974 14.4464C93.6253 14.4464 92.8914 14.7032 92.8914 15.2135C92.8914 15.4533 93.0053 15.6313 93.2332 15.7512C93.4611 15.871 93.8801 15.9943 94.4873 16.1245L96.8341 16.556C98.3669 16.8265 99.51 17.3026 100.261 17.9806C101.012 18.6587 101.388 19.6622 101.388 20.9909C101.388 22.4464 100.768 23.6005 99.5234 24.4567C98.2793 25.3128 96.5157 25.7409 94.229 25.7409C92.8843 25.7375 91.5771 25.5697 90.3096 25.2341Z" fill="#23272A"></path><path d="M106.928 24.7305C105.584 24.0592 104.568 23.1483 103.89 21.9976C103.213 20.8469 102.871 19.5524 102.871 18.114C102.871 16.6757 103.223 15.388 103.927 14.2544C104.631 13.1209 105.664 12.2305 107.025 11.5832C108.386 10.9359 110.013 10.614 111.907 10.614C114.254 10.614 116.202 11.1175 117.752 12.1243V16.5113C117.205 16.1277 116.568 15.8161 115.84 15.5763C115.113 15.3366 114.335 15.2167 113.503 15.2167C112.048 15.2167 110.912 15.4873 110.09 16.0318C109.268 16.5763 108.856 17.2852 108.856 18.1654C108.856 19.0284 109.255 19.7339 110.053 20.2887C110.851 20.84 112.008 21.1175 113.527 21.1175C114.308 21.1175 115.079 21.001 115.84 20.7716C116.598 20.5387 117.252 20.2544 117.798 19.9188V24.1619C116.079 25.2167 114.083 25.7441 111.813 25.7441C109.902 25.7373 108.272 25.4017 106.928 24.7305Z" fill="#23272A"></path><path d="M123.606 24.7307C122.251 24.0595 121.219 23.1417 120.507 21.9739C119.797 20.806 119.438 19.5047 119.438 18.0663C119.438 16.628 119.793 15.3437 120.507 14.217C121.221 13.0903 122.248 12.2067 123.596 11.5663C124.94 10.9259 126.546 10.6074 128.407 10.6074C130.268 10.6074 131.874 10.9259 133.219 11.5663C134.563 12.2067 135.59 13.0835 136.294 14.2033C136.998 15.3232 137.35 16.6074 137.35 18.0629C137.35 19.5013 136.998 20.8027 136.294 21.9704C135.59 23.1382 134.56 24.056 133.205 24.7273C131.851 25.3985 130.251 25.7341 128.404 25.7341C126.556 25.7341 124.957 25.4019 123.606 24.7307ZM130.737 20.4773C131.308 19.8951 131.596 19.1246 131.596 18.1657C131.596 17.2068 131.311 16.443 130.737 15.878C130.168 15.3095 129.389 15.0252 128.404 15.0252C127.401 15.0252 126.616 15.3095 126.043 15.878C125.473 16.4465 125.188 17.2068 125.188 18.1657C125.188 19.1246 125.473 19.8951 126.043 20.4773C126.614 21.0595 127.401 21.354 128.404 21.354C129.389 21.3506 130.168 21.0595 130.737 20.4773Z" fill="#23272A"></path><path d="M151.452 11.4978V16.6759C150.856 16.2752 150.084 16.0766 149.129 16.0766C147.878 16.0766 146.912 16.4636 146.241 17.2375C145.568 18.0115 145.232 19.217 145.232 20.8471V25.2581H139.482V11.2341H145.115V15.693C145.427 14.0629 145.933 12.8609 146.631 12.0834C147.325 11.3095 148.223 10.9225 149.316 10.9225C150.144 10.9225 150.856 11.1143 151.452 11.4978Z" fill="#23272A"></path><path d="M170.558 7.99766V25.2579H164.807V22.1176C164.321 23.2991 163.584 24.1997 162.591 24.8161C161.598 25.4292 160.371 25.7374 158.916 25.7374C157.615 25.7374 156.482 25.4155 155.513 24.7682C154.544 24.121 153.797 23.234 153.27 22.1073C152.747 20.9805 152.482 19.7066 152.482 18.282C152.465 16.8128 152.743 15.4943 153.317 14.3264C153.887 13.1586 154.695 12.2477 155.734 11.5936C156.774 10.9395 157.961 10.6107 159.292 10.6107C162.032 10.6107 163.869 11.8264 164.807 14.2545V7.99766H170.558ZM163.949 20.3813C164.536 19.7991 164.828 19.0422 164.828 18.1176C164.828 17.2237 164.543 16.4942 163.973 15.936C163.402 15.3778 162.621 15.097 161.639 15.097C160.67 15.097 159.896 15.3812 159.315 15.9497C158.735 16.5183 158.447 17.2545 158.447 18.1655C158.447 19.0765 158.735 19.8196 159.315 20.3949C159.896 20.9703 160.66 21.2579 161.615 21.2579C162.584 21.2546 163.362 20.9634 163.949 20.3813Z" fill="#23272A"></path><path d="M81.4514 12.7269C83.0345 12.7269 84.3184 11.5494 84.3184 10.0968C84.3184 8.64419 83.0345 7.46667 81.4514 7.46667C79.8678 7.46667 78.5845 8.64419 78.5845 10.0968C78.5845 11.5494 79.8678 12.7269 81.4514 12.7269Z" fill="#23272A"></path><path d="M78.582 14.5388C80.3386 15.3127 82.5183 15.347 84.3153 14.5388V25.3333H78.582V14.5388Z" fill="#23272A"></path></svg>