<svg xmlns="http://www.w3.org/2000/svg" width="166" height="48" viewBox="0 0 166 48" fill="none"><g clip-path="url(#clip0_5520_31921)"><path d="M64.9555 14.8492C64.9555 14.1868 65.2186 13.5515 65.687 13.0831C66.1554 12.6147 66.7908 12.3516 67.4532 12.3516C68.1156 12.3516 68.7509 12.6147 69.2193 13.0831C69.6877 13.5515 69.9508 14.1868 69.9508 14.8492C69.9267 15.4955 69.653 16.1073 69.1872 16.556C68.7215 17.0047 68.0999 17.2554 67.4532 17.2554C66.8065 17.2554 66.1848 17.0047 65.7191 16.556C65.2533 16.1073 64.9796 15.4955 64.9555 14.8492Z" fill="#273B7D"></path><path d="M23.9651 30.423C21.8153 30.423 20.3195 28.715 20.3195 26.273C20.3195 23.8328 21.8153 22.1265 23.9668 22.1265C26.1288 22.1265 27.6402 23.8328 27.6402 26.273C27.6402 28.7533 26.1618 30.423 23.9651 30.423ZM23.9651 18.4792C19.415 18.4792 16.1121 21.7578 16.1121 26.273C16.1121 30.79 19.4168 34.0669 23.9651 34.0669C28.5343 34.0669 31.8493 30.79 31.8493 26.2748C31.8493 21.7578 28.5342 18.4792 23.9668 18.4792H23.9651ZM60.1184 26.6644C59.9601 26.3581 59.7599 26.0754 59.5236 25.8243L59.3844 25.6799L59.5306 25.5408C59.7393 25.3199 59.9532 25.059 60.1584 24.7564L64.1762 18.787H59.2993L56.2815 23.4571C56.111 23.7076 55.7667 23.8328 55.2502 23.8328H54.5631V15.004C54.5631 13.2386 53.4621 12.9986 52.2742 12.9986H50.2391L50.2443 33.8373H54.5648V27.5862H54.9701C55.4623 27.5862 55.7962 27.6436 55.951 27.9115L58.3339 32.4093C59 33.6303 59.6627 33.8373 60.9115 33.8373H64.2215L61.7552 29.7604L60.1202 26.6644H60.1184ZM81.0911 18.4444C78.8927 18.4444 77.4907 19.4219 76.7045 20.2481L76.4437 20.5124L76.3498 20.1524C76.1202 19.2671 75.341 18.7818 74.1704 18.7818H72.2345L72.2467 33.8321H76.5376V26.8957C76.5376 26.2174 76.6245 25.6295 76.8054 25.092C77.282 23.4658 78.6143 22.4552 80.2788 22.4552C81.6181 22.4552 82.1417 23.1631 82.1417 24.9894V31.5449C82.1417 33.1033 82.8634 33.8321 84.4236 33.8321H86.4656L86.4587 24.2589C86.4587 20.4568 84.6028 18.4461 81.0911 18.4461V18.4444ZM67.5053 18.787H65.472L65.4859 30.4248V33.8373H67.6549L67.7314 33.8408L68.7438 33.8373H69.7491V33.8321H69.756L69.7647 21.0742C69.7647 19.5349 69.029 18.7888 67.5071 18.7888L67.5053 18.787ZM40.8173 30.423C38.6675 30.423 37.1699 28.715 37.1699 26.273C37.1699 23.8328 38.6675 22.1265 40.8191 22.1265C42.9758 22.1265 44.4925 23.8328 44.4925 26.273C44.4925 28.7533 43.0141 30.423 40.8191 30.423H40.8173ZM40.8173 18.4792C36.2637 18.4792 32.959 21.7578 32.959 26.273C32.959 30.79 36.2638 34.0669 40.8191 34.0669C45.3813 34.0669 48.7033 30.79 48.7033 26.2748C48.7033 21.7578 45.3813 18.4792 40.8191 18.4792" fill="#273B7D"></path><path d="M95.5048 29.7603C93.1585 29.7603 92.3236 27.7149 92.3236 25.7964C92.3236 24.9511 92.5375 22.1977 95.2804 22.1977C96.6423 22.1977 98.4563 22.5874 98.4563 25.9373C98.4563 29.0976 96.851 29.7603 95.5048 29.7603ZM100.684 18.7469C99.8704 18.7469 99.2443 19.0722 98.9295 19.6653L98.8112 19.8949L98.6129 19.721C97.9207 19.1226 96.6788 18.4113 94.6629 18.4113C90.6503 18.4113 87.9492 21.4255 87.9492 25.9077C87.9492 30.3882 90.7443 33.519 94.743 33.519C96.1084 33.519 97.1884 33.1989 98.0441 32.5519L98.3746 32.3032V32.7206C98.3746 34.7313 97.0754 35.8409 94.7186 35.8409C93.5724 35.8409 92.5306 35.5627 91.8314 35.3087C90.9234 35.0339 90.3877 35.2618 90.0207 36.1749L89.6798 37.0167L89.198 38.2482L89.4954 38.4064C91.0052 39.2065 92.9689 39.6848 94.743 39.6848C98.3956 39.6848 102.664 37.8151 102.664 32.5519L102.679 18.7469H100.684Z" fill="#273B7D"></path><path d="M7.98774 30.2508L4.4952 30.2473V26.0729C4.4952 25.1789 4.84133 24.7163 5.60489 24.6084H7.98774C9.68705 24.6084 10.7863 25.6799 10.788 27.414C10.7863 29.195 9.71488 30.249 7.98774 30.249V30.2508ZM4.4952 17.8877C4.4952 16.9259 4.90222 16.4684 5.79449 16.4093H7.58253C9.11487 16.4093 10.0332 17.3259 10.0332 18.8617C10.0332 20.0306 9.40357 21.3959 7.63816 21.3959H4.4952V17.8877ZM12.4474 23.1544L11.816 22.7996L12.3673 22.3282C13.0092 21.7768 14.0824 20.5367 14.0824 18.3973C14.0824 15.1205 11.5429 13.0055 7.61035 13.0055H2.61151C2.04904 13.026 1.51605 13.2621 1.12294 13.6649C0.729838 14.0677 0.506774 14.6064 0.5 15.1692V33.7625H7.69899C12.0699 33.7625 14.8911 31.3831 14.8911 27.6975C14.8911 25.7129 13.9797 24.0171 12.4474 23.1544Z" fill="#273B7D"></path><path d="M104.363 31.5081C104.363 30.1218 105.48 29.0017 106.856 29.0017C107.52 29.0017 108.157 29.2656 108.627 29.7353C109.096 30.205 109.36 30.8421 109.36 31.5063C109.36 32.1706 109.096 32.8076 108.627 33.2774C108.157 33.7471 107.52 34.0109 106.856 34.0109C105.482 34.0109 104.363 32.8891 104.363 31.5063" fill="#499FDD"></path><path d="M132.784 30.4243C130.634 30.4243 129.135 28.7163 129.135 26.2743C129.135 23.8341 130.634 22.1278 132.784 22.1278C134.944 22.1278 136.459 23.8341 136.459 26.2743C136.459 28.7546 134.98 30.4243 132.784 30.4243ZM132.784 18.4805C128.23 18.4805 124.927 21.7591 124.927 26.2743C124.927 30.7913 128.23 34.0682 132.784 34.0682C137.348 34.0682 140.668 30.7913 140.668 26.2761C140.668 21.7591 137.346 18.4805 132.784 18.4805Z" fill="#499FDD"></path><path d="M159.834 18.4962C158.948 18.4994 158.074 18.7016 157.277 19.0879C156.48 19.4741 155.779 20.0345 155.228 20.7277L154.918 21.1208L154.675 20.6807C153.878 19.2319 152.511 18.4962 150.61 18.4962C148.615 18.4962 147.277 19.6093 146.657 20.2703L146.25 20.7103L146.093 20.1311C145.867 19.2962 145.124 18.8388 144.001 18.8388H142.197L142.179 33.8317H146.276V27.2136C146.276 26.6327 146.349 26.0604 146.493 25.4604C146.884 23.8602 147.959 22.14 149.766 22.3122C150.88 22.4201 151.426 23.281 151.426 24.9438V33.8317H155.551V27.2136C155.551 26.4883 155.619 25.9457 155.783 25.403C156.113 23.8759 157.237 22.3105 158.98 22.3105C160.242 22.3105 160.708 23.0236 160.708 24.9438V31.6402C160.708 33.1534 161.383 33.8317 162.898 33.8317H164.825L164.829 24.2603C164.829 20.4355 163.145 18.4962 159.834 18.4962ZM122.553 28.6259C122.541 28.6416 120.779 30.4992 118.457 30.4992C116.342 30.4992 114.206 29.2016 114.206 26.3057C114.206 23.8046 115.862 22.0565 118.234 22.0565C119.003 22.0565 119.88 22.3314 120.017 22.7957L120.036 22.874C120.124 23.1937 120.315 23.4756 120.579 23.6759C120.843 23.8762 121.166 23.9838 121.497 23.982L123.741 23.9854V22.0235C123.741 19.4354 120.448 18.4962 118.234 18.4962C113.496 18.4962 110.06 21.7939 110.06 26.337C110.06 30.8766 113.458 34.1709 118.147 34.1709C122.214 34.1709 124.426 31.4975 124.447 31.4715L124.565 31.3254L122.788 28.3772L122.553 28.6259Z" fill="#499FDD"></path></g><defs><clipPath id="clip0_5520_31921"><rect width="165" height="48" fill="white" transform="translate(0.5)"></rect></clipPath></defs></svg>