<svg xmlns="http://www.w3.org/2000/svg" width="122" height="48" viewBox="0 0 122 48" fill="none"><g clip-path="url(#clip0_5520_31863)"><path d="M38.4251 32.4245L39.8932 28.993C41.5006 30.1835 43.5973 30.8135 45.6945 30.8135C47.2323 30.8135 48.2107 30.2186 48.2107 29.3083C48.1756 26.7871 38.9494 28.7479 38.8792 22.4093C38.8441 19.1879 41.7102 16.7018 45.7647 16.7018C48.1756 16.7018 50.5875 17.2972 52.2998 18.6631L50.9279 22.1677C49.3525 21.1547 47.4067 20.4485 45.5546 20.4485C44.2965 20.4485 43.4575 21.0435 43.4575 21.8144C43.4926 24.3005 52.7895 22.9346 52.8942 28.993C52.8942 32.2847 50.0978 34.5958 46.1135 34.5958C43.1783 34.5958 40.4872 33.8956 38.4246 32.4245H38.4251ZM96.8831 27.7505C96.5125 28.4089 95.9735 28.9569 95.3212 29.3383C94.669 29.7197 93.927 29.9208 93.1715 29.9208C90.8167 29.9208 88.908 28.0081 88.908 25.6488C88.908 23.2895 90.8167 21.3768 93.1715 21.3768C93.927 21.3768 94.669 21.5779 95.3212 21.9593C95.9735 22.3407 96.5125 22.8887 96.8831 23.5471L100.965 21.2815C99.4359 18.5493 96.5197 16.7018 93.1715 16.7018C88.2398 16.7018 84.242 20.7071 84.242 25.6488C84.242 30.59 88.2398 34.5958 93.1715 34.5958C96.5197 34.5958 99.4359 32.7483 100.965 30.0161L96.8831 27.7505ZM55.5427 34.2455H60.6453V9.25391H55.5432L55.5427 34.2455ZM103.542 9.25391V34.2455H108.644V26.758L114.69 34.2455H121.213L113.524 25.3506L120.653 17.0506H114.411L108.644 23.9511V9.25391H103.542ZM76.3655 17.0516V19.0831C75.527 17.6822 73.4649 16.7018 71.2981 16.7018C66.8245 16.7018 63.2948 20.659 63.2948 25.6313C63.2948 30.6035 66.8245 34.5958 71.2981 34.5958C73.4649 34.5958 75.527 33.6154 76.3655 32.2145V34.2455H81.4681V17.0516H76.3655ZM76.3655 27.7851C75.6317 29.0106 74.094 29.9203 72.3817 29.9203C70.0264 29.9203 68.1177 28.0081 68.1177 25.6488C68.1177 23.2895 70.0264 21.3768 72.3817 21.3768C74.094 21.3768 75.6317 22.3221 76.3655 23.5822V27.7851Z" fill="black"></path><path d="M11.4783 8.70312C9.82472 8.70312 8.48442 10.0464 8.48442 11.703C8.48402 12.0966 8.56115 12.4864 8.71139 12.8501C8.86163 13.2139 9.08205 13.5444 9.36006 13.823C9.63806 14.1016 9.96822 14.3227 10.3317 14.4736C10.6951 14.6246 11.0847 14.7025 11.4783 14.7029H14.4727V11.703C14.4733 10.9081 14.1582 10.1456 13.5967 9.58299C13.0352 9.02041 12.2732 8.70392 11.4783 8.70312ZM11.4783 16.7028H3.49412C1.84055 16.7028 0.500244 18.0461 0.500244 19.7032C0.500244 21.3598 1.84055 22.7031 3.49412 22.7031H11.4788C13.1319 22.7031 14.4727 21.3598 14.4727 19.7032C14.4727 18.0461 13.1319 16.7028 11.4783 16.7028Z" fill="#36C5F0"></path><path d="M30.4411 19.7032C30.4411 18.0461 29.1003 16.7028 27.4467 16.7028C25.7932 16.7028 24.4529 18.0461 24.4529 19.7032V22.7031H27.4467C28.2416 22.7023 29.0036 22.3858 29.5652 21.8233C30.1267 21.2607 30.4418 20.4981 30.4411 19.7032ZM22.4569 19.7032V11.703C22.4576 10.9081 22.1425 10.1456 21.581 9.58299C21.0194 9.02041 20.2574 8.70392 19.4626 8.70312C17.809 8.70312 16.4687 10.0464 16.4687 11.703V19.7027C16.4687 21.3603 17.809 22.7036 19.4626 22.7036C20.2574 22.7028 21.0194 22.3863 21.581 21.8238C22.1425 21.2612 22.4576 20.4986 22.4569 19.7037" fill="#2EB67D"></path><path d="M19.4626 38.7031C20.2575 38.7023 21.0195 38.3858 21.581 37.8233C22.1426 37.2607 22.4577 36.4981 22.457 35.7032C22.4577 34.9084 22.1426 34.1458 21.581 33.5832C21.0195 33.0206 20.2575 32.7041 19.4626 32.7033H16.4688V35.7032C16.4688 37.3598 17.8091 38.7031 19.4626 38.7031ZM19.4626 30.7034H27.4473C29.1004 30.7034 30.4412 29.3601 30.4412 27.703C30.4418 26.9081 30.1268 26.1456 29.5652 25.583C29.0037 25.0204 28.2417 24.7039 27.4468 24.7031H19.4626C17.8091 24.7031 16.4688 26.0464 16.4688 27.703C16.4684 28.0966 16.5455 28.4864 16.6957 28.8501C16.846 29.2139 17.0664 29.5444 17.3444 29.823C17.6224 30.1016 17.9526 30.3227 18.316 30.4736C18.6794 30.6246 19.0691 30.7025 19.4626 30.7029" fill="#ECB22E"></path><path d="M0.500002 27.703C0.499606 28.0966 0.576732 28.4864 0.726974 28.8501C0.877217 29.2139 1.09763 29.5444 1.37564 29.823C1.65365 30.1016 1.9838 30.3227 2.34725 30.4736C2.7107 30.6246 3.10032 30.7025 3.49388 30.7029C4.28875 30.7021 5.05075 30.3856 5.61229 29.823C6.17383 29.2605 6.48892 28.4979 6.48826 27.703V24.7031H3.49388C1.8403 24.7031 0.500002 26.0464 0.500002 27.703ZM8.48417 27.703V35.7027C8.48417 37.3598 9.82448 38.7031 11.4781 38.7031C12.2729 38.7023 13.0349 38.3858 13.5965 37.8233C14.158 37.2607 14.4731 36.4981 14.4724 35.7032V27.703C14.4728 27.3094 14.3957 26.9196 14.2454 26.5558C14.0951 26.192 13.8747 25.8614 13.5966 25.5828C13.3186 25.3043 12.9883 25.0832 12.6248 24.9323C12.2613 24.7813 11.8716 24.7035 11.4781 24.7031C9.82448 24.7031 8.48417 26.0464 8.48417 27.703Z" fill="#E01E5A"></path></g><defs><clipPath id="clip0_5520_31863"><rect width="121" height="48" fill="white" transform="translate(0.5)"></rect></clipPath></defs></svg>