<svg xmlns="http://www.w3.org/2000/svg" width="134" height="48" viewBox="0 0 134 48" fill="none"><g clip-path="url(#clip0_5520_31910)"><path d="M15.135 6H0.5V41L15.135 6Z" fill="#FA0C00"></path><path d="M25.4321 6H40.048V41L25.4321 6Z" fill="#FA0C00"></path><path d="M20.2837 18.8984L29.5986 40.9987H23.4872L20.7032 33.9625H13.8862L20.2837 18.8984Z" fill="#FA0C00"></path><path d="M63.9236 28.2569L65.6493 33.2052C65.7065 33.3291 65.7923 33.3863 65.9448 33.3863H69.2627C69.4439 33.3863 69.4725 33.3005 69.4439 33.1194L62.5888 14.0796C62.5602 13.927 62.5316 13.8984 62.379 13.8984H58.2603C58.1459 13.8984 58.0791 13.9842 58.0791 14.1082C58.0219 15.1093 57.9361 15.4144 57.8122 15.7099L51.7007 33.0908C51.6721 33.3005 51.7389 33.3863 51.9105 33.3863H54.8756C55.0568 33.3863 55.1426 33.3291 55.2093 33.148L56.8397 28.2569H63.9236ZM57.7836 25.0248C58.6798 22.3171 59.862 18.8467 60.3387 16.8636H60.3673C60.9584 18.942 62.3504 23.0608 62.9797 25.0248H57.7836Z" fill="#FA0C00"></path><path d="M78.2567 33.6833C80.0396 33.6833 81.9369 33.3591 83.8628 32.5297C84.0154 32.4725 84.044 32.4057 84.044 32.2627C83.9867 31.7288 83.92 30.9565 83.92 30.3654V12.4411C83.92 12.3267 83.92 12.2695 83.777 12.2695H80.5449C80.421 12.2695 80.3638 12.3267 80.3638 12.4793V18.5526C79.8584 18.4954 79.5057 18.4668 79.0862 18.4668C73.871 18.4668 70.6675 21.9086 70.6675 26.2085C70.6675 31.1949 73.9568 33.6833 78.2567 33.6833ZM80.3638 30.3654C79.8298 30.537 79.2387 30.6038 78.6381 30.6038C76.2736 30.6038 74.3381 29.269 74.3381 26.0274C74.3381 23.1576 76.3308 21.4605 78.9718 21.4605C79.5057 21.4605 79.9729 21.5177 80.3638 21.6702V30.3654Z" fill="#FA0C00"></path><path d="M94.3548 18.4648C89.9024 18.4648 87.147 21.8781 87.147 26.0922C87.147 29.8582 89.3398 33.6814 94.2881 33.6814C98.4736 33.6814 101.41 30.6019 101.41 25.9969C101.41 21.9353 98.9217 18.4648 94.3548 18.4648ZM94.1737 21.4586C96.6907 21.4586 97.7585 23.6228 97.7585 26.0922C97.7585 29.1431 96.1854 30.6591 94.3548 30.6591C92.0952 30.6591 90.7604 28.7618 90.7604 26.0255C90.7604 23.2129 92.181 21.4586 94.1737 21.4586Z" fill="#FA0C00"></path><path d="M104.752 12.2695C104.628 12.2695 104.542 12.3267 104.542 12.4793V32.768C104.542 32.8538 104.628 33.0064 104.752 33.035C106.172 33.4736 107.66 33.6833 109.195 33.6833C113.59 33.6833 117.861 30.9565 117.861 25.4648C117.861 21.4891 115.134 18.4668 110.863 18.4668C109.881 18.4668 108.966 18.6193 108.165 18.8863L108.127 12.5079C108.127 12.2981 108.07 12.2695 107.86 12.2695H104.752ZM114.21 25.8271C114.21 29.1164 111.96 30.661 109.528 30.661C109.023 30.661 108.575 30.6324 108.165 30.5084V21.8514C108.632 21.6702 109.195 21.5177 110.234 21.5177C112.579 21.5177 114.21 23.005 114.21 25.8271Z" fill="#FA0C00"></path><path d="M129.923 26.8931C131.372 26.8931 132.564 26.8645 132.974 26.7691C133.127 26.7405 133.184 26.6833 133.213 26.5594C133.298 26.2352 133.337 25.5583 133.337 24.7288C133.337 21.9067 131.639 18.4648 127.254 18.4648C122.773 18.4648 120.284 22.1164 120.284 26.2352C120.284 29.8868 122.21 33.6814 127.606 33.6814C129.628 33.6814 130.934 33.3572 132.059 32.8233C132.173 32.7661 132.231 32.6708 132.231 32.4992V30.0298C132.231 29.8868 132.145 29.8582 132.059 29.9154C130.934 30.3921 129.714 30.6305 128.379 30.6305C125.356 30.6305 123.984 28.962 123.898 26.8931H129.923ZM123.898 24.3379C124.136 22.8887 125.051 21.3156 127.101 21.3156C129.361 21.3156 129.952 23.2129 129.952 24.0709C129.952 24.0995 129.952 24.2235 129.952 24.3093C129.828 24.3379 129.447 24.3379 128.322 24.3379H123.898Z" fill="#FA0C00"></path></g><defs><clipPath id="clip0_5520_31910"><rect width="133" height="48" fill="white" transform="translate(0.5)"></rect></clipPath></defs></svg>