<svg xmlns="http://www.w3.org/2000/svg" width="114" height="48" viewBox="0 0 114 48" fill="none"><g clip-path="url(#clip0_5520_31873)"><path d="M48.7376 25.6482C48.7376 30.9714 44.5732 34.894 39.4626 34.894C34.352 34.894 30.1876 30.9714 30.1876 25.6482C30.1876 20.2874 34.352 16.4023 39.4626 16.4023C44.5732 16.4023 48.7376 20.2874 48.7376 25.6482ZM44.6775 25.6482C44.6775 22.3217 42.2639 20.0457 39.4626 20.0457C36.6613 20.0457 34.2477 22.3217 34.2477 25.6482C34.2477 28.9413 36.6613 31.2507 39.4626 31.2507C42.2639 31.2507 44.6775 28.9372 44.6775 25.6482Z" fill="#EA4335"></path><path d="M68.7468 25.6521C68.7468 30.9753 64.5824 34.8979 59.4718 34.8979C54.3612 34.8979 50.1968 30.9753 50.1968 25.6521C50.1968 20.2955 54.3612 16.4062 59.4718 16.4062C64.5824 16.4062 68.7468 20.2913 68.7468 25.6521ZM64.6867 25.6521C64.6867 22.3256 62.2731 20.0496 59.4718 20.0496C56.6705 20.0496 54.2569 22.3256 54.2569 25.6521C54.2569 28.9452 56.6705 31.2546 59.4718 31.2546C62.2731 31.2546 64.6867 28.9411 64.6867 25.6521Z" fill="#FBBC05"></path><path d="M87.9224 16.9648V33.564C87.9224 40.3921 83.8956 43.1808 79.1351 43.1808C74.6539 43.1808 71.9569 40.1837 70.9398 37.7325L74.4747 36.261C75.1041 37.7659 76.6465 39.5417 79.131 39.5417C82.1782 39.5417 84.0665 37.6617 84.0665 34.1226V32.7928H83.9248C83.016 33.9142 81.2652 34.8938 79.0559 34.8938C74.433 34.8938 70.1978 30.8669 70.1978 25.6854C70.1978 20.4664 74.433 16.4062 79.0559 16.4062C81.2611 16.4062 83.0119 17.3859 83.9248 18.4738H84.0665V16.969H87.9224V16.9648ZM84.3541 25.6854C84.3541 22.4298 82.1823 20.0496 79.4186 20.0496C76.6173 20.0496 74.2704 22.4298 74.2704 25.6854C74.2704 28.9077 76.6173 31.2546 79.4186 31.2546C82.1823 31.2546 84.3541 28.9077 84.3541 25.6854Z" fill="#4285F4"></path><path d="M94.279 7.23438V34.3299H90.3189V7.23438H94.279Z" fill="#34A853"></path><path d="M109.711 28.6915L112.863 30.7924C111.846 32.2973 109.395 34.8901 105.159 34.8901C99.907 34.8901 95.9844 30.8299 95.9844 25.6443C95.9844 20.146 99.9403 16.3984 104.705 16.3984C109.503 16.3984 111.85 20.2168 112.617 22.2803L113.038 23.3307L100.678 28.4497C101.624 30.3047 103.096 31.251 105.159 31.251C107.227 31.251 108.661 30.2338 109.711 28.6915ZM100.011 25.365L108.273 21.9343C107.819 20.7796 106.452 19.9751 104.843 19.9751C102.779 19.9751 99.907 21.7967 100.011 25.365Z" fill="#EA4335"></path><path d="M15.1975 23.2457V19.3231H28.4159C28.5451 20.0068 28.6118 20.8155 28.6118 21.6909C28.6118 24.6338 27.8073 28.273 25.2145 30.8658C22.6925 33.492 19.4702 34.8926 15.2016 34.8926C7.28972 34.8926 0.636719 28.4481 0.636719 20.5362C0.636719 12.6243 7.28972 6.17969 15.2016 6.17969C19.5786 6.17969 22.6967 7.89713 25.0394 10.1356L22.2715 12.9036C20.5916 11.3278 18.3155 10.1023 15.1975 10.1023C9.41985 10.1023 4.90114 14.7586 4.90114 20.5362C4.90114 26.3138 9.41985 30.97 15.1975 30.97C18.945 30.97 21.0793 29.4652 22.4466 28.0979C23.5554 26.9891 24.2849 25.405 24.5725 23.2416L15.1975 23.2457Z" fill="#4285F4"></path></g><defs><clipPath id="clip0_5520_31873"><rect width="113" height="48" fill="white" transform="translate(0.5)"></rect></clipPath></defs></svg>