<svg xmlns="http://www.w3.org/2000/svg" width="500" height="503" viewBox="0 0 500 503" fill="none"><path d="M0 361.266H481.456" stroke="#111111" stroke-width="2"></path><path d="M392.94 333.062C392.946 333.022 392.946 332.981 392.94 332.942C392.936 332.891 392.936 332.841 392.94 332.79C392.94 332.79 392.94 332.733 392.94 332.695C392.955 332.802 392.976 332.907 393.003 333.011C392.988 333.035 392.966 333.053 392.94 333.062Z" fill="white"></path><path d="M392.919 333.082H392.937L392.919 333.1V333.082Z" fill="white"></path><path d="M392.959 333.04C393.117 332.901 393.25 332.807 393.408 332.668C393.275 332.788 393.117 332.921 392.978 333.06C392.978 333.06 392.978 333.06 392.94 333.06L392.959 333.04Z" fill="white"></path><path d="M392.603 332.971V333.065C392.61 333.025 392.61 332.985 392.603 332.946C392.6 332.895 392.6 332.844 392.603 332.794C392.603 332.794 392.603 332.738 392.603 332.699C392.599 332.79 392.599 332.88 392.603 332.971Z" fill="white"></path><path d="M392.667 333.091C392.667 332.964 392.648 332.84 392.61 332.719C392.648 332.952 392.667 333.091 392.667 333.091Z" fill="white"></path><path d="M317.493 326.086C314.037 317.8 310.005 309.76 305.429 302.026C307.283 292.285 308.547 275.22 304.527 267.475C301.556 261.751 289.562 260.882 281.282 261.001C274.889 252.62 269.721 248.301 269.721 248.301C269.721 248.301 231.231 254.484 222.444 254.535C213.657 254.585 213.663 259.415 213.663 259.415C213.663 259.415 207.542 277.732 200.622 286.832C193.701 295.931 175.085 306.982 148.259 311.239C121.434 315.495 100.335 310.25 95.4969 307.58C90.6587 304.91 90.5 307.485 99.1603 324.405C107.821 341.325 121.154 353.491 143.548 357.503C157.36 359.861 171.522 359.255 185.079 355.727C185.079 355.727 220.514 346.867 230.907 340.11C241.301 333.354 242.926 342.541 242.926 342.541L241.911 480.557L269.34 485.985L293.035 372.936L318.305 414.873L344.559 404.169C341.467 388.068 325.587 345.607 317.493 326.086Z" fill="#007456"></path><path d="M245.691 141.642C245.133 145.46 243.499 149.043 240.98 151.977C239.045 154.436 236.582 156.435 233.771 157.828C233.111 158.144 232.426 158.405 231.721 158.605C231.721 156.429 231.683 154.216 231.564 152.058C231.116 143.975 229.476 135.559 224.298 129.345C221.807 126.376 218.663 124.016 215.108 122.447C215.209 120.954 215.329 119.474 215.424 117.981C215.695 115.429 215.682 112.856 215.386 110.306C215.052 108.759 214.862 107.184 214.818 105.603C214.875 104.129 214.66 98.4725 215.834 97.2493C217.791 98.0611 219.888 98.4868 222.008 98.5038C226.757 98.4662 230.529 95.5691 233.071 91.8629C234.006 91.5591 234.978 91.3816 235.96 91.3359C238.836 91.7625 230.252 99.4573 233.052 98.5854C231.229 99.1436 229.898 101.865 229.041 103.421C227.779 105.829 227.048 108.663 228.284 111.209C229.495 113.642 232.031 115.737 233.828 117.737C236.251 120.267 238.518 122.941 240.615 125.745C243.932 130.336 246.354 135.973 245.691 141.642Z" fill="#111111"></path><path d="M317.226 58.4685L331.569 51.5936C332.88 50.9664 334.026 50.0434 334.913 48.8982L341.61 40.2786C343.213 38.1038 342.784 35.058 340.641 33.402C338.498 31.7451 335.416 32.0784 333.683 34.1529L332.458 35.5696L335.041 29.5058C335.396 28.6625 335.364 27.7082 334.953 26.8901C334.543 26.071 333.794 25.4706 332.902 25.243L328.821 25.7789L341.578 8.49498C343.386 6.04595 341.629 3.08614 338.982 2.24919C335.935 1.28589 333.118 3.27522 331.226 5.47961C323.446 14.5714 317.549 25.0862 312.072 35.6637C310.232 39.2194 308.457 42.8038 306.747 46.4178" stroke="#111111" stroke-width="2" stroke-linejoin="round"></path><path d="M328.829 25.7812C328.829 25.7812 320.509 36.0505 332.466 35.572" stroke="#111111" stroke-width="2"></path><path d="M90.9813 199.602C71.8462 250.709 80.6173 301.501 80.6173 301.501C109.52 317.456 150.5 316.071 179.853 302.049C190.236 297.074 201.431 289.582 205.963 278.601C209.289 270.561 212.747 262.584 215.597 254.43" fill="#FAF6EB"></path><path d="M90.9813 199.602C71.8462 250.709 80.6173 301.501 80.6173 301.501C109.52 317.456 150.5 316.071 179.853 302.049C190.236 297.074 201.431 289.582 205.963 278.601C209.289 270.561 212.747 262.584 215.597 254.43" stroke="#111111" stroke-width="2"></path><path d="M201.683 119.051C206.23 119.331 210.689 120.415 214.851 122.252C218.426 123.83 221.589 126.201 224.095 129.183C229.307 135.433 230.958 143.882 231.409 152.004C231.53 154.19 231.587 156.414 231.568 158.582C231.472 177.812 228.247 196.841 222.952 215.447H270.887H295.928M301.634 242.138L300.18 242.389C292.473 243.971 275.242 246.725 258.423 249.283C243.04 251.646 227.994 253.833 220.877 254.847C218.178 255.238 215.423 255.527 212.623 255.704C196.007 256.718 178.853 253.051 174.409 234.281C171.514 222.259 172.148 209.298 172.282 196.784" stroke="#111111" stroke-width="2"></path><path d="M281.229 261.626C291.983 261.135 301.621 262.716 305.754 269.395C307.837 272.772 307.328 284.681 305.182 301.29" stroke="#111111" stroke-width="3"></path><path d="M101.054 328.055C101.077 328.083 101.096 328.116 101.111 328.15C105.714 337.462 113.809 345.502 124.164 351.128C160.651 370.938 215.531 347.726 235.269 338.067C236.871 337.284 238.766 337.379 240.28 338.317C241.795 339.254 242.714 340.901 242.71 342.673V491.228L284.936 501.845C286.258 502.181 287.66 501.969 288.819 501.255C289.979 500.542 290.794 499.388 291.076 498.065C291.655 495.416 289.993 492.795 287.337 492.167L269.122 486.212C269.966 480.34 282.321 426.638 292.822 373.093" stroke="#111111" stroke-width="2"></path><path d="M268.723 247.672C279.516 256.745 287.267 270.695 294.524 282.547C312.206 311.424 325.431 342.853 335.703 375.012C338.808 384.728 341.665 394.545 344.363 404.362L364.985 400.159C367.419 399.374 370.039 400.661 370.885 403.058C371.732 405.455 370.496 408.084 368.102 408.98L323.882 425.362C323.882 425.362 310.942 401.375 292.861 373.065C266.361 331.53 217.392 267.513 204.465 281.167" stroke="#111111" stroke-width="2"></path><path d="M230.147 105.539C230.147 105.539 273.51 102.558 303.235 44.1562C303.235 44.1562 312.632 50.5893 325.729 70.7139C325.729 70.7139 288.982 144.731 231.41 164.263" stroke="#111111" stroke-width="2"></path><path d="M226.436 37.5195L228.946 41.3539L230.457 43.6865C231.991 47.278 233.339 50.9467 234.497 54.678L234.572 54.9432L237.445 65.9787C237.451 65.9903 237.451 66.0037 237.445 66.0163C238.411 67.614 239.742 68.9564 241.328 69.9322C241.704 70.1356 242.053 70.383 242.37 70.6697C244.094 72.4108 239.547 72.9154 238.606 73.4889C237.763 74.0704 237.255 75.0283 237.245 76.0553C231.844 98.6494 235.319 92.7155 232.998 97.7417C235.011 96.0266 240.017 90.572 240.017 90.572C240.645 90.1616 241.234 88.9322 241.642 88.3201C242.937 86.3228 244.052 84.2124 244.973 82.0143C247.836 75.4504 248.496 68.1284 246.855 61.1541C244.264 50.314 238.223 39.4685 226.436 37.5195Z" fill="#1F2E54"></path><path d="M225.637 43.9682C225.172 46.3133 224.054 48.4819 222.41 50.2248C220.626 52.1675 218.546 53.8208 216.25 55.1264C211.927 57.6875 207.117 59.623 203.485 63.0802C199.848 66.5597 197.671 71.2812 197.393 76.2949C197.139 81.4286 198.984 86.7461 200.106 91.5528C203.661 107.088 202.521 122.018 200.556 137.655C198.692 152.408 194.725 166.846 187.031 179.688C177.954 194.827 163.052 206.944 146.281 213.163C132.337 218.341 105.241 222.934 94.9918 208.527C93.2234 203.98 93.2044 198.775 93.8889 193.874C97.9138 165.124 120.066 135.617 146.496 123.658C160.656 117.25 183.747 107.404 176.287 87.8187C173.91 81.6437 170.582 76.3137 169.948 69.8609C169.891 69.274 169.834 68.6879 169.778 68.0634C168.712 52.9247 177.567 38.5558 191.904 33.371C201.394 29.8054 211.968 30.4954 220.908 35.2635C222.477 36.0942 223.881 37.2018 225.054 38.5307C225.134 38.6212 225.206 38.718 225.269 38.8211C225.358 39.0442 225.43 39.2745 225.485 39.5084C225.835 40.9699 225.886 42.4861 225.637 43.9682Z" fill="#111111"></path><path d="M231.476 158.295C239.149 156.537 245.881 151.086 247.805 143.122C249.596 135.743 246.763 128.168 242.374 122.233C238.304 116.75 229.825 112.151 230.492 104.375C230.708 101.854 231.966 99.6492 233.604 97.6957C234.195 97.0156 234.804 96.3856 235.471 95.7422" stroke="#111111" stroke-width="2"></path><path d="M215.656 97.1289L215.3 122.857" stroke="#111111" stroke-width="4"></path><path fill-rule="evenodd" clip-rule="evenodd" d="M173.358 84.227C170.989 78.052 167.642 72.7274 167.008 66.288C166.944 65.6957 166.887 65.1034 166.842 64.4726C165.769 49.35 174.647 35.0017 189.007 29.816C198.518 26.2567 209.114 26.9458 218.076 31.7068C219.643 32.5402 221.046 33.6477 222.216 34.9767L222.515 35.336C224.613 37.88 225.5 41.2 224.947 44.4412C224.485 46.7782 223.372 48.9396 221.734 50.6798C219.938 52.6235 217.852 54.2813 215.548 55.5949C211.216 58.1533 206.402 60.0745 202.75 63.5281C199.105 67.0139 196.93 71.7435 196.666 76.7607C196.406 81.89 198.261 87.1949 199.366 92.0096C202.928 107.529 201.792 122.438 199.823 138.052C197.956 152.791 193.986 167.221 186.263 180.05C177.169 195.173 162.244 207.284 145.433 213.491C131.187 218.759 103.256 223.421 93.4434 208.002C90.1472 202.829 89.9312 196.282 90.7823 190.22C94.8151 161.505 117.025 132.016 143.495 120.075C157.709 113.597 180.846 103.786 173.358 84.227Z" stroke="#111111" stroke-width="2"></path><path d="M230.455 64.4303C230.455 65.5662 229.527 66.4934 228.373 66.4934C227.22 66.4934 226.292 65.5662 226.292 64.4303C226.292 63.2943 227.22 62.3672 228.373 62.3672C229.527 62.3672 230.455 63.2943 230.455 64.4303Z" fill="#111111" stroke="#111111"></path><path d="M227.586 56.4492C227.586 56.4492 219.228 60.1895 221.874 67.4614L227.586 56.4492Z" fill="#111111"></path><path d="M227.586 56.4492C227.586 56.4492 219.228 60.1895 221.874 67.4614" stroke="#111111" stroke-width="2" stroke-linecap="round"></path><path d="M235.31 95.8646C237.404 95.1083 239.638 92.7158 241.161 91.1485C242.846 89.3653 244.351 87.4225 245.654 85.3498C253.152 73.447 253.016 58.3128 245.306 46.5453C242.69 42.5406 239.206 38.9894 234.84 36.975C231.2 35.2742 227.128 34.7034 223.156 35.3378C225.375 37.1354 227.366 39.1946 229.084 41.4707C231.671 44.8391 233.482 48.7291 234.39 52.8663C234.529 53.5904 234.65 54.3091 234.776 55.0394C235.411 58.9302 235.767 62.8713 237.69 66.0578C238.67 67.6663 240.024 69.0194 241.638 70.0051C242.017 70.2085 242.371 70.4558 242.69 70.7417C244.437 72.4801 239.835 72.9774 238.883 73.55C236.439 74.9668 237.347 79.0341 237.023 81.3891C236.633 84.1374 235.804 86.8069 234.567 89.2971C234.129 90.1816 233.631 91.0365 233.075 91.8537C230.538 95.5868 226.729 98.509 221.944 98.5341C219.815 98.5153 217.708 98.087 215.743 97.2742C212.372 95.9157 209.356 93.8117 206.928 91.1234" fill="#111111"></path><path d="M235.31 95.8646C237.404 95.1083 239.638 92.7158 241.161 91.1485C242.846 89.3653 244.351 87.4225 245.654 85.3498C253.152 73.447 253.016 58.3128 245.306 46.5453C242.69 42.5406 239.206 38.9894 234.84 36.975C231.2 35.2742 227.128 34.7034 223.156 35.3378C225.375 37.1354 227.366 39.1946 229.084 41.4707C231.671 44.8391 233.482 48.7291 234.39 52.8663C234.529 53.5904 234.65 54.3091 234.776 55.0394C235.411 58.9302 235.767 62.8713 237.69 66.0578C238.67 67.6663 240.024 69.0194 241.638 70.0051C242.017 70.2085 242.371 70.4558 242.69 70.7417C244.437 72.4801 239.835 72.9774 238.883 73.55C236.439 74.9668 237.347 79.0341 237.023 81.3891C236.633 84.1374 235.804 86.8069 234.567 89.2971C234.129 90.1816 233.631 91.0365 233.075 91.8537C230.538 95.5868 226.729 98.509 221.944 98.5341C219.815 98.5153 217.708 98.087 215.743 97.2742C212.372 95.9157 209.356 93.8117 206.928 91.1234" stroke="#111111" stroke-width="4" stroke-linecap="round"></path><path d="M230.715 82.836C230.715 82.836 224.959 86.0912 222.464 78.5977L230.715 82.836Z" fill="#111111"></path><path d="M230.715 82.836C230.715 82.836 224.959 86.0912 222.464 78.5977" stroke="#111111" stroke-width="2" stroke-linecap="round"></path><path d="M223.112 215.73L221.296 221.819" stroke="#111111" stroke-width="2" stroke-linecap="round"></path><path d="M101.301 328.343C101.301 328.343 93.8878 315.222 91.4761 306.488" stroke="#111111" stroke-width="2"></path><path d="M287.545 186.944L293.202 206.596L303.404 243.805C303.772 245.147 305.109 245.988 306.488 245.747L321.52 243.114C322.992 242.855 323.976 241.461 323.716 239.999L313.266 181.217C313.006 179.756 311.602 178.78 310.129 179.037L299.909 180.822L289.689 182.607C288.12 182.881 287.126 185.418 287.545 186.944Z" stroke="#111111" stroke-width="2"></path><path d="M289.565 179.898L309.79 178.388C311.388 178.268 312.532 176.806 312.255 175.241L305.967 139.809C305.689 138.242 304.108 137.256 302.565 137.688L283.048 143.147C281.71 143.521 280.875 144.84 281.116 146.2L286.694 177.683C286.936 179.044 288.177 180.002 289.565 179.898Z" stroke="#111111" stroke-width="2"></path><mask id="mask0_2188_24511" style="mask-type:alpha" maskUnits="userSpaceOnUse" x="301" y="46" width="199" height="162"><path fill-rule="evenodd" clip-rule="evenodd" d="M453.453 47.339C454.263 46.9268 455.108 46.6401 455.987 46.4868C470.374 43.9688 488.437 77.9497 496.331 122.386C504.225 166.822 498.961 204.886 484.574 207.404C483.236 207.638 481.865 207.557 480.474 207.18L362.378 186.087L313.087 188.791L301.261 122.108L348.505 107.935L453.445 47.2924L453.453 47.339Z" fill="white"></path></mask><g mask="url(#mask0_2188_24511)"><mask id="path-35-inside-1_2188_24511" fill="white"><path d="M453.453 47.3429L455.102 50.5321L450.747 52.75L449.897 47.9657L453.453 47.3429ZM480.474 207.184L481.114 203.656L481.271 203.684L481.425 203.726L480.474 207.184ZM362.378 186.091L362.179 182.512L362.602 182.489L363.018 182.563L362.378 186.091ZM313.087 188.794L313.286 192.373L310.086 192.549L309.53 189.416L313.087 188.794ZM348.505 107.939L350.322 111.037L349.955 111.248L349.55 111.37L348.505 107.939ZM453.445 47.2963L451.628 44.1994L456.102 41.6133L457.001 46.6744L453.445 47.2963ZM451.805 44.1537C452.922 43.5847 454.11 43.1788 455.36 42.9601L456.614 50.0205C456.106 50.1092 455.604 50.2758 455.102 50.5321L451.805 44.1537ZM455.36 42.9601C460.57 42.0488 465.499 44.5471 469.702 48.4075C473.959 52.3163 478.038 58.1059 481.788 65.16C489.307 79.3058 495.893 99.2861 499.887 121.767L492.774 123.012C488.874 101.058 482.483 81.8292 475.4 68.5051C471.848 61.8239 468.221 56.8129 464.797 53.6694C461.322 50.4784 458.597 49.6728 456.614 50.0205L455.36 42.9601ZM499.887 121.767C503.882 144.249 504.577 165.26 502.386 181.106C501.293 189.007 499.455 195.832 496.802 200.95C494.182 206.005 490.411 210.026 485.201 210.938L483.947 203.878C485.93 203.531 488.213 201.85 490.38 197.67C492.513 193.555 494.195 187.614 495.231 180.131C497.295 165.206 496.675 144.967 492.774 123.012L499.887 121.767ZM485.201 210.938C483.289 211.272 481.379 211.144 479.524 210.642L481.425 203.726C482.352 203.977 483.182 204.012 483.947 203.878L485.201 210.938ZM363.018 182.563L481.114 203.656L479.835 210.711L361.739 189.618L363.018 182.563ZM312.888 185.215L362.179 182.512L362.578 189.67L313.286 192.373L312.888 185.215ZM304.818 121.49L316.644 188.173L309.53 189.416L297.705 122.733L304.818 121.49ZM349.55 111.37L302.307 125.543L300.217 118.68L347.46 104.508L349.55 111.37ZM455.262 50.3941L350.322 111.037L346.688 104.841L451.628 44.1994L455.262 50.3941ZM449.897 47.9657L449.888 47.9191L457.001 46.6744L457.01 46.721L449.897 47.9657Z"></path></mask><path d="M456.614 50.0205L455.137 50.283L458.091 49.7582L456.614 50.0205ZM492.774 123.012L492.516 121.534L493.032 124.49L492.774 123.012ZM483.947 203.878L485.424 203.615L482.47 204.14L483.947 203.878ZM454.51 46.7533L455.137 50.283L458.091 49.7579L457.464 46.2282L454.51 46.7533ZM496.073 120.913L492.516 121.534L493.032 124.49L496.59 123.868L496.073 120.913ZM486.051 207.146L485.424 203.615L482.47 204.14L483.097 207.67L486.051 207.146ZM453.883 43.2225L455.137 50.2828L458.091 49.7582L456.837 42.6978L453.883 43.2225ZM499.629 120.29L492.516 121.534L493.033 124.49L500.146 123.245L499.629 120.29ZM486.678 210.676L485.424 203.615L482.47 204.14L483.724 211.2L486.678 210.676ZM453.453 47.3429L456.118 45.9654L455.106 44.0078L452.936 44.3879L453.453 47.3429ZM455.102 50.5321L456.463 53.2055L456.466 53.204L455.102 50.5321ZM450.747 52.75L447.793 53.2745L448.501 57.2603L452.108 55.4233L450.747 52.75ZM456.614 50.0205L457.13 52.9758L457.132 52.9754L456.614 50.0205ZM492.774 123.012L489.82 123.537L489.82 123.537L492.774 123.012ZM483.947 203.878L483.43 200.922L483.428 200.923L483.947 203.878ZM480.474 207.184L477.522 206.649L483.367 207.979L480.474 207.184ZM481.271 203.684L482.065 200.791L481.931 200.754L481.794 200.73L481.271 203.684ZM362.378 186.091L359.383 186.257L365.33 186.627L362.378 186.091ZM362.602 182.489L363.13 179.535L362.786 179.474L362.437 179.493L362.602 182.489ZM313.087 188.794L316.083 188.628L315.896 185.258L312.571 185.839L313.087 188.794ZM310.086 192.549L307.133 193.073L307.597 195.69L310.251 195.545L310.086 192.549ZM309.53 189.416L306.576 189.94L306.576 189.941L309.53 189.416ZM297.705 122.733L297.189 119.778L294.226 120.296L294.751 123.257L297.705 122.733ZM300.217 118.68L299.355 115.807L296.469 116.672L297.347 119.554L300.217 118.68ZM348.505 107.939L351.093 106.421L345.635 108.812L348.505 107.939ZM350.322 111.037L351.821 113.635L351.823 113.634L350.322 111.037ZM349.955 111.248L350.819 114.121L351.153 114.021L351.454 113.847L349.955 111.248ZM349.55 111.37L350.412 114.243L350.413 114.243L349.55 111.37ZM453.445 47.2963L450.858 48.8147L451.911 50.6101L453.962 50.2515L453.445 47.2963ZM456.102 41.6133L459.056 41.0885L458.307 36.8738L454.601 39.0159L456.102 41.6133ZM457.001 46.6744L459.957 46.1596L459.955 46.1497L457.001 46.6744ZM451.805 44.1537L450.443 41.4807L447.754 42.8506L449.14 45.5313L451.805 44.1537ZM455.36 42.9601L455.877 45.9153L455.877 45.9153L455.36 42.9601ZM469.702 48.4075L467.673 50.6171L467.673 50.6172L469.702 48.4075ZM481.788 65.16L479.139 66.5681L479.139 66.5682L481.788 65.16ZM475.4 68.5051L478.049 67.097L478.049 67.097L475.4 68.5051ZM464.797 53.6694L462.768 55.8791L462.768 55.8791L464.797 53.6694ZM502.386 181.106L499.414 180.695V180.695L502.386 181.106ZM496.802 200.95L494.138 199.569L494.138 199.569L496.802 200.95ZM485.201 210.938L485.718 213.893L485.719 213.893L485.201 210.938ZM490.38 197.67L493.043 199.051L493.043 199.051L490.38 197.67ZM495.231 180.131L498.202 180.542L498.202 180.542L495.231 180.131ZM479.524 210.642L476.631 209.847L475.833 212.751L478.741 213.538L479.524 210.642ZM479.835 210.711L479.307 213.664L482.253 214.191L482.787 211.246L479.835 210.711ZM361.739 189.618L358.787 189.083L358.25 192.042L361.211 192.571L361.739 189.618ZM312.888 185.215L312.724 182.22L309.726 182.384L309.893 185.382L312.888 185.215ZM362.578 189.67L362.742 192.665L365.74 192.501L365.573 189.503L362.578 189.67ZM304.818 121.49L307.772 120.967L307.25 118.02L304.302 118.535L304.818 121.49ZM316.644 188.173L317.16 191.129L320.123 190.611L319.598 187.65L316.644 188.173ZM302.307 125.543L299.437 126.417L300.307 129.274L303.169 128.416L302.307 125.543ZM347.46 104.508L350.33 103.634L349.459 100.776L346.598 101.634L347.46 104.508ZM455.262 50.3941L456.763 52.9916L459.377 51.4808L457.849 48.8762L455.262 50.3941ZM346.688 104.841L345.187 102.243L342.573 103.754L344.1 106.359L346.688 104.841ZM449.888 47.9191L449.371 44.964L446.361 45.4906L446.943 48.4901L449.888 47.9191ZM457.01 46.721L457.527 49.6761L460.48 49.1594L459.965 46.2062L457.01 46.721ZM450.788 48.7205L452.437 51.9097L457.767 49.1545L456.118 45.9654L450.788 48.7205ZM453.741 47.8588L449.385 50.0766L452.108 55.4233L456.463 53.2055L453.741 47.8588ZM453.7 52.2255L452.851 47.4412L446.943 48.4902L447.793 53.2745L453.7 52.2255ZM450.415 50.9208L453.971 50.298L452.936 44.3879L449.38 45.0107L450.415 50.9208ZM483.426 207.72L484.066 204.192L478.162 203.121L477.522 206.649L483.426 207.72ZM480.592 206.61L480.749 206.638L481.794 200.73L481.637 200.702L480.592 206.61ZM480.477 206.577L480.631 206.619L482.219 200.833L482.065 200.791L480.477 206.577ZM478.532 202.931L477.581 206.389L483.367 207.979L484.317 204.521L478.532 202.931ZM365.373 185.925L365.175 182.346L359.184 182.678L359.383 186.257L365.373 185.925ZM362.345 185.507L362.767 185.484L362.437 179.493L362.014 179.516L362.345 185.507ZM362.074 185.442L362.49 185.516L363.546 179.61L363.13 179.535L362.074 185.442ZM360.066 182.027L359.426 185.555L365.33 186.627L365.97 183.099L360.066 182.027ZM310.092 188.961L310.291 192.54L316.281 192.207L316.083 188.628L310.092 188.961ZM313.122 189.378L309.922 189.554L310.251 195.545L313.45 195.369L313.122 189.378ZM313.04 192.025L312.484 188.892L306.576 189.941L307.133 193.073L313.04 192.025ZM310.047 192.372L313.604 191.75L312.571 185.839L309.014 186.461L310.047 192.372ZM345.917 109.456L347.734 112.554L352.91 109.519L351.093 106.421L345.917 109.456ZM348.823 108.438L348.456 108.65L351.454 113.847L351.821 113.635L348.823 108.438ZM349.092 108.375L348.686 108.497L350.413 114.243L350.819 114.121L349.092 108.375ZM352.42 110.496L351.375 107.065L345.635 108.812L346.68 112.244L352.42 110.496ZM456.033 45.778L454.215 42.681L449.04 45.7178L450.858 48.8147L456.033 45.778ZM453.129 46.7968L457.603 44.2106L454.601 39.0159L450.127 41.6021L453.129 46.7968ZM453.148 42.1381L454.048 47.1992L459.955 46.1497L459.056 41.0885L453.148 42.1381ZM456.485 43.7193L452.928 44.3412L453.962 50.2515L457.518 49.6296L456.485 43.7193ZM453.167 46.8268C454.029 46.3876 454.933 46.0804 455.877 45.9153L454.843 40.005C453.287 40.2772 451.815 40.7818 450.443 41.4807L453.167 46.8268ZM456.098 47.0651C455.285 47.2071 454.498 47.4721 453.738 47.8602L456.466 53.204C456.71 53.0796 456.927 53.0113 457.13 52.9758L456.098 47.0651ZM457.767 49.1546L454.47 42.7762L449.14 45.5313L452.437 51.9097L457.767 49.1546ZM455.877 45.9153C459.753 45.2373 463.771 47.0331 467.673 50.6171L471.732 46.1979C467.227 42.0611 461.387 38.8603 454.843 40.005L455.877 45.9153ZM467.673 50.6172C471.583 54.207 475.473 59.6711 479.139 66.5681L484.437 63.752C480.604 56.5408 476.336 50.4255 471.731 46.1978L467.673 50.6172ZM479.139 66.5682C486.475 80.369 492.979 100.033 496.934 122.292L502.841 121.243C498.808 98.5393 492.14 78.2426 484.437 63.7519L479.139 66.5682ZM495.728 122.487C491.788 100.311 485.315 80.7661 478.049 67.097L472.751 69.9133C479.65 82.8923 485.96 101.804 489.82 123.537L495.728 122.487ZM478.049 67.097C474.414 60.2589 470.597 54.9222 466.826 51.4596L462.768 55.8791C465.844 58.7036 469.283 63.3888 472.751 69.9133L478.049 67.097ZM466.826 51.4597C463.038 47.9806 459.402 46.4858 456.096 47.0656L457.132 52.9754C457.791 52.8598 459.607 52.9762 462.768 55.8791L466.826 51.4597ZM496.934 122.292C500.888 144.551 501.551 165.237 499.414 180.695L505.357 181.517C507.602 165.283 506.875 143.946 502.841 121.243L496.934 122.292ZM499.414 180.695C498.346 188.419 496.574 194.872 494.138 199.569L499.465 202.331C502.336 196.793 504.24 189.594 505.357 181.517L499.414 180.695ZM494.138 199.569C491.708 204.258 488.557 207.305 484.684 207.983L485.719 213.893C492.266 212.747 496.655 207.752 499.465 202.331L494.138 199.569ZM484.464 206.833C487.773 206.254 490.678 203.613 493.043 199.051L487.716 196.289C485.748 200.087 484.087 200.808 483.43 200.922L484.464 206.833ZM493.043 199.051C495.395 194.514 497.142 188.202 498.202 180.542L492.259 179.72C491.248 187.027 489.632 192.595 487.716 196.29L493.043 199.051ZM498.202 180.542C500.32 165.229 499.668 144.664 495.728 122.487L489.82 123.537C493.682 145.27 494.269 165.183 492.259 179.72L498.202 180.542ZM484.685 207.983C483.245 208.234 481.78 208.145 480.308 207.746L478.741 213.538C480.978 214.143 483.333 214.31 485.718 213.893L484.685 207.983ZM482.417 211.437L484.317 204.521L478.532 202.931L476.631 209.847L482.417 211.437ZM480.641 206.622C481.951 206.976 483.227 207.05 484.467 206.832L483.428 200.923C483.137 200.974 482.753 200.978 482.208 200.83L480.641 206.622ZM362.491 185.516L480.587 206.609L481.642 200.703L363.546 179.61L362.491 185.516ZM478.162 203.121L476.883 210.176L482.787 211.246L484.066 204.191L478.162 203.121ZM480.362 207.758L362.266 186.665L361.211 192.571L479.307 213.664L480.362 207.758ZM364.691 190.153L365.97 183.098L360.066 182.028L358.787 189.083L364.691 190.153ZM313.052 188.211L362.344 185.507L362.015 179.516L312.724 182.22L313.052 188.211ZM359.184 182.679L359.582 189.837L365.573 189.503L365.175 182.345L359.184 182.679ZM362.413 186.674L313.122 189.378L313.45 195.369L362.742 192.665L362.413 186.674ZM316.281 192.207L315.883 185.049L309.893 185.382L310.291 192.54L316.281 192.207ZM301.865 122.014L313.69 188.697L319.598 187.65L307.772 120.967L301.865 122.014ZM316.127 185.218L309.014 186.461L310.047 192.372L317.16 191.129L316.127 185.218ZM312.484 188.893L300.659 122.209L294.751 123.257L306.576 189.94L312.484 188.893ZM298.221 125.689L305.335 124.446L304.302 118.535L297.189 119.778L298.221 125.689ZM348.688 108.496L301.445 122.669L303.169 128.416L350.412 114.243L348.688 108.496ZM305.177 124.669L303.087 117.806L297.347 119.554L299.437 126.417L305.177 124.669ZM301.079 121.554L348.322 107.381L346.598 101.634L299.355 115.807L301.079 121.554ZM344.59 105.382L346.68 112.244L352.42 110.496L350.33 103.634L344.59 105.382ZM453.761 47.7967L348.821 108.439L351.823 113.634L456.763 52.9916L453.761 47.7967ZM352.909 109.519L349.276 103.323L344.1 106.359L347.734 112.554L352.909 109.519ZM348.189 107.438L453.129 46.7969L450.127 41.6019L345.187 102.243L348.189 107.438ZM449.04 45.7174L452.674 51.9121L457.849 48.8762L454.215 42.6815L449.04 45.7174ZM452.842 47.3948L452.833 47.3482L446.943 48.4901L446.952 48.5367L452.842 47.3948ZM450.405 50.8742L457.519 49.6295L456.484 43.7193L449.371 44.964L450.405 50.8742ZM454.046 47.1893L454.054 47.2359L459.965 46.2062L459.957 46.1596L454.046 47.1893ZM456.492 43.766L449.38 45.0106L450.414 50.9208L457.527 49.6761L456.492 43.766Z" fill="#111111" mask="url(#path-35-inside-1_2188_24511)"></path><path d="M461.407 189.459C452.523 179.257 443.887 157.695 439.314 131.955C435.934 112.926 435.427 95.2892 437.345 82.294C438.298 75.8341 439.851 70.5202 441.948 66.7539" stroke="#111111" stroke-width="2" stroke-linecap="round"></path><path d="M450.046 129.061C443.038 89.6104 446.109 56.0982 456.906 54.2083C467.703 52.3194 482.137 82.7678 489.146 122.218C496.153 161.668 493.083 195.18 482.286 197.07C471.489 198.959 457.055 168.511 450.046 129.061Z" fill="#007456"></path></g><mask id="mask1_2188_24511" style="mask-type:alpha" maskUnits="userSpaceOnUse" x="446" y="54" width="47" height="144"><path d="M450.043 129.061C443.035 89.6104 446.105 56.0982 456.903 54.2083C467.7 52.3194 482.134 82.7679 489.142 122.218C496.151 161.668 493.079 195.18 482.282 197.07C471.486 198.959 457.051 168.511 450.043 129.061Z" fill="#007456"></path></mask><g mask="url(#mask1_2188_24511)"><path d="M442.809 161.129C425.358 161.129 411.21 147.087 411.21 129.766C411.21 112.444 425.358 98.4023 442.809 98.4023C460.261 98.4023 474.408 112.444 474.408 129.766C474.408 147.087 460.261 161.129 442.809 161.129Z" fill="#FFD75E" stroke="#111111" stroke-width="2"></path></g></svg>