<svg xmlns="http://www.w3.org/2000/svg" width="121" height="120" viewBox="0 0 121 120" fill="none"><path d="M62.9394 0H57.8262V17.4378H62.9394V0Z" fill="#FFD75E"></path><path d="M62.9394 102.562H57.8262V120H62.9394V102.562Z" fill="#FFD75E"></path><path d="M120.256 57.418H102.854V62.5416H120.256V57.418Z" fill="#FFD75E"></path><path d="M17.908 57.418H0.505859V62.5416H17.908V57.418Z" fill="#FFD75E"></path><path d="M100.897 15.7596L88.5918 28.0898L92.2073 31.7128L104.512 19.3825L100.897 15.7596Z" fill="#FFD75E"></path><path d="M28.5742 88.2769L16.2656 100.605L19.8807 104.229L32.1892 91.9009L28.5742 88.2769Z" fill="#FFD75E"></path><path d="M92.221 88.2638L88.6055 91.8867L100.911 104.217L104.526 100.594L92.221 88.2638Z" fill="#FFD75E"></path><path d="M19.8768 15.7588L16.2617 19.3828L28.5703 31.7113L32.1853 28.0874L19.8768 15.7588Z" fill="#FFD75E"></path><path d="M81.7756 3.89486L74.8809 19.9062L79.5758 21.9363L86.4706 5.92487L81.7756 3.89486Z" fill="#FFD75E"></path><path d="M41.2205 98.0568L34.3223 114.066L39.0167 116.097L45.9149 100.088L41.2205 98.0568Z" fill="#FFD75E"></path><path d="M100.38 74.5225L98.3535 79.2266L114.33 86.1372L116.357 81.4331L100.38 74.5225Z" fill="#FFD75E"></path><path d="M6.43015 33.854L4.4043 38.5586L20.383 45.4675L22.4089 40.7629L6.43015 33.854Z" fill="#FFD75E"></path><path d="M115.088 35.47L98.9141 41.9062L100.801 46.6682L116.975 40.2319L115.088 35.47Z" fill="#FFD75E"></path><path d="M19.939 73.3267L3.76367 79.7578L5.64941 84.5202L21.8247 78.0892L19.939 73.3267Z" fill="#FFD75E"></path><path d="M78.4285 98.6294L73.6758 100.52L80.0954 116.728L84.8482 114.838L78.4285 98.6294Z" fill="#FFD75E"></path><path d="M40.6579 3.27189L35.9062 5.16406L42.3329 21.369L47.0846 19.4768L40.6579 3.27189Z" fill="#FFD75E"></path></svg>