<svg xmlns="http://www.w3.org/2000/svg" width="1440" height="445" viewBox="0 0 1440 445" fill="none"><g opacity="0.25"><path d="M1440 20.3793V22.8958C1229.64 -47.5638 1088.68 76.5856 940.358 207.228C891.648 250.141 842.246 293.631 789.35 331.473C789.178 331.627 788.986 331.742 788.813 331.857C770.419 344.977 751.622 357.425 732.269 368.912C723.13 374.348 713.875 379.573 704.486 384.529C697.882 388.045 691.2 391.425 684.442 394.691C679.354 397.15 674.246 399.512 669.082 401.818C664.435 403.892 659.77 405.909 655.046 407.83C651.994 409.117 648.922 410.347 645.85 411.538C644.621 412.037 643.373 412.517 642.125 412.959C642.106 412.959 642.086 412.959 642.067 412.978C641.798 413.093 641.51 413.209 641.222 413.305C639.053 414.15 636.864 414.957 634.675 415.744C633.312 416.263 631.93 416.743 630.547 417.243C630.528 417.243 630.49 417.262 630.47 417.262C628.8 417.857 627.149 418.434 625.478 418.991C625.286 419.048 625.094 419.125 624.902 419.183C622.771 419.932 620.621 420.643 618.47 421.334C618.202 421.43 617.933 421.507 617.664 421.603C617.549 421.642 617.434 421.68 617.318 421.718C614.131 422.736 610.925 423.735 607.699 424.696C607.296 424.83 606.893 424.946 606.47 425.061C603.494 425.964 600.518 426.809 597.504 427.635C596.506 427.923 595.526 428.192 594.528 428.442C591.974 429.152 589.402 429.805 586.829 430.459C585.178 430.881 583.507 431.285 581.837 431.669C579.091 432.341 576.346 432.975 573.581 433.57C571.91 433.955 570.221 434.32 568.531 434.646C565.67 435.261 562.79 435.837 559.891 436.375C554.4 437.432 548.851 438.373 543.264 439.218C537.6 440.082 531.878 440.851 526.118 441.504C517.574 442.464 509.03 443.137 500.525 443.482C498.374 443.578 496.205 443.636 494.035 443.694C493.786 443.694 493.536 443.713 493.286 443.713C492.538 443.732 491.789 443.751 491.04 443.751H490.368C490.138 443.751 489.907 443.751 489.677 443.771H488.717C488.678 443.79 488.64 443.79 488.602 443.79C488.563 443.79 488.525 443.79 488.506 443.771C487.661 443.79 486.797 443.79 485.952 443.79C476.16 443.79 466.387 443.367 456.672 442.541C455.923 442.484 455.174 442.426 454.426 442.349C453.946 442.311 453.485 442.272 453.005 442.215C452.563 442.176 452.141 442.138 451.699 442.08C451.219 442.042 450.72 441.984 450.24 441.946C449.722 441.888 449.203 441.83 448.685 441.773C447.974 441.696 447.264 441.619 446.554 441.542C445.517 441.427 444.48 441.293 443.462 441.158C442.195 441.024 440.947 440.851 439.699 440.678C437.338 440.371 434.976 440.025 432.614 439.66C429.139 439.103 425.664 438.507 422.189 437.854C415.507 436.606 408.845 435.165 402.221 433.532C384.653 429.172 367.238 423.428 349.978 416.301C318.355 403.277 287.27 385.624 256.858 363.399C188.563 313.493 123.398 240.517 63.168 146.469C39.456 109.472 18.3936 72.0522 0 36.3614V31.1942C18.8736 68.0375 40.608 106.859 65.184 145.22C125.28 239 190.234 311.765 258.278 361.497C331.814 415.206 409.133 442.023 488.64 441.389C488.659 441.408 488.678 441.408 488.698 441.408H488.755C488.813 441.408 488.851 441.408 488.89 441.389H489.446C489.734 441.389 490.003 441.389 490.291 441.369H490.464C490.464 441.369 490.483 441.369 490.502 441.369C490.541 441.389 490.598 441.389 490.637 441.369H490.906C491.098 441.35 491.29 441.35 491.482 441.35C491.808 441.35 492.154 441.35 492.48 441.331C492.941 441.331 493.402 441.331 493.862 441.312C496.032 441.273 498.202 441.197 500.371 441.101C508.838 440.755 517.325 440.102 525.85 439.122C530.976 438.546 536.064 437.873 541.114 437.124C541.286 437.086 541.459 437.067 541.613 437.047C547.661 436.145 553.651 435.126 559.584 433.993C564.326 433.109 569.05 432.149 573.715 431.092C577.306 430.305 580.858 429.479 584.41 428.576C588.365 427.616 592.301 426.598 596.198 425.503C596.294 425.483 596.371 425.464 596.467 425.445C599.904 424.504 603.302 423.524 606.701 422.487C610.042 421.507 613.363 420.47 616.666 419.413C616.723 419.413 616.781 419.394 616.819 419.356C619.891 418.376 622.944 417.358 625.978 416.301C628.762 415.341 631.526 414.361 634.272 413.343C636.365 412.594 638.438 411.826 640.512 411.019C642.048 410.443 643.565 409.866 645.082 409.271C757.037 365.531 849.062 284.468 938.784 205.441C1087.53 74.4342 1228.88 -50.061 1440 20.3793Z" fill="#F9F9F9"></path><path d="M1440 33.7294V36.265C1238.88 -28.7968 1094.23 90.5696 942.067 216.102C890.15 258.939 837.523 302.352 781.478 339.675C762.624 352.238 743.386 364.109 723.667 375.039C713.798 380.495 703.814 385.72 693.696 390.657C687.014 393.941 680.275 397.092 673.459 400.127C667.968 402.566 662.419 404.948 656.832 407.215C653.184 408.713 649.536 410.154 645.85 411.537C644.621 412.037 643.373 412.517 642.125 412.959C642.106 412.959 642.086 412.959 642.067 412.978C641.798 413.093 641.51 413.208 641.222 413.304C637.363 414.764 633.485 416.147 629.568 417.511C629.453 417.55 629.318 417.588 629.203 417.626C628.781 417.78 628.339 417.934 627.917 418.068C626.074 418.702 624.23 419.298 622.387 419.912C620.448 420.565 618.509 421.199 616.57 421.795C616.512 421.833 616.454 421.852 616.378 421.872C616.358 421.872 616.339 421.891 616.32 421.872C613.69 422.717 611.04 423.543 608.39 424.311C606.778 424.811 605.165 425.291 603.552 425.733C601.92 426.213 600.288 426.674 598.637 427.135C596.256 427.788 593.856 428.441 591.456 429.075C590.285 429.363 589.114 429.671 587.942 429.959C584.659 430.804 581.338 431.592 578.016 432.341C577.421 432.494 576.845 432.629 576.25 432.763C572.294 433.666 568.32 434.511 564.307 435.299C563.77 435.414 563.232 435.51 562.694 435.606C557.376 436.663 552 437.623 546.586 438.488C546.528 438.488 546.47 438.507 546.413 438.507C539.155 439.679 531.821 440.678 524.41 441.484C523.603 441.6 522.797 441.696 521.99 441.772C516.883 442.31 511.757 442.752 506.669 443.079C503.136 443.309 499.622 443.482 496.109 443.597C495.802 443.616 495.514 443.617 495.226 443.636C494.573 443.674 493.939 443.693 493.286 443.713C492.538 443.732 491.789 443.751 491.04 443.751H490.752C490.541 443.77 490.33 443.77 490.138 443.77C490.099 443.789 490.08 443.789 490.061 443.789C489.773 443.809 489.485 443.809 489.197 443.809H488.333C488.218 443.828 488.102 443.828 488.006 443.828C487.872 443.828 487.757 443.847 487.642 443.828C487.584 443.828 487.526 443.847 487.469 443.828H487.162C487.123 443.828 487.085 443.847 487.046 443.847C487.008 443.847 486.989 443.828 486.95 443.828C486.854 443.828 486.758 443.847 486.662 443.847H486.394C486.374 443.866 486.355 443.847 486.355 443.847C485.165 443.866 483.974 443.866 482.784 443.866C472.224 443.866 461.702 443.405 451.219 442.464C450.605 442.445 449.99 442.387 449.376 442.291C448.819 442.272 448.282 442.214 447.725 442.137C447.206 442.118 446.688 442.061 446.17 442.003H446.112C445.536 441.945 444.96 441.888 444.384 441.811C443.674 441.753 442.944 441.676 442.234 441.561C441.139 441.465 440.064 441.331 438.97 441.196C438.95 441.215 438.912 441.215 438.893 441.196C437.587 441.042 436.262 440.87 434.957 440.677C432.883 440.409 430.81 440.12 428.736 439.794C425.011 439.237 421.267 438.622 417.542 437.931C411.091 436.759 404.64 435.395 398.208 433.839C398.189 433.82 398.17 433.82 398.131 433.82C380.467 429.613 362.957 424.061 345.6 417.165H345.581C314.938 405.006 284.794 388.716 255.264 368.297C187.488 321.503 122.726 253.118 62.7648 165.005C39.2448 130.448 18.2976 95.5063 0 62.1591V57.2223C18.7584 91.6453 40.3776 127.893 64.7616 163.718C124.57 251.562 189.12 319.736 256.627 366.357C287.136 387.429 318.298 404.103 349.978 416.301C394.925 433.666 440.909 442.061 487.622 441.427C487.642 441.446 487.661 441.446 487.68 441.446H487.699C487.718 441.446 487.738 441.446 487.757 441.427H488.198C488.314 441.427 488.41 441.427 488.525 441.407H488.986C489.043 441.407 489.101 441.407 489.178 441.388H489.446C489.734 441.388 490.003 441.388 490.291 441.369H490.464C490.464 441.369 490.483 441.369 490.502 441.369C490.541 441.388 490.598 441.388 490.637 441.369H490.906C491.098 441.35 491.29 441.35 491.482 441.35C491.808 441.35 492.154 441.35 492.48 441.331C493.536 441.311 494.592 441.273 495.648 441.235C495.763 441.215 495.878 441.215 495.974 441.215C499.526 441.1 503.078 440.908 506.63 440.677C506.784 440.677 506.938 440.658 507.091 440.658C511.488 440.37 515.885 439.986 520.282 439.525C520.762 439.487 521.261 439.448 521.741 439.391C522.317 439.333 522.874 439.275 523.45 439.198C531.13 438.353 538.733 437.316 546.259 436.106H546.317C551.731 435.241 557.126 434.281 562.464 433.205C566.957 432.341 571.411 431.399 575.846 430.401C579.36 429.594 582.874 428.768 586.349 427.884C590.362 426.885 594.355 425.829 598.33 424.734C601.171 423.946 603.994 423.139 606.797 422.294C610.08 421.334 613.344 420.335 616.589 419.278C616.781 419.221 616.973 419.163 617.146 419.105C618.528 418.664 619.93 418.222 621.312 417.742C623.251 417.108 625.171 416.474 627.072 415.821C631.584 414.284 636.058 412.67 640.512 411.018C642.048 410.442 643.565 409.866 645.082 409.27C696.096 389.735 743.52 362.707 788.813 331.857C788.986 331.742 789.178 331.627 789.35 331.473C841.901 295.667 891.552 254.693 940.55 214.258C1093.09 88.3989 1238.13 -31.2748 1440 33.7294Z" fill="#F9F9F9"></path><path d="M1440 47.1357V49.6521C1247.71 -10.0311 1099.55 104.514 943.776 224.917C888.826 267.408 833.05 310.514 774.086 347.146C774.029 347.184 773.952 347.223 773.875 347.261C754.042 359.613 733.824 371.196 713.165 381.761C703.315 386.813 693.35 391.634 683.27 396.187C676.051 399.472 668.774 402.603 661.421 405.6C655.738 407.924 650.016 410.152 644.237 412.284C641.069 413.475 637.882 414.628 634.675 415.742C632.966 416.357 631.277 416.933 629.568 417.509C629.549 417.529 629.549 417.529 629.53 417.529C628.992 417.721 628.454 417.894 627.917 418.066C626.074 418.7 624.23 419.296 622.387 419.911C620.102 420.66 617.818 421.37 615.514 422.081C613.248 422.792 610.982 423.483 608.698 424.156C606.912 424.674 605.126 425.174 603.322 425.693C602.861 425.846 602.381 425.981 601.92 426.096C601.651 426.192 601.363 426.269 601.094 426.346C600.25 426.576 599.424 426.807 598.579 427.018C595.718 427.806 592.838 428.574 589.958 429.304C589.536 429.419 589.094 429.515 588.653 429.63C588.538 429.669 588.422 429.688 588.307 429.707C585.293 430.495 582.259 431.225 579.206 431.916C578.381 432.108 577.555 432.301 576.73 432.473C576.192 432.608 575.635 432.742 575.078 432.858C571.949 433.549 568.8 434.221 565.632 434.855C564.038 435.182 562.445 435.508 560.851 435.797C557.453 436.45 554.035 437.064 550.618 437.641C543.84 438.793 537.024 439.811 530.131 440.656C526.061 441.175 521.971 441.636 517.862 442.04C511.488 442.673 505.094 443.134 498.739 443.442C498.566 443.461 498.413 443.461 498.259 443.461C495.84 443.596 493.44 443.692 491.04 443.749H490.752C490.541 443.768 490.33 443.768 490.138 443.768C490.099 443.788 490.08 443.788 490.061 443.788C489.773 443.807 489.485 443.807 489.197 443.807C488.794 443.807 488.39 443.826 488.006 443.826C487.872 443.826 487.757 443.845 487.642 443.826C487.584 443.826 487.526 443.845 487.469 443.826C487.354 443.845 487.258 443.864 487.162 443.845H486.547C486.528 443.864 486.49 443.864 486.451 443.864C486.432 443.864 486.413 443.864 486.394 443.845C486.374 443.864 486.355 443.845 486.355 443.845C484.128 443.903 481.901 443.922 479.674 443.922C468.23 443.922 456.845 443.403 445.498 442.385C444.768 442.328 444.058 442.251 443.347 442.193C442.848 442.136 442.349 442.097 441.85 442.04C441.254 441.982 440.659 441.924 440.064 441.848C439.296 441.771 438.509 441.694 437.741 441.598C436.704 441.483 435.648 441.367 434.592 441.233C433.21 441.079 431.846 440.906 430.464 440.714C428.237 440.445 426.029 440.119 423.821 439.792C420.384 439.293 416.966 438.736 413.53 438.121C406.541 436.892 399.552 435.47 392.602 433.818C375.821 429.919 359.155 424.847 342.643 418.604C312.499 407.29 282.797 392.134 253.67 373.213C186.432 329.512 122.074 265.718 62.3808 183.56C39.0336 151.423 18.2208 118.921 0 87.917V83.2491C18.6624 115.232 40.1472 148.926 64.3392 182.215C123.84 264.104 187.987 327.706 254.976 371.215C284.621 390.482 314.861 405.811 345.581 417.164H345.6C364.301 424.098 383.194 429.554 402.221 433.53C429.754 439.273 457.632 441.944 485.741 441.483C486.029 441.483 486.298 441.483 486.586 441.463H486.95C487.046 441.463 487.162 441.463 487.258 441.444H487.565C487.603 441.463 487.642 441.463 487.68 441.444H487.699C488.179 441.444 488.64 441.425 489.139 441.425C489.408 441.425 489.658 441.425 489.926 441.406C490.099 441.406 490.291 441.386 490.464 441.367C490.464 441.367 490.483 441.367 490.502 441.367C490.541 441.386 490.598 441.386 490.637 441.367H490.906C491.098 441.348 491.29 441.348 491.482 441.348C493.69 441.29 495.898 441.194 498.106 441.079C498.278 441.079 498.451 441.079 498.605 441.06C504.941 440.753 511.277 440.292 517.632 439.658C521.51 439.273 525.389 438.851 529.229 438.351C536.141 437.506 542.995 436.507 549.792 435.355C554.688 434.548 559.565 433.645 564.403 432.665C569.03 431.743 573.638 430.764 578.208 429.707C578.227 429.707 578.266 429.707 578.285 429.688C581.626 428.92 584.947 428.113 588.269 427.248C591.571 426.442 594.874 425.558 598.157 424.655C598.963 424.444 599.75 424.233 600.557 424.002C603.533 423.176 606.49 422.312 609.446 421.428C611.174 420.929 612.902 420.41 614.63 419.872C616.858 419.161 619.085 418.47 621.312 417.74C623.251 417.106 625.171 416.472 627.072 415.819C629.491 415.031 631.891 414.205 634.272 413.341C668.179 401.431 700.723 386.275 732.269 368.91C748.934 359.728 765.331 349.95 781.478 339.673C837.178 304.328 890.112 263.394 942.317 223.035C1098.47 102.343 1247 -12.4899 1440 47.1357Z" fill="#F9F9F9"></path><path d="M1440 60.6053V63.1409C1256.16 8.7403 1104.67 118.464 945.504 233.719C887.309 275.864 828.211 318.643 766.176 354.526C745.747 366.378 724.992 377.462 703.834 387.508C693.408 392.464 682.906 397.171 672.288 401.589C664.781 404.739 657.216 407.736 649.594 410.56C643.834 412.73 638.035 414.786 632.198 416.764C632.141 416.783 632.083 416.803 632.026 416.822C629.856 417.552 627.667 418.282 625.478 418.992C625.286 419.05 625.094 419.127 624.902 419.184C622.138 420.068 619.354 420.952 616.57 421.797C616.512 421.835 616.454 421.855 616.378 421.874C616.358 421.874 616.339 421.893 616.32 421.874C613.786 422.661 611.251 423.411 608.698 424.16C606.912 424.678 605.126 425.178 603.322 425.696C602.611 425.889 601.901 426.081 601.19 426.273C599.578 426.734 597.946 427.156 596.314 427.598C594.682 428.04 593.05 428.463 591.418 428.866C591.13 428.943 590.842 429.02 590.554 429.077C589.421 429.365 588.288 429.654 587.136 429.922C587.021 429.961 586.906 429.98 586.81 429.999C585.926 430.23 585.024 430.441 584.122 430.652C583.238 430.883 582.336 431.094 581.434 431.306C580.128 431.613 578.822 431.92 577.498 432.189C576 432.554 574.483 432.881 572.966 433.207C570.874 433.668 568.781 434.11 566.669 434.533C566.573 434.552 566.477 434.571 566.381 434.59C563.693 435.147 560.986 435.666 558.278 436.165C556.877 436.434 555.456 436.684 554.035 436.915C547.718 438.048 541.344 439.047 534.931 439.911C527.923 440.872 520.858 441.659 513.734 442.312C507.034 442.908 500.352 443.35 493.67 443.619C493.459 443.638 493.267 443.638 493.056 443.657C492.346 443.695 491.654 443.715 490.944 443.753H490.368C490.291 443.753 490.214 443.753 490.138 443.772H489.254C488.947 443.792 488.64 443.811 488.333 443.811C488.218 443.83 488.102 443.83 488.006 443.83C487.872 443.83 487.757 443.849 487.642 443.83C487.584 443.83 487.526 443.849 487.469 443.83C487.354 443.849 487.258 443.868 487.162 443.849H487.046C486.854 443.868 486.643 443.868 486.451 443.868C486.259 443.868 486.086 443.888 485.894 443.888H485.626C485.472 443.907 485.299 443.907 485.146 443.907H485.03C482.246 443.964 479.443 443.984 476.659 443.984C464.275 443.984 451.949 443.427 439.68 442.274C438.989 442.216 438.317 442.159 437.626 442.082C436.992 442.024 436.378 441.967 435.744 441.89C434.842 441.813 433.958 441.717 433.056 441.621C432.134 441.525 431.213 441.41 430.272 441.294C428.736 441.121 427.181 440.929 425.645 440.737C423.418 440.449 421.171 440.142 418.944 439.834C415.43 439.316 411.917 438.759 408.422 438.144C401.914 437.03 395.405 435.762 388.934 434.302C372.23 430.595 355.661 425.812 339.206 419.934C309.696 409.426 280.627 395.48 252.077 378.115C185.357 337.526 121.402 278.323 61.9968 202.139C38.8032 172.384 18.1056 142.321 0 113.642V109.185C18.5664 138.768 39.8784 169.906 63.8976 200.698C123.13 276.652 186.874 335.663 253.325 376.098C282.566 393.886 312.384 408.062 342.643 418.608C360.979 425.024 379.488 430.095 398.131 433.822C398.17 433.822 398.189 433.822 398.208 433.841C406.176 435.416 414.163 436.78 422.189 437.856C441.754 440.564 461.453 441.813 481.267 441.582C481.901 441.602 482.515 441.583 483.13 441.544C483.878 441.544 484.646 441.525 485.395 441.506C485.414 441.525 485.434 441.525 485.434 441.506C485.472 441.525 485.53 441.525 485.568 441.506C485.683 441.525 485.798 441.506 485.894 441.506C486.182 441.486 486.451 441.486 486.72 441.467H487.392C487.45 441.467 487.507 441.467 487.565 441.448C487.603 441.467 487.642 441.467 487.68 441.448H487.699C487.834 441.448 487.949 441.448 488.083 441.429H488.198C488.352 441.429 488.525 441.429 488.678 441.41H488.986C489.139 441.41 489.293 441.41 489.446 441.39C489.734 441.39 490.003 441.39 490.291 441.371H490.464C490.464 441.371 490.483 441.371 490.502 441.371C490.541 441.39 490.598 441.39 490.637 441.371C491.405 441.333 492.173 441.314 492.941 441.275C493.133 441.275 493.306 441.256 493.498 441.237C500.16 440.968 506.822 440.526 513.504 439.931C520.166 439.316 526.79 438.586 533.376 437.683C538.195 437.068 542.995 436.358 547.757 435.551C548.966 435.359 550.157 435.167 551.366 434.955C554.246 434.456 557.126 433.937 559.987 433.38C561.466 433.111 562.944 432.823 564.403 432.535C567.456 431.939 570.49 431.306 573.523 430.614C574.464 430.422 575.424 430.211 576.384 429.98C576.403 429.98 576.442 429.98 576.461 429.961C576.73 429.903 576.998 429.846 577.267 429.788C578.515 429.538 579.744 429.25 580.973 428.962C581.664 428.789 582.374 428.616 583.066 428.443C583.258 428.405 583.469 428.347 583.68 428.309C585.85 427.79 588.019 427.272 590.17 426.715C596.64 425.063 603.072 423.315 609.446 421.432C611.174 420.933 612.902 420.414 614.63 419.876C615.283 419.684 615.936 419.492 616.589 419.281C616.781 419.223 616.973 419.165 617.146 419.108C620.102 418.205 623.04 417.264 625.978 416.303C652.8 407.524 678.931 396.767 704.486 384.531C710.918 381.457 717.312 378.288 723.667 375.042C740.64 366.359 757.363 357.043 773.875 347.265C773.952 347.227 774.029 347.188 774.086 347.15C832.742 312.439 888.806 271.811 944.102 231.779C1103.62 116.274 1255.45 6.30071 1440 60.6053Z" fill="#F9F9F9"></path><path d="M1440 74.1451V76.6615C1264.15 27.5051 1109.57 132.368 947.251 242.457C885.946 284.045 823.68 326.267 758.803 361.266C758.784 361.285 758.784 361.285 758.765 361.285C737.568 372.734 716.064 383.414 694.234 393.019C683.232 397.879 672.154 402.47 660.96 406.753C653.28 409.692 645.562 412.497 637.786 415.129C637.766 415.129 637.747 415.148 637.709 415.148C631.526 417.261 625.306 419.278 619.066 421.18C619.027 421.199 618.97 421.199 618.931 421.218C618.509 421.353 618.086 421.487 617.664 421.602C617.549 421.641 617.434 421.679 617.318 421.717C614.362 422.601 611.386 423.485 608.39 424.311C606.317 424.925 604.224 425.502 602.131 426.059L601.094 426.347C600.25 426.577 599.424 426.808 598.579 427.019C597.83 427.211 597.082 427.423 596.314 427.596C594.682 428.037 593.05 428.46 591.418 428.863C591.13 428.94 590.842 429.017 590.554 429.075C589.421 429.363 588.288 429.651 587.136 429.92C587.021 429.958 586.906 429.977 586.81 429.997C585.926 430.227 585.024 430.438 584.122 430.65C580.013 431.629 575.866 432.552 571.718 433.416C571.162 433.55 570.586 433.666 570.029 433.781C569.28 433.935 568.512 434.088 567.744 434.242C566.342 434.53 564.941 434.818 563.52 435.068C561.984 435.375 560.448 435.663 558.912 435.932C558.298 436.048 557.702 436.163 557.088 436.278C556.742 436.355 556.416 436.413 556.07 436.47C555.61 436.566 555.149 436.643 554.688 436.72C553.421 436.95 552.134 437.162 550.867 437.373C546.893 438.045 542.899 438.679 538.886 439.256C537.197 439.505 535.507 439.717 533.818 439.947C533.779 439.947 533.76 439.947 533.722 439.966C525.734 441.042 517.69 441.906 509.587 442.579C508.186 442.694 506.803 442.809 505.402 442.905C502.31 443.136 499.219 443.328 496.128 443.482C494.208 443.578 492.288 443.654 490.368 443.751C490.138 443.751 489.907 443.751 489.677 443.77H489.254C489.043 443.789 488.813 443.789 488.602 443.789C488.506 443.808 488.429 443.808 488.333 443.808C488.218 443.827 488.102 443.827 488.006 443.827C487.872 443.827 487.757 443.847 487.642 443.827C487.584 443.827 487.526 443.847 487.469 443.827C487.354 443.847 487.258 443.866 487.162 443.847H487.046C486.854 443.866 486.643 443.866 486.451 443.866C486.259 443.866 486.086 443.885 485.894 443.885H485.626C485.472 443.904 485.299 443.904 485.146 443.904H485.03C484.243 443.923 483.456 443.943 482.688 443.962C479.693 444.019 476.717 444.058 473.741 444.058C460.205 444.058 446.746 443.424 433.325 442.137C432.48 442.06 431.654 441.983 430.81 441.906C430.771 441.906 430.752 441.906 430.714 441.887C429.984 441.81 429.254 441.753 428.525 441.657C427.373 441.541 426.202 441.407 425.05 441.272C423.667 441.119 422.304 440.965 420.941 440.773C418.637 440.504 416.333 440.197 414.048 439.87C410.438 439.371 406.848 438.814 403.258 438.218C403.2 438.218 403.142 438.218 403.104 438.199C396.806 437.142 390.547 435.932 384.288 434.588C384.211 434.569 384.115 434.568 384.019 434.549C367.699 431.053 351.514 426.616 335.443 421.18C306.682 411.517 278.342 398.782 250.483 383.011C184.282 345.534 120.749 290.922 61.6128 220.693C38.592 193.339 18.0288 165.716 0 139.341V135.135C18.4512 162.316 39.648 190.918 63.456 219.194C122.419 289.212 185.741 343.632 251.674 380.955C280.358 397.187 309.562 410.192 339.206 419.931C356.851 425.713 374.669 430.362 392.602 433.819C400.877 435.452 409.21 436.816 417.542 437.93C422.554 438.602 427.584 439.179 432.614 439.659C448.742 441.234 464.966 441.887 481.267 441.58C481.901 441.599 482.515 441.58 483.13 441.541C484.013 441.541 484.877 441.522 485.741 441.484C486.029 441.484 486.298 441.484 486.586 441.465H486.95C487.046 441.465 487.162 441.465 487.258 441.445C487.392 441.445 487.507 441.445 487.622 441.426C487.642 441.445 487.661 441.445 487.68 441.445H487.699C487.718 441.445 487.738 441.445 487.757 441.426C488.064 441.426 488.352 441.407 488.64 441.388C488.659 441.407 488.678 441.407 488.698 441.407H488.755C488.813 441.407 488.851 441.407 488.89 441.388H489.178C489.331 441.388 489.485 441.369 489.638 441.369C489.888 441.369 490.138 441.349 490.406 441.33H490.618C491.136 441.311 491.654 441.272 492.173 441.253H492.499C493.766 441.196 495.034 441.138 496.301 441.061C497.645 440.984 498.989 440.927 500.333 440.85C501.677 440.773 503.002 440.677 504.346 440.581C504.653 440.562 504.979 440.543 505.286 440.523C506.669 440.427 508.032 440.312 509.395 440.197C517.382 439.544 525.293 438.679 533.165 437.642C533.299 437.623 533.434 437.604 533.568 437.584C535.123 437.373 536.698 437.162 538.253 436.931C542.918 436.278 547.565 435.529 552.192 434.741C553.325 434.549 554.438 434.357 555.552 434.146C558.547 433.608 561.523 433.051 564.499 432.455C566.554 432.052 568.627 431.629 570.682 431.207C572.582 430.803 574.483 430.4 576.384 429.977C576.403 429.977 576.442 429.977 576.461 429.958C576.749 429.92 576.998 429.862 577.267 429.785C579.206 429.344 581.126 428.902 583.066 428.441C583.258 428.402 583.469 428.345 583.68 428.306C585.85 427.788 588.019 427.269 590.17 426.712C592.838 426.059 595.507 425.367 598.157 424.656C598.963 424.445 599.75 424.234 600.557 424.003C602.65 423.466 604.723 422.889 606.797 422.294C610.099 421.372 613.402 420.411 616.666 419.412C616.723 419.412 616.781 419.393 616.819 419.355C639.744 412.459 662.266 404.122 684.442 394.69C687.533 393.365 690.624 392.039 693.696 390.656C700.205 387.794 706.694 384.817 713.165 381.762C731.04 373.291 748.704 364.167 766.176 354.523C827.904 320.523 887.347 280.203 945.926 240.478C1108.57 130.159 1263.48 25.1039 1440 74.1451Z" fill="#F9F9F9"></path><path d="M1440 87.7645V90.2809C1271.65 46.2917 1114.23 146.257 949.037 251.139C884.582 292.074 819.091 333.662 751.43 367.682C729.101 378.919 706.522 389.331 683.654 398.628C672.422 403.2 661.114 407.483 649.747 411.479C641.626 414.341 633.466 417.03 625.248 419.547C619.43 421.372 613.574 423.081 607.699 424.695C607.046 424.887 606.413 425.06 605.779 425.233C603.398 425.886 601.018 426.52 598.637 427.134C595.757 427.884 592.858 428.614 589.958 429.305C589.536 429.42 589.094 429.516 588.653 429.632C588.538 429.67 588.422 429.689 588.307 429.708C588.25 429.728 588.211 429.728 588.173 429.728C588 429.766 587.827 429.805 587.654 429.843C585.6 430.362 583.526 430.842 581.434 431.303C580.128 431.61 578.822 431.918 577.498 432.186C575.77 432.571 574.042 432.955 572.314 433.32C572.275 433.32 572.237 433.339 572.198 433.339C571.469 433.493 570.758 433.627 570.029 433.781C569.28 433.935 568.512 434.088 567.744 434.242C566.342 434.53 564.941 434.818 563.52 435.068C561.984 435.375 560.448 435.663 558.912 435.932C558.298 436.048 557.702 436.163 557.088 436.278C556.627 436.355 556.186 436.432 555.725 436.509C551.462 437.277 547.181 437.968 542.88 438.622C542.726 438.66 542.573 438.679 542.419 438.698C540.499 438.987 538.56 439.256 536.64 439.505C535.277 439.717 533.914 439.889 532.55 440.062C531.763 440.178 530.976 440.274 530.208 440.37C529.574 440.446 528.941 440.523 528.307 440.6C527.002 440.754 525.677 440.908 524.352 441.061C523.949 441.1 523.546 441.157 523.142 441.196C522.355 441.292 521.587 441.388 520.8 441.465C520.627 441.484 520.454 441.503 520.262 441.522C518.669 441.695 517.075 441.849 515.482 441.983C513.638 442.175 511.795 442.348 509.933 442.483C509.549 442.521 509.146 442.559 508.762 442.579C508.704 442.579 508.666 442.598 508.608 442.598C507.898 442.656 507.187 442.713 506.477 442.771C505.824 442.809 505.171 442.867 504.538 442.905C503.674 442.963 502.81 443.021 501.946 443.078C501.811 443.078 501.658 443.097 501.523 443.097C501.466 443.117 501.389 443.136 501.331 443.117C501.274 443.136 501.197 443.136 501.139 443.136C499.834 443.232 498.509 443.309 497.203 443.385C495.629 443.482 494.074 443.558 492.499 443.616C491.251 443.674 489.984 443.731 488.717 443.77C488.678 443.789 488.64 443.789 488.602 443.789C488.563 443.789 488.525 443.789 488.506 443.77C488.083 443.808 487.68 443.827 487.277 443.827H487.162C487.123 443.827 487.085 443.846 487.046 443.846C487.008 443.846 486.989 443.827 486.95 443.827C486.874 443.847 486.816 443.846 486.739 443.846H486.547C486.528 443.866 486.49 443.866 486.451 443.866C486.432 443.866 486.413 443.866 486.394 443.846C486.374 443.866 486.355 443.846 486.355 443.846C486.106 443.866 485.875 443.885 485.626 443.885C485.472 443.904 485.299 443.904 485.146 443.904H485.03C484.646 443.923 484.262 443.943 483.878 443.943C483.475 443.943 483.072 443.962 482.688 443.962C481.651 444 480.595 444.019 479.558 444.039C476.698 444.096 473.818 444.115 470.957 444.115C456.038 444.115 441.178 443.385 426.394 441.945C425.491 441.868 424.589 441.772 423.686 441.657C422.611 441.561 421.517 441.445 420.442 441.311C418.81 441.157 417.178 440.965 415.565 440.754C413.51 440.504 411.475 440.254 409.44 439.966C405.85 439.486 402.278 438.967 398.707 438.372C392.026 437.315 385.363 436.105 378.701 434.741C362.803 431.476 347.002 427.346 331.315 422.39C303.437 413.573 275.942 402.086 248.89 387.928C183.226 353.544 120.077 303.523 61.2288 239.249C38.3808 214.296 17.9328 189.074 0 164.986V160.99C18.3552 185.789 39.3984 211.876 63.0336 237.693C121.69 301.756 184.608 351.604 250.022 385.815C278.035 400.472 306.547 412.286 335.443 421.18C353.126 426.654 370.963 431.015 388.934 434.299C397.114 435.798 405.312 437.085 413.53 438.122C418.598 438.775 423.648 439.332 428.736 439.793C432.384 440.139 436.032 440.427 439.699 440.677C452.928 441.58 466.195 441.906 479.501 441.676C481.248 441.657 482.976 441.599 484.723 441.541C484.954 441.541 485.184 441.522 485.395 441.503C485.414 441.522 485.434 441.522 485.434 441.503C485.472 441.522 485.53 441.522 485.568 441.503C485.683 441.522 485.798 441.503 485.894 441.503C486.125 441.503 486.355 441.484 486.586 441.465H486.95C487.046 441.465 487.162 441.465 487.258 441.445H487.565C487.603 441.465 487.642 441.465 487.68 441.445H487.699C487.834 441.445 487.949 441.445 488.083 441.426H488.198C488.314 441.426 488.41 441.426 488.525 441.407H488.698C488.774 441.407 488.832 441.407 488.89 441.388H489.178C489.331 441.388 489.485 441.369 489.638 441.369C489.888 441.369 490.138 441.349 490.406 441.33H490.618C491.136 441.311 491.654 441.272 492.173 441.253H492.499C492.653 441.234 492.787 441.234 492.941 441.215C493.651 441.176 494.342 441.157 495.053 441.1C495.59 441.08 496.128 441.061 496.685 441.023C496.819 441.023 496.934 441.004 497.069 441.004C497.203 441.004 497.338 440.984 497.472 440.984C498.682 440.907 499.91 440.831 501.12 440.735H501.216C501.485 440.715 501.734 440.696 502.003 440.677C502.79 440.619 503.597 440.581 504.384 440.523C504.691 440.504 504.979 440.485 505.286 440.466C505.747 440.427 506.208 440.389 506.669 440.35L508.051 440.235C508.224 440.235 508.397 440.235 508.57 440.197H508.666L509.03 440.158C509.146 440.158 509.242 440.158 509.357 440.139C510.662 440.043 511.968 439.928 513.293 439.793C513.734 439.755 514.176 439.717 514.618 439.678C514.886 439.659 515.174 439.62 515.443 439.582C515.462 439.582 515.462 439.582 515.482 439.582C516.403 439.505 517.325 439.39 518.246 439.313C519.744 439.159 521.203 439.025 522.682 438.833C524.717 438.622 526.752 438.391 528.787 438.141C530.323 437.949 531.859 437.757 533.395 437.546C534.355 437.431 535.296 437.296 536.237 437.162C537.696 436.97 539.155 436.758 540.595 436.547C541.632 436.413 542.65 436.259 543.686 436.086C545.741 435.779 547.795 435.452 549.83 435.106C554.726 434.28 559.622 433.397 564.499 432.455C566.554 432.052 568.627 431.629 570.682 431.207C571.622 431.015 572.563 430.823 573.523 430.611C574.464 430.419 575.424 430.208 576.384 429.977C576.403 429.977 576.442 429.977 576.461 429.958C576.749 429.92 576.998 429.862 577.267 429.785C578.515 429.536 579.744 429.247 580.973 428.959C583.411 428.421 585.85 427.845 588.269 427.25C591.629 426.462 594.989 425.617 598.33 424.733C601.133 424.023 603.917 423.273 606.701 422.486C627.744 416.704 648.538 409.731 669.082 401.817C670.541 401.26 672 400.703 673.459 400.126C676.742 398.839 680.006 397.533 683.27 396.188C690.144 393.403 697.018 390.502 703.834 387.506C722.304 379.399 740.602 370.602 758.765 361.285C758.784 361.285 758.784 361.285 758.803 361.266C823.392 328.111 886.042 288.348 947.75 249.141C1113.25 144.028 1271.02 43.8713 1440 87.7645Z" fill="#F9F9F9"></path><path d="M1440 101.5V103.998C1278.68 65.0029 1118.65 160.089 950.842 259.804C883.219 299.971 814.483 340.829 744.077 373.811C720.941 384.645 697.613 394.634 674.074 403.489C674.054 403.489 674.016 403.489 673.997 403.508C662.189 407.946 650.342 412.095 638.419 415.918C630.048 418.607 621.658 421.123 613.229 423.467C608.006 424.927 602.765 426.329 597.504 427.635C595.891 428.058 594.259 428.461 592.627 428.826C591.072 429.23 589.498 429.595 587.942 429.96C585.024 430.651 582.125 431.304 579.206 431.919C578.381 432.111 577.555 432.303 576.73 432.476C575.904 432.649 575.078 432.822 574.253 432.995C571.718 433.533 569.203 434.032 566.669 434.531C566.573 434.551 566.477 434.57 566.381 434.589C563.098 435.223 559.795 435.838 556.512 436.414C555.898 436.529 555.283 436.625 554.688 436.721C553.421 436.952 552.134 437.163 550.867 437.374C548.198 437.816 545.549 438.239 542.88 438.623C542.726 438.661 542.573 438.681 542.419 438.7C540.499 438.988 538.56 439.257 536.64 439.507C535.277 439.718 533.914 439.891 532.55 440.064C531.763 440.179 530.976 440.275 530.208 440.371C529.574 440.448 528.941 440.525 528.307 440.602C527.002 440.755 525.677 440.909 524.352 441.063C523.949 441.101 523.546 441.159 523.142 441.197C518.746 441.677 514.349 442.1 509.933 442.484C509.549 442.522 509.146 442.561 508.762 442.58C508.704 442.58 508.666 442.599 508.608 442.599C508.378 442.618 508.128 442.638 507.898 442.638C505.766 442.811 503.654 442.964 501.523 443.099C501.466 443.118 501.389 443.137 501.331 443.118C501.274 443.137 501.197 443.137 501.139 443.137C496.992 443.387 492.845 443.617 488.717 443.771C488.678 443.79 488.64 443.79 488.602 443.79C488.563 443.79 488.525 443.79 488.506 443.771C488.083 443.809 487.68 443.829 487.277 443.829H487.162C487.123 443.829 487.085 443.848 487.046 443.848C487.008 443.848 486.989 443.829 486.95 443.829C486.874 443.848 486.816 443.848 486.739 443.848H486.394C486.221 443.867 486.048 443.886 485.894 443.886H485.626C485.472 443.906 485.299 443.905 485.146 443.905H485.03C484.646 443.925 484.262 443.944 483.878 443.944C483.149 443.982 482.438 444.002 481.728 444.021C480.998 444.021 480.269 444.04 479.558 444.04C475.814 444.155 472.07 444.194 468.346 444.194C451.738 444.194 435.206 443.368 418.771 441.696C417.619 441.6 416.486 441.485 415.334 441.331C413.798 441.197 412.262 441.024 410.726 440.832C408.384 440.563 406.022 440.275 403.68 439.968C400.397 439.526 397.114 439.065 393.83 438.546C387.437 437.586 381.062 436.491 374.707 435.242C359.002 432.226 343.373 428.442 327.859 423.87C300.653 415.879 273.773 405.525 247.296 392.828C182.17 361.575 119.424 316.145 60.8448 257.806C38.1504 235.216 17.8368 212.396 0 190.612V186.847C18.24 209.264 39.1296 232.834 62.5728 256.173C120.96 314.301 183.475 359.558 248.371 390.696C275.597 403.758 303.264 414.323 331.315 422.391C348.749 427.424 366.336 431.477 384.019 434.551C384.115 434.57 384.211 434.57 384.288 434.589C392.314 435.991 400.358 437.163 408.422 438.143C413.549 438.796 418.675 439.334 423.821 439.795C427.526 440.141 431.232 440.429 434.957 440.678C437.779 440.87 440.621 441.043 443.462 441.159C455.424 441.792 467.443 441.965 479.501 441.677C481.248 441.658 482.976 441.6 484.723 441.543C484.954 441.543 485.184 441.524 485.395 441.504C485.414 441.524 485.434 441.524 485.434 441.504C485.472 441.524 485.53 441.524 485.568 441.504C485.683 441.524 485.798 441.504 485.894 441.504C486.125 441.504 486.355 441.485 486.586 441.466H486.95C487.046 441.466 487.162 441.466 487.258 441.447C487.392 441.447 487.507 441.447 487.622 441.428C487.642 441.447 487.661 441.447 487.68 441.447H487.699C487.718 441.447 487.738 441.447 487.757 441.428C488.064 441.428 488.352 441.408 488.64 441.389H488.89C489.408 441.37 489.907 441.351 490.406 441.331C491.002 441.312 491.597 441.293 492.173 441.255C492.422 441.255 492.672 441.235 492.941 441.216C493.21 441.216 493.478 441.197 493.766 441.159C494.189 441.159 494.611 441.139 495.053 441.101C497.05 440.986 499.046 440.87 501.062 440.736H501.216C501.485 440.717 501.734 440.698 502.003 440.678C504.019 440.544 506.035 440.39 508.051 440.237C508.224 440.237 508.397 440.237 508.57 440.198H508.666C508.685 440.198 508.704 440.198 508.723 440.179C508.781 440.179 508.838 440.179 508.896 440.16C511.085 439.987 513.254 439.795 515.443 439.583C515.462 439.583 515.462 439.583 515.482 439.583C516.403 439.507 517.325 439.391 518.246 439.315C519.744 439.161 521.203 439.007 522.682 438.834C524.717 438.623 526.752 438.392 528.787 438.143C530.323 437.951 531.859 437.759 533.395 437.547C534.355 437.432 535.296 437.298 536.237 437.163C537.696 436.971 539.155 436.76 540.595 436.548C541.632 436.414 542.65 436.26 543.686 436.087C545.741 435.78 547.795 435.453 549.83 435.108C550.618 434.992 551.405 434.858 552.192 434.743C553.325 434.551 554.438 434.359 555.552 434.147C557.03 433.897 558.509 433.648 559.987 433.379C561.466 433.11 562.944 432.822 564.403 432.534C569.011 431.65 573.619 430.709 578.208 429.71C578.227 429.71 578.266 429.71 578.285 429.691C580.973 429.114 583.661 428.519 586.349 427.885C589.632 427.117 592.915 426.329 596.198 425.503C596.294 425.484 596.371 425.465 596.467 425.445C616.147 420.509 635.674 414.592 655.046 407.831C655.642 407.638 656.237 407.427 656.832 407.216C658.368 406.678 659.885 406.14 661.421 405.602C665.05 404.296 668.678 402.971 672.288 401.587C679.622 398.86 686.938 395.998 694.234 393.02C713.414 385.24 732.48 376.75 751.43 367.683C818.842 335.45 884.717 296.302 949.632 257.749C1117.73 157.88 1278.05 62.6017 1440 101.5Z" fill="#F9F9F9"></path><path d="M1440 115.349V117.827C1285.19 83.692 1122.84 173.899 952.723 268.389C881.702 307.845 809.53 347.935 736.243 379.841C736.07 379.918 735.898 379.995 735.725 380.072C711.725 390.521 687.61 400.068 663.36 408.424C663.168 408.482 662.976 408.54 662.784 408.617C650.842 412.747 638.861 416.588 626.842 420.085C618.106 422.62 609.35 425.002 600.595 427.173C596.006 428.325 591.418 429.42 586.829 430.457C584.294 431.034 581.76 431.591 579.226 432.129C578.246 432.34 577.248 432.551 576.25 432.763C572.717 433.493 569.165 434.184 565.632 434.856C563.501 435.26 561.35 435.663 559.219 436.028C557.491 436.336 555.763 436.643 554.035 436.912C549.005 437.776 543.936 438.564 538.886 439.255C537.197 439.505 535.507 439.716 533.818 439.947C533.779 439.947 533.76 439.947 533.722 439.966C531.917 440.197 530.112 440.389 528.307 440.6C527.002 440.754 525.677 440.907 524.352 441.061C523.949 441.099 523.546 441.157 523.142 441.195C522.355 441.292 521.587 441.388 520.8 441.464C520.627 441.484 520.454 441.503 520.262 441.522C518.669 441.695 517.075 441.849 515.482 441.983C513.638 442.175 511.795 442.348 509.933 442.483C509.549 442.521 509.146 442.559 508.762 442.579C508.704 442.579 508.666 442.598 508.608 442.598C508.378 442.617 508.128 442.636 507.898 442.636C507.418 442.694 506.938 442.732 506.477 442.771C505.824 442.809 505.171 442.867 504.538 442.905C503.674 442.963 502.81 443.02 501.946 443.078C501.811 443.078 501.658 443.097 501.523 443.097C501.466 443.116 501.389 443.136 501.331 443.116C501.274 443.136 501.197 443.136 501.139 443.136C499.834 443.232 498.509 443.309 497.203 443.385C495.629 443.481 494.074 443.558 492.499 443.616C491.558 443.673 490.618 443.731 489.677 443.77H489.254C489.043 443.789 488.813 443.789 488.602 443.789C488.506 443.808 488.429 443.808 488.333 443.808C488.218 443.827 488.102 443.827 488.006 443.827C487.872 443.827 487.757 443.846 487.642 443.827C487.584 443.827 487.526 443.846 487.469 443.827C487.354 443.846 487.258 443.866 487.162 443.846H487.046C486.854 443.866 486.643 443.866 486.451 443.866C486.259 443.866 486.086 443.885 485.894 443.885H485.626C485.472 443.904 485.299 443.904 485.146 443.904C484.013 443.962 482.861 444 481.728 444.019C476.467 444.192 471.226 444.269 465.984 444.269C447.283 444.269 428.678 443.309 410.17 441.388C408.595 441.215 407.002 441.061 405.427 440.85C403.354 440.638 401.28 440.389 399.206 440.12C395.482 439.678 391.776 439.178 388.07 438.621C382.061 437.757 376.051 436.777 370.061 435.682C354.758 432.935 339.552 429.516 324.442 425.405C297.85 418.24 271.603 409.001 245.722 397.725C181.114 369.583 118.79 328.744 60.48 276.38C37.9392 256.133 17.76 235.695 0 216.178V212.644C18.144 232.698 38.88 253.79 62.1312 274.651C120.23 326.843 182.342 367.528 246.72 395.554C273.389 407.176 300.461 416.608 327.859 423.869C344.698 428.325 361.651 431.956 378.701 434.741C386.822 436.105 394.944 437.238 403.104 438.199C403.142 438.218 403.2 438.218 403.258 438.218C408.48 438.833 413.702 439.371 418.944 439.832C422.784 440.177 426.624 440.466 430.464 440.715C433.267 440.907 436.09 441.061 438.893 441.195C438.912 441.215 438.95 441.215 438.97 441.195C441.485 441.33 444.019 441.445 446.554 441.541C460.109 442.022 473.722 442.002 487.392 441.464C487.45 441.464 487.507 441.464 487.565 441.445C487.603 441.464 487.642 441.464 487.68 441.445H487.699C487.834 441.445 487.949 441.445 488.083 441.426H488.198C488.314 441.426 488.41 441.426 488.525 441.407H488.986C489.043 441.407 489.101 441.407 489.178 441.388H489.446C489.504 441.388 489.562 441.388 489.638 441.368C489.888 441.368 490.138 441.349 490.406 441.33H490.618C491.136 441.311 491.654 441.272 492.173 441.253C492.422 441.253 492.672 441.234 492.941 441.215C493.21 441.215 493.478 441.195 493.766 441.157C494.189 441.157 494.611 441.138 495.053 441.099C495.59 441.08 496.128 441.061 496.685 441.023C496.819 441.023 496.934 441.003 497.069 441.003C497.203 441.003 497.338 440.984 497.472 440.984C498.662 440.907 499.872 440.831 501.062 440.734H501.216C501.485 440.715 501.734 440.696 502.003 440.677C502.79 440.619 503.597 440.581 504.384 440.523C505.152 440.485 505.901 440.427 506.669 440.35L508.051 440.235C508.224 440.235 508.397 440.235 508.57 440.197H508.646C508.666 440.197 508.704 440.197 508.723 440.177C508.781 440.177 508.838 440.177 508.896 440.158H509.03C509.146 440.158 509.242 440.158 509.357 440.139C510.662 440.043 511.968 439.928 513.293 439.793C513.734 439.755 514.176 439.716 514.618 439.678C514.906 439.659 515.194 439.62 515.482 439.582C521.376 439.063 527.27 438.391 533.165 437.642C533.299 437.623 533.434 437.603 533.568 437.584C535.123 437.373 536.698 437.162 538.253 436.931C541.421 436.508 544.589 436.028 547.757 435.548C548.966 435.356 550.157 435.164 551.366 434.952C555.725 434.261 560.064 433.493 564.403 432.667C568.224 431.956 572.045 431.207 575.846 430.4C578.707 429.824 581.549 429.209 584.41 428.575C603.706 424.272 622.925 419.028 642.067 412.977C642.086 412.958 642.106 412.958 642.125 412.958C642.835 412.727 643.546 412.516 644.237 412.286C646.022 411.709 647.808 411.133 649.594 410.557C653.395 409.327 657.178 408.06 660.96 406.753C668.544 404.16 676.109 401.432 683.654 398.628C703.891 391.059 724.032 382.723 744.077 373.809C814.291 342.575 883.45 304.137 951.571 266.314C1121.93 171.651 1284.58 81.3101 1440 115.349Z" fill="#F9F9F9"></path><path d="M1440 129.355V131.794C1291.14 102.289 1126.77 187.616 954.682 276.958C880.128 315.646 804.326 355.006 728.045 385.779C703.277 395.787 678.432 404.892 653.587 412.768C640.915 416.802 628.243 420.509 615.571 423.852C606.528 426.234 597.504 428.443 588.461 430.441C583.507 431.555 578.534 432.592 573.581 433.572C570.95 434.09 568.32 434.59 565.69 435.089C565.67 435.089 565.67 435.089 565.67 435.089C564.672 435.262 563.693 435.435 562.694 435.608C558.662 436.338 554.65 437.029 550.618 437.644C545.395 438.489 540.173 439.238 534.931 439.911C526.483 441.006 518.035 441.908 509.587 442.581C508.186 442.696 506.803 442.811 505.402 442.907C502.31 443.138 499.219 443.33 496.128 443.484C495.302 443.541 494.496 443.58 493.67 443.618C493.459 443.637 493.267 443.637 493.056 443.656C492.384 443.695 491.712 443.714 491.04 443.753H490.752C490.541 443.772 490.33 443.772 490.138 443.772C490.099 443.791 490.08 443.791 490.061 443.791C489.773 443.81 489.485 443.81 489.197 443.81C480.768 444.175 472.339 444.348 463.949 444.348C442.733 444.348 421.613 443.234 400.627 440.986C398.208 440.737 395.808 440.468 393.389 440.18C390.01 439.776 386.63 439.354 383.251 438.873C376.646 437.99 370.042 436.972 363.456 435.857C348.672 433.341 333.984 430.268 319.373 426.618C293.99 420.298 268.896 412.307 244.147 402.625C180.058 377.596 118.138 341.367 60.1152 294.958C37.7472 277.074 17.664 258.998 0 241.748V238.425C18.048 256.116 38.6304 274.711 61.6704 293.133C119.501 339.389 181.21 375.483 245.05 400.436C271.162 410.636 297.638 418.953 324.442 425.408C341.088 429.422 357.85 432.688 374.707 435.243C382.675 436.453 390.682 437.509 398.707 438.374C403.814 438.95 408.922 439.45 414.048 439.872C417.907 440.199 421.786 440.487 425.645 440.737C428.621 440.929 431.616 441.102 434.592 441.236C437.146 441.371 439.68 441.486 442.234 441.563C444.384 441.639 446.534 441.716 448.685 441.774C462.125 442.12 475.622 442.004 489.139 441.428C489.408 441.428 489.658 441.428 489.926 441.409C490.099 441.409 490.291 441.39 490.464 441.371C490.464 441.371 490.483 441.371 490.502 441.371C490.541 441.39 490.598 441.39 490.637 441.371H490.906C491.098 441.351 491.29 441.351 491.482 441.351C491.962 441.313 492.461 441.294 492.941 441.275C493.133 441.275 493.306 441.255 493.498 441.236C495.763 441.121 498.048 441.006 500.333 440.852C501.677 440.775 503.002 440.679 504.346 440.583C504.653 440.564 504.979 440.545 505.286 440.525C506.669 440.429 508.032 440.314 509.395 440.199C517.402 439.565 525.389 438.72 533.376 437.682C538.848 437.01 544.32 436.223 549.792 435.358C554.016 434.705 558.24 433.994 562.464 433.207C566.208 432.554 569.971 431.843 573.715 431.094C592.205 427.425 610.714 422.891 629.203 417.628C629.318 417.589 629.414 417.57 629.53 417.532C629.549 417.532 629.549 417.532 629.568 417.513C629.875 417.436 630.163 417.359 630.47 417.263C630.49 417.263 630.528 417.244 630.547 417.244C631.046 417.109 631.526 416.956 632.026 416.821C632.083 416.802 632.141 416.783 632.198 416.763C634.042 416.245 635.885 415.688 637.709 415.15C637.747 415.15 637.766 415.131 637.786 415.131C641.779 413.94 645.754 412.73 649.747 411.481C657.83 408.945 665.914 406.294 673.997 403.509C674.016 403.49 674.054 403.49 674.074 403.49C694.656 396.383 715.219 388.526 735.725 380.074C735.898 379.997 736.07 379.92 736.243 379.843C809.376 349.685 882.048 311.958 953.568 274.826C1125.91 185.388 1290.55 99.926 1440 129.355Z" fill="#F9F9F9"></path><path d="M1440 143.453V145.912C1296.56 120.805 1130.46 201.273 956.717 285.448C878.938 323.136 799.834 361.439 720.979 391.003C695.117 400.703 669.293 409.463 643.546 416.935C630.202 420.815 616.877 424.331 603.59 427.462C593.99 429.748 584.41 431.822 574.848 433.666C569.856 434.627 564.864 435.53 559.891 436.375C555.456 437.124 551.021 437.835 546.586 438.488C546.528 438.488 546.47 438.507 546.413 438.507C540.979 439.314 535.546 440.025 530.131 440.658C519.629 441.907 509.165 442.829 498.739 443.444C498.566 443.463 498.413 443.463 498.259 443.463C497.53 443.521 496.819 443.559 496.109 443.597C495.802 443.617 495.514 443.617 495.226 443.636C494.822 443.655 494.419 443.674 494.035 443.694C492.326 443.79 490.637 443.866 488.928 443.924C480.077 444.27 471.206 444.443 462.394 444.443C437.587 444.443 412.877 443.079 388.378 440.37C384.653 439.967 380.947 439.525 377.242 439.064C371.098 438.277 364.954 437.393 358.848 436.432C342.854 433.954 326.957 430.881 311.155 427.231C288.038 421.891 265.152 415.321 242.554 407.522C179.002 385.605 117.504 353.967 59.7696 313.532C37.5552 297.953 17.5872 282.259 0 267.256V264.106C17.9328 279.474 38.3808 295.609 61.2096 311.611C118.752 351.931 180.058 383.453 243.379 405.294C268.397 413.919 293.76 421.027 319.373 426.616C336.154 430.305 353.069 433.32 370.061 435.683C377.971 436.778 385.901 437.739 393.83 438.545C399.034 439.083 404.237 439.564 409.44 439.967C413.28 440.274 417.101 440.543 420.941 440.774C424.051 440.966 427.162 441.139 430.272 441.292C432.768 441.408 435.245 441.523 437.741 441.6C439.949 441.696 442.157 441.753 444.384 441.811C446.323 441.869 448.282 441.907 450.24 441.945C463.066 442.176 475.93 442.042 488.832 441.542C490.502 441.484 492.192 441.408 493.862 441.312C494.458 441.292 495.053 441.254 495.648 441.235C495.763 441.216 495.878 441.216 495.974 441.216C496.685 441.177 497.395 441.139 498.106 441.081C498.278 441.081 498.451 441.081 498.605 441.062C508.781 440.466 518.995 439.564 529.229 438.353C534.893 437.7 540.576 436.951 546.259 436.106H546.317C550.733 435.453 555.168 434.761 559.584 433.993C578.17 430.862 596.813 426.847 615.514 422.083C615.782 422.025 616.051 421.949 616.32 421.872C616.339 421.891 616.358 421.872 616.378 421.872C617.069 421.699 617.779 421.507 618.47 421.334C618.624 421.296 618.778 421.257 618.931 421.219C618.97 421.199 619.027 421.199 619.066 421.18C621.12 420.642 623.194 420.105 625.248 419.547C629.626 418.376 634.022 417.166 638.419 415.917C646.522 413.612 654.662 411.172 662.784 408.617C662.976 408.541 663.168 408.483 663.36 408.425C684.883 401.644 706.445 394.038 728.045 385.778C804.192 356.676 880.55 319.679 955.661 283.315C1129.63 199.025 1295.96 118.442 1440 143.453Z" fill="#F9F9F9"></path><path d="M1440 157.745V160.166C1301.41 139.208 1133.91 214.854 958.848 293.9C877.21 330.763 794.131 368.279 712.128 396.651C685.517 405.833 659.04 414.074 632.736 421.008C618.893 424.658 605.088 427.962 591.36 430.824C575.232 434.224 559.181 437.048 543.264 439.219C536.966 440.083 530.669 440.851 524.41 441.485C518.477 442.119 512.563 442.638 506.669 443.08C504.614 443.214 502.579 443.349 500.525 443.483C495.264 443.79 490.022 444.04 484.8 444.194C477.062 444.424 469.382 444.52 461.779 444.52C431.578 444.52 402.49 442.753 374.592 439.583C368.41 438.873 362.304 438.104 356.256 437.259C341.741 435.261 327.59 432.879 313.766 430.171C206.515 409.156 120.134 368.548 59.424 332.089C37.344 318.834 17.5104 305.464 0 292.729V289.771C17.8176 302.814 38.0928 316.51 60.7296 330.091C120.672 366.05 205.69 406.121 311.155 427.232C328.051 430.632 345.504 433.533 363.456 435.857C371.558 436.894 379.757 437.816 388.07 438.623C393.235 439.122 398.438 439.564 403.68 439.968C407.616 440.256 411.571 440.525 415.565 440.755C418.714 440.967 421.862 441.139 425.05 441.274C427.699 441.408 430.368 441.524 433.056 441.62C435.379 441.716 437.722 441.793 440.064 441.85C442.08 441.908 444.096 441.965 446.112 442.004H446.17C448.013 442.042 449.856 442.062 451.699 442.081C462.547 442.234 473.568 442.138 484.723 441.812C489.926 441.658 495.13 441.428 500.371 441.101C502.445 440.986 504.538 440.832 506.63 440.678C506.784 440.678 506.938 440.659 507.091 440.659C511.469 440.333 515.866 439.948 520.282 439.526C521.338 439.43 522.394 439.315 523.45 439.199C529.325 438.604 535.219 437.912 541.114 437.125C541.286 437.086 541.459 437.067 541.613 437.048C561.312 434.397 581.184 430.747 601.19 426.271C601.44 426.214 601.67 426.156 601.92 426.099C601.978 426.099 602.054 426.079 602.131 426.06C602.592 425.945 603.072 425.849 603.552 425.734C604.282 425.561 605.03 425.407 605.779 425.234C606.01 425.177 606.24 425.119 606.47 425.061C608.717 424.543 610.963 424.024 613.229 423.467C617.76 422.391 622.291 421.258 626.842 420.086C635.731 417.8 644.64 415.361 653.587 412.767C675.936 406.332 698.419 399.014 720.979 391.003C799.757 363.131 879.456 327.133 957.869 291.73C1133.13 212.588 1300.84 136.865 1440 157.745Z" fill="#F9F9F9"></path><path d="M1440 172.171V174.591C1305.73 157.456 1137.16 228.319 961.133 302.313C876.307 337.966 789.965 374.271 705.581 401.26C677.414 410.289 649.459 418.26 621.85 424.83C573.485 436.355 526.195 443.559 480.653 444.462C474.47 444.577 468.269 444.635 462.163 444.635C423.456 444.635 386.573 442.214 351.629 437.969C351.571 437.969 351.514 437.95 351.456 437.95C336.864 436.183 322.618 434.089 308.736 431.726C203.827 413.9 118.982 380.553 59.0976 350.663C37.152 339.714 17.4144 328.707 0 318.18V315.376C17.7024 326.114 37.824 337.37 60.2496 348.569C120.826 378.785 207.034 412.594 313.766 430.17C328.416 432.59 343.43 434.684 358.848 436.432C366.874 437.354 375.014 438.161 383.251 438.872C388.531 439.333 393.85 439.756 399.206 440.121C403.027 440.37 406.867 440.62 410.726 440.831C413.952 441.023 417.197 441.177 420.442 441.312C423.13 441.446 425.818 441.561 428.525 441.657C430.925 441.753 433.325 441.83 435.744 441.888C437.779 441.945 439.814 442.003 441.85 442.041C443.808 442.099 445.766 442.138 447.725 442.138C449.472 442.195 451.238 442.214 453.005 442.214C462.106 442.31 471.302 442.272 480.614 442.08C515.078 441.388 550.579 437.085 586.81 429.997C586.906 429.978 587.021 429.959 587.136 429.92C587.309 429.901 587.482 429.882 587.654 429.844C587.827 429.805 588 429.767 588.173 429.728C588.211 429.728 588.25 429.728 588.307 429.709C588.422 429.69 588.538 429.671 588.653 429.632C589.574 429.459 590.515 429.267 591.456 429.075C591.84 428.998 592.243 428.922 592.627 428.826C593.261 428.71 593.894 428.595 594.528 428.441C596.544 428.038 598.579 427.615 600.595 427.173C605.568 426.117 610.56 425.022 615.571 423.85C624.864 421.699 634.176 419.394 643.546 416.935C666.221 410.98 689.107 404.142 712.128 396.65C794.112 369.93 877.862 334.739 960.211 300.124C1136.41 226.053 1305.18 155.113 1440 172.171Z" fill="#F9F9F9"></path><path d="M1440 186.769V189.17C1309.52 175.551 1140.19 241.669 963.552 310.669C874.042 345.63 782.918 381.244 694.848 406.965C618.758 429.19 544.973 444.039 476.525 444.73C472.608 444.769 468.691 444.788 464.813 444.788C407.558 444.788 354.163 440.542 305.146 433.646C201.888 419.124 118.08 392.75 58.7712 369.218C36.9792 360.574 17.3568 351.892 0 343.593V340.962C17.5872 349.375 37.536 358.25 59.7504 367.048C119.52 390.752 204.25 417.338 308.736 431.725C324.154 433.858 339.994 435.721 356.256 437.258C363.187 437.911 370.176 438.526 377.242 439.063C382.579 439.467 387.955 439.851 393.389 440.177C397.363 440.427 401.376 440.658 405.427 440.85C408.71 441.042 412.013 441.196 415.334 441.33C418.099 441.465 420.902 441.561 423.686 441.657C426.029 441.753 428.371 441.829 430.714 441.887C430.752 441.906 430.771 441.906 430.81 441.906C433.075 441.964 435.341 442.022 437.626 442.079C439.526 442.118 441.427 442.175 443.347 442.194C445.344 442.233 447.36 442.271 449.376 442.29C451.046 442.329 452.736 442.348 454.426 442.348C461.722 442.425 469.075 442.425 476.506 442.348C507.245 442.041 539.078 438.852 571.718 433.416C571.872 433.397 572.045 433.358 572.198 433.339C572.237 433.339 572.275 433.32 572.314 433.32C572.525 433.281 572.755 433.243 572.966 433.205C573.389 433.147 573.83 433.07 574.253 432.993C574.522 432.955 574.81 432.897 575.078 432.859C576.058 432.686 577.037 432.513 578.016 432.34C578.419 432.283 578.822 432.206 579.226 432.129C580.09 431.975 580.973 431.821 581.837 431.668C584.045 431.264 586.253 430.861 588.461 430.438C593.491 429.516 598.541 428.517 603.59 427.461C613.248 425.482 622.963 423.331 632.736 421.007C656.717 415.321 681.043 408.655 705.581 401.26C790.003 375.903 877.094 341.884 962.688 308.46C1139.48 239.383 1308.96 173.188 1440 186.769Z" fill="#F9F9F9"></path><path d="M1440 201.504V203.886C1312.8 193.417 1143.07 254.905 966.182 318.987C795.206 380.937 618.394 445 472.397 445C291.36 445 147.379 413.881 58.464 387.795C36.8064 381.437 17.28 375.059 0 368.989V366.281C68.2368 390.215 172.416 419.26 305.146 433.648C320.218 435.28 335.654 436.721 351.456 437.95C351.514 437.95 351.571 437.97 351.629 437.97C359.194 438.546 366.854 439.084 374.592 439.583C379.142 439.852 383.75 440.121 388.378 440.371C392.429 440.601 396.518 440.793 400.627 440.986C403.795 441.139 406.982 441.274 410.17 441.389C413.03 441.504 415.891 441.619 418.771 441.696C421.306 441.792 423.84 441.869 426.394 441.946C428.698 442.023 431.021 442.08 433.325 442.138C435.437 442.196 437.568 442.234 439.68 442.273C441.619 442.311 443.558 442.349 445.498 442.388C447.398 442.426 449.299 442.445 451.219 442.465C453.024 442.503 454.848 442.522 456.672 442.541C461.875 442.599 467.117 442.618 472.397 442.618C499.2 442.618 527.059 440.448 555.725 436.51C555.84 436.51 555.955 436.491 556.07 436.471C556.224 436.452 556.358 436.433 556.512 436.414C557.107 436.337 557.683 436.26 558.278 436.164C558.586 436.126 558.912 436.087 559.219 436.03C559.757 435.953 560.294 435.876 560.851 435.799C562.003 435.645 563.155 435.472 564.307 435.3C564.749 435.242 565.21 435.165 565.67 435.088C565.67 435.088 565.67 435.088 565.69 435.088C566.63 434.954 567.571 434.819 568.531 434.646C570.624 434.339 572.736 434.013 574.848 433.667C580.32 432.783 585.83 431.842 591.36 430.824C601.44 429.018 611.616 427.02 621.85 424.831C645.811 419.74 670.176 413.708 694.848 406.966C782.995 382.82 874.982 349.492 965.357 316.759C1142.4 252.6 1312.28 191.073 1440 201.504Z" fill="#F9F9F9"></path></g></svg>