<svg xmlns="http://www.w3.org/2000/svg" width="55" height="55" viewBox="0 0 55 55" fill="none"><path d="M17.3205 44.641C26.8864 50.1639 39.1182 46.8864 44.641 37.3205C50.1639 27.7547 46.8864 15.5228 37.3205 10C27.7547 4.47715 15.5228 7.75466 10 17.3205C4.47715 26.8864 7.75466 39.1182 17.3205 44.641Z" fill="#4353FF"></path><path d="M33.5957 28.2012L29.1697 32.2421C29.3885 31.8632 33.0435 23.0326 33.0435 23.0326C30.5536 21.5951 28.2142 22.5971 26.4401 24.0699L21.6616 27.9217C21.8678 27.5644 24.2284 22.8507 24.2284 22.8507C24.7056 21.8108 24.7848 20.6319 24.4511 19.5375C24.1174 18.443 23.3939 17.5089 22.4176 16.9122L17.2777 30.5147C19.8758 32.0147 22.3019 31.0626 24.1084 29.6086L28.1697 26.3242C28.0697 26.4974 24.7147 34.8084 24.7147 34.8084C25.7779 35.4204 27.0083 35.678 28.2277 35.5437C29.4471 35.4095 30.592 34.8904 31.4966 34.0618L40.3397 27.2451C37.7417 25.7451 35.3589 26.7221 33.5848 28.1949L33.5957 28.2012Z" fill="white"></path></svg>