<svg xmlns="http://www.w3.org/2000/svg" width="49" height="49" viewBox="0 0 49 49" fill="none"><g opacity="0.5" clip-path="url(#clip0_5970_35360)"><mask id="mask0_5970_35360" style="mask-type:luminance" maskUnits="userSpaceOnUse" x="4" y="5" width="41" height="40"><path d="M32.9926 42.1586L28.1691 24.1573L20.7052 26.1572L23.4816 36.519C18.481 36.8236 14.6765 33.5137 13.2412 28.1572C11.5471 21.8348 15.2755 15.377 21.5979 13.6829C27.9203 11.9888 34.3781 15.7172 36.0722 22.0397C36.8016 24.7618 36.4945 27.4793 35.4315 29.8347L42.5573 33.9488C44.6252 29.7242 45.2928 24.8395 43.9752 19.922C41.1047 9.20904 30.1933 2.90936 19.4803 5.7799C8.76731 8.65044 2.46762 19.5618 5.33816 30.2748C7.92636 39.9341 17.3042 46.8329 29.5978 43.5388C30.7393 43.233 31.9216 42.7279 32.9926 42.1586Z" fill="white"></path></mask><g mask="url(#mask0_5970_35360)"><path d="M7.5948 7.08239L30.4258 0.964844L23.0102 18.9516L7.5948 7.08239Z" fill="#FBBC05"></path></g><mask id="mask1_5970_35360" style="mask-type:luminance" maskUnits="userSpaceOnUse" x="4" y="5" width="41" height="40"><path d="M32.9926 42.1586L28.1691 24.1573L20.7052 26.1572L23.4816 36.519C18.481 36.8236 14.6765 33.5137 13.2412 28.1572C11.5471 21.8348 15.2755 15.377 21.5979 13.6829C27.9203 11.9888 34.3781 15.7172 36.0722 22.0397C36.8016 24.7618 36.4945 27.4793 35.4315 29.8347L42.5573 33.9488C44.6252 29.7242 45.2928 24.8395 43.9752 19.922C41.1047 9.20904 30.1933 2.90936 19.4803 5.7799C8.76731 8.65044 2.46762 19.5618 5.33816 30.2748C7.92636 39.9341 17.3042 46.8329 29.5978 43.5388C30.7393 43.233 31.9216 42.7279 32.9926 42.1586Z" fill="white"></path></mask><g mask="url(#mask1_5970_35360)"><path d="M30.4247 0.965145L23.0092 18.9519L30.0127 23.6634L39.0843 43.8205L51.3779 40.5265L40.084 -1.62305L30.4247 0.965145Z" fill="#EA4335"></path></g><mask id="mask2_5970_35360" style="mask-type:luminance" maskUnits="userSpaceOnUse" x="4" y="5" width="41" height="40"><path d="M32.9926 42.1586L28.1691 24.1573L20.7052 26.1572L23.4816 36.519C18.481 36.8236 14.6765 33.5137 13.2412 28.1572C11.5471 21.8348 15.2755 15.377 21.5979 13.6829C27.9203 11.9888 34.3781 15.7172 36.0722 22.0397C36.8016 24.7618 36.4945 27.4793 35.4315 29.8347L42.5573 33.9488C44.6252 29.7242 45.2928 24.8395 43.9752 19.922C41.1047 9.20904 30.1933 2.90936 19.4803 5.7799C8.76731 8.65044 2.46762 19.5618 5.33816 30.2748C7.92636 39.9341 17.3042 46.8329 29.5978 43.5388C30.7393 43.233 31.9216 42.7279 32.9926 42.1586Z" fill="white"></path></mask><g mask="url(#mask2_5970_35360)"><path d="M7.59374 7.08269L34.8491 28.0145L35.8298 35.1869L51.3779 40.5265L9.22841 51.8204L-2.06552 9.67088L7.59374 7.08269Z" fill="#34A853"></path></g><mask id="mask3_5970_35360" style="mask-type:luminance" maskUnits="userSpaceOnUse" x="4" y="5" width="41" height="40"><path d="M32.9926 42.1586L28.1691 24.1573L20.7052 26.1572L23.4816 36.519C18.481 36.8236 14.6765 33.5137 13.2412 28.1572C11.5471 21.8348 15.2755 15.377 21.5979 13.6829C27.9203 11.9888 34.3781 15.7172 36.0722 22.0397C36.8016 24.7618 36.4945 27.4793 35.4315 29.8347L42.5573 33.9488C44.6252 29.7242 45.2928 24.8395 43.9752 19.922C41.1047 9.20904 30.1933 2.90936 19.4803 5.7799C8.76731 8.65044 2.46762 19.5618 5.33816 30.2748C7.92636 39.9341 17.3042 46.8329 29.5978 43.5388C30.7393 43.233 31.9216 42.7279 32.9926 42.1586Z" fill="white"></path></mask><g mask="url(#mask3_5970_35360)"><path d="M9.22929 51.8206L23.01 18.9521L24.7032 14.7338L41.7195 43.1149L9.22929 51.8206Z" fill="#4285F4"></path></g></g><defs><clipPath id="clip0_5970_35360"><rect width="40" height="40" fill="white" transform="translate(38.6367) rotate(75)"></rect></clipPath></defs></svg>