<svg xmlns="http://www.w3.org/2000/svg" width="64" height="64" viewBox="0 0 64 64" fill="none"><path d="M40.3562 39.4444C43.1672 37.0904 44.8114 33.9102 45.4356 31.8864C50.3512 31.8864 50.6788 22.3242 46.7464 22.3242C46.7464 22.3242 46.9368 21.0158 47.0074 19M40.3562 39.4444C38.2478 41.2102 35.483 42.5112 32 42.5112C23.873 42.5112 19.6566 35.428 18.5643 31.8864C13.6489 31.8864 13.3211 22.3242 17.2535 22.3242C17.2535 22.3242 17.0633 21.0158 16.9927 19M40.3562 39.4444C40.3562 39.4444 41.4954 43.3492 43.507 44.6742M20.493 44.6742L3.12272 54.1152C1.80491 54.9832 1 56.5362 1 58.2108C1 60.8558 2.97296 63 5.40674 63H58.5932C61.027 63 63 60.8558 63 58.2108C63 56.5362 62.195 54.9832 60.8772 54.1152L43.507 44.6742M20.493 44.6742C22.5046 43.3492 23.6438 39.4444 23.6438 39.4444M20.493 44.6742C29.0508 51.6088 34.0764 51.85 43.507 44.6742" stroke="#111111" stroke-linecap="round" stroke-linejoin="round"></path><path d="M28.0004 20C38.8792 16.9504 40.1898 13.3071 43.0004 7L43.0252 7.13758C44.2596 13.9826 44.9594 17.8639 50.0004 20C50.0004 20 53.0004 1 33.0004 1C13.0005 1 14.0005 20 14.0005 20C20.7684 19.1301 23.7584 17.4985 28.0004 13V20Z" fill="#007456"></path><path d="M28 24C28 25.1046 27.1046 26 26 26C24.8954 26 24 25.1046 24 24C24 22.8954 24.8954 22 26 22C27.1046 22 28 22.8954 28 24Z" fill="#121212"></path><path d="M40 24C40 25.1046 39.1046 26 38 26C36.8954 26 36 25.1046 36 24C36 22.8954 36.8954 22 38 22C39.1046 22 40 22.8954 40 24Z" fill="#121212"></path></svg>