<svg xmlns="http://www.w3.org/2000/svg" width="64" height="64" viewBox="0 0 64 64" fill="none"><path d="M47.0588 32.0005H62.1176M1.88232 32.0005H16.9411M32 47.0593V62.1181M32 1.88281V16.9416M56.4706 32.0005C56.4706 45.5152 45.5147 56.471 32 56.471C18.4852 56.471 7.52938 45.5152 7.52938 32.0005C7.52938 18.4857 18.4852 7.52987 32 7.52987C45.5147 7.52987 56.4706 18.4857 56.4706 32.0005ZM50.8235 32.0005C50.8235 42.3963 42.3958 50.824 32 50.824C21.6041 50.824 13.1764 42.3963 13.1764 32.0005C13.1764 21.6046 21.6041 13.1769 32 13.1769C42.3958 13.1769 50.8235 21.6046 50.8235 32.0005Z" stroke="#111111" stroke-linecap="round" stroke-linejoin="round"></path><path d="M31.9999 40.4705C36.6781 40.4705 40.4705 36.6781 40.4705 31.9999C40.4705 27.3217 36.6781 23.5293 31.9999 23.5293C27.3217 23.5293 23.5293 27.3217 23.5293 31.9999C23.5293 36.6781 27.3217 40.4705 31.9999 40.4705Z" fill="#007456"></path></svg>