<svg xmlns="http://www.w3.org/2000/svg" width="90" height="32" viewBox="0 0 90 32" fill="none"><g opacity="0.7"><path fill-rule="evenodd" clip-rule="evenodd" d="M11.62 3.33203C5.19995 3.33203 0 8.53198 0 14.952C0 20.0939 3.32622 24.4368 7.94517 25.9765C8.52617 26.0782 8.74405 25.7296 8.74405 25.4245C8.74405 25.1486 8.72952 24.2335 8.72952 23.2603C5.81 23.7977 5.0547 22.5486 4.8223 21.895C4.69157 21.5609 4.1251 20.5296 3.63125 20.2536C3.22455 20.0358 2.64355 19.4984 3.61672 19.4838C4.5318 19.4693 5.18542 20.3263 5.4033 20.6749C6.4491 22.4324 8.11947 21.9386 8.78762 21.6335C8.8893 20.8782 9.19432 20.3699 9.5284 20.0794C6.94295 19.7889 4.2413 18.7866 4.2413 14.342C4.2413 13.0783 4.69157 12.0325 5.43235 11.2191C5.31615 10.9286 4.90945 9.73755 5.54855 8.1398C5.54855 8.1398 6.52172 7.83478 8.74405 9.33085C9.67365 9.0694 10.6613 8.93868 11.649 8.93868C12.6367 8.93868 13.6244 9.0694 14.554 9.33085C16.7764 7.82025 17.7495 8.1398 17.7495 8.1398C18.3886 9.73755 17.9819 10.9286 17.8657 11.2191C18.6065 12.0325 19.0568 13.0638 19.0568 14.342C19.0568 18.8012 16.3406 19.7889 13.7552 20.0794C14.1764 20.4425 14.5395 21.1397 14.5395 22.2291C14.5395 23.7832 14.525 25.0324 14.525 25.4245C14.525 25.7296 14.7429 26.0927 15.3239 25.9765C17.6307 25.1978 19.6351 23.7152 21.0552 21.7376C22.4753 19.7599 23.2394 17.3867 23.24 14.952C23.24 8.53198 18.04 3.33203 11.62 3.33203Z" fill="#24292E"></path><path d="M54.1705 20.5607H54.1434C54.1556 20.5607 54.1637 20.5743 54.1759 20.5756H54.1841L54.1705 20.5621V20.5607ZM54.1759 20.5756C54.0498 20.577 53.7326 20.6434 53.3978 20.6434C52.3403 20.6434 51.9743 20.1554 51.9743 19.5182V15.2736H54.1298C54.2518 15.2736 54.3467 15.1652 54.3467 15.016V12.7114C54.3467 12.5894 54.2383 12.4809 54.1298 12.4809H51.9743V9.62048C51.9743 9.51203 51.9065 9.44424 51.7845 9.44424H48.8563C48.7343 9.44424 48.6665 9.51203 48.6665 9.62048V12.5623C48.6665 12.5623 47.1888 12.9283 47.0939 12.9419C46.9855 12.969 46.9177 13.0639 46.9177 13.1723V15.016C46.9177 15.1652 47.0261 15.2736 47.1481 15.2736H48.6529V19.7202C48.6529 23.028 50.9576 23.3669 52.5301 23.3669C53.2486 23.3669 54.1163 23.1365 54.2518 23.0687C54.3332 23.0416 54.3738 22.9467 54.3738 22.8518V20.8183C54.3757 20.7606 54.3567 20.7042 54.3204 20.6594C54.284 20.6146 54.2327 20.5843 54.1759 20.5743V20.5756ZM86.2998 17.5918C86.2998 15.138 85.3102 14.8127 84.2663 14.9211C83.4529 14.9754 82.8022 15.3821 82.8022 15.3821V20.154C82.8022 20.154 83.4664 20.6149 84.4561 20.642C85.8524 20.6827 86.2998 20.1811 86.2998 17.5918ZM89.5941 17.3749C89.5941 22.0248 88.0893 23.3534 85.4593 23.3534C83.236 23.3534 82.043 22.2282 82.043 22.2282C82.043 22.2282 81.9888 22.8518 81.921 22.9331C81.8803 23.0145 81.8125 23.0416 81.7312 23.0416H79.7248C79.5892 23.0416 79.4672 22.9331 79.4672 22.8111L79.4943 7.74966C79.4943 7.62765 79.6028 7.5192 79.7248 7.5192H82.6124C82.7344 7.5192 82.8428 7.62765 82.8428 7.74966V12.8605C82.8428 12.8605 83.9545 12.142 85.5813 12.142L85.5677 12.1149C87.1945 12.1149 89.5941 12.725 89.5941 17.3749ZM77.7726 12.4809H74.9257C74.7766 12.4809 74.6953 12.5894 74.6953 12.7385V20.1133C74.6953 20.1133 73.9497 20.642 72.9329 20.642C71.9162 20.642 71.6179 20.1811 71.6179 19.1644V12.725C71.6179 12.6029 71.5095 12.4945 71.3875 12.4945H68.4863C68.3643 12.4945 68.2559 12.6029 68.2559 12.725V19.6524C68.2559 22.6349 69.9233 23.3805 72.2144 23.3805C74.0988 23.3805 75.6307 22.3366 75.6307 22.3366C75.6307 22.3366 75.6985 22.8653 75.7391 22.9467C75.7663 23.0145 75.8612 23.0687 75.9561 23.0687H77.7726C77.9218 23.0687 78.0031 22.9602 78.0031 22.8382L78.0302 12.7114C78.0302 12.5894 77.9218 12.4809 77.7726 12.4809ZM45.6434 12.4674H42.7558C42.6338 12.4674 42.5253 12.5894 42.5253 12.7385V22.6891C42.5253 22.9602 42.7016 23.0551 42.932 23.0551H45.5349C45.806 23.0551 45.8738 22.9331 45.8738 22.6891V12.6978C45.8738 12.5758 45.7654 12.4674 45.6434 12.4674ZM44.2199 7.88523C43.176 7.88523 42.3491 8.71218 42.3491 9.75605C42.3491 10.7999 43.176 11.6269 44.2199 11.6269C45.2367 11.6269 46.0636 10.7999 46.0636 9.75605C46.0636 8.71218 45.2367 7.88523 44.2199 7.88523ZM66.5748 7.54631H63.7144C63.5924 7.54631 63.4839 7.65476 63.4839 7.77677V13.3214H58.9967V7.77677C58.9967 7.65476 58.8882 7.54631 58.7662 7.54631H55.8786C55.7566 7.54631 55.6482 7.65476 55.6482 7.77677V22.8382C55.6482 22.9602 55.7702 23.0687 55.8786 23.0687H58.7662C58.8882 23.0687 58.9967 22.9602 58.9967 22.8382V16.3988H63.4839L63.4568 22.8382C63.4568 22.9602 63.5653 23.0687 63.6873 23.0687H66.5748C66.6969 23.0687 66.8053 22.9602 66.8053 22.8382V7.77677C66.8053 7.65476 66.6969 7.54631 66.5748 7.54631ZM40.9934 14.2162V21.9977C40.9934 22.0519 40.9799 22.1468 40.9121 22.1739C40.9121 22.1739 39.2175 23.3805 36.4248 23.3805C33.0492 23.3805 29.05 22.3231 29.05 15.3549C29.05 8.38682 32.5476 6.94982 35.9639 6.96337C38.9192 6.96337 40.1122 7.62765 40.302 7.74966C40.3563 7.81744 40.3834 7.87167 40.3834 7.93945L39.814 10.3525C39.814 10.4745 39.692 10.6237 39.5429 10.583C39.0548 10.4339 38.3228 10.1356 36.6011 10.1356C34.6082 10.1356 32.4663 10.705 32.4663 15.1923C32.4663 19.6795 34.4998 20.2082 35.9639 20.2082C37.2111 20.2082 37.6585 20.0591 37.6585 20.0591V16.9411H35.6656C35.5165 16.9411 35.4081 16.8326 35.4081 16.7106V14.2162C35.4081 14.0942 35.5165 13.9857 35.6656 13.9857H40.7358C40.885 13.9857 40.9934 14.0942 40.9934 14.2162Z" fill="#24292E"></path></g></svg>