<svg xmlns="http://www.w3.org/2000/svg" width="88" height="32" viewBox="0 0 88 32" fill="none"><g opacity="0.7"><path d="M18.4703 4.66797H3.83894C1.81062 4.66797 0.166748 6.31184 0.166748 8.34016V22.9715C0.166748 24.9998 1.81062 26.6437 3.83894 26.6437H18.4703C20.4986 26.6437 22.1424 24.9998 22.1424 22.9715V8.34016C22.1424 6.31184 20.4986 4.66797 18.4703 4.66797ZM18.1477 21.4889C18.1477 22.1297 17.6284 22.6489 16.9877 22.6489H5.32151C4.68076 22.6489 4.16153 22.1297 4.16153 21.4889V9.82273C4.16153 9.18198 4.68076 8.66275 5.32151 8.66275H16.9877C17.6284 8.66275 18.1477 9.18198 18.1477 9.82273V21.4889ZM8.82357 18.6386C8.45459 18.6386 8.15851 18.3404 8.15851 17.9714V13.3137C8.15851 12.9448 8.45459 12.6443 8.82357 12.6443H13.4878C13.8546 12.6443 14.1529 12.9425 14.1529 13.3137V17.9692C14.1529 18.3381 13.8546 18.6364 13.4878 18.6364H8.82357V18.6386ZM27.9689 18.3205H30.3684C30.4877 19.6793 31.4091 20.7399 33.2673 20.7399C34.9266 20.7399 35.9474 19.9202 35.9474 18.6806C35.9474 17.5206 35.1476 17.0014 33.707 16.6611L31.8466 16.2612C29.8271 15.8215 28.307 14.5223 28.307 12.4012C28.307 10.0614 30.3861 8.46168 33.0861 8.46168C35.9452 8.46168 37.7857 9.96193 37.9448 12.1803H35.6248C35.3486 11.1418 34.4869 10.5231 33.0883 10.5231C31.6079 10.5231 30.5894 11.323 30.5894 12.3438C30.5894 13.3646 31.4687 13.9832 32.9889 14.3235L34.8294 14.7234C36.8489 15.1631 38.2276 16.3827 38.2276 18.5215C38.2276 21.2414 36.1882 22.861 33.2695 22.861C29.9884 22.8588 28.17 21.0801 27.9689 18.3205ZM46.8115 26.6437V22.6644L46.9684 20.9188H46.8115C46.2614 22.1738 45.1058 22.861 43.537 22.861C41.0072 22.861 39.1247 20.8017 39.1247 17.6444C39.1247 14.487 41.0072 12.4277 43.537 12.4277C45.0859 12.4277 46.184 13.1525 46.8115 14.2903H46.9684V12.6222H49.0475V26.6437H46.8115ZM46.8889 17.6422C46.8889 15.6227 45.6537 14.445 44.1424 14.445C42.6311 14.445 41.396 15.6227 41.396 17.6422C41.396 19.6616 42.6311 20.8393 44.1424 20.8393C45.6537 20.8393 46.8889 19.6638 46.8889 17.6422ZM50.7069 18.6828V12.6222H52.9429V18.4862C52.9429 20.0748 53.7074 20.8393 54.9823 20.8393C56.551 20.8393 57.5718 19.7213 57.5718 17.9758V12.6222H59.8078V22.6621H57.7287V20.583H57.5718C57.0813 21.9175 56.003 22.8588 54.3371 22.8588C51.942 22.8588 50.7069 21.3298 50.7069 18.6828ZM61.1689 19.8583C61.1689 17.9758 62.4835 16.8777 64.8167 16.7407L67.5808 16.5639V15.7795C67.5808 14.8383 66.8937 14.2705 65.6785 14.2705C64.5604 14.2705 63.8932 14.8383 63.7164 15.6426H61.4804C61.7168 13.6032 63.4027 12.4255 65.6762 12.4255C68.2459 12.4255 69.8146 13.5236 69.8146 15.6426V22.6621H67.7355V20.7995H67.5786C67.108 22.0346 66.127 22.8588 64.2445 22.8588C62.4437 22.8588 61.1689 21.6436 61.1689 19.8583ZM67.583 18.6232V18.0929L65.3271 18.2498C64.1119 18.3271 63.5617 18.78 63.5617 19.6815C63.5617 20.446 64.1892 20.9962 65.0708 20.9962C66.6617 20.9962 67.583 19.9776 67.583 18.6232ZM71.4828 22.6644V12.6222H73.562V14.5444H73.7188C74.0127 13.2298 75.0136 12.6222 76.5028 12.6222H77.5236V14.6417H76.2487C74.7971 14.6417 73.7188 15.5829 73.7188 17.3682V22.6621H71.4828V22.6644ZM87.7536 18.0553H80.1242C80.2413 19.8981 81.536 20.9387 82.9678 20.9387C84.183 20.9387 84.9475 20.4482 85.3806 19.6241H87.5967C86.9891 21.6634 85.2038 22.8588 82.9479 22.8588C79.9872 22.8588 77.908 20.6427 77.908 17.6422C77.908 14.6417 80.0446 12.4255 82.9678 12.4255C85.9086 12.4255 87.8309 14.445 87.8309 16.955C87.8331 17.4477 87.7934 17.7018 87.7536 18.0553ZM85.617 16.5065C85.5397 15.1145 84.3819 14.1732 82.97 14.1732C81.6355 14.1732 80.5197 15.0173 80.2435 16.5065H85.617Z" fill="#1A1A1A"></path></g></svg>