<svg xmlns="http://www.w3.org/2000/svg" width="14" height="14" viewBox="0 0 14 14" fill="none"><path d="M5.5 2.5V4H1.75V12.25H10V8.5H11.5V13C11.5 13.1989 11.421 13.3897 11.2803 13.5303C11.1397 13.671 10.9489 13.75 10.75 13.75H1C0.801088 13.75 0.610322 13.671 0.46967 13.5303C0.329018 13.3897 0.25 13.1989 0.25 13V3.25C0.25 3.05109 0.329018 2.86032 0.46967 2.71967C0.610322 2.57902 0.801088 2.5 1 2.5H5.5ZM13.75 0.25V6.25H12.25V2.80975L6.40525 8.65525L5.34475 7.59475L11.1887 1.75H7.75V0.25H13.75Z" fill="currentColor"></path></svg>