<svg xmlns="http://www.w3.org/2000/svg" width="24" height="29" viewBox="0 0 24 29" fill="none"><path d="M8 2.33203V0.332031H16V2.33203H8ZM11 17.2654H13V9.5987H11V17.2654ZM12 28.332C10.3333 28.332 8.8 27.9987 7.33333 27.3987C5.86667 26.7987 4.6 25.932 3.53333 24.7987C2.46667 23.732 1.6 22.4654 0.933333 20.9987C0.266667 19.532 0 17.9987 0 16.332C0 14.6654 0.333333 13.132 0.933333 11.6654C1.53333 10.1987 2.4 8.93203 3.53333 7.86537C4.66667 6.7987 5.86667 5.93203 7.33333 5.26536C8.8 4.5987 10.3333 4.33203 12 4.33203C13.4667 4.33203 14.8667 4.5987 16.2 5.06536C17.5333 5.53203 18.6667 6.26536 19.6667 7.13203L21.3333 5.3987L22.7333 6.7987L21.0667 8.53203C21.8667 9.3987 22.5333 10.4654 23.1333 11.732C23.7333 12.9987 24 14.532 24 16.2654C24 17.932 23.6667 19.4654 23.0667 20.932C22.4 22.3987 21.6 23.6654 20.4667 24.732C19.4 25.7987 18.1333 26.6654 16.6667 27.332C15.2 27.9987 13.6667 28.332 12 28.332ZM12 26.332C14.8 26.332 17.1333 25.332 19.0667 23.3987C21 21.4654 22 19.0654 22 16.332C22 13.5987 21 11.1987 19.0667 9.26536C17.1333 7.33203 14.8 6.33203 12 6.26536C9.2 6.26536 6.86667 7.26536 4.93333 9.1987C3 11.132 2 13.532 2 16.332C2 19.132 3 21.4654 4.93333 23.3987C6.86667 25.332 9.2 26.332 12 26.332Z" fill="#1D2445"></path></svg>