<svg xmlns="http://www.w3.org/2000/svg" width="48" height="48" viewBox="0 0 48 48" fill="none"><path d="M45 22.875H40.011C39.4335 14.8965 33.1035 8.5665 25.1775 7.992L25.125 7.989V3C25.125 2.379 24.621 1.875 24 1.875C23.379 1.875 22.875 2.379 22.875 3V7.989C14.8965 8.5665 8.5665 14.8965 7.992 22.8225L7.989 22.875H3C2.379 22.875 1.875 23.379 1.875 24C1.875 24.621 2.379 25.125 3 25.125H7.989C8.5665 33.1035 14.8965 39.4335 22.8225 40.008L22.875 40.011V45C22.875 45.621 23.379 46.125 24 46.125C24.621 46.125 25.125 45.621 25.125 45V40.011C33.1035 39.4335 39.4335 33.1035 40.008 25.1775L40.011 25.125H45C45.621 25.125 46.125 24.621 46.125 24C46.125 23.379 45.621 22.875 45 22.875ZM24 37.875C16.3365 37.875 10.125 31.6635 10.125 24C10.125 16.3365 16.3365 10.125 24 10.125C31.6635 10.125 37.875 16.3365 37.875 24C37.866 31.659 31.659 37.866 24.0015 37.875H24ZM24 16.875C20.0655 16.875 16.875 20.0655 16.875 24C16.875 27.9345 20.0655 31.125 24 31.125C27.9345 31.125 31.125 27.9345 31.125 24C31.1205 20.067 27.933 16.8795 24 16.875ZM24 28.875C21.3075 28.875 19.125 26.6925 19.125 24C19.125 21.3075 21.3075 19.125 24 19.125C26.6925 19.125 28.875 21.3075 28.875 24C28.872 26.691 26.691 28.872 24 28.875Z" fill="white"></path></svg>