<svg xmlns="http://www.w3.org/2000/svg" width="64" height="64" viewBox="0 0 64 64" fill="none"><path d="M5 60L10 32L26 18L48 40L58 6M3 3V57C3 59.2092 4.79086 61 7 61H61" stroke="#111111" stroke-linecap="round"></path><path d="M14 32C14 34.2092 12.2091 36 10 36C7.79086 36 6 34.2092 6 32C6 29.7908 7.79086 28 10 28C12.2091 28 14 29.7908 14 32Z" fill="#007456"></path><path d="M30 18C30 20.2092 28.2092 22 26 22C23.7908 22 22 20.2092 22 18C22 15.7909 23.7908 14 26 14C28.2092 14 30 15.7909 30 18Z" fill="#007456"></path><path d="M52 38C52 40.2092 50.2092 42 48 42C45.7908 42 44 40.2092 44 38C44 35.7908 45.7908 34 48 34C50.2092 34 52 35.7908 52 38Z" fill="#007456"></path><path d="M62 6C62 8.20914 60.2092 10 58 10C55.7908 10 54 8.20914 54 6C54 3.79086 55.7908 2 58 2C60.2092 2 62 3.79086 62 6Z" fill="#007456"></path></svg>