<svg xmlns="http://www.w3.org/2000/svg" width="64" height="64" viewBox="0 0 64 64" fill="none"><path d="M57 3H7C4.79086 3 3 4.79572 3 7.01084V45.3148C3 47.53 4.79086 49.3256 7 49.3256H18.824C20.1808 49.3256 21.4452 50.0154 22.1822 51.1576L28.6418 61.1676C30.218 63.6102 33.7822 63.6102 35.3584 61.1676L41.818 51.1576C42.555 50.0154 43.8194 49.3256 45.1762 49.3256H57C59.2092 49.3256 61 47.53 61 45.3148V7.01084C61 4.79572 59.2092 3 57 3V3Z" stroke="#111111"></path><path d="M31.6411 17.2945C19.6631 8.76962 11.527 25.8657 29.3923 38.0177C31.3179 39.3274 33.6822 39.3274 35.6077 38.0177C53.473 25.8657 45.3369 8.76962 33.3589 17.2945C32.833 17.6689 32.167 17.6689 31.6411 17.2945Z" fill="#007456"></path></svg>