<svg xmlns="http://www.w3.org/2000/svg" width="48" height="48" viewBox="0 0 48 48" fill="none"><rect width="48" height="48" rx="24" fill="#007456" fill-opacity="0.05"></rect><g clip-path="url(#clip0_3512_26734)"><path d="M14 17.5V15.993C14.0018 15.7304 14.1069 15.479 14.2925 15.2932C14.4781 15.1074 14.7294 15.0021 14.992 15H33.008C33.556 15 34 15.445 34 15.993V32.007C33.9982 32.2696 33.8931 32.521 33.7075 32.7068C33.5219 32.8926 33.2706 32.9979 33.008 33H14.992C14.7288 32.9997 14.4765 32.895 14.2905 32.7088C14.1045 32.5226 14 32.2702 14 32.007V31H32V19.3L24 26.5L14 17.5ZM12 22H17V24H12V22ZM12 27H20V29H12V27Z" fill="#007456"></path></g><defs><clipPath id="clip0_3512_26734"><rect width="24" height="24" fill="white" transform="translate(12 12)"></rect></clipPath></defs></svg>