<?xml version="1.0" encoding="UTF-8"?>
<svg xmlns="http://www.w3.org/2000/svg" width="80" height="32" viewBox="0 0 80 32" fill="none">
  <path d="M19.8547 26.1818C22.7825 26.1818 26.5076 23.0455 26.5076 23.0455L29.0295 28.3182C27.667 29.4697 26.0872 30.3788 24.2899 31.0455C22.5216 31.6818 20.7968 32 19.1155 32C14.8253 32 11.3322 30.4394 8.63629 27.3182C5.96938 24.1667 4.89681 20.3939 5.4186 16C5.94039 11.6061 7.89709 7.84848 11.2887 4.72727C14.7093 1.57576 18.5648 0 22.855 0C24.5363 0 26.2031 0.318182 27.8555 0.954544C29.5078 1.59091 30.8557 2.48485 31.8993 3.63636L29.1599 8.90909C27.3627 6.84849 25.0726 5.81818 22.2897 5.81818C19.5069 5.81818 16.9994 6.81818 14.7673 8.81818C12.5642 10.7879 11.3032 13.1818 10.9843 16C10.6655 18.8182 11.3612 21.2273 13.0715 23.2273C14.8108 25.197 17.0719 26.1818 19.8547 26.1818Z" fill="white"></path>
  <path d="M42.629 6.56522C41.7745 7.28986 40.7827 7.65218 39.6536 7.65218C38.5245 7.65218 37.609 7.28986 36.9071 6.56522C36.2357 5.8116 35.9611 4.89855 36.0832 3.82609C36.2052 2.75362 36.7087 1.85507 37.5937 1.13044C38.4787 0.376812 39.4858 0 40.6149 0C41.744 0 42.6443 0.376812 43.3156 1.13044C44.0175 1.85507 44.2922 2.75362 44.1396 3.82609C43.987 4.89855 43.4835 5.8116 42.629 6.56522ZM42.1336 10.3226L39.974 27.8261C39.6994 29.913 39.7604 31.3043 40.1571 32H34.2979C33.9012 31.3043 33.8402 29.913 34.1148 27.8261L36.3259 10.3226H42.1336Z" fill="white"></path>
  <path d="M52.6914 32.0016L46.2271 10.3242H52.5594L55.8136 23.6104L62.4098 10.3242H68.7422L56.9129 32.0016H52.6914Z" fill="white"></path>
  <path d="M78.4483 6.56522C77.5939 7.28986 76.6021 7.65218 75.4729 7.65218C74.3438 7.65218 73.4283 7.28986 72.7264 6.56522C72.0551 5.8116 71.7804 4.89855 71.9025 3.82609C72.0246 2.75362 72.5281 1.85507 73.4131 1.13044C74.2981 0.376812 75.3051 0 76.4342 0C77.5633 0 78.4636 0.376812 79.135 1.13044C79.8368 1.85507 80.1115 2.75362 79.9589 3.82609C79.8063 4.89855 79.3028 5.8116 78.4483 6.56522ZM77.9529 10.3226L75.7934 27.8261C75.5187 29.913 75.5798 31.3043 75.9765 32H70.1173C69.7205 31.3043 69.6595 29.913 69.9342 27.8261L72.3242 10.3226H77.9529Z" fill="white"></path>
  <path d="M0.173588 26.8383L9.80607 20.4944L12.8662 25.513L3.24383 31.9996L0.173588 26.8383Z" fill="white"></path>
</svg>
