<svg xmlns="http://www.w3.org/2000/svg" width="350" height="300" viewBox="0 0 350 300" fill="none"><mask id="mask0_6026_35711" style="mask-type:alpha" maskUnits="userSpaceOnUse" x="0" y="0" width="350" height="300"><path d="M324.071 36.4546C351.803 72.0263 353.33 126.909 344.068 168.224C340.223 185.386 334.62 202.427 324.731 216.902C314.786 231.461 300.911 242.831 286.321 252.592C250.271 276.708 208.592 292.151 165.672 297.288C136.061 300.832 105.423 299.42 77.4111 289.079C49.4004 278.742 24.1897 258.849 10.9019 231.843C-10.5 188.344 3.2753 132.653 36.374 97.4443C52.4954 80.2979 72.4454 67.3222 92.9334 55.9005C110.207 46.2727 128.001 37.6314 145.921 29.2964C177.352 14.6783 210.281 0.749998 244.875 0.468555C266.975 0.287627 289.892 6.72062 307.696 20.2361C313.952 24.985 319.385 30.4438 324.071 36.4546Z" fill="white"></path></mask><g mask="url(#mask0_6026_35711)"><path d="M165.927 207.539L151.84 353.922M209.681 208.289L234.706 353.171" stroke="#121514" stroke-width="3"></path><path fill-rule="evenodd" clip-rule="evenodd" d="M79.9834 222.357C79.9131 222.289 79.8428 222.223 79.7709 222.153C72.3521 214.97 67.0211 205.114 66.9533 194.725C66.8775 182.779 73.7277 171.654 82.6901 163.875C92.3893 155.454 106.805 146.929 118.729 142.523C133.15 137.195 149.557 139.964 164.103 134.11C184.514 125.895 200.713 110.954 214.654 94.1369C227.7 78.3977 237.303 55.2127 258.577 49.7987C265.818 47.9554 273.734 48.192 280.475 51.441C291.594 56.7977 297.657 69.1132 301.17 81.056C309.013 107.734 308.015 136.99 298.376 163.058C270.244 239.13 177.088 266.139 106.114 237.93C96.6458 234.167 87.3685 229.428 79.9834 222.357Z" fill="#E57A74"></path><path fill-rule="evenodd" clip-rule="evenodd" d="M198.022 163.392C196.264 149.097 182.217 141.843 169.785 139.389C152.822 136.038 136.239 130.681 120.487 123.48C116.723 121.758 112.984 119.924 109.16 118.345C106.172 117.113 103.135 116.038 99.993 115.293C76.4879 109.731 60.2412 123.65 46.8938 141.107C37.5661 153.308 28.7519 165.916 20.4864 178.879C10.8652 193.966 1.9838 209.547 -8.29612 224.198C-10.8699 227.864 -13.4773 232.067 -16.5417 235.662C-13.028 240.619 -9.16882 245.394 -5.69633 250.347C-3.31817 248.371 -1.04852 246.187 1.25628 244.158C25.7379 222.613 51.5967 202.666 78.617 184.489C80.5061 183.218 82.4593 181.93 84.6816 181.472C87.6543 180.861 90.7004 181.809 93.5814 182.771C107.259 187.341 121.366 190.919 135.551 193.424C148.1 195.639 161.812 197.626 174.437 194.89C187.968 191.96 199.835 178.161 198.022 163.392Z" fill="#5FC1CB"></path><path fill-rule="evenodd" clip-rule="evenodd" d="M11.6921 312.945C26.788 314.813 41.9817 315.871 57.1876 316.118C62.8961 283.657 68.6046 251.196 74.3116 218.736C104.606 222.744 135.358 222.381 165.769 219.419C176.548 218.371 187.514 216.934 197.293 212.23C215.628 203.41 221.48 185.272 216.697 165.955C215.75 162.124 214.156 158.4 211.637 155.383C207.779 150.767 202.036 148.135 196.209 146.793C184.653 144.129 174.188 147.805 162.674 148.01C147.789 148.278 132.963 149.909 118.228 151.958C89.6948 155.928 60.0945 162.059 37.6548 180.325C27.2251 188.816 24.3227 198.491 21.3821 211.194C13.7692 244.091 14.1024 279.3 11.6921 312.945Z" fill="#5FC1CB"></path><path fill-rule="evenodd" clip-rule="evenodd" d="M192.112 85.3472C192.283 85.1338 192.451 84.9204 192.619 84.7039C195.61 80.8889 199.459 76.4569 204.203 77.2843C207.342 77.8317 209.696 80.7482 210.442 83.8812C211.186 87.0157 210.598 90.3173 209.702 93.41C206.729 103.681 199.44 110.793 192.633 118.652C185.561 126.817 176.003 135.492 164.735 136.188C159.059 136.539 152.193 134.241 151.023 128.611C150.382 125.536 151.727 122.324 153.768 119.958C155.808 117.591 158.484 115.898 161.064 114.15C172.778 106.217 183.287 96.4673 192.112 85.3472Z" fill="#FFFFFE"></path><path fill-rule="evenodd" clip-rule="evenodd" d="M192.112 85.3472C192.283 85.1338 192.451 84.9204 192.619 84.7039C195.61 80.8889 199.459 76.4569 204.203 77.2843C207.342 77.8317 209.696 80.7482 210.442 83.8812C211.186 87.0157 210.598 90.3173 209.702 93.41C206.729 103.681 199.44 110.793 192.633 118.652C185.561 126.817 176.003 135.492 164.735 136.188C159.059 136.539 152.193 134.241 151.023 128.611C150.382 125.536 151.727 122.324 153.768 119.959C155.808 117.591 158.484 115.898 161.064 114.15C172.778 106.217 183.287 96.4673 192.112 85.3472Z" stroke="#000105" stroke-width="0.5"></path><path fill-rule="evenodd" clip-rule="evenodd" d="M232.027 183.731C242.44 168.533 251.797 152.536 261.109 136.603C265.705 128.74 271.322 119.443 271.493 110.056C271.576 105.502 269.288 98.0456 265.963 94.6343C261.479 90.0337 253.443 90.7698 248.074 87.6214C236.734 80.9734 227.965 71.5961 213.824 71.9719C206.884 72.1575 200.347 74.8528 194.773 78.9461C189.298 82.9636 185.052 88.2894 180.84 93.5734C179.331 95.4631 178.917 95.4229 179.931 97.3729C180.444 98.3595 181.428 99.5255 182.098 100.433C183.935 102.928 186.363 105.154 188.914 106.885C189.327 107.166 189.799 107.519 189.795 108.021C189.793 108.337 189.596 108.614 189.408 108.866C184.288 115.727 179.125 121.988 171.902 126.634C170.057 127.821 157.187 137.513 155.175 134.256C161.31 144.191 167.639 154.003 174.156 163.685C185.333 180.286 197.163 196.617 211.713 210.283C219.02 201.853 225.718 192.938 232.027 183.731Z" fill="#35619C"></path><path fill-rule="evenodd" clip-rule="evenodd" d="M169.912 149.059L107.933 119.933C107.126 119.552 107.338 118.337 108.226 118.261L151.247 114.582L216.191 145.103L169.912 149.059Z" fill="#FFFFFE"></path><path fill-rule="evenodd" clip-rule="evenodd" d="M169.912 149.059L107.933 119.933C107.126 119.552 107.338 118.337 108.226 118.261L151.247 114.582L216.191 145.103L169.912 149.059Z" stroke="#121514" stroke-width="0.5"></path><path fill-rule="evenodd" clip-rule="evenodd" d="M169.34 143.094L135.771 127.319L159.178 126.395L192.748 142.169L169.34 143.094Z" fill="#FFFFFE"></path><path fill-rule="evenodd" clip-rule="evenodd" d="M169.34 143.094L135.771 127.319L159.178 126.395L192.748 142.169L169.34 143.094Z" stroke="#121514" stroke-width="0.5"></path><path fill-rule="evenodd" clip-rule="evenodd" d="M242.406 131.929C239.726 135.358 237.046 138.786 234.365 142.214C233.137 143.786 221.281 141.345 219.238 141.033C214.082 140.246 208.997 139.046 204.019 137.484C194.057 134.359 185.381 130.743 175.737 126.506C169.376 123.713 162.541 121.612 155.614 121.969C152.299 122.139 148.467 123.339 147.405 126.522C146.389 129.574 148.6 132.89 151.38 134.456C154.336 136.119 158.101 135.802 160.951 137.384C163.297 138.684 165.22 141.107 167.719 142.488C188.937 154.213 205.421 175.658 230.479 178.964C236.525 179.762 242.927 179.165 248.233 176.122C252.526 173.662 255.821 169.788 259.024 165.992C269.456 153.635 283.118 137.17 279.138 119.54C278.646 117.364 277.735 115.202 276.074 113.736C274.116 112.007 271.368 111.471 268.772 111.585C258.7 112.03 251.162 120.729 244.907 128.73C244.072 129.795 243.239 130.864 242.406 131.929Z" fill="#FFFFFE"></path><path fill-rule="evenodd" clip-rule="evenodd" d="M242.406 131.929C239.726 135.358 237.046 138.786 234.365 142.214C233.137 143.786 221.281 141.345 219.238 141.033C214.082 140.246 208.997 139.046 204.019 137.484C194.057 134.359 185.381 130.743 175.737 126.506C169.376 123.713 162.541 121.612 155.614 121.969C152.299 122.139 148.467 123.339 147.405 126.522C146.389 129.574 148.6 132.89 151.38 134.456C154.336 136.119 158.101 135.802 160.951 137.384C163.297 138.684 165.22 141.107 167.719 142.488C188.937 154.213 205.421 175.658 230.479 178.964C236.525 179.762 242.927 179.165 248.233 176.122C252.526 173.662 255.821 169.788 259.024 165.992C269.456 153.635 283.118 137.17 279.138 119.54C278.646 117.364 277.735 115.202 276.074 113.736C274.116 112.007 271.368 111.471 268.772 111.585C258.7 112.03 251.162 120.729 244.907 128.73C244.072 129.795 243.239 130.864 242.406 131.929Z" stroke="#121514" stroke-width="0.5"></path><path fill-rule="evenodd" clip-rule="evenodd" d="M105.05 117.857L101.63 73.7695L168.938 104.795L169.912 149.06L106.484 119.926C105.669 119.55 105.121 118.76 105.05 117.857Z" fill="#000105"></path><path fill-rule="evenodd" clip-rule="evenodd" d="M133.562 130.63C130.801 127.211 130.177 122.722 129.566 118.483C129.061 114.99 128.558 111.497 128.054 108.003C127.906 106.972 127.736 105.889 127.11 105.062C126.515 104.275 125.372 103.862 124.533 104.331C124.357 104.111 124.18 103.893 123.978 103.704C123.27 103.041 122.45 102.379 121.422 102.591C120.55 102.77 119.787 103.553 119.494 104.42C119.414 104.306 119.342 104.185 119.234 104.089C118.366 103.346 116.914 103.796 116.122 104.479C115.477 105.037 115.404 105.9 115.372 106.759C115.399 106.015 113.489 106.174 113.152 106.386C112.451 106.83 112.261 107.731 112.183 108.509C111.813 112.194 111.972 115.916 112.416 119.592C112.75 122.359 113.051 124.692 114.65 127.044C115.489 128.28 116.551 129.359 117.771 130.21C119.136 131.161 120.25 131.331 121.792 131.674C123.128 131.974 124.433 132.401 125.722 132.866C128.864 133.998 132.205 135.378 135.424 134.499C135.834 134.388 136.307 134.144 136.314 133.717C136.32 133.27 135.831 133.019 135.447 132.801C134.56 132.296 134.287 131.504 133.679 130.772C133.64 130.726 133.601 130.678 133.562 130.63Z" fill="#FFFFFE"></path><path fill-rule="evenodd" clip-rule="evenodd" d="M133.562 130.63C130.801 127.211 130.177 122.722 129.566 118.483C129.061 114.99 128.558 111.497 128.054 108.003C127.906 106.972 127.736 105.889 127.11 105.062C126.515 104.275 125.372 103.862 124.533 104.331C124.357 104.111 124.18 103.893 123.978 103.704C123.27 103.041 122.45 102.379 121.422 102.591C120.55 102.77 119.787 103.553 119.494 104.42C119.414 104.306 119.342 104.185 119.234 104.089C118.366 103.346 116.914 103.796 116.122 104.479C115.477 105.037 115.404 105.9 115.372 106.759C115.399 106.015 113.489 106.174 113.152 106.386C112.451 106.83 112.261 107.731 112.183 108.509C111.813 112.194 111.972 115.916 112.416 119.592C112.75 122.359 113.051 124.692 114.65 127.044C115.489 128.28 116.551 129.359 117.771 130.21C119.136 131.161 120.25 131.331 121.792 131.674C123.128 131.974 124.433 132.401 125.722 132.866C128.864 133.998 132.205 135.378 135.424 134.499C135.834 134.388 136.307 134.144 136.314 133.717C136.32 133.27 135.831 133.019 135.447 132.801C134.56 132.296 134.287 131.504 133.679 130.772C133.64 130.726 133.601 130.678 133.562 130.63Z" stroke="#000105" stroke-width="0.5"></path><path fill-rule="evenodd" clip-rule="evenodd" d="M124.551 104.164C124.585 107.534 124.776 110.903 125.121 114.254C125.439 117.341 125.381 120.615 126.477 123.547" fill="#FFFFFE"></path><path d="M124.551 104.164C124.585 107.534 124.776 110.903 125.121 114.254C125.439 117.341 125.381 120.615 126.477 123.547" stroke="#000105" stroke-width="0.5"></path><path fill-rule="evenodd" clip-rule="evenodd" d="M119.908 103.613C119.643 108.955 120.793 117.463 121.806 122.711L119.908 103.613Z" fill="#FFFFFE"></path><path d="M119.908 103.613C119.643 108.955 120.793 117.463 121.806 122.711" stroke="#000105" stroke-width="0.5"></path><path fill-rule="evenodd" clip-rule="evenodd" d="M115.515 102.711C115.671 103.36 115.613 104.038 115.566 104.704C115.217 109.8 115.81 116.738 117.146 121.664" fill="#FFFFFE"></path><path d="M115.515 102.711C115.671 103.36 115.613 104.038 115.566 104.704C115.217 109.8 115.81 116.738 117.146 121.664" stroke="#000105" stroke-width="0.5"></path><path fill-rule="evenodd" clip-rule="evenodd" d="M249.434 87.6807C256.186 86.8209 263.082 85.9658 269.749 87.3405C286.508 90.7967 291.556 109.711 289.046 124.871C286.78 138.574 279.619 150.426 271.342 161.255C258.976 152.934 247.471 142.607 235.105 134.286C234.375 133.793 238.888 130.219 243.852 118.692" fill="#35619C"></path><path fill-rule="evenodd" clip-rule="evenodd" d="M245.125 91.2235C242.848 90.5617 240.678 89.5642 238.747 88.1725C236.504 86.555 234.622 84.3869 233.404 81.8818C232.753 80.5441 232.667 76.9952 230.924 76.7199C232.712 77.8271 235.539 78.1905 237.552 77.5874C239.435 77.0215 240.603 74.9771 241.55 73.3859C242.773 71.3338 244.065 69.3916 244.855 67.0998C244.898 66.9761 244.94 66.8478 244.934 66.7163C244.908 66.1689 243.548 65.5488 243.125 65.3091C242.449 64.924 241.709 64.6086 241.081 64.1416C239.418 62.906 237.884 61.4555 236.889 59.6045C235.695 57.3777 235.379 54.789 235.18 52.2653C234.31 41.2225 237.768 29.9555 246 22.2715C246.66 21.6545 247.369 21.0529 248.217 20.7606C251.332 19.6875 253.979 22.689 256.793 23.3957C259.529 24.0823 262.064 24.7627 264.774 25.7679C268.021 26.971 271.355 27.9297 274.564 29.2395C276.474 30.0189 280.922 31.355 281.597 33.6467C282.345 36.1751 280.099 38.8472 279.306 41.0632C278.378 43.6565 277.64 46.2405 276.578 48.8369C274.265 54.4766 272.409 60.2926 270.694 66.1426C269.424 70.471 268.042 74.7962 267.383 79.273C267.119 81.0777 266.836 83.0091 267.464 84.772C267.738 85.5374 268.222 86.2302 268.84 86.7498C269.116 86.9849 270.512 87.9854 270.895 87.6993C269.489 88.7493 267.923 89.5813 266.267 90.1565C265.022 90.588 263.733 90.874 262.448 91.1601C256.585 92.4606 250.974 92.923 245.125 91.2235Z" fill="#FFFFFE"></path><path fill-rule="evenodd" clip-rule="evenodd" d="M245.125 91.2235C242.848 90.5617 240.678 89.5643 238.747 88.1725C236.504 86.555 234.622 84.3869 233.404 81.8818C232.753 80.5441 232.667 76.9952 230.924 76.7199C232.712 77.8271 235.539 78.1905 237.552 77.5874C239.435 77.0215 240.603 74.9771 241.55 73.3859C242.773 71.3338 244.065 69.3916 244.855 67.0998C244.898 66.9761 244.94 66.8478 244.934 66.7163C244.908 66.1689 243.548 65.5488 243.125 65.3091C242.449 64.924 241.709 64.6086 241.081 64.1416C239.418 62.906 237.884 61.4555 236.889 59.6045C235.695 57.3777 235.379 54.789 235.18 52.2653C234.31 41.2225 237.768 29.9555 246 22.2715C246.66 21.6545 247.369 21.0529 248.217 20.7606C251.332 19.6875 253.979 22.689 256.793 23.3957C259.529 24.0823 262.064 24.7627 264.774 25.7679C268.021 26.971 271.355 27.9297 274.564 29.2395C276.474 30.0189 280.922 31.355 281.597 33.6467C282.345 36.1751 280.099 38.8472 279.306 41.0632C278.378 43.6565 277.64 46.2405 276.578 48.8369C274.265 54.4766 272.409 60.2926 270.694 66.1426C269.424 70.471 268.042 74.7962 267.383 79.273C267.119 81.0777 266.836 83.0091 267.464 84.772C267.738 85.5374 268.222 86.2302 268.84 86.7498C269.116 86.9849 270.512 87.9854 270.895 87.6993C269.489 88.7493 267.923 89.5813 266.267 90.1565C265.022 90.588 263.733 90.874 262.448 91.1601C256.585 92.4606 250.974 92.923 245.125 91.2235Z" stroke="#121514" stroke-width="0.5"></path><path fill-rule="evenodd" clip-rule="evenodd" d="M273.625 52.1503C275.146 52.0003 276.682 51.3601 277.356 49.8895C279.243 55.6158 287.98 53.1076 288.298 47.6194C288.44 45.1668 286.593 42.688 284.186 42.3694C285.796 41.7725 287.439 41.1369 288.716 39.9802C289.994 38.8251 290.844 37.0235 290.414 35.3457C289.766 32.8158 286.659 31.7936 284.096 32.1029C286.477 30.8859 288.129 26.7741 286.757 24.3571C285.834 22.7287 284.113 22.1071 282.351 22.0375C281.689 22.0096 278.294 22.1967 277.989 22.871C279.357 19.8555 278.074 15.8751 275.208 14.2576C272.343 12.6385 268.323 13.6205 266.503 16.3839C266.714 12.5983 264.366 8.67819 260.79 7.54314C257.64 6.54262 250.973 8.9287 251.888 13.2153C249.891 12.2302 247.922 11.1895 245.628 11.1942C243.372 11.1988 240.996 12.3988 240.178 14.5266C239.359 16.6545 240.736 19.5199 242.984 19.6931C241.369 19.8308 239.716 20.1138 238.329 20.9643C236.939 21.8148 235.859 23.3364 235.918 24.9756C235.955 25.9545 236.372 26.8081 237.016 27.5055C238.046 28.6235 239.652 29.3395 241.191 29.539C243.17 29.7942 245.219 29.4849 247.037 28.6529C245.591 30.4189 246.053 33.2828 247.691 34.8694C249.327 36.4545 251.81 36.8875 254.042 36.4854C256.273 36.0818 258.305 34.9483 260.226 33.7328C258.578 35.5514 259.587 38.7663 261.687 40.0235C263.791 41.2823 266.436 41.0179 268.682 40.3297C266.296 41.0627 267.088 47.3117 267.519 48.9741C267.814 50.1107 268.696 51.0339 269.738 51.5519C270.782 52.0699 271.971 52.2184 273.133 52.1828C273.296 52.1766 273.462 52.1674 273.625 52.1503Z" fill="#121514"></path><path fill-rule="evenodd" clip-rule="evenodd" d="M244.966 66.3242C244.884 66.5361 244.801 66.7495 244.713 66.9613C244.61 67.2119 244.505 67.4639 244.398 67.7144C244.392 67.7299 244.384 67.7454 244.379 67.7608C244.282 68.2928 244.092 68.7861 243.838 69.2531C243.799 69.3737 243.75 69.4928 243.71 69.6134C243.539 70.1283 243.314 70.617 243.08 71.0979C245.717 71.282 249.113 71.3036 251.506 68.8124C252.15 68.1428 252.917 67.4005 253.324 66.5887C250.676 67.3 247.722 67.1608 244.966 66.3242Z" fill="#000105"></path><path d="M238.336 51.4297C238.339 53.341 239.64 55.1812 241.428 55.8029C243.216 56.4214 245.359 55.775 246.521 54.2658" stroke="#121514" stroke-width="0.5"></path><path fill-rule="evenodd" clip-rule="evenodd" d="M265.564 48.6631C267.267 47.2605 269.442 46.362 271.634 46.5027C273.824 46.6435 275.985 47.9332 276.89 49.9574C277.692 51.7558 277.419 53.9625 276.326 55.5986C275.231 57.2332 273.39 58.294 271.458 58.5754C269.842 58.8089 268.056 58.4687 266.916 57.2873" fill="#FFFFFE"></path><path d="M265.564 48.6631C267.267 47.2605 269.442 46.362 271.634 46.5027C273.824 46.6435 275.985 47.9332 276.89 49.9574C277.692 51.7558 277.419 53.9625 276.326 55.5986C275.231 57.2332 273.39 58.294 271.458 58.5754C269.842 58.8089 268.056 58.4687 266.916 57.2873" stroke="#121514" stroke-width="0.5"></path><path fill-rule="evenodd" clip-rule="evenodd" d="M272.872 48.9018C271.764 48.7487 270.629 49.0672 269.641 49.5945C268.649 50.1234 267.779 50.8502 266.919 51.5708" fill="#FFFFFE"></path><path d="M272.872 48.9018C271.764 48.7487 270.629 49.0672 269.641 49.5945C268.649 50.1234 267.779 50.8502 266.919 51.5708" stroke="#121514" stroke-width="0.5"></path><path fill-rule="evenodd" clip-rule="evenodd" d="M188.953 109.912C190.998 107.419 193.043 104.926 195.088 102.433C196.112 101.184 197.137 99.9311 198.013 98.5703" fill="#6186B7"></path><path d="M188.953 109.912C190.998 107.419 193.043 104.926 195.088 102.433C196.112 101.184 197.137 99.9311 198.013 98.5703" stroke="#000105" stroke-width="0.5"></path><path d="M154.718 165.051C126.173 159.564 107.569 157.735 79.0235 152.25C66.3166 149.808 51.7618 154.639 42.9995 164.265C34.2373 173.892 29.6155 186.566 25.6294 199.016C22.4443 208.967 19.5266 219.004 16.884 229.115M74.038 220.232C72.962 214.574 71.6781 208.956 70.191 203.394M238.648 136.942C237.707 136.251 236.768 135.56 235.828 134.868C240.826 128.652 245.825 122.435 250.822 116.217C251.642 115.2 252.51 114.001 252.292 112.707" stroke="#121514" stroke-width="0.5"></path><path fill-rule="evenodd" clip-rule="evenodd" d="M188.075 104.918C188.127 104.666 188.213 104.421 188.331 104.196C188.679 103.526 189.413 102.73 190.189 102.617C191.234 102.465 192.098 102.833 192.474 101.551C192.804 100.422 193.642 99.7884 194.863 99.7188C195.271 99.6956 195.679 99.7543 196.087 99.7203C196.313 99.7018 196.857 99.4791 197.068 99.5889C197.611 99.8657 196.734 100.763 196.477 101.138C195.844 102.065 195.196 102.979 194.517 103.868C193.865 104.723 193.183 105.555 192.46 106.348C192.262 106.566 190.133 108.533 190.16 108.594C189.807 107.805 188.888 107.438 188.396 106.729C188.036 106.211 187.948 105.544 188.075 104.918Z" fill="#000105"></path><path d="M231.165 175.299C233.455 175.844 235.824 176.148 238.162 175.907C240.5 175.664 242.819 174.848 244.636 173.337M246.527 172.148C247.652 171.178 248.647 170.054 249.472 168.812M233.329 142.718C234.502 142.777 235.674 142.79 236.846 142.752M173.517 214.208C177.886 213.874 182.219 213.075 186.42 211.825C188.603 211.177 193.857 209.388 195.893 208.36M223.433 189.492C221.522 191.717 219.609 193.944 217.697 196.168M72.5295 201.393C72.6258 203.039 72.7205 204.684 72.8168 206.329M177.244 210.962C179.059 210.673 180.878 210.385 182.694 210.096M57.1784 161.459C55.1288 161.812 53.1771 162.738 51.5967 164.105M76.7631 120.336C74.4384 121.196 72.1993 122.291 70.0917 123.602M49.6633 165.845C49.1574 166.568 48.6531 167.291 48.1472 168.014" stroke="#121514" stroke-width="0.5"></path></g></svg>