<svg width="24" height="23" viewBox="0 0 24 23" fill="none" xmlns="http://www.w3.org/2000/svg">
<path d="M12.0009 0.5L16.2269 6.683L23.4139 8.792L18.8389 14.722L19.0539 22.208L12.0009 19.69L4.94789 22.208L5.16289 14.722L0.587891 8.792L7.77489 6.683L12.0009 0.5ZM12.0009 4.044L9.02289 8.402L3.95789 9.887L7.18289 14.065L7.02989 19.34L12.0009 17.566L16.9709 19.34L16.8189 14.065L20.0429 9.887L14.9789 8.402L12.0009 4.044ZM10.0009 12C10.0009 12.5304 10.2116 13.0391 10.5867 13.4142C10.9618 13.7893 11.4705 14 12.0009 14C12.5313 14 13.04 13.7893 13.4151 13.4142C13.7902 13.0391 14.0009 12.5304 14.0009 12H16.0009C16.0009 13.0609 15.5795 14.0783 14.8293 14.8284C14.0792 15.5786 13.0618 16 12.0009 16C10.94 16 9.92261 15.5786 9.17246 14.8284C8.42232 14.0783 8.00089 13.0609 8.00089 12H10.0009Z" fill="#999999"/>
</svg>
