<svg xmlns="http://www.w3.org/2000/svg" width="298" height="229" viewBox="0 0 298 229" fill="none"><path d="M270.783 20.0094C287.95 38.2427 297.167 58.6927 297.167 91.8427C297.167 150.176 256.217 202.459 196.667 228.309L181.783 205.343C237.367 175.276 248.233 136.259 252.567 111.659C243.617 116.293 231.9 117.909 220.417 116.843C190.35 114.059 166.65 89.376 166.65 58.6927C166.65 43.2217 172.796 28.3844 183.735 17.4448C194.675 6.50519 209.512 0.359375 224.983 0.359375C242.867 0.359375 259.967 8.52604 270.783 20.0094ZM104.117 20.0094C121.283 38.2427 130.5 58.6927 130.5 91.8427C130.5 150.176 89.55 202.459 30 228.309L15.1167 205.343C70.7 175.276 81.5667 136.259 85.9 111.659C76.95 116.293 65.2333 117.909 53.75 116.843C23.6833 114.059 0 89.376 0 58.6927C0 43.2217 6.14581 28.3844 17.0854 17.4448C28.0251 6.50519 42.8624 0.359375 58.3333 0.359375C76.2167 0.359375 93.3167 8.52604 104.133 20.0094H104.117Z" fill="#DDDDDD"></path></svg>