<svg xmlns="http://www.w3.org/2000/svg" width="29" height="32" viewBox="0 0 29 32" fill="none"><path d="M22.0448 4.91182C18.4064 0.701399 6.63195 8.85633 6.72738 19.3689C6.7265 19.4331 6.71287 19.496 6.68736 19.555C6.66219 19.6137 6.62576 19.667 6.58006 19.7121C6.53447 19.7575 6.48022 19.7936 6.42044 19.8184C6.36107 19.8435 6.29731 19.857 6.23267 19.8578C6.18957 19.8574 6.14736 19.8518 6.10602 19.8405C6.06469 19.8296 6.02511 19.8131 5.98817 19.7923C5.95124 19.7715 5.91694 19.7459 5.88615 19.7164C5.85581 19.6869 5.82899 19.6539 5.807 19.6179C5.50798 18.9746 5.27052 18.3053 5.09858 17.6181C4.92664 16.931 4.82066 16.2296 4.78241 15.5229C4.74371 14.8163 4.77273 14.1074 4.86904 13.406C4.9649 12.705 5.12804 12.0139 5.35539 11.3428C5.38969 11.2435 5.38793 11.1355 5.35011 11.037C5.31281 10.9386 5.24204 10.8561 5.14988 10.8035C5.05773 10.7509 4.94991 10.7314 4.84485 10.7485C4.74019 10.7659 4.64433 10.818 4.57397 10.8969C4.08894 11.4075 3.65359 11.9623 3.27366 12.5536C2.89372 13.1448 2.57139 13.7699 2.31019 14.4211C2.04943 15.0721 1.85112 15.7459 1.71786 16.4334C1.58499 17.1212 1.51786 17.8198 1.51734 18.52C1.50019 20.0058 1.78338 21.4798 2.35108 22.8558C2.91859 24.2313 3.75897 25.4811 4.82286 26.5318C5.88649 27.5822 7.15224 28.4122 8.5457 28.9732C9.93886 29.5336 11.4316 29.8134 12.9361 29.7961C28.9998 29.436 25.2923 8.66763 22.0448 4.91182Z" fill="white"></path></svg>