<svg xmlns="http://www.w3.org/2000/svg" width="48" height="48" viewBox="0 0 48 48" fill="none"><g clip-path="url(#clip0_5310_31544)"><path d="M15 31C9.762 31 5.5 26.738 5.5 21.5C5.5 16.262 9.762 12 15 12C20.238 12 24.5 16.262 24.5 21.5C24.5 26.738 20.238 31 15 31ZM7.992 18.852C7.666 19.702 7.5 20.592 7.5 21.5C7.5 25.636 10.864 29 15 29C19.048 29 22.356 25.778 22.496 21.762C21.008 22.242 19.458 22.486 17.882 22.486C14.218 22.486 10.732 21.2 7.992 18.852ZM8.976 17.042C11.372 19.23 14.592 20.478 17.876 20.478C19.39 20.478 20.87 20.222 22.28 19.716C21.466 16.38 18.468 14 15 14C12.614 14 10.394 15.13 8.976 17.042Z" fill="black"></path><path d="M1 48C0.448 48 0 47.552 0 47C0 38.73 6.73 32 15 32C23.27 32 30 38.73 30 47C30 47.552 29.552 48 29 48H1ZM27.962 46C27.452 39.23 21.854 34 15 34C8.146 34 2.548 39.23 2.038 46H27.962Z" fill="black"></path><path d="M31.0001 24C30.8501 24 30.7061 23.968 30.5681 23.902C30.2221 23.736 30.0001 23.382 30.0001 23V20H27.0001C26.4481 20 26.0001 19.552 26.0001 19C26.0001 18.448 26.4481 18 27.0001 18H31.0001C31.5521 18 32.0001 18.448 32.0001 19V20.92L35.3761 18.22C35.5521 18.078 35.7741 18 36.0001 18H38.0001C42.4121 18 46.0001 14.412 46.0001 10C46.0001 5.588 42.4121 2 38.0001 2H26.0001C21.9201 2 18.5021 5.058 18.0481 9.112C17.9921 9.618 17.5661 10 17.0581 10C17.0181 10 16.9781 9.998 16.9381 9.992C16.6781 9.962 16.4381 9.832 16.2721 9.622C16.1061 9.416 16.0301 9.154 16.0601 8.888C16.6261 3.822 20.9001 0 25.9981 0H38.0001C43.5141 0 48.0001 4.486 48.0001 10C48.0001 15.514 43.5141 20 38.0001 20H36.3501L31.6241 23.78C31.4481 23.922 31.2261 24 31.0001 24Z" fill="black"></path><path d="M38 11.5C37.172 11.5 36.5 10.828 36.5 10C36.5 9.212 37.118 8.556 37.908 8.508C37.94 8.502 37.97 8.5 38 8.5C38.828 8.5 39.5 9.172 39.5 10C39.5 10.828 38.828 11.5 38 11.5Z" fill="black"></path><path d="M32 11.5C31.172 11.5 30.5 10.828 30.5 10C30.5 9.232 31.076 8.596 31.842 8.514C31.862 8.512 31.882 8.51 31.902 8.51C31.912 8.504 31.956 8.5 32 8.5C32.828 8.5 33.5 9.172 33.5 10C33.5 10.828 32.828 11.5 32 11.5Z" fill="black"></path><path d="M26 11.4999C25.172 11.4999 24.5 10.8279 24.5 9.99991C24.5 9.18791 25.138 8.52991 25.95 8.50391C25.952 8.50391 25.954 8.50391 25.958 8.50391C26.832 8.50391 27.5 9.17591 27.5 9.99991C27.5 10.8279 26.828 11.4999 26 11.4999Z" fill="black"></path></g><defs><clipPath id="clip0_5310_31544"><rect width="48" height="48" fill="white"></rect></clipPath></defs></svg>