<svg xmlns="http://www.w3.org/2000/svg" width="48" height="48" viewBox="0 0 48 48" fill="none"><g opacity="0.8" clip-path="url(#clip0_5310_31552)"><path d="M23.9976 41.998C17.2816 41.998 10.5036 41.546 3.85164 40.656C2.52964 40.476 1.48564 39.472 1.25564 38.16C-0.426359 28.764 -0.426359 19.234 1.25564 9.836C1.48564 8.524 2.52764 7.522 3.84964 7.344C10.5056 6.452 17.2836 6 23.9996 6C30.7156 6 37.4936 6.452 44.1456 7.342C45.4676 7.522 46.5096 8.526 46.7416 9.838C48.4236 19.234 48.4236 28.766 46.7416 38.164C46.5116 39.476 45.4696 40.478 44.1476 40.658C37.4936 41.546 30.7136 41.998 23.9976 41.998ZM23.9996 8C17.3716 8 10.6836 8.446 4.11764 9.324C3.66364 9.386 3.30564 9.73 3.22564 10.184C1.58564 19.352 1.58564 28.646 3.22564 37.812C3.30564 38.266 3.66564 38.614 4.11964 38.674C10.6816 39.552 17.3696 39.998 23.9956 39.998C30.6216 39.998 37.3116 39.552 43.8796 38.674C44.3336 38.612 44.6916 38.268 44.7716 37.816C46.4116 28.652 46.4136 19.36 44.7736 10.2C44.7736 10.196 44.7716 10.19 44.7716 10.186C44.6916 9.734 44.3336 9.388 43.8776 9.326C37.3156 8.446 30.6256 8 23.9996 8Z" fill="black"></path><path d="M18.07 32.8423C16.934 32.8423 16.002 31.9123 15.998 30.7683V17.2283C15.998 16.8683 16.094 16.5143 16.27 16.2023C16.64 15.5563 17.334 15.1523 18.082 15.1523C18.438 15.1523 18.79 15.2443 19.102 15.4203C19.104 15.4223 30.952 22.1923 30.952 22.1923C31.274 22.3763 31.54 22.6443 31.726 22.9643C32.294 23.9603 31.946 25.2323 30.952 25.8003L19.11 32.5683C18.804 32.7423 18.436 32.8403 18.1 32.8403C18.1 32.8423 18.074 32.8423 18.07 32.8423ZM18.08 17.1523C18.068 17.1523 18.03 17.1543 18.01 17.1923L18 30.7663C18 30.8083 18.036 30.8443 18.08 30.8443L29.96 24.0663C29.996 24.0463 30.01 23.9963 29.988 23.9583L18.118 17.1623L18.08 17.1523Z" fill="black"></path></g><defs><clipPath id="clip0_5310_31552"><rect width="48" height="48" fill="white"></rect></clipPath></defs></svg>