<svg xmlns="http://www.w3.org/2000/svg" width="86" height="32" viewBox="0 0 86 32" fill="none"><g opacity="0.7"><path d="M29.9571 23.183V13.4796H30.13L37.1931 23.183H39.4157V8.93343H36.9461V18.6124H36.7732L29.7101 8.93343H27.4875V23.183H29.9571ZM46.4047 23.4029C49.6646 23.4029 51.665 21.3009 51.665 17.7813C51.665 14.2862 49.6646 12.1597 46.4047 12.1597C43.1695 12.1597 41.1445 14.2862 41.1445 17.7813C41.1692 21.3009 43.1448 23.4029 46.4047 23.4029ZM46.4047 21.3498C44.676 21.3498 43.6882 20.0544 43.6882 17.7813C43.6882 15.5327 44.676 14.2128 46.4047 14.2128C48.1335 14.2128 49.1213 15.5327 49.1213 17.7813C49.1213 20.0544 48.1335 21.3498 46.4047 21.3498ZM53.9124 9.74001V12.453H52.1837V14.4084H53.9124V20.2988C53.9124 22.4008 54.9002 23.2318 57.4192 23.2318C57.8885 23.2318 58.3577 23.183 58.7281 23.1096V21.2032C58.4318 21.2276 58.2342 21.2521 57.8885 21.2521C56.8512 21.2521 56.382 20.7877 56.382 19.7122V14.4084H58.7281V12.453H56.382V9.74001H53.9124ZM60.2099 23.183H62.6795V12.3797H60.2099V23.183ZM61.4447 10.5955C62.2597 10.5955 62.9265 9.93554 62.9265 9.12896C62.9265 8.29795 62.2597 7.63802 61.4447 7.63802C60.6298 7.63802 59.963 8.29795 59.963 9.12896C59.963 9.93554 60.6298 10.5955 61.4447 10.5955ZM69.4463 23.4029C72.7062 23.4029 74.7066 21.3009 74.7066 17.7813C74.7066 14.2862 72.7062 12.1597 69.4463 12.1597C66.2111 12.1597 64.186 14.2862 64.186 17.7813C64.186 21.3009 66.1617 23.4029 69.4463 23.4029ZM69.4463 21.3498C67.7176 21.3498 66.7297 20.0544 66.7297 17.7813C66.7297 15.5327 67.7176 14.2128 69.4463 14.2128C71.1503 14.2128 72.1629 15.5327 72.1629 17.7813C72.1382 20.0544 71.1503 21.3498 69.4463 21.3498ZM76.1637 23.183H78.6333V16.9014C78.6333 15.3127 79.5717 14.3106 81.0288 14.3106C82.5353 14.3106 83.2268 15.1416 83.2268 16.7792V23.183H85.6964V16.1926C85.6964 13.6018 84.3628 12.1597 81.9426 12.1597C80.3126 12.1597 79.226 12.893 78.7074 14.1151H78.5345V12.3797H76.139C76.1637 12.3797 76.1637 23.183 76.1637 23.183Z" fill="black"></path><path fill-rule="evenodd" clip-rule="evenodd" d="M3.80804 8.0214C4.52682 8.60127 4.78681 8.55549 6.13262 8.46393L18.8108 7.70095C19.0861 7.70095 18.8567 7.42627 18.7649 7.39575L16.6544 5.88505C16.2568 5.57986 15.7062 5.21363 14.6816 5.30518L2.41634 6.2055C1.97284 6.25128 1.88108 6.48018 2.0646 6.64803L3.80804 8.0214ZM4.5727 10.9665V24.2729C4.5727 24.9901 4.92445 25.2495 5.735 25.2037L19.6672 24.395C20.4778 24.3492 20.5695 23.8609 20.5695 23.281V10.0662C20.5695 9.48632 20.3401 9.16587 19.8507 9.21165L5.29149 10.0662C4.75622 10.112 4.5727 10.3866 4.5727 10.9665ZM18.3214 11.6837C18.4132 12.0805 18.3214 12.4925 17.9238 12.5382L17.2509 12.6756V22.5028C16.6697 22.808 16.1345 22.9911 15.6757 22.9911C14.9569 22.9911 14.7733 22.7622 14.2381 22.0908L9.8489 15.2087V21.8619L11.2406 22.1671C11.2406 22.1671 11.2406 22.9758 10.1242 22.9758L7.03493 23.159C6.94317 22.9758 7.03493 22.5333 7.34079 22.4418L8.15134 22.2129V13.4233L7.03493 13.3317C6.94317 12.935 7.17257 12.3551 7.79959 12.3094L11.1182 12.0805L15.6909 19.0389V12.8892L14.5287 12.7519C14.4369 12.2636 14.8039 11.8973 15.2474 11.8516L18.3214 11.6837ZM1.39169 4.98473L14.1616 4.05389C15.7215 3.91656 16.1345 4.00812 17.1132 4.72532L21.1812 7.57887C21.8542 8.06718 22.0836 8.20451 22.0836 8.7386V24.4102C22.0836 25.3869 21.7318 25.9667 20.4778 26.0583L5.65853 26.9586C4.71034 27.0044 4.26684 26.867 3.77745 26.2414L0.764666 22.3502C0.2294 21.633 0 21.0989 0 20.4733V6.54121C0 5.73245 0.36704 5.07629 1.39169 4.98473Z" fill="black"></path></g></svg>