<svg xmlns="http://www.w3.org/2000/svg" width="62" height="63" viewBox="0 0 62 63" fill="none"><path d="M60.3334 1.66797H1.66675V60.3346L20.3334 44.3346H47.0001C54.3334 44.3346 60.3334 38.3346 60.3334 31.0013V1.66797Z" stroke="black" stroke-width="3" stroke-miterlimit="10"></path><path d="M15 27C17.2091 27 19 25.2091 19 23C19 20.7909 17.2091 19 15 19C12.7909 19 11 20.7909 11 23C11 25.2091 12.7909 27 15 27Z" fill="#007456"></path><path d="M31 27C33.2091 27 35 25.2091 35 23C35 20.7909 33.2091 19 31 19C28.7909 19 27 20.7909 27 23C27 25.2091 28.7909 27 31 27Z" fill="#007456"></path><path d="M47 27C49.2091 27 51 25.2091 51 23C51 20.7909 49.2091 19 47 19C44.7909 19 43 20.7909 43 23C43 25.2091 44.7909 27 47 27Z" fill="#007456"></path></svg>