<svg xmlns="http://www.w3.org/2000/svg" width="80" height="80" viewBox="0 0 80 80" fill="none"><g clip-path="url(#clip0_4024_21107)"><path d="M0 40.0009C0 62.0941 17.9072 80.0006 39.9994 80C62.0928 80.0006 80 62.0941 80 40.0009C80.0014 17.9078 62.0928 0 39.9994 0C17.9072 0 0 17.9084 0 40.0009Z" fill="#007456"></path><path d="M79.9221 42.398C79.8982 42.3744 79.8749 42.3502 79.8506 42.3264C79.792 42.2658 64.6265 27.1008 64.566 27.042C64.5076 26.9816 64.4488 26.923 64.3887 26.8645C62.9782 25.4077 61.0113 24.4936 58.8285 24.4936H41.5377C41.4881 24.4333 41.4335 24.3827 41.3723 24.3341C41.3191 24.267 30.9537 13.9016 30.8867 13.8484C30.6838 13.5925 30.384 13.418 30.0318 13.418H23.3865C22.7743 13.418 22.2788 13.9138 22.2788 14.5256V24.4936H21.1712C16.8967 24.4936 13.4182 27.9716 13.4182 32.2467V52.1828C13.4182 52.5351 13.5927 52.8348 13.8485 53.0377C13.9017 53.1047 13.9592 53.1623 14.0262 53.2153C14.0793 53.2823 40.6181 79.8209 40.6852 79.8744C40.7168 79.9141 40.7549 79.9455 40.7904 79.9797C61.7156 79.5728 78.697 63.1122 79.9221 42.398Z" fill="#06684F"></path><path d="M58.8286 24.4937H24.4941V20.0634H30.0319C30.6441 20.0634 31.1394 19.5675 31.1394 18.9559V14.5255C31.1394 13.9137 30.6441 13.418 30.0319 13.418H23.3864C22.7742 13.418 22.2789 13.9139 22.2789 14.5255V24.4936H21.1714C16.8969 24.4936 13.4185 27.9716 13.4185 32.2466V52.183C13.4185 52.7952 13.9138 53.2905 14.526 53.2905H42.2153V65.4737C42.2153 66.0859 42.7106 66.5812 43.3228 66.5812C43.935 66.5812 44.4303 66.0859 44.4303 65.4737V53.2905H65.4742C66.0864 53.2905 66.5817 52.7952 66.5817 52.183V32.2467C66.5817 27.9717 63.1033 24.4937 58.8286 24.4937ZM24.4941 15.633H28.9244V17.8481H24.4941V15.633ZM15.6333 32.2467C15.6333 29.1934 18.1178 26.7089 21.1711 26.7089C24.2244 26.7089 26.7089 29.1934 26.7089 32.2467V51.0753H15.6333V32.2467ZM64.3667 51.0753H28.9244V32.2467C28.9244 30.0783 28.0269 28.1173 26.5869 26.7089H58.8289C61.8822 26.7089 64.3667 29.1934 64.3667 32.2467V51.0753Z" fill="#F4F6F9"></path><path d="M23.3864 45.5391H18.9561C18.3439 45.5391 17.8486 46.0344 17.8486 46.6466C17.8486 47.2588 18.3439 47.7541 18.9561 47.7541H23.3864C23.9986 47.7541 24.4939 47.2588 24.4939 46.6466C24.4941 46.0344 23.9986 45.5391 23.3864 45.5391Z" fill="#F4F6F9"></path></g><defs><clipPath id="clip0_4024_21107"><rect width="80" height="80" fill="white"></rect></clipPath></defs></svg>