<svg xmlns="http://www.w3.org/2000/svg" width="32" height="40" viewBox="0 0 32 40" fill="none"><path d="M9.71875 15.4726C9.71875 16.0126 10.1592 16.4518 10.6992 16.4518H25.7927C26.3316 16.4518 26.7732 16.0114 26.7732 15.4726C26.7732 14.9314 26.3316 14.4922 25.7927 14.4922H10.6992C10.1592 14.4922 9.71875 14.9314 9.71875 15.4726Z" fill="white"></path><path d="M30.9612 8.27918L23.7588 1.06358C23.5884 0.894381 23.3724 0.800781 23.1504 0.800781H6.72837C6.26157 0.800781 5.88117 1.17998 5.88117 1.64798V33.4672C5.88117 33.9196 6.26877 34.3 6.72837 34.3H24.4368V37.522H2.47197V7.38158H5.79957V5.70158H1.62357C1.15677 5.70158 0.77637 6.08198 0.77637 6.54998V38.368C0.77517 38.8204 1.16397 39.2008 1.62357 39.2008H25.2708C25.7304 39.2008 26.118 38.8204 26.118 38.368V34.3H30.3768C30.8364 34.3 31.224 33.9196 31.224 33.4672V8.87558C31.224 8.64038 31.128 8.42558 30.9612 8.27918ZM23.9964 3.67238L28.3524 8.04278H23.9964V3.67238ZM29.5428 32.62H7.57677V2.47958H22.302V8.87558C22.302 9.34118 22.68 9.72158 23.1492 9.72158H29.5416V32.62H29.5428Z" fill="white"></path><path d="M25.7927 18.8516H10.6992C10.1592 18.8516 9.71875 19.292 9.71875 19.832C9.71875 20.372 10.1592 20.8112 10.6992 20.8112H25.7927C26.3316 20.8112 26.7732 20.3708 26.7732 19.832C26.7744 19.2908 26.3316 18.8516 25.7927 18.8516Z" fill="white"></path><path d="M25.7927 23.207H10.6992C10.1592 23.207 9.71875 23.645 9.71875 24.1862C9.71875 24.7274 10.1592 25.1654 10.6992 25.1654H25.7927C26.3316 25.1654 26.7732 24.7274 26.7732 24.1862C26.7732 23.645 26.3316 23.207 25.7927 23.207Z" fill="white"></path><path d="M5.79911 19.3945H5.59271C5.05271 19.3945 4.6123 19.8349 4.6123 20.3737C4.6123 20.9149 5.05271 21.3553 5.59271 21.3553H5.79911V19.3945Z" fill="white"></path><path d="M5.79911 23.75H5.59271C5.05271 23.75 4.6123 24.1904 4.6123 24.7292C4.6123 25.2704 5.05271 25.7108 5.59271 25.7108H5.79911V23.75Z" fill="white"></path><path d="M4.6123 29.0871C4.6123 29.6271 5.05271 30.0663 5.59271 30.0663H5.79911V28.1055H5.59271C5.05271 28.1067 4.6123 28.5471 4.6123 29.0871Z" fill="white"></path></svg>