<svg xmlns="http://www.w3.org/2000/svg" width="48" height="48" viewBox="0 0 48 48" fill="none"><path d="M19.4995 24.2503C22.3765 24.2398 24.952 22.9543 26.689 20.9278L26.6995 20.9143C28.0945 22.5658 30.1675 23.6083 32.4835 23.6083C36.6565 23.6083 40.0375 20.2258 40.0375 16.0543C40.0375 11.8828 36.655 8.50034 32.4835 8.50034C30.727 8.50034 29.1115 9.10034 27.8275 10.1053L27.844 10.0933C26.185 7.12484 23.0635 5.15234 19.48 5.15234C14.206 5.15234 9.93105 9.42734 9.93105 14.7013C9.93105 19.9753 14.206 24.2503 19.48 24.2503C19.4875 24.2503 19.4935 24.2503 19.501 24.2503H19.4995ZM28.7275 12.2563C29.692 11.2918 31.0255 10.6963 32.497 10.6963C35.443 10.6963 37.831 13.0843 37.831 16.0303C37.831 18.9763 35.443 21.3643 32.497 21.3643C30.631 21.3643 28.9885 20.4058 28.036 18.9553L28.024 18.9358C28.672 17.6998 29.0575 16.2358 29.068 14.6833V14.6803C29.056 13.8073 28.927 12.9688 28.6975 12.1738L28.714 12.2398L28.7275 12.2563ZM19.4995 7.36184C23.542 7.36184 26.818 10.6393 26.818 14.6803C26.818 18.7213 23.5405 21.9988 19.4995 21.9988C15.4585 21.9988 12.181 18.7213 12.181 14.6803C12.181 14.6803 12.181 14.6803 12.181 14.6788C12.1855 10.6378 15.46 7.36484 19.501 7.36034L19.4995 7.36184ZM46.0975 37.4923C44.6905 31.1623 39.1255 26.5003 32.47 26.5003C29.8825 26.5003 27.46 27.2053 25.3825 28.4338L25.447 28.3978C23.677 27.7468 21.6325 27.3673 19.4995 27.3643H19.498C10.9285 27.4003 3.76605 33.3838 1.92255 41.3983L1.89855 41.5198C1.88205 41.5918 1.87305 41.6743 1.87305 41.7598C1.87305 42.3808 2.37705 42.8848 2.99805 42.8848C3.53355 42.8848 3.98205 42.5098 4.09455 42.0073L4.09605 41.9998C5.70255 34.8643 11.9875 29.6128 19.498 29.6128C27.0085 29.6128 33.292 34.8628 34.879 41.8948L34.8985 41.9998C35.0125 42.5098 35.4595 42.8848 35.9965 42.8848H35.998C36.0835 42.8848 36.166 42.8743 36.2455 42.8563L36.238 42.8578C36.748 42.7438 37.123 42.2953 37.123 41.7583C37.123 41.6728 37.114 41.5903 37.096 41.5108L37.0975 41.5183C35.9125 36.3373 32.626 32.0908 28.204 29.6443L28.111 29.5978C29.4055 29.0608 30.907 28.7488 32.4835 28.7488C38.0635 28.7488 42.7285 32.6623 43.8865 37.8943L43.9015 37.9723C44.0155 38.4823 44.4625 38.8573 44.9995 38.8573H45.001C45.0865 38.8573 45.169 38.8468 45.2485 38.8288L45.241 38.8303C45.751 38.7163 46.126 38.2678 46.126 37.7308C46.126 37.6453 46.117 37.5628 46.099 37.4833L46.1005 37.4908L46.0975 37.4923Z" fill="white"></path></svg>