<svg xmlns="http://www.w3.org/2000/svg" width="22" height="28" viewBox="0 0 22 28" fill="none"><path d="M5.60004 21.668H16.3334V19.668H5.60004V21.668ZM5.60004 16.0013H16.3334V14.0013H5.60004V16.0013ZM2.33337 27.3346C1.80004 27.3346 1.33337 27.1346 0.933374 26.7346C0.533374 26.3346 0.333374 25.868 0.333374 25.3346V2.66797C0.333374 2.13464 0.533374 1.66797 0.933374 1.26797C1.33337 0.867969 1.80004 0.667969 2.33337 0.667969H14.3334L21.6667 7.93463V25.268C21.6667 25.8013 21.4667 26.268 21.0667 26.668C20.6667 27.1346 20.2 27.3346 19.6667 27.3346H2.33337ZM13.3334 8.86797V2.66797H2.33337V25.3346H19.6667V8.86797H13.3334ZM2.33337 2.66797V8.86797V2.66797V25.3346V2.66797Z" fill="#111111"></path></svg>