<svg xmlns="http://www.w3.org/2000/svg" width="18" height="18" viewBox="0 0 18 18" fill="none"><g clip-path="url(#clip0_4903_29227)"><path d="M0 9C0 6.61305 0.948212 4.32387 2.63604 2.63604C4.32387 0.948212 6.61305 0 9 0C11.3869 0 13.6761 0.948212 15.364 2.63604C17.0518 4.32387 18 6.61305 18 9C18 11.3869 17.0518 13.6761 15.364 15.364C13.6761 17.0518 11.3869 18 9 18C6.61305 18 4.32387 17.0518 2.63604 15.364C0.948212 13.6761 0 11.3869 0 9Z" fill="#EBFF9E"></path><path d="M12.375 6.1875L7.875 11.8125L5.625 9.40163" stroke="#007456" stroke-width="1.5" stroke-linecap="round"></path><mask id="mask0_4903_29227" style="mask-type:alpha" maskUnits="userSpaceOnUse" x="0" y="0" width="18" height="18"><path d="M0 9C0 6.61305 0.948212 4.32387 2.63604 2.63604C4.32387 0.948212 6.61305 0 9 0C11.3869 0 13.6761 0.948212 15.364 2.63604C17.0518 4.32387 18 6.61305 18 9C18 11.3869 17.0518 13.6761 15.364 15.364C13.6761 17.0518 11.3869 18 9 18C6.61305 18 4.32387 17.0518 2.63604 15.364C0.948212 13.6761 0 11.3869 0 9Z" fill="#85EFAC"></path></mask><g mask="url(#mask0_4903_29227)"><path d="M-1.125 9C-1.125 6.31468 -0.0582619 3.73935 1.84054 1.84054C3.73935 -0.0582619 6.31468 -1.125 9 -1.125C11.6853 -1.125 14.2607 -0.0582619 16.1595 1.84054C18.0583 3.73935 19.125 6.31468 19.125 9H16.875C16.875 6.91142 16.0453 4.90838 14.5685 3.43153C13.0916 1.95468 11.0886 1.125 9 1.125C6.91142 1.125 4.90838 1.95468 3.43153 3.43153C1.95468 4.90838 1.125 6.91142 1.125 9H-1.125ZM19.125 10.125C19.125 12.8103 18.0583 15.3856 16.1595 17.2845C14.2607 19.1833 11.6853 20.25 9 20.25C6.31468 20.25 3.73935 19.1833 1.84054 17.2845C-0.0582619 15.3856 -1.125 12.8103 -1.125 10.125L1.125 9C1.125 12.7282 4.65075 15.75 9 15.75C13.3492 15.75 16.875 12.7282 16.875 9L19.125 10.125ZM9 20.25C6.31468 20.25 3.73935 19.1833 1.84054 17.2845C-0.0582619 15.3856 -1.125 12.8103 -1.125 10.125V9C-1.125 6.31468 -0.0582619 3.73935 1.84054 1.84054C3.73935 -0.0582619 6.31468 -1.125 9 -1.125V1.125C6.91142 1.125 4.90838 1.95468 3.43153 3.43153C1.95468 4.90838 1.125 6.91142 1.125 9C1.125 12.7282 4.65075 15.75 9 15.75V20.25ZM9 -1.125C11.6853 -1.125 14.2607 -0.0582619 16.1595 1.84054C18.0583 3.73935 19.125 6.31468 19.125 9V10.125C19.125 12.8103 18.0583 15.3856 16.1595 17.2845C14.2607 19.1833 11.6853 20.25 9 20.25V15.75C13.3492 15.75 16.875 12.7282 16.875 9C16.875 6.91142 16.0453 4.90838 14.5685 3.43153C13.0916 1.95468 11.0886 1.125 9 1.125V-1.125Z" fill="#007456"></path></g></g><defs><clipPath id="clip0_4903_29227"><rect width="18" height="18" fill="white"></rect></clipPath></defs></svg>