<svg xmlns="http://www.w3.org/2000/svg" width="24" height="28" viewBox="0 0 24 28" fill="none"><path d="M0.133301 11.068C0.133301 9.26797 0.533301 7.53463 1.26663 5.93463C1.99997 4.33463 3.1333 2.93464 4.5333 1.8013L5.9333 3.26797C4.7333 4.2013 3.86663 5.4013 3.19997 6.73464C2.5333 8.06797 2.19997 9.53463 2.19997 11.0013H0.133301V11.068ZM21.9333 11.068C21.9333 9.53464 21.6 8.13463 21 6.8013C20.4 5.46797 19.4666 4.33464 18.3333 3.33464L19.6666 1.86797C21.0666 3.0013 22.1333 4.4013 22.8666 6.0013C23.6 7.6013 24 9.26797 24 11.068H21.9333ZM1.3333 23.3346V21.3346H4.1333V11.1346C4.1333 9.26797 4.66663 7.6013 5.79997 6.13463C6.9333 4.66797 8.3333 3.73464 10.1333 3.4013V2.46797C10.1333 1.93464 10.3333 1.53464 10.6666 1.2013C11 0.867969 11.4666 0.667969 12 0.667969C12.5333 0.667969 12.9333 0.801302 13.3333 1.2013C13.7333 1.53464 13.8666 1.93464 13.8666 2.46797V3.46797C15.6666 3.86797 17.1333 4.73464 18.2666 6.2013C19.4 7.66797 19.9333 9.33463 19.9333 11.2013V21.3346H22.6666V23.3346H1.3333ZM12 27.3346C11.2666 27.3346 10.6666 27.068 10.1333 26.5346C9.59997 26.0013 9.3333 25.4013 9.3333 24.668H14.6666C14.6666 25.4013 14.4 26.0013 13.8666 26.5346C13.3333 27.068 12.7333 27.3346 12 27.3346ZM6.1333 21.3346H17.8666V11.1346C17.8666 9.46797 17.3333 8.06797 16.2 6.93463C15.0666 5.8013 13.6666 5.2013 12.0666 5.2013C10.4 5.2013 8.99997 5.8013 7.86663 6.93463C6.7333 8.06797 6.1333 9.46797 6.1333 11.1346V21.3346Z" fill="#1D2445"></path></svg>