<?xml version="1.0" encoding="utf-8"?>
<!-- Generator: Adobe Illustrator 27.7.0, SVG Export Plug-In . SVG Version: 6.00 Build 0)  -->
<svg version="1.1" id="Layer_1" xmlns="http://www.w3.org/2000/svg" xmlns:xlink="http://www.w3.org/1999/xlink" x="0px" y="0px"
	 viewBox="0 0 38 38" style="enable-background:new 0 0 38 38;" xml:space="preserve">
<style type="text/css">
	.st0{fill:#151A3F;}
	.st1{fill:#F7F1E6;}
</style>
<g>
	<polygon class="st0" points="3.99,27.8 3.88,10.4 18.88,1.61 34.01,10.2 34.12,27.6 19.12,36.39 	"/>
	<g>
		<path class="st1" d="M23.77,21.27v-3.1c0-2.18-1.52-4.01-3.55-4.49c-0.01-0.57-0.48-1.03-1.05-1.03c-0.58,0-1.04,0.46-1.06,1.03
			c-2.04,0.48-3.55,2.3-3.55,4.49v3.1c-0.77,0-1.39,0.62-1.39,1.39v0.98h12v-0.98C25.16,21.89,24.54,21.27,23.77,21.27z"/>
		<path class="st1" d="M19.16,25.92c0.92,0,1.69-0.62,1.93-1.46h-3.86C17.47,25.3,18.24,25.92,19.16,25.92z"/>
		<path class="st1" d="M10.79,18.1c0-0.85,0.24-1.69,0.69-2.41c0.15-0.24,0.08-0.55-0.16-0.7c-0.24-0.15-0.55-0.08-0.7,0.16
			c-0.55,0.88-0.84,1.9-0.84,2.94c0,1.07,0.31,2.11,0.89,3.01c0.1,0.15,0.26,0.23,0.43,0.23c0.09,0,0.19-0.03,0.27-0.08
			c0.23-0.15,0.3-0.47,0.15-0.7C11.04,19.83,10.79,18.98,10.79,18.1z"/>
		<path class="st1" d="M8.45,18.1c0-1.29,0.36-2.56,1.04-3.65c0.16-0.25,0.08-0.58-0.17-0.74c-0.25-0.16-0.58-0.08-0.74,0.17
			c-0.79,1.26-1.21,2.72-1.21,4.22c0,1.54,0.44,3.03,1.27,4.31c0.1,0.16,0.28,0.25,0.45,0.25c0.1,0,0.2-0.03,0.29-0.09
			c0.25-0.16,0.32-0.49,0.16-0.74C8.83,20.72,8.45,19.43,8.45,18.1z"/>
		<path class="st1" d="M27.19,14.99c-0.24,0.15-0.31,0.46-0.16,0.7c0.45,0.72,0.69,1.55,0.69,2.41c0,0.88-0.25,1.73-0.72,2.46
			c-0.15,0.23-0.08,0.55,0.15,0.7c0.08,0.05,0.18,0.08,0.27,0.08c0.17,0,0.33-0.08,0.43-0.23c0.58-0.9,0.89-1.94,0.89-3.01
			c0-1.04-0.29-2.06-0.84-2.94C27.74,14.92,27.42,14.85,27.19,14.99z"/>
		<path class="st1" d="M29.93,13.88c-0.16-0.25-0.49-0.33-0.74-0.17c-0.25,0.16-0.33,0.49-0.17,0.74c0.68,1.09,1.04,2.35,1.04,3.65
			c0,1.33-0.38,2.62-1.1,3.73c-0.16,0.25-0.09,0.58,0.16,0.74c0.09,0.06,0.19,0.09,0.29,0.09c0.18,0,0.35-0.09,0.45-0.25
			c0.83-1.29,1.27-2.78,1.27-4.31C31.13,16.6,30.72,15.14,29.93,13.88z"/>
	</g>
</g>
</svg>
