<svg viewBox="0 0 24 24" aria-hidden="true" version="1.1" xmlns="http://www.w3.org/2000/svg" xmlns:xlink="http://www.w3.org/1999/xlink">
	<title>eye_slash_icon</title>
	<path fill="currentColor" fill-rule="evenodd" d="M19.7 5.7a1 1 0 0 0-1.4-1.4L14 8.6A4 4 0 0 0 8.6 14l-4.3 4.3a1 1 0 1 0 1.4 1.4l4.3-4.2a4 4 0 0 0 5.5-5.5l4.2-4.3Zm-7.2 4.4a2 2 0 0 0-2.4 2.4l2.4-2.4Zm-1 3.8 2.4-2.4a2 2 0 0 1-2.4 2.4Zm4.3-9A9.3 9.3 0 0 0 12 4a11 11 0 0 0-7 2.9c-1.8 1.5-3 3.2-3.5 4a1.9 1.9 0 0 0 0 2.1c.4.7 1.4 2 2.7 3.4L5.6 15a18.3 18.3 0 0 1-2.4-3 18 18 0 0 1 3.1-3.6A9 9 0 0 1 12 6c.8 0 1.5.1 2.2.4l1.6-1.6ZM12 18c-.8 0-1.5-.1-2.2-.4l-1.6 1.6c1.2.5 2.4.8 3.8.8a11 11 0 0 0 7-2.9c1.8-1.5 3-3.2 3.5-4a2 2 0 0 0 0-2.1 20.3 20.3 0 0 0-2.7-3.4L18.4 9a18.3 18.3 0 0 1 2.4 3 18 18 0 0 1-3.1 3.6A9 9 0 0 1 12 18Z" clip-rule="evenodd"/>
</svg>
