<svg viewBox="0 0 24 24" aria-hidden="true" version="1.1" xmlns="http://www.w3.org/2000/svg" xmlns:xlink="http://www.w3.org/1999/xlink">
	<title>eye_icon</title>
	<path fill="currentColor" fill-rule="evenodd" d="M6.3 15.6A17.9 17.9 0 0 1 3.2 12a18 18 0 0 1 3.1-3.6C7.9 7.1 9.8 6 12 6s4.1 1 5.7 2.4c1.5 1.3 2.6 2.8 3.1 3.6a18 18 0 0 1-3.1 3.6C16.1 16.9 14.2 18 12 18s-4.1-1-5.7-2.4ZM12 4a11 11 0 0 0-7 2.9c-1.8 1.5-3 3.2-3.5 4a1.9 1.9 0 0 0 0 2.1c.5.9 1.7 2.6 3.5 4 1.8 1.6 4.2 3 7 3a11 11 0 0 0 7-2.9c1.8-1.5 3-3.2 3.5-4a2 2 0 0 0 0-2.1A19.9 19.9 0 0 0 19 7c-1.8-1.6-4.2-3-7-3Zm-2 8a2 2 0 1 1 4 0 2 2 0 0 1-4 0Zm2-4a4 4 0 1 0 0 8 4 4 0 0 0 0-8Z" clip-rule="evenodd"/>
</svg>
