<svg xmlns="http://www.w3.org/2000/svg" width="270" height="230" viewBox="0 0 270 230" fill="none"><path fill-rule="evenodd" clip-rule="evenodd" d="M149.574 104.486C148.964 102.284 148.314 100.031 146.961 98.1908C143.093 92.9247 134.252 95.3958 130.971 100.125C122.722 112.013 129.196 130.452 133.495 142.595C134.733 146.093 136.519 149.857 139.974 151.191C145.229 153.222 150.159 148.557 151.848 143.98C154.024 138.085 154.308 131.403 153.788 125.201C153.55 122.358 153.124 119.541 152.575 116.743C151.767 112.62 150.695 108.538 149.574 104.486Z" fill="#FFFFFE"></path><path fill-rule="evenodd" clip-rule="evenodd" d="M131.27 84.6206C131.344 84.2215 131.408 83.8189 131.467 83.4198C132.047 79.4205 132.592 74.4189 128.248 73.1554C125.384 72.3218 120.366 72.6924 118.456 70.024C117.842 69.1665 117.668 68.0808 117.511 67.0385C117.287 65.5504 117.063 64.0611 116.839 62.5718C125.166 64.0052 128.639 56.5347 129.69 49.5477C130.763 42.4193 130.539 33.52 124.272 28.7453C120.278 25.7005 114.683 24.9741 109.99 26.7519C105.295 28.5309 101.616 32.708 100.288 37.5568C99.3049 41.1433 100.471 42.4513 100.683 46.1529C100.924 50.3448 100.55 57.5884 100.783 61.7815C100.94 64.6004 100.7 67.8858 99.1751 70.3479C98.4821 71.4654 97.6217 72.4199 96.4382 73.03C95.5812 73.4724 93.3404 73.2341 92.8067 73.8225C89.7568 77.1809 86.906 80.7377 83.592 83.8212C91.4058 87.1043 99.5768 89.4568 107.925 90.8903C113.784 91.8972 125.612 95.3708 129.654 89.1273C130.528 87.7782 130.977 86.2125 131.27 84.6206Z" fill="#FFFFFE"></path><path fill-rule="evenodd" clip-rule="evenodd" d="M131.27 84.6206C131.344 84.2215 131.408 83.8189 131.467 83.4198C132.047 79.4205 132.592 74.4189 128.248 73.1554C125.384 72.3218 120.366 72.6924 118.456 70.024C117.842 69.1664 117.668 68.0808 117.511 67.0385C117.287 65.5504 117.063 64.0611 116.839 62.5718C125.166 64.0052 128.639 56.5347 129.69 49.5477C130.763 42.4193 130.539 33.52 124.272 28.7453C120.278 25.7005 114.683 24.9741 109.99 26.7519C105.295 28.5309 101.616 32.708 100.288 37.5568C99.3049 41.1433 100.471 42.4513 100.683 46.1529C100.924 50.3448 100.55 57.5884 100.783 61.7815C100.94 64.6004 100.7 67.8858 99.1751 70.3479C98.4821 71.4654 97.6217 72.4199 96.4382 73.03C95.5812 73.4724 93.3404 73.2341 92.8067 73.8225C89.7568 77.1809 86.906 80.7377 83.592 83.8212C91.4058 87.1043 99.5768 89.4568 107.925 90.8903C113.784 91.8972 125.612 95.3707 129.654 89.1273C130.528 87.7782 130.977 86.2125 131.27 84.6206Z" stroke="#000105" stroke-width="0.5"></path><path fill-rule="evenodd" clip-rule="evenodd" d="M62.049 104.377C62.8844 94.0319 67.507 83.4448 76.9083 78.2722C80.3714 76.3666 84.1667 75.2308 87.9928 74.3185C89.9604 73.8499 91.9417 73.4405 93.914 72.9923C96.1252 72.4905 96.5701 73.014 98.0701 74.6823C101.175 78.1342 106.086 79.668 110.701 79.189C113.625 78.8857 116.429 77.832 118.938 76.3164C120.781 75.2046 121.804 74.225 122.632 72.1313C122.697 71.9694 122.773 71.7904 122.932 71.7174C123.036 71.6695 123.158 71.6775 123.273 71.6866C131.854 72.3913 139.758 74.8169 144.946 82.122C149.435 88.4442 151.155 96.2921 152.329 103.96C153.053 108.686 153.611 113.436 154 118.201C148.136 118.645 142.248 118.789 136.369 118.633C136.11 127.354 135.291 136.052 134.511 144.773C133.974 150.768 133.055 156.659 131.721 162.492C118.16 167.016 102.686 165.913 88.1441 164.6C83.9983 164.224 79.6954 163.802 76.1106 161.683C66.0219 155.718 65.5917 138.097 64.1521 127.838C63.038 119.904 61.3935 112.479 62.049 104.377Z" fill="#E57A74"></path><path fill-rule="evenodd" clip-rule="evenodd" d="M166.072 207.396C165.896 207.138 165.711 206.883 165.519 206.636C162.006 202.123 155.938 199.18 150.982 196.529C145.512 193.603 139.379 191.194 133.071 191.56C127.383 191.89 119.482 195.756 118.304 201.79C118.172 202.471 118.114 203.201 118.387 203.839C119.064 205.425 121.202 205.566 122.922 205.582C130.267 205.647 137.333 207.911 144.185 210.355C147.717 211.615 151.225 212.94 154.794 214.087C157.984 215.112 165.736 219.605 167.97 214.941C169.191 212.391 167.488 209.482 166.072 207.396Z" fill="#000105"></path><path fill-rule="evenodd" clip-rule="evenodd" d="M197.92 146.764C194.951 143.471 190.725 141.34 186.389 140.526C180.307 139.385 174.025 140.491 168.058 142.137C155.417 145.625 143.563 151.506 130.856 154.776C125.22 156.227 121.547 155.69 116.04 155.244C109.057 154.679 101.889 155.368 94.8631 154.952C88.2955 154.563 81.1896 154.053 75.0522 155.867C74.2408 155.332 73.4339 154.797 72.6282 154.269C65.7613 149.755 58.9217 145.259 50.3114 146.904C43.5412 148.195 37.0135 151.635 32.8198 157.219C28.3655 163.152 29.7027 170.899 33.6938 176.813C36.9987 181.709 41.8831 185.313 46.9417 188.354C64.3923 198.843 83.4543 205.273 104.047 203.84C106.804 203.648 110.054 203.618 112.038 205.836C112.785 206.67 113.218 211.241 114.875 211.044C116.915 210.801 120.842 210.229 122.769 209.532C133.175 205.765 143.58 201.997 153.986 198.231C163.129 194.922 172.338 191.58 180.668 186.559C187.872 182.216 194.397 176.342 198.222 168.732C200.98 163.246 203.244 156.016 200.364 150.316C199.707 149.014 198.879 147.828 197.92 146.764Z" fill="#35619C"></path><path d="M68.7634 162.535C74.6129 165.465 80.7378 167.338 86.3415 170.808C91.944 174.279 97.2427 178.32 103.325 180.943C107.272 182.643 112.999 183.308 116.783 185.192" stroke="#000105" stroke-width="0.5"></path><path fill-rule="evenodd" clip-rule="evenodd" d="M111.887 205.002C111.34 203.734 110.792 202.467 110.245 201.199C109.159 198.684 108.072 196.168 106.985 193.652C104.54 194.882 102.185 195.866 99.3504 195.632C97.8448 195.508 96.3642 195.078 94.8529 195.103C91.8496 195.154 90.5511 197.498 89.3004 199.872C87.0915 204.068 83.1152 207.127 79.8889 210.495C75.8466 214.717 73.5034 218.688 74.1532 224.725C74.3819 226.854 75.2411 229.297 77.2976 229.877C79.1935 230.413 81.0645 229.082 82.5894 227.831C86.7239 224.442 90.8584 221.051 94.9928 217.66C96.8786 216.114 98.7961 214.053 100.941 212.894C102.704 211.939 104.8 211.34 106.473 210.223C107.54 209.772 108.632 209.384 109.742 209.056C110.459 208.845 112.318 208.772 112.835 208.268C113.474 207.643 112.199 205.725 111.909 205.054C111.902 205.037 111.894 205.019 111.887 205.002Z" fill="#000105"></path><path fill-rule="evenodd" clip-rule="evenodd" d="M122.603 165.289C123.356 164.907 123.93 164.228 124.379 162.942C125.129 160.789 124.689 158.238 123.48 156.341C121.921 153.892 119.051 152.002 116.222 151.407C113.304 150.793 110.472 149.748 107.5 149.145C105.361 148.712 103.258 148.122 101.156 147.531C96.7157 146.285 92.2751 145.039 87.8334 143.792C86.7545 143.488 85.6199 143.255 84.5661 142.874C83.5623 142.511 83.6113 142.608 83.5248 141.638C83.4292 140.553 83.8036 139.383 83.8787 138.298C83.988 136.716 84.0938 135.133 84.1951 133.552C84.392 130.474 84.5752 127.397 84.7425 124.318C85.0702 118.301 84.7357 112.411 83.6705 106.457C81.8826 96.4695 69.9526 90.7346 63.2086 100.269C58.5097 106.914 57.5469 115.924 57.218 123.829C56.855 132.509 57.3603 141.222 60.689 149.374C68.9887 169.7 101.59 167.556 119.274 165.906C120.667 165.775 121.75 165.721 122.603 165.289Z" fill="#FFFFFE"></path><path fill-rule="evenodd" clip-rule="evenodd" d="M122.603 165.289C123.356 164.907 123.93 164.228 124.379 162.942C125.129 160.789 124.689 158.238 123.48 156.341C121.921 153.892 119.051 152.002 116.222 151.407C113.304 150.793 110.472 149.748 107.5 149.145C105.361 148.712 103.258 148.122 101.156 147.531C96.7157 146.285 92.2751 145.039 87.8334 143.792C86.7545 143.488 85.6199 143.255 84.5661 142.874C83.5623 142.511 83.6113 142.608 83.5248 141.638C83.4292 140.553 83.8036 139.383 83.8787 138.298C83.988 136.716 84.0938 135.133 84.1951 133.552C84.392 130.474 84.5752 127.397 84.7425 124.318C85.0702 118.301 84.7357 112.411 83.6705 106.457C81.8826 96.4695 69.9526 90.7346 63.2086 100.269C58.5097 106.914 57.5469 115.924 57.218 123.829C56.855 132.509 57.3603 141.222 60.689 149.374C68.9887 169.7 101.59 167.556 119.274 165.906C120.667 165.775 121.75 165.721 122.603 165.289Z" stroke="#000105" stroke-width="0.5"></path><path fill-rule="evenodd" clip-rule="evenodd" d="M117.335 23.1446C124.693 23.8186 131.181 30.3973 133.033 37.341C132.595 37.5234 132.155 37.7047 131.717 37.886C131.113 36.4902 130.344 35.1674 129.434 33.9495C129.476 35.3145 129.696 36.6727 130.085 37.9796C129.233 38.2715 127.825 37.9476 126.902 37.9955C125.531 38.0685 124.161 38.1825 122.796 38.3399C120.238 38.6341 117.696 39.0766 115.188 39.6661C114.959 39.7197 114.7 39.7722 114.5 39.6479C114.371 39.5704 114.291 39.4346 114.217 39.3035C113.577 38.1746 112.933 35.164 111.473 36.0683C110.788 36.4925 110.524 39.6239 110.545 40.4279C110.601 42.4327 111.14 43.5513 109.176 44.8445C107.621 45.8663 106.233 47.091 105.616 48.8643C104.961 50.7447 104.664 52.8076 103.499 54.4805C103.2 54.9093 102.86 55.3039 102.519 55.6984C101.893 56.4249 101.267 57.1513 100.641 57.8765C100.255 57.5857 100.067 57.1091 99.899 56.6575C97.9177 51.316 92.4494 38.3935 98.1566 33.8298C95.4891 35.9611 91.0485 35.2541 89.1741 32.3986C87.2987 29.5432 88.4071 25.1756 91.4161 23.5654C88.3468 22.0214 87.4626 17.3493 89.7545 14.7847C92.0465 12.2211 96.7785 12.5895 98.6471 15.4791C100.937 12.5245 105.417 11.3396 108.661 13.1916C112.959 15.6456 112.276 20.3051 109.894 23.5802C112.389 23.2473 114.797 22.912 117.335 23.1446Z" fill="#000105"></path><path d="M169.572 152.375C157.857 157.685 148.428 166.907 137.762 174.099C127.802 180.818 116.774 185.753 105.808 190.655C106.38 191.914 106.613 193.155 107.186 194.417" stroke="#000105" stroke-width="0.5"></path><path d="M119.524 52.168C120.224 54.4578 123.016 55.849 125.26 55.0257" stroke="#121514" stroke-width="0.5"></path><path fill-rule="evenodd" clip-rule="evenodd" d="M107.704 51.5056C103.385 52.5878 100.697 48.0275 102.009 45.0546C103.835 40.9162 109.628 41.6027 110.688 45.9532" fill="#FFFFFE"></path><path d="M107.704 51.5056C103.385 52.5878 100.697 48.0275 102.009 45.0546C103.835 40.9162 109.628 41.6027 110.688 45.9532" stroke="#000105" stroke-width="0.5"></path><path d="M105.492 44.704C106.305 44.4805 107.243 44.615 107.923 45.0541C108.603 45.492 109.006 46.2218 108.968 46.9448" stroke="#121514" stroke-width="0.5"></path><path fill-rule="evenodd" clip-rule="evenodd" d="M87.2996 97.6219C86.1275 102.304 85.8737 113.139 85.8293 121.377C82.768 121.108 79.7226 120.675 76.7057 120.078C70.1427 118.779 63.7708 116.754 57.5845 114.239C59.4133 102.496 62.8046 91.2473 71.168 82.7812" fill="#E57A74"></path><path fill-rule="evenodd" clip-rule="evenodd" d="M85.9226 171.74H152.338C153.311 171.74 154.099 170.949 154.099 169.975C154.099 169.001 153.311 168.211 152.338 168.211H85.9226C84.9508 168.211 84.1621 169.001 84.1621 169.975C84.1621 170.949 84.9508 171.74 85.9226 171.74Z" fill="#000105"></path><path fill-rule="evenodd" clip-rule="evenodd" d="M95.7744 169.347H153.902L165.974 139.472C166.368 138.499 165.653 137.438 164.606 137.438H109.665C109.064 137.438 108.523 137.802 108.297 138.361L95.7744 169.347Z" fill="#000105"></path><path fill-rule="evenodd" clip-rule="evenodd" d="M136.994 153.411C136.376 155.03 134.291 156.342 132.337 156.342C130.384 156.342 129.301 155.03 129.92 153.411C130.538 151.793 132.622 150.48 134.576 150.48C136.529 150.48 137.612 151.793 136.994 153.411Z" stroke="#FFFFFE" stroke-width="0.5"></path><path fill-rule="evenodd" clip-rule="evenodd" d="M117.278 62.4121C117.171 63.524 117.264 64.6461 117.365 65.7591C117.293 65.7397 117.22 65.7238 117.147 65.7009C114.863 64.9916 112.971 63.1249 112.014 60.9297C113.624 61.8214 115.441 62.3209 117.278 62.4121Z" fill="#000105"></path><path d="M102.63 215.064C101.957 213.425 100.569 212.096 98.9043 211.494C98.4753 211.339 97.9325 211.255 97.6184 211.587C97.1711 212.059 97.6115 212.808 97.9939 213.333C98.6904 214.289 99.2014 215.379 99.4893 216.527C99.5997 216.968 99.66 217.488 99.3607 217.832C99.0489 218.19 98.4651 218.177 98.0485 217.948C97.632 217.72 97.3339 217.329 97.0175 216.974C96.2402 216.105 95.2831 215.398 94.2259 214.911C94.0336 214.823 93.8173 214.741 93.617 214.807C93.0378 215.002 93.4054 215.867 93.7741 216.356C94.524 217.35 94.8905 218.628 94.7812 219.87M137.836 209.639C138.021 208.58 138.259 207.425 139.096 206.752C139.935 206.08 141.535 206.405 141.614 207.478C141.644 207.912 141.425 208.319 141.338 208.744C141.213 209.355 141.397 210.051 141.888 210.434C142.379 210.819 143.176 210.797 143.572 210.316C144.117 209.654 143.744 208.546 144.299 207.893C144.922 207.16 146.233 207.672 146.627 208.551C147.02 209.431 146.822 210.444 146.717 211.402C146.611 212.36 146.657 213.46 147.372 214.103" stroke="#E46F6D"></path><path fill-rule="evenodd" clip-rule="evenodd" d="M104.001 49.4812C104.001 50.2236 104.602 50.8257 105.344 50.8257C106.084 50.8257 106.685 50.2236 106.685 49.4812C106.685 48.7388 106.084 48.1367 105.344 48.1367C104.602 48.1367 104.001 48.7388 104.001 49.4812Z" fill="#000105"></path><path fill-rule="evenodd" clip-rule="evenodd" d="M57.5777 117.129C57.6722 116.574 57.7382 116.012 57.7689 115.45C57.8326 115.053 57.9089 114.661 58.009 114.273C58.4221 114.605 58.8682 114.896 59.3496 115.117C59.8731 115.358 60.4262 115.526 60.9781 115.692C62.6215 116.192 64.2636 116.69 65.907 117.189C66.5488 117.384 67.1633 117.596 67.7449 117.936C67.2066 117.783 66.6239 117.758 66.0617 117.851C65.2833 117.978 64.5345 118.262 63.7504 118.341C63.0721 118.408 62.3859 118.321 61.7042 118.37C60.2805 118.472 58.7681 119.14 57.4878 118.592C57.5128 118.105 57.5413 117.617 57.5777 117.129Z" fill="#000105"></path><path fill-rule="evenodd" clip-rule="evenodd" d="M61.833 147.746C62.5534 150.189 63.8746 152.452 65.6477 154.278L61.833 147.746Z" fill="#FFFFFE"></path><path d="M61.833 147.746C62.5534 150.189 63.8746 152.452 65.6477 154.278" stroke="#000105" stroke-width="0.5"></path><path fill-rule="evenodd" clip-rule="evenodd" d="M66.9939 155.59C67.6301 156.085 68.2651 156.58 68.9012 157.076L66.9939 155.59Z" fill="#FFFFFE"></path><path d="M66.9939 155.59C67.6301 156.085 68.2651 156.58 68.9012 157.076" stroke="#000105" stroke-width="0.5"></path><path fill-rule="evenodd" clip-rule="evenodd" d="M66.2588 152.82C66.6173 153.169 66.9758 153.517 67.3331 153.866L66.2588 152.82Z" fill="#FFFFFE"></path><path d="M66.2585 152.817C66.617 153.165 66.9755 153.513 67.3328 153.862M60.6458 113.227C62.3403 113.864 64.0348 114.5 65.7293 115.137M65.1182 95.4451C64.2101 97.5103 63.4738 99.6519 62.9207 101.839M62.5679 103.112C62.4199 103.771 62.272 104.429 62.1241 105.089M61.7087 106.859C61.6142 107.308 61.5198 107.755 61.4253 108.203M102.38 59.6641C102.367 61.6722 102.248 63.6804 102.023 65.6772M101.823 67.236C101.704 68.0229 101.534 68.8029 101.316 69.5681M136.359 118.848C136.155 115.694 135.953 112.542 135.749 109.391M135.402 107.32C135.181 106.128 135.091 104.91 135.132 103.699M84.9894 121.509C85.3251 121.422 85.6608 121.335 85.9966 121.247C87.0549 119.651 87.2586 117.657 87.4828 115.754C88.0792 110.711 89.0351 105.712 90.3291 100.802" stroke="#000105" stroke-width="0.5"></path><path fill-rule="evenodd" clip-rule="evenodd" d="M175.592 174.289C176.499 174.182 177.455 174.219 178.269 174.163C184.027 173.773 189.814 174.398 195.562 173.867C201.383 173.328 207.002 171.495 212.766 170.52C218.022 169.629 223.472 169.466 228.646 170.757C233.821 172.046 238.714 174.882 241.881 179.18C245.443 184.017 246.117 190.591 243.51 195.989C240.812 201.575 234.7 203.708 228.878 204.535C222.985 205.369 217.056 205.188 211.121 205.188C206.04 205.188 200.958 205.845 195.875 205.461C188.539 204.908 181.746 206.751 176.057 200.029C172.024 195.265 169.838 188.182 170.883 181.49C171.189 179.528 171.782 176.383 173.449 175.056C174.041 174.587 174.798 174.382 175.592 174.289Z" fill="#F4B93C"></path><path fill-rule="evenodd" clip-rule="evenodd" d="M199.264 175.927L198.994 161.48L191.981 165.877C189.508 164.565 186.57 163.801 183.417 163.801C180.255 163.801 177.312 164.569 174.837 165.886L163.728 165.427L167.952 169.866L167.514 176.972C167.514 184.247 174.959 188.191 183.741 188.191C192.523 188.191 199.319 184.247 199.319 176.972C199.319 176.62 199.297 176.271 199.264 175.927Z" fill="#F4B93C"></path><path fill-rule="evenodd" clip-rule="evenodd" d="M184.762 178.472C184.762 179.195 183.995 179.782 183.049 179.782C182.103 179.782 181.336 179.195 181.336 178.472C181.336 177.749 182.103 177.164 183.049 177.164C183.995 177.164 184.762 177.749 184.762 178.472Z" fill="#000105"></path><path d="M183.099 178.268C183.066 179.009 183.138 179.751 183.1 180.494C183.064 181.234 182.906 181.996 182.468 182.593C181.919 183.342 181.111 183.583 180.288 183.109M183.022 178.268C183.056 179.009 182.984 179.751 183.021 180.494C183.058 181.234 183.215 181.996 183.655 182.593C184.217 183.362 185.506 183.827 186.345 183.184M178.788 176.797C176.511 177.721 173.821 177.402 172.766 176.152" stroke="#000105" stroke-width="0.5"></path><mask id="mask0_1974_23009" style="mask-type:alpha" maskUnits="userSpaceOnUse" x="167" y="161" width="33" height="28"><path d="M199.264 175.933L198.995 161.487L191.981 165.883C189.508 164.572 186.571 163.808 183.417 163.808C180.256 163.808 177.313 164.575 174.838 165.892L168.489 161.184L167.514 176.979C167.514 184.253 174.959 188.198 183.742 188.198C192.524 188.198 199.319 184.253 199.319 176.979C199.319 176.626 199.297 176.277 199.264 175.933Z" fill="white"></path></mask><g mask="url(#mask0_1974_23009)"><path fill-rule="evenodd" clip-rule="evenodd" d="M185.04 162.267C184.923 162.192 184.805 162.128 184.69 162.079C183.771 161.687 180.025 162.811 180.932 164.271C181.066 164.488 181.334 164.633 181.377 164.886C181.399 165.015 181.355 165.146 181.313 165.271C181.157 165.745 181.03 166.277 181.232 166.732C181.468 167.262 182.119 167.529 182.688 167.421C183.257 167.313 183.73 166.893 184.019 166.391C184.252 165.989 184.392 165.517 184.736 165.207C185.029 164.943 185.435 164.831 185.72 164.559C186.524 163.795 185.818 162.77 185.04 162.267Z" fill="#000105"></path><path fill-rule="evenodd" clip-rule="evenodd" d="M199.598 160.58C199.355 160.442 199.104 160.351 198.889 160.329C198.08 160.254 197.284 160.652 196.696 161.214C196.108 161.777 195.694 162.493 195.289 163.2C195.03 163.649 194.768 164.107 194.647 164.614C194.424 165.558 194.748 166.593 195.41 167.302C196.07 168.01 197.037 168.399 198.004 168.432C198.377 168.444 198.776 168.396 199.057 168.152C199.278 167.96 199.391 167.673 199.484 167.395C199.762 166.56 199.93 165.687 199.982 164.809C200.011 164.328 200.004 163.837 200.08 163.361C200.153 162.898 200.575 162.38 200.616 161.985C200.672 161.463 200.155 160.897 199.598 160.58Z" fill="#000105"></path></g><path d="M188.621 176.636C190.848 177.675 193.551 177.495 194.668 176.301" stroke="#000105" stroke-width="0.5"></path><path fill-rule="evenodd" clip-rule="evenodd" d="M236.975 180.711C237.244 185.299 234.224 189.42 230.692 191.175C227.46 192.78 223.654 192.809 220.132 193.148C215.694 193.576 211.258 194.009 206.821 194.44C203.329 194.778 199.661 195.18 196.792 197.203C193.924 199.226 192.28 203.452 194.24 206.367C195.486 208.22 197.839 209.061 200.069 209.082C204.318 209.121 208.555 207.643 212.643 206.732C217.033 205.753 221.283 205.143 225.762 204.672" fill="#F4B93C"></path><path d="M191.038 205.385C191.689 203.536 192.337 201.473 191.565 199.672C190.926 198.178 189.437 197.223 187.926 196.634C186.413 196.043 184.798 195.721 183.343 195.003C181.887 194.284 180.551 193.041 180.312 191.434" stroke="#000105" stroke-width="0.5"></path><path fill-rule="evenodd" clip-rule="evenodd" d="M191.702 188.742C192.288 190.908 191.982 193.109 191.302 195.189C190.658 197.159 190.123 198.972 188.572 200.459C187.351 201.631 185.758 202.395 184.679 203.697C184.124 204.366 183.714 205.211 183.782 206.079C183.871 207.187 184.747 208.123 185.78 208.527C186.814 208.931 187.973 208.877 189.059 208.654C192.361 207.971 195.289 205.674 196.743 202.627" fill="#F4B93C"></path><mask id="mask1_1974_23009" style="mask-type:alpha" maskUnits="userSpaceOnUse" x="193" y="180" width="44" height="30"><path d="M236.975 180.711C237.243 185.299 234.224 189.42 230.692 191.175C227.46 192.78 223.654 192.809 220.132 193.148C215.694 193.576 211.258 194.009 206.82 194.44C203.329 194.778 199.661 195.18 196.792 197.203C193.924 199.226 192.28 203.452 194.239 206.367C195.486 208.22 197.839 209.061 200.068 209.082C204.318 209.121 208.555 207.643 212.643 206.732C217.033 205.753 221.283 205.143 225.762 204.672" fill="white"></path></mask><g mask="url(#mask1_1974_23009)"><path fill-rule="evenodd" clip-rule="evenodd" d="M195.32 200.46C194.766 199.913 194.112 199.526 193.333 199.473C191.029 199.315 189.826 201.562 189.75 203.536C189.67 205.603 190.368 207.79 191.728 209.362C193.475 211.38 195.451 210.962 197.76 210.541C199.205 210.278 200.611 209.607 201.403 208.315C201.857 207.574 201.984 206.559 201.474 205.854C200.665 204.733 198.856 204.984 197.797 204.096C197.344 203.717 197.076 203.167 196.809 202.639C196.419 201.87 195.932 201.066 195.32 200.46Z" fill="#000105"></path><path fill-rule="evenodd" clip-rule="evenodd" d="M221.392 201.059C221.37 201.008 221.349 200.958 221.326 200.909C220.789 199.721 219.667 198.718 218.367 198.677C217.775 198.658 217.184 198.838 216.681 199.149C216.013 199.564 215.496 200.216 215.24 200.959C214.842 202.115 215.075 203.419 214.653 204.566C214.047 206.225 212.225 207.187 211.566 208.825C210.971 210.309 212.94 210.421 213.931 210.705C215.365 211.114 216.94 211.302 218.359 210.731C222.045 209.246 222.818 204.402 221.392 201.059Z" fill="#000105"></path></g><mask id="mask2_1974_23009" style="mask-type:alpha" maskUnits="userSpaceOnUse" x="170" y="169" width="76" height="37"><path d="M175.592 174.289C176.499 174.182 177.455 174.219 178.268 174.163C184.027 173.773 189.814 174.398 195.562 173.867C201.383 173.328 207.001 171.495 212.766 170.52C218.022 169.629 223.472 169.466 228.646 170.757C233.82 172.046 238.714 174.882 241.881 179.18C245.443 184.017 246.117 190.591 243.51 195.989C240.811 201.575 234.7 203.708 228.878 204.535C222.985 205.369 217.056 205.188 211.121 205.188C206.04 205.188 200.957 205.845 195.875 205.461C188.539 204.908 181.746 206.751 176.057 200.029C172.024 195.265 169.838 188.182 170.883 181.49C171.189 179.528 171.782 176.383 173.449 175.056C174.041 174.587 174.797 174.382 175.592 174.289Z" fill="white"></path></mask><g mask="url(#mask2_1974_23009)"><path fill-rule="evenodd" clip-rule="evenodd" d="M214.385 175.236C215.408 175.317 216.445 175.244 217.448 175.021C220.006 174.455 222.462 172.919 225.049 173.333C225.87 173.465 226.657 173.793 227.485 173.87C230.571 174.157 231.03 170.944 228.781 169.404C228.1 168.938 227.293 168.692 226.493 168.488C223.933 167.841 221.24 167.568 218.614 167.933C216.615 168.211 214.737 168.454 212.959 169.509C212.356 169.866 211.772 170.296 211.401 170.892C210.685 172.045 211.01 173.729 212.105 174.532C212.743 175.001 213.553 175.169 214.342 175.232C214.357 175.234 214.37 175.235 214.385 175.236Z" fill="#000105"></path></g><path d="M194.24 206.366C192.28 203.452 193.924 199.225 196.792 197.202C199.661 195.179 203.329 194.778 206.821 194.439C214.196 193.723 220.937 192.763 228.001 190.519C229.15 190.152 230.313 189.778 231.336 189.138C232.358 188.496 233.242 187.55 233.561 186.385M183.939 206.891C184.593 205.818 185.499 204.9 186.561 204.232M185.118 208.245C185.987 207.579 186.855 206.914 187.723 206.248M204.294 194.784C206.478 192.673 208.233 190.119 209.42 187.32M183.906 204.784C184.76 203.834 185.667 202.932 186.622 202.084C187.507 201.296 188.438 200.553 189.235 199.672C191.235 197.467 192.296 194.434 192.107 191.46M199.034 173.73C198.873 176.559 198.663 179.539 197.096 181.898C195.363 184.505 192.247 185.876 189.169 186.426M169.316 191.261C170.835 192.464 172.582 193.379 174.436 193.943" stroke="#000105" stroke-width="0.5"></path></svg>