<svg xmlns="http://www.w3.org/2000/svg" width="470" height="521" viewBox="0 0 470 521" fill="none"><g clip-path="url(#clip0_2181_23853)"><path d="M344.129 520.477H336.356L258.352 322.934H273.896L344.129 520.477Z" fill="#0B2F2F"></path><path d="M125.871 520.477H133.643L211.646 322.934H196.104L125.871 520.477Z" fill="#0B2F2F"></path><path d="M328.547 305.426C328.547 305.426 298.317 176.653 235.162 176.051C235.162 176.051 235.053 176.046 234.999 176.046C234.941 176.046 234.889 176.043 234.832 176.043V176.051C171.68 176.653 141.449 305.426 141.449 305.426C141.449 305.426 141.451 335.765 234.832 335.836V335.838C234.889 335.838 234.941 335.838 234.999 335.838C235.053 335.838 235.107 335.838 235.162 335.838V335.836C328.545 335.765 328.547 305.426 328.547 305.426Z" fill="white"></path><path d="M328.549 305.425C328.549 305.425 328.547 335.764 235.162 335.835V335.837C235.107 335.837 235.053 335.835 234.999 335.835C234.943 335.835 234.889 335.837 234.832 335.837V335.835C141.451 335.764 141.449 305.425 141.449 305.425C141.449 305.425 142.225 302.127 143.785 296.584C156.504 304.88 182.342 313.309 234.819 313.351H235.181C261.023 313.33 280.407 311.275 294.942 308.203C309.923 305.04 319.755 300.792 326.211 296.582C327.775 302.125 328.549 305.425 328.549 305.425Z" fill="#496C6C"></path><path d="M271.168 32.3099C270.169 14.2974 255.285 0 237.064 0C218.842 0 203.956 14.2974 202.96 32.3099C197.559 44.5608 194.358 59.8045 194.358 76.3336C194.358 116.729 213.476 149.476 237.064 149.476C260.648 149.476 279.77 116.729 279.77 76.3336C279.77 59.8045 276.566 44.5608 271.168 32.3099Z" fill="#101010"></path><path d="M237.064 89.1328C201.506 89.1328 182.655 106.108 182.655 106.108C182.655 106.108 191.559 160.672 191.559 228.563L199.807 238.288L269.488 237.412L282.569 228.563C282.569 160.672 291.473 106.108 291.473 106.108C291.473 106.108 272.62 89.1328 237.064 89.1328Z" fill="#16A571"></path><path d="M161.268 205.686L154.726 202.104L151.915 187.744L158.116 181.64L167.017 181.02C171.839 183.267 176.756 205.297 161.268 205.686Z" fill="#16A571"></path><path d="M151.569 202.456C151.569 202.456 162.787 200.287 164.803 201.868C164.803 201.868 169.093 205.303 178.012 201.846C186.931 198.384 193.775 197.814 204.641 199.909C215.506 202.005 203.527 182.877 184.946 185.345C159.91 188.667 152.549 187.168 152.549 187.168C152.549 187.168 142.249 190.813 151.569 202.456Z" fill="#FFD4CA"></path><path d="M151.569 202.456C151.569 202.456 162.788 200.287 164.803 201.867C164.803 201.867 169.093 205.303 178.012 201.846C186.931 198.384 193.775 197.813 204.641 199.909C200.689 186.693 178.216 200.324 147.789 195.154C148.132 197.133 149.235 199.543 151.569 202.456Z" fill="#FDB1A1"></path><path d="M152.916 184.022L189.039 149.018C189.039 149.018 205.788 133.261 182.655 106.105C182.655 106.105 105.785 168.791 113.911 205.687L152.916 184.022Z" fill="#16A571"></path><path d="M152.916 184.023L189.039 149.021C189.039 149.021 198.754 139.877 193.164 123.523C193.164 123.523 163.807 139.27 141.138 178.697L152.916 184.023Z" fill="#16A571"></path><path d="M161.269 205.689H113.911L115.019 195.011L126.552 180.124L130.892 177.777L167.017 181.023C157.15 184.668 154.836 198.087 161.269 205.689Z" fill="#16A571"></path><path d="M113.908 193.664C113.136 197.88 113.081 201.921 113.911 205.688H161.268C159.018 203.031 157.84 199.661 157.676 196.245C143.525 196.245 113.908 193.664 113.908 193.664Z" fill="#16A571"></path><path d="M312.857 205.686L319.402 202.104L322.214 187.744L316.01 181.64L307.111 181.02C302.286 183.267 297.37 205.297 312.857 205.686Z" fill="#16A571"></path><path d="M322.56 202.456C322.56 202.456 311.34 200.287 309.325 201.868C309.325 201.868 305.035 205.303 296.116 201.846C287.194 198.384 280.35 197.814 269.488 199.909C258.622 202.005 270.599 182.877 289.181 185.345C314.218 188.667 321.579 187.168 321.579 187.168C321.579 187.168 331.88 190.813 322.56 202.456Z" fill="#FFD4CA"></path><path d="M322.56 202.456C322.56 202.456 311.341 200.287 309.325 201.867C309.325 201.867 305.036 205.303 296.116 201.846C287.194 198.384 280.35 197.813 269.488 199.909C273.434 186.693 295.911 200.324 326.339 195.154C325.993 197.133 324.893 199.543 322.56 202.456Z" fill="#FDB1A1"></path><path d="M321.209 184.022L285.09 149.018C285.09 149.018 268.338 133.261 291.473 106.105C291.473 106.105 368.344 168.791 360.217 205.687L321.209 184.022Z" fill="#16A571"></path><path d="M321.21 184.023L285.09 149.021C285.09 149.021 275.372 139.877 280.965 123.523C280.965 123.523 310.321 139.27 332.991 178.697L321.21 184.023Z" fill="#16A571"></path><path d="M312.857 205.689H360.217L359.109 195.011L347.576 180.124L343.234 177.777L307.111 181.023C316.977 184.668 319.292 198.087 312.857 205.689Z" fill="#16A571"></path><path d="M360.219 193.664C360.987 197.88 361.046 201.921 360.217 205.688H312.857C315.11 203.031 316.288 199.661 316.45 196.245C330.603 196.245 360.219 193.664 360.219 193.664Z" fill="#16A571"></path><path d="M250.983 80.0047L250.192 70.0898H223.163L222.292 80.9954C221.87 86.2877 218.085 90.6861 212.933 91.9322C212.909 91.94 212.881 91.9453 212.853 91.9531C212.853 91.9531 215.879 109.418 236.908 109.418C257.936 109.418 261.273 91.9531 261.273 91.9531C261.244 91.9453 261.214 91.9374 261.185 91.9296C255.568 90.5713 251.443 85.7768 250.983 80.0047Z" fill="#FFD4CA"></path><path d="M250.193 79.504C250.193 79.504 246.673 91.6584 237.064 91.6584C227.453 91.6584 223.164 78.5238 223.164 78.5238V69.0078H250.193V79.504Z" fill="#FDB1A1"></path><path d="M262.366 23.0859C262.366 69.7272 251.038 87.2834 237.064 87.2834C223.091 87.2834 211.76 69.7272 211.76 23.0859H262.366Z" fill="#FFD4CA"></path><path d="M217.191 39.5114C227.26 49.2307 251.537 38.1635 259.749 51.6631L258.097 42.6659L217.191 31.7422V39.5114Z" fill="#FDB1A1"></path><path d="M263.669 21.7567L210.94 21.6523L209.86 34.3386L212.389 51.6237L214.278 52.4189C214.558 51.8975 218.306 42.8299 218.673 36.3226C230.875 44.3994 255.405 41.3048 260.11 52.4189L267.402 40.1915L263.669 21.7567Z" fill="#101010"></path><path d="M260.162 40.9064C260.162 40.9064 263.036 36.224 266.632 39.1048C270.226 41.9857 265.083 57.6545 259.515 57.6545L260.162 40.9064Z" fill="#FFD4CA"></path><path d="M213.539 40.9064C213.539 40.9064 210.664 36.224 207.072 39.1048C203.478 41.9857 209.042 57.6545 214.61 57.6545L213.539 40.9064Z" fill="#FFD4CA"></path><path d="M179.445 520.48C189.647 521.199 198.501 513.492 199.216 503.267L201.661 468.356C201.886 465.169 199.49 462.401 196.306 462.176L175.028 460.68L169.888 486.039L168.369 507.699C167.906 514.295 172.867 520.017 179.445 520.48Z" fill="#0B2F2F"></path><path d="M181.396 498.743C188.211 499.223 194.124 494.074 194.603 487.245L199.748 413.829L175.07 412.09L169.922 485.506C169.446 492.337 174.581 498.265 181.396 498.743Z" fill="#FDC0B1"></path><path d="M196.88 453.475L199.747 413.829L175.07 412.09L172.079 454.737C185.914 456.896 196.88 453.475 196.88 453.475Z" fill="#FDB1A1"></path><path d="M156.185 438.406C156.185 438.406 182.671 448.381 216.337 439.918C216.337 439.918 224.696 261.092 192.425 263.23C158.43 265.477 180.238 312.728 156.185 438.406Z" fill="#2E5E5E"></path><path d="M282.569 228.562C282.569 228.562 261.231 233.855 234.999 233.855C208.769 233.855 191.562 228.562 191.562 228.562L233.029 300.908L246.649 309.996C315.836 309.996 282.569 228.562 282.569 228.562Z" fill="#2E5E5E"></path><path d="M213.023 316.535C210.225 286.176 204.266 262.445 192.425 263.23C173.855 264.455 171.937 279.113 170.099 312.65L213.023 316.535Z" fill="#2E5E5E"></path><path d="M282.569 228.562C295.91 311.746 230.979 296.272 230.979 296.272L246.649 309.996C315.836 309.996 282.569 228.562 282.569 228.562Z" fill="#164343"></path><path d="M253.542 370.094L258.277 376.379C258.277 376.379 243.148 389.092 185.875 380.298L190.969 373.361L253.542 370.094Z" fill="#0B2F2F"></path><path d="M234.292 458.869C224.121 459.927 215.02 452.518 213.966 442.322L210.363 407.512C210.035 404.334 212.341 401.486 215.514 401.159L236.729 398.953L242.709 424.129L244.944 445.727C245.625 452.302 240.857 458.189 234.292 458.869Z" fill="#0B2F2F"></path><path d="M231.625 437.212C224.831 437.919 218.752 432.97 218.047 426.161L210.475 352.956L235.082 350.398L242.654 423.603C243.359 430.415 238.422 436.506 231.625 437.212Z" fill="#FFD4CA"></path><path d="M213.948 386.531L210.475 352.956L235.082 350.398L238.82 386.531C228.101 384.471 213.948 386.531 213.948 386.531Z" fill="#FDB1A1"></path><path d="M247.586 315.589C240.879 276.941 233.337 195.734 190.87 224.298C130.639 269.998 171.204 296.27 171.204 296.27L188.276 293.274L185.009 380.297C234.385 370.499 258.274 376.379 258.274 376.379C258.274 376.379 254.292 354.231 247.586 315.589Z" fill="#285656"></path><path d="M470 214.275H0V205.688H470V214.275Z" fill="#4C7171"></path><path d="M287.329 205.688H182.668L178.524 141.773C178.357 139.199 180.394 137.02 182.966 137.02H287.032C289.602 137.02 291.639 139.199 291.475 141.773L287.329 205.688Z" fill="#7AA8A8"></path><path d="M246.527 171.475C245.666 176.926 240.521 180.558 234.998 180.558C229.476 180.558 224.331 176.926 223.47 171.475C222.609 166.026 227.748 160.574 234.998 160.574C242.248 160.574 247.388 166.026 246.527 171.475Z" fill="white"></path><path d="M78.6078 205.951H54.4532L50 161.609H83.061L78.6078 205.951Z" fill="white"></path><path d="M85.2851 161.607H47.7734V157.605H85.2851V161.607Z" fill="#7AA8A8"></path><path d="M83.061 157.606H50L52.2241 153.602H80.8318L83.061 157.606Z" fill="#164343"></path><path d="M74.4535 178.952C74.4535 183.339 70.9055 186.896 66.5277 186.896C62.1526 186.896 58.6045 183.339 58.6045 178.952C58.6045 174.567 62.1526 171.008 66.5277 171.008C70.9055 171.008 74.4535 174.567 74.4535 178.952Z" fill="#16A571"></path><path d="M437.425 199.076C437.425 201.146 435.751 202.827 433.682 202.827H380.423C382.491 202.827 384.169 201.146 384.169 199.076C384.169 197.011 382.491 195.332 380.423 195.332H433.682C435.751 195.332 437.425 197.011 437.425 199.076Z" fill="white"></path></g><defs><clipPath id="clip0_2181_23853"><rect width="470" height="521" fill="white"></rect></clipPath></defs></svg>