<svg xmlns="http://www.w3.org/2000/svg" width="168" height="54" viewBox="0 0 168 54" fill="none"><path d="M10.7877 53.9972C10.3536 53.9972 9.93003 53.9917 9.49935 53.9821C8.60717 53.9706 7.71707 53.8936 6.83635 53.7518C6.01513 53.6117 5.21959 53.351 4.47597 52.9784C3.73916 52.6088 3.06714 52.1242 2.48563 51.5432C1.89572 50.9691 1.40458 50.3031 1.0317 49.5718C0.6547 48.8357 0.393796 48.0468 0.258073 47.2324C0.111505 46.3573 0.0322049 45.4724 0.0208579 44.5854C0.0118252 44.2877 0 43.2964 0 43.2964V10.6856C0 10.6856 0.0125946 9.70951 0.0209292 9.42275C0.0317938 8.53718 0.110633 7.6537 0.256763 6.77997C0.392736 5.96334 0.653842 5.17208 1.03104 4.4336C1.40256 3.70279 1.89096 3.03635 2.47733 2.46013C3.06303 1.87843 3.73721 1.39137 4.47527 1.01671C5.21718 0.645275 6.01122 0.386426 6.83078 0.248839C7.71439 0.105646 8.60758 0.0282283 9.50286 0.0172368L10.7884 0H157.205L158.506 0.0179285C159.393 0.0283739 160.278 0.1051 161.153 0.247455C161.981 0.386768 162.783 0.647423 163.534 1.02085C165.012 1.77589 166.215 2.97043 166.974 4.43704C167.346 5.17043 167.603 5.95523 167.737 6.76481C167.885 7.64571 167.968 8.53613 167.985 9.42897C167.989 9.82876 167.989 10.2582 167.989 10.6856C168 11.215 168 11.7188 168 12.2268V41.7717C168 42.2845 168 42.785 167.989 43.2895C167.989 43.7486 167.989 44.1691 167.983 44.602C167.967 45.4789 167.885 46.3534 167.74 47.2185C167.607 48.0388 167.347 48.8339 166.97 49.576C166.595 50.2994 166.107 50.9596 165.523 51.5322C164.941 52.1164 164.268 52.6038 163.53 52.9757C162.781 53.3512 161.98 53.6128 161.153 53.7518C160.273 53.8944 159.382 53.9713 158.49 53.9821C158.073 53.9917 157.636 53.9972 157.212 53.9972L155.667 54L10.7877 53.9972Z" fill="black"></path><path d="M34.0444 27.4327C34.0597 26.2544 34.3756 25.0991 34.9626 24.0743C35.5496 23.0495 36.3887 22.1884 37.4018 21.5713C36.7582 20.6605 35.9092 19.911 34.9221 19.3822C33.935 18.8535 32.8371 18.5601 31.7156 18.5253C29.3231 18.2765 27.0037 19.9438 25.7846 19.9438C24.5419 19.9438 22.6648 18.55 20.6435 18.5912C19.3361 18.6331 18.0619 19.0098 16.9451 19.6847C15.8283 20.3595 14.9069 21.3095 14.2709 22.4421C11.5154 27.1691 13.5707 34.1161 16.2102 37.937C17.5307 39.808 19.0741 41.8979 21.0936 41.8238C23.0698 41.7426 23.8078 40.5752 26.1932 40.5752C28.5565 40.5752 29.2489 41.8238 31.3094 41.7767C33.4299 41.7425 34.7659 39.8974 36.0402 38.0087C36.989 36.6755 37.7191 35.2021 38.2035 33.643C36.9715 33.1267 35.9202 32.2625 35.1806 31.1581C34.441 30.0538 34.0458 28.7581 34.0444 27.4327Z" fill="white"></path><path d="M30.1528 16.0097C31.309 14.6344 31.8786 12.8667 31.7406 11.082C29.9742 11.2659 28.3426 12.1024 27.1708 13.4249C26.5978 14.071 26.159 14.8226 25.8794 15.6368C25.5998 16.451 25.4849 17.3119 25.5413 18.1701C26.4248 18.1791 27.2989 17.9894 28.0977 17.6152C28.8965 17.241 29.5991 16.692 30.1528 16.0097Z" fill="white"></path><path d="M59.0253 37.0851H52.2816L50.6621 41.8233H47.8057L54.1932 24.293H57.1609L63.5485 41.8233H60.6434L59.0253 37.0851ZM52.98 34.8986H58.3255L55.6904 27.2087H55.6166L52.98 34.8986Z" fill="white"></path><path d="M77.3434 35.4296C77.3434 39.4014 75.1979 41.9532 71.9603 41.9532C71.1402 41.9957 70.3245 41.8085 69.6068 41.413C68.889 41.0176 68.2981 40.4298 67.9018 39.7171H67.8406V46.0476H65.1929V29.0384H67.7557V31.1642H67.8044C68.219 30.4549 68.8198 29.8702 69.543 29.4723C70.2663 29.0744 71.0848 28.8783 71.9116 28.9047C75.1854 28.9047 77.3434 31.4689 77.3434 35.4296ZM74.6219 35.4296C74.6219 32.842 73.2723 31.1408 71.2132 31.1408C69.1902 31.1408 67.8295 32.8778 67.8295 35.4296C67.8295 38.0049 69.1902 39.7295 71.2132 39.7295C73.2723 39.7295 74.6219 38.0407 74.6219 35.4296Z" fill="white"></path><path d="M91.5406 35.4296C91.5406 39.4014 89.3952 41.9532 86.1576 41.9532C85.3374 41.9957 84.5218 41.8085 83.804 41.413C83.0863 41.0176 82.4954 40.4298 82.0991 39.7171H82.0378V46.0476H79.3901V29.0384H81.9529V31.1642H82.0016C82.4162 30.4549 83.017 29.8702 83.7403 29.4723C84.4635 29.0744 85.2821 28.8783 86.1089 28.9047C89.3827 28.9047 91.5406 31.4689 91.5406 35.4296ZM88.8192 35.4296C88.8192 32.842 87.4696 31.1408 85.4104 31.1408C83.3875 31.1408 82.0267 32.8778 82.0267 35.4296C82.0267 38.0049 83.3875 39.7295 85.4104 39.7295C87.4696 39.7295 88.8192 38.0407 88.8192 35.4296H88.8192Z" fill="white"></path><path d="M100.923 36.9383C101.12 38.6767 102.824 39.8181 105.153 39.8181C107.385 39.8181 108.99 38.6766 108.99 37.1092C108.99 35.7485 108.022 34.9337 105.729 34.3754L103.436 33.8281C100.187 33.0505 98.6793 31.5451 98.6793 29.1022C98.6793 26.0776 101.339 24 105.117 24C108.855 24 111.418 26.0776 111.505 29.1022H108.832C108.672 27.3528 107.212 26.2968 105.079 26.2968C102.946 26.2968 101.487 27.3652 101.487 28.9202C101.487 30.1596 102.419 30.8889 104.7 31.4472L106.649 31.9214C110.279 32.772 111.787 34.2168 111.787 36.781C111.787 40.0607 109.15 42.1148 104.957 42.1148C101.033 42.1148 98.3843 40.1089 98.2131 36.9381L100.923 36.9383Z" fill="white"></path><path d="M117.501 26.0156V29.0403H119.954V31.1178H117.501V38.1639C117.501 39.2585 117.992 39.7686 119.07 39.7686C119.362 39.7636 119.652 39.7433 119.941 39.7079V41.773C119.457 41.8628 118.964 41.9034 118.471 41.8944C115.859 41.8944 114.841 40.9224 114.841 38.4437V31.1178H112.965V29.0403H114.841V26.0156H117.501Z" fill="white"></path><path d="M121.375 35.4351C121.375 31.4137 123.765 28.8867 127.492 28.8867C131.232 28.8867 133.611 31.4136 133.611 35.4351C133.611 39.4675 131.245 41.9835 127.492 41.9835C123.741 41.9835 121.375 39.4675 121.375 35.4351ZM130.914 35.4351C130.914 32.6765 129.638 31.0484 127.492 31.0484C125.347 31.0484 124.073 32.6889 124.073 35.4351C124.073 38.2047 125.347 39.8204 127.492 39.8204C129.638 39.8204 130.914 38.2047 130.914 35.4351H130.914Z" fill="white"></path><path d="M135.794 29.0383H138.32V31.2137H138.381C138.552 30.5343 138.954 29.9339 139.519 29.5133C140.084 29.0928 140.777 28.8778 141.484 28.9046C141.789 28.9035 142.093 28.9363 142.391 29.0025V31.4564C142.006 31.3397 141.604 31.2862 141.201 31.2978C140.816 31.2824 140.433 31.3496 140.077 31.4948C139.721 31.6401 139.401 31.8599 139.139 32.1393C138.877 32.4186 138.679 32.7509 138.559 33.1132C138.438 33.4756 138.399 33.8594 138.442 34.2384V41.8193H135.794L135.794 29.0383Z" fill="white"></path><path d="M154.598 38.071C154.242 40.3912 151.962 41.9835 149.044 41.9835C145.292 41.9835 142.963 39.4923 142.963 35.4957C142.963 31.4868 145.304 28.8867 148.933 28.8867C152.502 28.8867 154.746 31.3158 154.746 35.1911V36.0899H145.635V36.2485C145.593 36.7188 145.653 37.1927 145.81 37.6386C145.967 38.0844 146.218 38.4921 146.546 38.8345C146.874 39.1769 147.272 39.4462 147.713 39.6245C148.155 39.8028 148.629 39.886 149.105 39.8687C149.731 39.9268 150.359 39.7832 150.896 39.4593C151.432 39.1354 151.849 38.6485 152.084 38.071L154.598 38.071ZM145.648 34.2564H152.097C152.12 33.8334 152.056 33.4102 151.907 33.0132C151.757 32.6162 151.527 32.2541 151.23 31.9495C150.933 31.6449 150.576 31.4044 150.18 31.2432C149.785 31.082 149.36 31.0034 148.933 31.0125C148.502 31.01 148.074 31.0921 147.675 31.254C147.276 31.416 146.914 31.6547 146.608 31.9563C146.303 32.2579 146.061 32.6164 145.896 33.0112C145.731 33.406 145.647 33.8292 145.648 34.2564V34.2564Z" fill="white"></path><path d="M52.6473 11.0994C53.2024 11.0599 53.7594 11.143 54.2782 11.3427C54.7969 11.5423 55.2645 11.8536 55.6472 12.254C56.0298 12.6544 56.318 13.1339 56.491 13.658C56.664 14.1822 56.7174 14.7378 56.6474 15.2848C56.6474 17.9759 55.1795 19.5227 52.6473 19.5227H49.5767V11.0994H52.6473ZM50.897 18.3315H52.4998C52.8965 18.355 53.2934 18.2905 53.6618 18.1429C54.0301 17.9952 54.3606 17.768 54.6291 17.4778C54.8977 17.1876 55.0975 16.8417 55.2142 16.4653C55.3308 16.0889 55.3613 15.6915 55.3033 15.302C55.3571 14.914 55.3235 14.5191 55.2051 14.1455C55.0867 13.7718 54.8863 13.4288 54.6184 13.1409C54.3504 12.853 54.0216 12.6274 53.6553 12.4803C53.289 12.3331 52.8944 12.2681 52.4998 12.2898H50.897V18.3315Z" fill="white"></path><path d="M58.1393 16.3334C58.099 15.9157 58.1472 15.4942 58.2809 15.096C58.4146 14.6978 58.6308 14.3317 58.9157 14.0211C59.2005 13.7106 59.5478 13.4624 59.9351 13.2927C60.3224 13.1229 60.7412 13.0352 61.1648 13.0352C61.5883 13.0352 62.0071 13.1229 62.3944 13.2927C62.7817 13.4624 63.129 13.7106 63.4138 14.0211C63.6987 14.3317 63.9149 14.6978 64.0486 15.096C64.1823 15.4942 64.2305 15.9157 64.1902 16.3334C64.2313 16.7516 64.1836 17.1736 64.0503 17.5725C63.9169 17.9713 63.7009 18.3381 63.4159 18.6493C63.131 18.9604 62.7835 19.2091 62.3958 19.3792C62.0081 19.5494 61.5888 19.6373 61.1648 19.6373C60.7407 19.6373 60.3214 19.5494 59.9337 19.3792C59.546 19.2091 59.1985 18.9604 58.9136 18.6493C58.6286 18.3381 58.4126 17.9713 58.2792 17.5725C58.1459 17.1736 58.0982 16.7516 58.1393 16.3334ZM62.8879 16.3334C62.8879 14.9555 62.2632 14.1497 61.1668 14.1497C60.0663 14.1497 59.4472 14.9555 59.4472 16.3334C59.4472 17.7224 60.0663 18.5219 61.1668 18.5219C62.2632 18.5219 62.8879 17.7168 62.8879 16.3334H62.8879Z" fill="white"></path><path d="M72.2329 19.5208H70.9195L69.5936 14.8391H69.4934L68.173 19.5208H66.8721L65.1038 13.1641H66.388L67.5372 18.0146H67.6318L68.9508 13.1641H70.1654L71.4844 18.0146H71.5846L72.7282 13.1641H73.9943L72.2329 19.5208Z" fill="white"></path><path d="M75.4817 13.1641H76.7005V14.1739H76.7951C76.9556 13.8112 77.2263 13.5072 77.5695 13.3042C77.9127 13.1012 78.3112 13.0093 78.7096 13.0414C79.0217 13.0182 79.3352 13.0648 79.6267 13.1779C79.9182 13.2909 80.1802 13.4675 80.3935 13.6946C80.6067 13.9217 80.7657 14.1934 80.8586 14.4896C80.9515 14.7858 80.9759 15.0989 80.9301 15.4057V19.5208H79.664V15.7207C79.664 14.6992 79.216 14.1912 78.2797 14.1912C78.0677 14.1814 77.8561 14.2171 77.6595 14.296C77.4628 14.3748 77.2856 14.4948 77.1401 14.6478C76.9946 14.8008 76.8842 14.9832 76.8165 15.1824C76.7488 15.3816 76.7253 15.593 76.7478 15.8021V19.5209H75.4817L75.4817 13.1641Z" fill="white"></path><path d="M82.948 10.6797H84.2141V19.5179H82.948V10.6797Z" fill="white"></path><path d="M85.974 16.3335C85.9337 15.9157 85.982 15.4942 86.1157 15.096C86.2494 14.6978 86.4657 14.3317 86.7505 14.0211C87.0354 13.7106 87.3827 13.4625 87.77 13.2927C88.1574 13.1229 88.5762 13.0352 88.9998 13.0352C89.4233 13.0352 89.8422 13.1229 90.2295 13.2927C90.6169 13.4625 90.9641 13.7106 91.249 14.0211C91.5339 14.3317 91.7502 14.6978 91.8839 15.096C92.0176 15.4942 92.0659 15.9157 92.0256 16.3335C92.0666 16.7517 92.0189 17.1738 91.8855 17.5726C91.7521 17.9715 91.536 18.3382 91.2511 18.6494C90.9661 18.9605 90.6186 19.2092 90.2309 19.3793C89.8432 19.5495 89.4238 19.6374 88.9998 19.6374C88.5757 19.6374 88.1564 19.5495 87.7687 19.3793C87.381 19.2092 87.0335 18.9605 86.7485 18.6494C86.4635 18.3382 86.2474 17.9715 86.114 17.5726C85.9806 17.1738 85.9329 16.7517 85.974 16.3335ZM90.7226 16.3335C90.7226 14.9556 90.0979 14.1498 89.0015 14.1498C87.901 14.1498 87.2819 14.9556 87.2819 16.3335C87.2819 17.7225 87.901 18.5221 89.0015 18.5221C90.0979 18.522 90.7226 17.7169 90.7226 16.3335H90.7226Z" fill="white"></path><path d="M93.3584 17.7169C93.3584 16.5726 94.2182 15.913 95.7445 15.8192L97.4823 15.72V15.1713C97.4823 14.4999 97.0343 14.1208 96.1689 14.1208C95.4621 14.1208 94.9723 14.3779 94.8318 14.8273H93.6061C93.7354 13.7355 94.772 13.0352 96.2273 13.0352C97.8357 13.0352 98.7428 13.8285 98.7428 15.1713V19.5146H97.524V18.6213H97.4239C97.2205 18.9417 96.935 19.2029 96.5965 19.3783C96.2579 19.5536 95.8785 19.6368 95.4969 19.6193C95.2275 19.6471 94.9553 19.6186 94.6978 19.5357C94.4403 19.4529 94.2031 19.3175 94.0016 19.1382C93.8002 18.959 93.6388 18.7399 93.528 18.4951C93.4172 18.2503 93.3595 17.9852 93.3584 17.7169ZM97.4823 17.1737V16.6423L95.9157 16.7415C95.0322 16.8001 94.6315 17.0979 94.6315 17.6583C94.6315 18.2304 95.1323 18.5633 95.8211 18.5633C96.0229 18.5836 96.2267 18.5634 96.4205 18.504C96.6143 18.4446 96.794 18.3471 96.949 18.2175C97.104 18.0878 97.2311 17.9286 97.3227 17.7493C97.4143 17.57 97.4686 17.3742 97.4823 17.1737Z" fill="white"></path><path d="M100.407 16.3368C100.407 14.3282 101.449 13.0557 103.07 13.0557C103.471 13.0374 103.869 13.1326 104.217 13.3301C104.565 13.5276 104.85 13.8192 105.037 14.171H105.132V10.6797H106.398V19.5179H105.185V18.5136H105.084C104.883 18.863 104.588 19.151 104.233 19.3465C103.878 19.542 103.476 19.6375 103.07 19.6227C101.438 19.6227 100.407 18.3503 100.407 16.3368ZM101.715 16.3368C101.715 17.6851 102.356 18.4964 103.429 18.4964C104.496 18.4964 105.155 17.6734 105.155 16.3423C105.155 15.0175 104.489 14.1827 103.429 14.1827C102.363 14.1827 101.715 14.9996 101.715 16.3368H101.715Z" fill="white"></path><path d="M111.636 16.3334C111.596 15.9157 111.644 15.4942 111.777 15.096C111.911 14.6978 112.127 14.3317 112.412 14.0211C112.697 13.7106 113.044 13.4624 113.432 13.2927C113.819 13.1229 114.238 13.0352 114.661 13.0352C115.085 13.0352 115.504 13.1229 115.891 13.2927C116.278 13.4624 116.626 13.7106 116.91 14.0211C117.195 14.3317 117.411 14.6978 117.545 15.096C117.679 15.4942 117.727 15.9157 117.687 16.3334C117.728 16.7516 117.68 17.1736 117.547 17.5725C117.414 17.9713 117.197 18.3381 116.913 18.6493C116.628 18.9604 116.28 19.2091 115.892 19.3792C115.505 19.5494 115.085 19.6373 114.661 19.6373C114.237 19.6373 113.818 19.5494 113.43 19.3792C113.043 19.2091 112.695 18.9604 112.41 18.6493C112.125 18.3381 111.909 17.9713 111.776 17.5725C111.642 17.1736 111.595 16.7516 111.636 16.3334ZM116.384 16.3334C116.384 14.9555 115.76 14.1497 114.663 14.1497C113.563 14.1497 112.944 14.9555 112.944 16.3334C112.944 17.7224 113.563 18.5219 114.663 18.5219C115.76 18.5219 116.384 17.7168 116.384 16.3334Z" fill="white"></path><path d="M119.385 13.1641H120.604V14.1739H120.699C120.859 13.8112 121.13 13.5072 121.473 13.3042C121.816 13.1012 122.215 13.0093 122.613 13.0414C122.926 13.0182 123.239 13.0648 123.53 13.1779C123.822 13.2909 124.084 13.4675 124.297 13.6946C124.511 13.9217 124.67 14.1934 124.762 14.4896C124.855 14.7858 124.88 15.0989 124.834 15.4057V19.5208H123.568V15.7207C123.568 14.6992 123.12 14.1912 122.183 14.1912C121.972 14.1814 121.76 14.2171 121.563 14.296C121.367 14.3748 121.189 14.4948 121.044 14.6478C120.898 14.8008 120.788 14.9832 120.72 15.1824C120.653 15.3816 120.629 15.593 120.652 15.8021V19.5209H119.385V13.1641Z" fill="white"></path><path d="M131.989 11.582V13.1936H133.379V14.2503H131.989V17.519C131.989 18.1849 132.266 18.4764 132.896 18.4764C133.057 18.4759 133.219 18.4663 133.379 18.4475V19.4925C133.151 19.5328 132.921 19.5542 132.69 19.5566C131.282 19.5566 130.721 19.0658 130.721 17.8402V14.2503H129.703V13.1936H130.721V11.582H131.989Z" fill="white"></path><path d="M135.108 10.6797H136.363V14.1827H136.463C136.631 13.8166 136.909 13.5109 137.259 13.3071C137.609 13.1033 138.014 13.0115 138.419 13.044C138.729 13.0273 139.04 13.0786 139.328 13.1944C139.616 13.3103 139.875 13.4877 140.086 13.714C140.297 13.9404 140.455 14.2101 140.549 14.5039C140.643 14.7977 140.67 15.1084 140.628 15.4138V19.5179H139.361V15.7233C139.361 14.708 138.884 14.1937 137.989 14.1937C137.772 14.1761 137.553 14.2057 137.348 14.2806C137.143 14.3555 136.957 14.4738 136.803 14.6273C136.649 14.7808 136.531 14.9658 136.457 15.1693C136.383 15.3728 136.354 15.5898 136.374 15.8053V19.5179H135.108L135.108 10.6797Z" fill="white"></path><path d="M148.011 17.7983C147.839 18.3793 147.466 18.8818 146.958 19.218C146.45 19.5542 145.838 19.7027 145.231 19.6374C144.808 19.6484 144.388 19.5682 144 19.4023C143.612 19.2364 143.265 18.9888 142.983 18.6766C142.701 18.3644 142.491 17.9952 142.367 17.5945C142.244 17.1938 142.21 16.7713 142.267 16.3563C142.211 15.94 142.246 15.5166 142.369 15.1148C142.492 14.7129 142.701 14.3419 142.982 14.027C143.262 13.7121 143.608 13.4606 143.995 13.2895C144.382 13.1184 144.801 13.0317 145.225 13.0353C147.01 13.0353 148.087 14.2437 148.087 16.2398V16.6776H143.557V16.7479C143.537 16.9811 143.567 17.2159 143.644 17.4372C143.721 17.6585 143.844 17.8614 144.005 18.0328C144.166 18.2043 144.361 18.3405 144.578 18.4329C144.795 18.5252 145.029 18.5715 145.266 18.5689C145.569 18.605 145.875 18.5509 146.147 18.4137C146.419 18.2765 146.643 18.0623 146.792 17.7983L148.011 17.7983ZM143.557 15.7497H146.797C146.813 15.5364 146.784 15.3221 146.712 15.1206C146.639 14.9191 146.525 14.7349 146.376 14.5799C146.227 14.4248 146.047 14.3022 145.848 14.2201C145.649 14.138 145.434 14.0981 145.218 14.103C144.999 14.1003 144.782 14.141 144.579 14.2228C144.376 14.3046 144.192 14.4258 144.037 14.5793C143.882 14.7328 143.76 14.9154 143.678 15.1164C143.595 15.3174 143.554 15.5328 143.557 15.7497H143.557Z" fill="white"></path></svg>