<svg xmlns="http://www.w3.org/2000/svg" width="180" height="54" viewBox="0 0 180 54" fill="none"><path d="M173.333 54H6.66718C2.99912 54 0 50.9635 0 47.2496V6.75035C0 3.03653 2.99912 0 6.66718 0H173.333C176.998 0 180 3.03653 180 6.75035V47.2496C179.997 50.9635 176.998 54 173.333 54Z" fill="#100F0D"></path><path d="M27.6217 26.2192L13.426 41.4752C13.426 41.4781 13.4288 41.4809 13.4288 41.4837C13.8636 43.1402 15.3576 44.3594 17.1331 44.3594C17.8411 44.3594 18.5072 44.1647 19.0786 43.826L19.1232 43.7978L35.1027 34.4624L27.6217 26.2192Z" fill="#D8432B"></path><path d="M41.982 23.6253L41.9681 23.6169L35.0695 19.5672L27.2986 26.5687L35.0974 34.4648L41.9597 30.4547C43.1638 29.7972 43.9805 28.5131 43.9805 27.0316C43.9805 25.5613 43.175 24.2857 41.982 23.6253Z" fill="#FBC81D"></path><path d="M13.4262 12.529C13.3398 12.8479 13.2952 13.1809 13.2952 13.528V40.4815C13.2952 40.8286 13.3398 41.1616 13.4262 41.4805L28.1096 26.6167L13.4262 12.529Z" fill="#3371C1"></path><path d="M27.7277 27.0039L35.075 19.5678L19.115 10.1986C18.5353 9.84582 17.8579 9.64263 17.1333 9.64263C15.3605 9.64263 13.8638 10.8646 13.429 12.5239V12.5268L27.7277 27.0039Z" fill="#32A472"></path><path d="M63.2236 13.8237C63.2236 14.9553 62.8919 15.8555 62.2313 16.5272C61.4788 17.3258 60.4976 17.7266 59.2935 17.7266C58.1396 17.7266 57.1557 17.323 56.3502 16.5103C55.5419 15.7003 55.1377 14.6957 55.1377 13.4963C55.1377 12.2969 55.5419 11.2923 56.3502 10.4824C57.1585 9.67242 58.1396 9.26605 59.2935 9.26605C59.8677 9.26605 60.414 9.37893 60.9352 9.6047C61.4565 9.83046 61.8746 10.1324 62.1867 10.5106L61.4843 11.2217C60.9548 10.5811 60.2245 10.2594 59.2935 10.2594C58.4518 10.2594 57.7243 10.5585 57.1083 11.1596C56.4923 11.7607 56.1857 12.5368 56.1857 13.4963C56.1857 14.453 56.4923 15.2319 57.1083 15.833C57.7243 16.4341 58.4518 16.7332 59.2935 16.7332C60.1882 16.7332 60.9325 16.4312 61.5289 15.8273C61.9164 15.4351 62.1393 14.8876 62.2007 14.1877H59.2963V13.2141H63.1734C63.2041 13.4229 63.2236 13.6261 63.2236 13.8237Z" fill="white"></path><path d="M69.3696 10.4488H65.7266V13.0168H69.01V13.9904H65.7238V16.5585H69.3668V17.5547H64.6953V9.45539H69.3668V10.4488" fill="white"></path><path d="M73.7038 17.5508H72.6753V10.4477H70.4399V9.45149H75.9365V10.4477H73.7011L73.7038 17.5508Z" fill="white"></path><path d="M79.917 17.5508V9.45149H80.9455V17.5508H79.917Z" fill="white"></path><path d="M85.5024 17.5508H84.4739V10.4477H82.2385V9.45149H87.735V10.4477H85.4996L85.5024 17.5508Z" fill="white"></path><path d="M93.0365 15.8189C93.6302 16.4256 94.3521 16.7304 95.2106 16.7304C96.0663 16.7304 96.7938 16.4284 97.3847 15.8189C97.9784 15.2121 98.2738 14.436 98.2738 13.4935C98.2738 12.5509 97.9756 11.7749 97.3847 11.1681C96.7938 10.5614 96.0691 10.2566 95.2106 10.2566C94.3549 10.2566 93.6302 10.5585 93.0365 11.1681C92.4456 11.7749 92.1474 12.5509 92.1474 13.4935C92.1474 14.436 92.4456 15.2121 93.0365 15.8189ZM98.1456 16.499C97.3596 17.3174 96.3813 17.7266 95.2106 17.7266C94.0427 17.7266 93.0644 17.3174 92.2784 16.499C91.4924 15.6806 91.0994 14.6787 91.0994 13.4963C91.0994 12.3139 91.4924 11.312 92.2784 10.4936C93.0644 9.67525 94.0427 9.26605 95.2106 9.26605C96.3729 9.26605 97.3485 9.67807 98.14 10.4993C98.9288 11.3205 99.3246 12.3195 99.3246 13.4963C99.3219 14.6787 98.9288 15.6806 98.1456 16.499Z" fill="white"></path><path d="M100.766 17.5519V9.45257H102.017L105.905 15.7542H105.95L105.905 14.1936V9.45539H106.934V17.5547H105.861L101.794 10.9483H101.75L101.794 12.5089V17.5547L100.766 17.5519Z" fill="white"></path><path d="M142.58 40.502H145.067V23.6261H142.58V40.502ZM164.99 29.7048L162.136 37.0196H162.05L159.09 29.702H156.408L160.851 39.9291L158.32 45.6184H160.915L167.755 29.7048H164.99ZM150.878 38.583C150.064 38.583 148.927 38.171 148.927 37.1494C148.927 35.8456 150.343 35.3461 151.564 35.3461C152.657 35.3461 153.172 35.586 153.836 35.9105C153.646 37.4767 152.316 38.583 150.878 38.583ZM151.179 29.3351C149.379 29.3351 147.511 30.1394 146.739 31.9201L148.949 32.8542C149.42 31.9201 150.301 31.6182 151.221 31.6182C152.509 31.6182 153.816 32.3999 153.838 33.7883V33.9633C153.387 33.7037 152.422 33.3114 151.243 33.3114C148.863 33.3114 146.441 34.6349 146.441 37.1099C146.441 39.3675 148.392 40.8237 150.58 40.8237C152.252 40.8237 153.175 40.0646 153.755 39.1728H153.841V40.4766H156.244V34.0056C156.241 31.0058 154.031 29.3351 151.179 29.3351ZM135.805 31.7593H132.268V25.9741H135.805C137.664 25.9741 138.72 27.5346 138.72 28.8667C138.72 30.1733 137.664 31.7593 135.805 31.7593ZM135.74 23.6233H129.778V40.4992H132.268V34.1044H135.74C138.5 34.1044 141.209 32.0838 141.209 28.8638C141.209 25.6439 138.497 23.6233 135.74 23.6233ZM103.232 38.5886C101.515 38.5886 100.074 37.1325 100.074 35.1316C100.074 33.1082 101.513 31.6294 103.232 31.6294C104.93 31.6294 106.262 33.1082 106.262 35.1316C106.259 37.1296 104.927 38.5886 103.232 38.5886ZM106.089 30.6502H106.003C105.445 29.9757 104.37 29.3662 103.018 29.3662C100.183 29.3662 97.5826 31.8891 97.5826 35.1288C97.5826 38.3488 100.183 40.8491 103.018 40.8491C104.372 40.8491 105.445 40.2395 106.003 39.5453H106.089V40.3722C106.089 42.5677 104.93 43.7445 103.06 43.7445C101.535 43.7445 100.59 42.6355 100.203 41.7014L98.0341 42.6157C98.6585 44.1368 100.311 46.0078 103.06 46.0078C105.981 46.0078 108.45 44.2694 108.45 40.0279V29.7189H106.087V30.6502H106.089ZM110.17 40.502H112.662V23.6261H110.17V40.502ZM116.335 34.9341C116.271 32.7159 118.033 31.5843 119.301 31.5843C120.291 31.5843 121.127 32.0838 121.405 32.8034L116.335 34.9341ZM124.067 33.0207C123.593 31.7367 122.155 29.3662 119.212 29.3662C116.291 29.3662 113.863 31.6944 113.863 35.1062C113.863 38.3262 116.269 40.8491 119.491 40.8491C122.091 40.8491 123.594 39.2405 124.215 38.3036L122.281 36.9998C121.637 37.9565 120.756 38.5886 119.488 38.5886C118.22 38.5886 117.319 38.0016 116.74 36.8474L124.321 33.6726L124.067 33.0207ZM63.6558 31.1271V33.5626H69.4115C69.2387 34.9313 68.7899 35.9331 68.1015 36.6301C67.2625 37.4796 65.9525 38.4137 63.6558 38.4137C60.1103 38.4137 57.3398 35.5211 57.3398 31.9342C57.3398 28.3446 60.1103 25.452 63.6558 25.452C65.5678 25.452 66.9643 26.2139 67.9956 27.1932L69.693 25.4745C68.2548 24.0833 66.3427 23.0165 63.6558 23.0165C58.8003 23.0165 54.7197 27.0182 54.7197 31.9342C54.7197 36.8502 58.8003 40.8519 63.6558 40.8519C66.2758 40.8519 68.252 39.9827 69.7989 38.3516C71.3877 36.743 71.8838 34.4797 71.8838 32.6539C71.8838 32.0894 71.842 31.5674 71.7556 31.1328H63.6558V31.1271ZM78.4284 38.5886C76.7086 38.5886 75.2286 37.1522 75.2286 35.109C75.2286 33.0433 76.7114 31.6294 78.4284 31.6294C80.1453 31.6294 81.6282 33.0433 81.6282 35.109C81.6282 37.1522 80.1481 38.5886 78.4284 38.5886ZM78.4284 29.3662C75.2927 29.3662 72.7367 31.779 72.7367 35.1062C72.7367 38.4108 75.2927 40.8491 78.4284 40.8491C81.5641 40.8491 84.12 38.4137 84.12 35.1062C84.12 31.779 81.5641 29.3662 78.4284 29.3662ZM90.8457 38.5886C89.1259 38.5886 87.6459 37.1522 87.6459 35.109C87.6459 33.0433 89.1287 31.6294 90.8457 31.6294C92.5627 31.6294 94.0455 33.0433 94.0455 35.109C94.0455 37.1522 92.5655 38.5886 90.8457 38.5886ZM90.8457 29.3662C87.71 29.3662 85.1541 31.779 85.1541 35.1062C85.1541 38.4108 87.71 40.8491 90.8457 40.8491C93.9814 40.8491 96.5373 38.4137 96.5373 35.1062C96.5373 31.779 93.9814 29.3662 90.8457 29.3662Z" fill="white"></path></svg>