<svg xmlns="http://www.w3.org/2000/svg" width="287" height="300" viewBox="0 0 287 300" fill="none"><g clip-path="url(#clip0_6026_35815)"><path d="M152.303 128.222L152.303 128.223C154.026 130.581 154.859 133.474 155.651 136.352C157.104 141.637 158.491 146.953 159.537 152.322C160.247 155.963 160.798 159.63 161.106 163.327C161.778 171.397 161.408 180.073 158.605 187.713L158.605 187.714C157.526 190.656 155.41 193.627 152.732 195.531C150.059 197.432 146.846 198.26 143.538 196.973L143.538 196.973C141.361 196.127 139.699 194.508 138.378 192.52C137.057 190.53 136.085 188.185 135.284 185.911C132.497 177.988 129.015 168.038 127.561 158.134C126.106 148.228 126.689 138.416 131.982 130.74L131.982 130.74C134.066 127.718 137.932 125.402 141.899 124.693C145.863 123.986 149.87 124.89 152.303 128.222Z" fill="#FFFFFE" stroke="#263238" stroke-width="0.5"></path><path fill-rule="evenodd" clip-rule="evenodd" d="M132.165 110.375C132.26 109.854 132.343 109.329 132.42 108.809C133.172 103.592 133.879 97.0685 128.248 95.4205C124.535 94.3331 118.03 94.8166 115.554 91.336C114.758 90.2175 114.533 88.8014 114.329 87.4419C114.038 85.5008 113.748 83.5582 113.457 81.6157C124.251 83.4854 128.754 73.7413 130.117 64.6278C131.508 55.3299 131.217 43.7221 123.093 37.4942C117.915 33.5228 110.663 32.5753 104.579 34.8942C98.494 37.2146 93.7246 42.663 92.003 48.9875C90.7284 53.6655 92.2405 55.3716 92.5149 60.1997C92.8276 65.6675 92.3423 75.1156 92.6447 80.5849C92.8483 84.2618 92.537 88.5471 90.5602 91.7584C89.6618 93.2161 88.5465 94.4611 87.0123 95.2568C85.9015 95.834 82.9967 95.5231 82.3048 96.2906C78.3512 100.671 74.6558 105.31 70.3599 109.332C80.4888 113.615 91.081 116.683 101.903 118.553C109.498 119.866 124.83 124.397 130.07 116.253C131.203 114.494 131.785 112.451 132.165 110.375Z" fill="#FFFFFE"></path><path fill-rule="evenodd" clip-rule="evenodd" d="M132.165 110.375C132.26 109.854 132.343 109.329 132.42 108.809C133.172 103.592 133.879 97.0685 128.248 95.4205C124.535 94.3331 118.03 94.8166 115.554 91.336C114.758 90.2175 114.533 88.8014 114.329 87.4419C114.038 85.5008 113.748 83.5582 113.457 81.6157C124.251 83.4854 128.754 73.7413 130.117 64.6278C131.508 55.3299 131.217 43.7221 123.093 37.4942C117.915 33.5228 110.663 32.5753 104.579 34.8942C98.494 37.2146 93.7246 42.663 92.003 48.9875C90.7284 53.6655 92.2405 55.3716 92.5149 60.1997C92.8276 65.6675 92.3423 75.1156 92.6447 80.5849C92.8483 84.2618 92.537 88.5471 90.5602 91.7584C89.6618 93.2161 88.5465 94.4611 87.0123 95.2568C85.9015 95.834 82.9967 95.5231 82.3048 96.2906C78.3512 100.671 74.6558 105.31 70.3599 109.332C80.4888 113.615 91.081 116.683 101.903 118.553C109.498 119.866 124.83 124.397 130.07 116.253C131.203 114.494 131.785 112.451 132.165 110.375Z" stroke="#000105" stroke-width="0.5"></path><path fill-rule="evenodd" clip-rule="evenodd" d="M42.4338 136.145C43.5166 122.651 49.509 108.842 61.6958 102.095C66.185 99.6095 71.1049 98.128 76.0646 96.9381C78.6152 96.3267 81.1836 95.7928 83.7402 95.2082C86.6065 94.5537 87.1834 95.2365 89.1277 97.4126C93.1521 101.915 99.5192 103.916 105.501 103.291C109.291 102.895 112.926 101.521 116.179 99.544C118.567 98.0938 119.894 96.8161 120.968 94.0852C121.052 93.874 121.15 93.6405 121.356 93.5453C121.491 93.4828 121.649 93.4932 121.798 93.5051C132.921 94.4243 143.168 97.5881 149.892 107.117C155.712 115.363 157.941 125.599 159.464 135.601C160.402 141.765 161.125 147.961 161.629 154.176C154.027 154.756 146.396 154.943 138.775 154.739C138.439 166.115 137.376 177.46 136.366 188.836C135.67 196.655 134.479 204.339 132.749 211.947C115.17 217.848 95.1112 216.409 76.2608 214.696C70.8865 214.207 65.3087 213.656 60.6617 210.891C47.5838 203.112 47.0262 180.127 45.16 166.746C43.7158 156.398 41.5841 146.713 42.4338 136.145Z" fill="#E57A74"></path><path fill-rule="evenodd" clip-rule="evenodd" d="M177.278 270.516C177.049 270.179 176.81 269.847 176.561 269.524C172.007 263.639 164.141 259.8 157.717 256.341C150.627 252.525 142.677 249.383 134.499 249.861C127.126 250.29 116.884 255.333 115.357 263.204C115.186 264.092 115.111 265.044 115.465 265.876C116.342 267.945 119.113 268.129 121.343 268.15C130.865 268.235 140.024 271.187 148.907 274.375C153.484 276.018 158.032 277.747 162.659 279.243C166.794 280.58 176.843 286.441 179.739 280.357C181.322 277.031 179.113 273.237 177.278 270.516Z" fill="#000105"></path><path fill-rule="evenodd" clip-rule="evenodd" d="M218.563 191.434C214.714 187.138 209.236 184.358 203.616 183.298C195.731 181.809 187.587 183.252 179.853 185.398C163.466 189.948 148.1 197.619 131.628 201.885C124.322 203.777 119.56 203.076 112.422 202.494C103.37 201.758 94.0786 202.657 84.9705 202.114C76.457 201.606 67.2456 200.942 59.2897 203.307C58.2379 202.609 57.192 201.911 56.1475 201.223C47.246 195.335 38.3799 189.471 27.2183 191.617C18.4422 193.301 9.98026 197.787 4.54404 205.071C-1.23 212.81 0.503393 222.914 5.67702 230.628C9.96108 237.015 16.2928 241.715 22.8501 245.682C45.4713 259.363 70.1813 267.749 96.8756 265.881C100.45 265.63 104.662 265.591 107.235 268.484C108.202 269.571 108.764 275.534 110.912 275.277C113.556 274.96 118.647 274.214 121.145 273.305C134.634 268.392 148.122 263.477 161.612 258.564C173.464 254.248 185.401 249.89 196.2 243.341C205.538 237.675 213.995 230.013 218.954 220.088C222.53 212.932 225.464 203.501 221.731 196.067C220.879 194.369 219.806 192.822 218.563 191.434Z" fill="#35619C"></path><path d="M51.1378 212.004C58.7204 215.825 66.6601 218.269 73.9241 222.795C81.1867 227.321 88.0553 232.593 95.9404 236.014C101.057 238.232 108.48 239.099 113.385 241.556" stroke="#000105" stroke-width="0.5"></path><path fill-rule="evenodd" clip-rule="evenodd" d="M107.038 267.394C106.329 265.74 105.619 264.088 104.91 262.434C103.502 259.152 102.093 255.871 100.685 252.59C97.5143 254.193 94.4621 255.477 90.7873 255.172C88.8356 255.01 86.9163 254.449 84.9572 254.482C81.0641 254.549 79.3808 257.605 77.7596 260.702C74.8961 266.176 69.7417 270.165 65.5594 274.559C60.3194 280.066 57.2819 285.245 58.1243 293.119C58.4208 295.896 59.5346 299.082 62.2003 299.839C64.6581 300.538 67.0833 298.803 69.0601 297.171C74.4196 292.75 79.7791 288.327 85.1386 283.905C87.5831 281.888 90.0689 279.2 92.8497 277.687C95.1348 276.442 97.8522 275.661 100.021 274.204C101.403 273.616 102.819 273.109 104.258 272.682C105.187 272.407 107.598 272.312 108.267 271.654C109.096 270.839 107.443 268.337 107.066 267.461C107.058 267.439 107.047 267.416 107.038 267.394Z" fill="#000105"></path><path fill-rule="evenodd" clip-rule="evenodd" d="M120.929 215.592C121.906 215.094 122.649 214.209 123.232 212.531C124.204 209.723 123.633 206.396 122.067 203.921C120.046 200.727 116.325 198.261 112.658 197.486C108.875 196.684 105.205 195.322 101.351 194.535C98.5795 193.97 95.8533 193.201 93.1286 192.43C87.3722 190.805 81.6159 189.179 75.8581 187.553C74.4595 187.156 72.9887 186.852 71.6227 186.356C70.3215 185.883 70.385 186.009 70.2728 184.743C70.1489 183.329 70.6343 181.803 70.7316 180.387C70.8733 178.324 71.0105 176.259 71.1418 174.196C71.397 170.181 71.6345 166.168 71.8513 162.152C72.2762 154.303 71.8425 146.621 70.4617 138.855C68.1441 125.828 52.6793 118.348 43.9371 130.784C37.8459 139.451 36.5978 151.203 36.1715 161.514C35.7009 172.836 36.3559 184.2 40.6709 194.834C51.4298 221.346 93.6906 218.549 116.614 216.397C118.42 216.226 119.824 216.156 120.929 215.592Z" fill="#FFFFFE"></path><path fill-rule="evenodd" clip-rule="evenodd" d="M120.929 215.592C121.906 215.094 122.649 214.209 123.232 212.531C124.204 209.723 123.633 206.396 122.067 203.921C120.046 200.727 116.325 198.261 112.658 197.486C108.875 196.684 105.205 195.322 101.351 194.535C98.5795 193.97 95.8533 193.201 93.1286 192.43C87.3722 190.805 81.6159 189.179 75.8581 187.553C74.4595 187.156 72.9887 186.852 71.6227 186.356C70.3215 185.883 70.385 186.009 70.2728 184.743C70.1489 183.329 70.6343 181.803 70.7316 180.387C70.8733 178.324 71.0105 176.259 71.1418 174.196C71.397 170.181 71.6345 166.168 71.8513 162.152C72.2762 154.303 71.8425 146.621 70.4617 138.855C68.1441 125.828 52.6793 118.348 43.9371 130.784C37.8459 139.451 36.5978 151.203 36.1715 161.514C35.7009 172.836 36.3559 184.2 40.6709 194.834C51.4298 221.346 93.6906 218.549 116.614 216.397C118.42 216.226 119.824 216.156 120.929 215.592Z" stroke="#000105" stroke-width="0.5"></path><path fill-rule="evenodd" clip-rule="evenodd" d="M114.101 30.1898C123.639 31.0689 132.05 39.6499 134.45 48.7068C133.882 48.9448 133.312 49.1813 132.744 49.4178C131.961 47.5972 130.964 45.8717 129.785 44.2832C129.84 46.0636 130.124 47.8351 130.629 49.5397C129.524 49.9205 127.699 49.4981 126.503 49.5606C124.725 49.6558 122.949 49.8045 121.18 50.0098C117.864 50.3935 114.568 50.9706 111.318 51.7396C111.02 51.8095 110.685 51.878 110.426 51.7158C110.259 51.6147 110.154 51.4377 110.058 51.2666C109.229 49.7941 108.394 45.8673 106.502 47.0468C105.614 47.6001 105.271 51.6846 105.299 52.7332C105.372 55.3481 106.071 56.8073 103.525 58.494C101.508 59.8268 99.7097 61.4243 98.9101 63.7372C98.0604 66.19 97.6754 68.8807 96.1647 71.0628C95.7782 71.622 95.3371 72.1367 94.8946 72.6513C94.0832 73.5988 93.2718 74.5463 92.4604 75.4923C91.9603 75.113 91.7169 74.4913 91.4986 73.9023C88.9302 66.9352 81.8418 50.0797 89.24 44.127C85.7821 46.907 80.0257 45.9848 77.596 42.2603C75.1649 38.5358 76.6017 32.8389 80.5022 30.7387C76.5236 28.7247 75.3773 22.6308 78.3484 19.2855C81.3195 15.9418 87.4535 16.4222 89.8758 20.1914C92.844 16.3375 98.652 14.792 102.856 17.2076C108.428 20.4085 107.543 26.4862 104.456 30.758C107.689 30.3237 110.811 29.8864 114.101 30.1898Z" fill="#000105"></path><path d="M181.815 198.754C166.629 205.679 154.406 217.708 140.581 227.089C127.669 235.853 113.373 242.291 99.1577 248.684C99.8998 250.326 100.202 251.946 100.944 253.591" stroke="#000105" stroke-width="0.5"></path><path d="M116.939 68.0469C117.846 71.0336 121.465 72.8483 124.374 71.7744" stroke="#121514" stroke-width="0.5"></path><path fill-rule="evenodd" clip-rule="evenodd" d="M101.616 67.1845C96.017 68.596 92.5325 62.6478 94.2335 58.7701C96.6012 53.3722 104.11 54.2677 105.484 59.9422" fill="#FFFFFE"></path><path d="M101.616 67.1845C96.017 68.596 92.5325 62.6478 94.2335 58.7701C96.6012 53.3722 104.11 54.2677 105.484 59.9422" stroke="#000105" stroke-width="0.5"></path><path d="M98.7493 58.3106C99.8026 58.019 101.018 58.1945 101.9 58.7672C102.781 59.3384 103.303 60.2903 103.255 61.2333" stroke="#121514" stroke-width="0.5"></path><path fill-rule="evenodd" clip-rule="evenodd" d="M75.1661 127.334C73.6466 133.441 73.3176 147.573 73.2601 158.318C69.2917 157.967 65.344 157.404 61.4332 156.624C52.9255 154.93 44.6657 152.288 36.6464 149.009C39.0171 133.691 43.4133 119.019 54.2547 107.977" fill="#E57A74"></path><path fill-rule="evenodd" clip-rule="evenodd" d="M73.3812 224.01H159.475C160.737 224.01 161.758 222.978 161.758 221.707C161.758 220.437 160.737 219.406 159.475 219.406H73.3812C72.1213 219.406 71.099 220.437 71.099 221.707C71.099 222.978 72.1213 224.01 73.3812 224.01Z" fill="#000105"></path><path fill-rule="evenodd" clip-rule="evenodd" d="M86.152 220.891H161.502L177.151 181.923C177.662 180.654 176.735 179.27 175.378 179.27H104.159C103.38 179.27 102.677 179.746 102.385 180.474L86.152 220.891Z" fill="#000105"></path><path fill-rule="evenodd" clip-rule="evenodd" d="M139.585 200.1C138.784 202.212 136.081 203.923 133.548 203.923C131.017 203.923 129.612 202.212 130.415 200.1C131.216 197.989 133.917 196.277 136.45 196.277C138.981 196.277 140.386 197.989 139.585 200.1Z" stroke="#FFFFFE" stroke-width="0.5"></path><path fill-rule="evenodd" clip-rule="evenodd" d="M114.027 81.4102C113.888 82.8604 114.009 84.3241 114.14 85.7758C114.046 85.7505 113.951 85.7297 113.857 85.6999C110.896 84.7748 108.444 82.3399 107.204 79.4766C109.29 80.6397 111.646 81.2912 114.027 81.4102Z" fill="#000105"></path><path d="M95.039 280.521C94.1656 278.383 92.3673 276.649 90.2091 275.863C89.6529 275.661 88.9492 275.553 88.5421 275.985C87.9623 276.601 88.5332 277.578 89.0289 278.263C89.9317 279.509 90.5941 280.931 90.9673 282.429C91.1104 283.005 91.1886 283.683 90.8006 284.131C90.3964 284.598 89.6396 284.581 89.0997 284.282C88.5598 283.985 88.1733 283.475 87.7631 283.012C86.7556 281.879 85.5149 280.956 84.1444 280.321C83.8951 280.207 83.6148 280.1 83.3552 280.186C82.6043 280.44 83.0808 281.568 83.5587 282.206C84.5309 283.503 85.0059 285.169 84.8643 286.789M140.677 273.445C140.916 272.063 141.224 270.556 142.31 269.679C143.397 268.803 145.471 269.227 145.573 270.626C145.613 271.191 145.328 271.722 145.216 272.277C145.054 273.075 145.293 273.982 145.928 274.482C146.566 274.983 147.598 274.955 148.112 274.327C148.818 273.464 148.335 272.018 149.054 271.168C149.861 270.211 151.561 270.879 152.071 272.026C152.582 273.173 152.325 274.495 152.188 275.744C152.051 276.994 152.111 278.428 153.038 279.267" stroke="#E57A74"></path><path fill-rule="evenodd" clip-rule="evenodd" d="M96.8167 64.5388C96.8167 65.5071 97.5956 66.2925 98.5575 66.2925C99.5164 66.2925 100.295 65.5071 100.295 64.5388C100.295 63.5705 99.5164 62.7852 98.5575 62.7852C97.5956 62.7852 96.8167 63.5705 96.8167 64.5388Z" fill="#000105"></path><path fill-rule="evenodd" clip-rule="evenodd" d="M36.6376 152.775C36.76 152.051 36.8456 151.319 36.8854 150.586C36.968 150.068 37.0669 149.557 37.1967 149.051C37.7322 149.484 38.3105 149.863 38.9345 150.151C39.6131 150.465 40.3301 150.684 41.0456 150.901C43.1758 151.553 45.3045 152.203 47.4348 152.854C48.2668 153.108 49.0634 153.385 49.8173 153.828C49.1195 153.629 48.3642 153.596 47.6354 153.717C46.6264 153.883 45.6557 154.254 44.6392 154.356C43.76 154.444 42.8704 154.33 41.9868 154.394C40.1413 154.527 38.1807 155.399 36.521 154.684C36.5535 154.049 36.5904 153.412 36.6376 152.775Z" fill="#000105"></path><path fill-rule="evenodd" clip-rule="evenodd" d="M42.1537 192.715C43.0875 195.901 44.8002 198.853 47.0986 201.235Z" fill="#FFFFFE"></path><path d="M42.1537 192.715C43.0875 195.901 44.8002 198.853 47.0986 201.235" stroke="#000105" stroke-width="0.5"></path><path fill-rule="evenodd" clip-rule="evenodd" d="M48.8437 202.941C49.6684 203.587 50.4915 204.232 51.3162 204.88Z" fill="#FFFFFE"></path><path d="M48.8437 202.941C49.6684 203.587 50.4915 204.232 51.3162 204.88" stroke="#000105" stroke-width="0.5"></path><path fill-rule="evenodd" clip-rule="evenodd" d="M47.8907 199.332C48.3554 199.787 48.8201 200.241 49.2833 200.696Z" fill="#FFFFFE"></path><path d="M47.8907 199.327C48.3554 199.783 48.8201 200.236 49.2833 200.691M40.6148 147.689C42.8115 148.52 45.0081 149.35 47.2047 150.18M46.4125 124.495C45.2353 127.189 44.2808 129.982 43.5638 132.835M43.1065 134.495C42.9147 135.355 42.7229 136.213 42.5312 137.074M41.9927 139.383C41.8703 139.969 41.7478 140.552 41.6254 141.136M94.7144 77.8242C94.6982 80.4436 94.5433 83.0629 94.2526 85.6674M93.993 87.7007C93.8381 88.727 93.6183 89.7444 93.335 90.7425M138.762 155.02C138.498 150.907 138.235 146.796 137.971 142.685M137.521 139.984C137.235 138.429 137.118 136.841 137.171 135.261M72.1714 158.492C72.6066 158.379 73.0418 158.264 73.477 158.15C74.849 156.069 75.113 153.467 75.4037 150.985C76.1767 144.407 77.4159 137.886 79.0932 131.483" stroke="#000105" stroke-width="0.5"></path><path fill-rule="evenodd" clip-rule="evenodd" d="M189.619 227.332C190.795 227.193 192.034 227.242 193.089 227.169C200.553 226.66 208.055 227.475 215.506 226.782C223.052 226.079 230.335 223.688 237.807 222.417C244.621 221.255 251.686 221.042 258.393 222.726C265.1 224.407 271.444 228.106 275.55 233.712C280.167 240.022 281.04 248.597 277.661 255.637C274.163 262.924 266.241 265.705 258.694 266.783C251.055 267.872 243.369 267.636 235.676 267.636C229.089 267.636 222.5 268.493 215.912 267.991C206.403 267.27 197.597 269.675 190.222 260.907C184.994 254.692 182.16 245.454 183.515 236.726C183.911 234.166 184.68 230.063 186.841 228.334C187.608 227.721 188.589 227.454 189.619 227.332Z" fill="#F4B93C"></path><path fill-rule="evenodd" clip-rule="evenodd" d="M220.305 229.472L219.955 210.629L210.863 216.363C207.658 214.652 203.85 213.656 199.762 213.656C195.664 213.656 191.849 214.657 188.641 216.375L174.239 215.777L179.716 221.566L179.148 230.836C179.148 240.324 188.799 245.469 200.183 245.469C211.567 245.469 220.376 240.324 220.376 230.836C220.376 230.376 220.348 229.921 220.305 229.472Z" fill="#F4B93C"></path><path fill-rule="evenodd" clip-rule="evenodd" d="M201.506 232.788C201.506 233.731 200.512 234.497 199.286 234.497C198.06 234.497 197.066 233.731 197.066 232.788C197.066 231.845 198.06 231.082 199.286 231.082C200.512 231.082 201.506 231.845 201.506 232.788Z" fill="#000105"></path><path d="M199.351 232.525C199.308 233.492 199.401 234.46 199.352 235.428C199.305 236.394 199.1 237.387 198.532 238.167C197.821 239.144 196.773 239.458 195.707 238.839M199.25 232.525C199.295 233.492 199.202 234.46 199.249 235.428C199.298 236.394 199.501 237.387 200.071 238.167C200.799 239.169 202.471 239.776 203.558 238.937M193.763 230.606C190.811 231.812 187.323 231.396 185.956 229.766" stroke="#000105" stroke-width="0.5"></path><mask id="mask0_6026_35815" style="mask-type:alpha" maskUnits="userSpaceOnUse" x="179" y="210" width="42" height="36"><path d="M220.305 229.477L219.956 210.634L210.864 216.368C207.658 214.657 203.851 213.661 199.763 213.661C195.665 213.661 191.85 214.662 188.641 216.38L180.411 210.238L179.148 230.841C179.148 240.329 188.799 245.474 200.183 245.474C211.568 245.474 220.376 240.329 220.376 230.841C220.376 230.381 220.348 229.926 220.305 229.477Z" fill="white"></path></mask><g mask="url(#mask0_6026_35815)"><path fill-rule="evenodd" clip-rule="evenodd" d="M201.867 211.653C201.715 211.555 201.561 211.472 201.412 211.408C200.222 210.896 195.365 212.362 196.541 214.266C196.715 214.55 197.062 214.739 197.118 215.07C197.146 215.238 197.09 215.409 197.035 215.571C196.833 216.19 196.668 216.883 196.931 217.476C197.236 218.168 198.08 218.516 198.817 218.376C199.555 218.235 200.169 217.687 200.543 217.032C200.844 216.508 201.026 215.892 201.473 215.488C201.852 215.144 202.379 214.997 202.747 214.643C203.79 213.646 202.874 212.309 201.867 211.653Z" fill="#000105"></path><path fill-rule="evenodd" clip-rule="evenodd" d="M220.737 209.452C220.423 209.272 220.097 209.153 219.818 209.125C218.769 209.027 217.738 209.546 216.976 210.279C216.214 211.013 215.677 211.947 215.152 212.869C214.816 213.455 214.476 214.053 214.32 214.713C214.031 215.945 214.451 217.296 215.309 218.219C216.164 219.143 217.418 219.65 218.672 219.693C219.154 219.71 219.672 219.647 220.037 219.329C220.323 219.078 220.469 218.704 220.59 218.341C220.95 217.252 221.168 216.113 221.236 214.968C221.273 214.34 221.264 213.701 221.363 213.079C221.457 212.475 222.005 211.8 222.058 211.285C222.13 210.604 221.46 209.866 220.737 209.452Z" fill="#000105"></path></g><path d="M206.508 230.394C209.395 231.749 212.899 231.514 214.348 229.957" stroke="#000105" stroke-width="0.5"></path><path fill-rule="evenodd" clip-rule="evenodd" d="M269.19 235.711C269.538 241.695 265.624 247.07 261.045 249.36C256.855 251.454 251.922 251.491 247.356 251.933C241.603 252.492 235.853 253.056 230.101 253.618C225.575 254.06 220.82 254.583 217.101 257.222C213.383 259.861 211.252 265.373 213.792 269.175C215.407 271.592 218.458 272.69 221.348 272.717C226.857 272.767 232.349 270.839 237.648 269.651C243.339 268.375 248.848 267.579 254.654 266.965" fill="#F4B93C"></path><path d="M209.642 267.896C210.486 265.485 211.325 262.795 210.325 260.444C209.496 258.496 207.566 257.251 205.607 256.482C203.647 255.711 201.553 255.292 199.667 254.355C197.78 253.418 196.048 251.796 195.738 249.699" stroke="#000105" stroke-width="0.5"></path><path fill-rule="evenodd" clip-rule="evenodd" d="M210.502 246.188C211.262 249.012 210.865 251.883 209.984 254.596C209.149 257.166 208.456 259.531 206.445 261.471C204.862 262.998 202.797 263.995 201.398 265.694C200.678 266.567 200.147 267.669 200.236 268.801C200.351 270.247 201.487 271.466 202.826 271.994C204.166 272.521 205.669 272.451 207.076 272.159C211.356 271.268 215.152 268.273 217.037 264.298" fill="#F4B93C"></path><mask id="mask1_6026_35815" style="mask-type:alpha" maskUnits="userSpaceOnUse" x="212" y="235" width="58" height="38"><path d="M269.189 235.711C269.538 241.695 265.624 247.07 261.045 249.36C256.855 251.454 251.922 251.491 247.356 251.933C241.603 252.492 235.852 253.056 230.1 253.618C225.574 254.06 220.82 254.583 217.101 257.222C213.383 259.861 211.251 265.373 213.792 269.175C215.407 271.592 218.458 272.69 221.348 272.717C226.856 272.767 232.349 270.839 237.648 269.651C243.339 268.375 248.848 267.579 254.654 266.965" fill="white"></path></mask><g mask="url(#mask1_6026_35815)"><path fill-rule="evenodd" clip-rule="evenodd" d="M215.193 261.47C214.475 260.756 213.626 260.252 212.617 260.182C209.63 259.977 208.071 262.907 207.972 265.482C207.869 268.178 208.773 271.031 210.536 273.081C212.8 275.714 215.363 275.168 218.356 274.619C220.228 274.275 222.051 273.401 223.078 271.716C223.667 270.749 223.831 269.425 223.17 268.506C222.121 267.044 219.777 267.371 218.403 266.212C217.816 265.718 217.469 265.001 217.123 264.313C216.617 263.309 215.985 262.26 215.193 261.47Z" fill="#000105"></path><path fill-rule="evenodd" clip-rule="evenodd" d="M248.989 262.254C248.961 262.187 248.933 262.121 248.904 262.057C248.207 260.507 246.753 259.2 245.068 259.146C244.301 259.121 243.535 259.356 242.883 259.762C242.017 260.304 241.346 261.153 241.014 262.123C240.499 263.631 240.8 265.331 240.254 266.827C239.468 268.992 237.106 270.246 236.252 272.383C235.48 274.318 238.033 274.464 239.318 274.834C241.176 275.368 243.218 275.614 245.058 274.868C249.836 272.932 250.838 266.613 248.989 262.254Z" fill="#000105"></path></g><mask id="mask2_6026_35815" style="mask-type:alpha" maskUnits="userSpaceOnUse" x="183" y="221" width="97" height="48"><path d="M189.619 227.333C190.794 227.193 192.034 227.242 193.088 227.169C200.553 226.66 208.055 227.475 215.506 226.782C223.052 226.079 230.335 223.688 237.807 222.417C244.621 221.255 251.686 221.042 258.392 222.726C265.1 224.407 271.444 228.106 275.549 233.712C280.167 240.022 281.04 248.597 277.66 255.637C274.162 262.924 266.241 265.705 258.693 266.783C251.055 267.872 243.369 267.636 235.675 267.636C229.088 267.636 222.5 268.493 215.912 267.991C206.402 267.27 197.597 269.675 190.222 260.907C184.994 254.692 182.16 245.454 183.514 236.726C183.911 234.166 184.68 230.063 186.841 228.334C187.608 227.721 188.589 227.454 189.619 227.333Z" fill="white"></path></mask><g mask="url(#mask2_6026_35815)"><path fill-rule="evenodd" clip-rule="evenodd" d="M239.907 228.567C241.233 228.672 242.577 228.577 243.876 228.287C247.193 227.548 250.376 225.544 253.729 226.084C254.795 226.257 255.814 226.685 256.888 226.785C260.889 227.16 261.483 222.968 258.568 220.96C257.685 220.352 256.639 220.032 255.602 219.766C252.284 218.921 248.792 218.565 245.389 219.041C242.797 219.404 240.362 219.721 238.058 221.097C237.276 221.562 236.519 222.123 236.039 222.901C235.111 224.405 235.531 226.602 236.95 227.649C237.778 228.26 238.828 228.479 239.851 228.562C239.87 228.564 239.887 228.565 239.907 228.567Z" fill="#000105"></path></g><path d="M213.792 269.174C211.252 265.372 213.383 259.86 217.101 257.221C220.82 254.582 225.575 254.059 230.101 253.617C239.662 252.683 248.399 251.431 257.556 248.503C259.046 248.024 260.554 247.537 261.88 246.702C263.205 245.865 264.351 244.632 264.764 243.111M200.44 269.858C201.286 268.459 202.461 267.261 203.839 266.39M201.968 271.624C203.094 270.755 204.219 269.888 205.345 269.019M226.826 254.066C229.657 251.313 231.931 247.981 233.47 244.331M200.397 267.11C201.503 265.87 202.679 264.694 203.917 263.589C205.065 262.561 206.271 261.591 207.304 260.443C209.897 257.566 211.272 253.61 211.027 249.73M220.007 226.605C219.798 230.294 219.526 234.182 217.495 237.258C215.248 240.659 211.209 242.448 207.218 243.165M181.483 249.472C183.452 251.041 185.717 252.234 188.12 252.97" stroke="#000105" stroke-width="0.5"></path></g><defs><clipPath id="clip0_6026_35815"><rect width="285.783" height="300" fill="white" transform="translate(0.888885)"></rect></clipPath></defs></svg>