<svg xmlns="http://www.w3.org/2000/svg" width="135" height="44" viewBox="0 0 135 44" fill="none"><path d="M0 0H29.1427V14.5713H14.5713L0 0ZM0 14.5713H14.5713L29.1427 29.1427H0V14.5713ZM0 29.1427H14.5713V43.714L0 29.1427Z" fill="black"></path><path d="M45.5859 11.4954H57.3659V15.2387H50.0446V20.4407H57.3659V24.1014H50.0446V30.762H45.5859V11.4954ZM59.7879 17.4954H63.9993V20.2754C64.2193 19.32 64.6693 18.5867 65.3479 18.0734C66.0439 17.5407 66.8166 17.2754 67.6599 17.2754C68.1006 17.2754 68.4679 17.3127 68.7606 17.3854V21.294C68.3406 21.2434 67.9179 21.216 67.4946 21.2114C66.3386 21.2114 65.4679 21.5867 64.8799 22.3394C64.2939 23.0734 63.9993 24.174 63.9993 25.6427V30.762H59.7899V17.4954H59.7879ZM75.4086 31.12C74.1246 31.12 73.0046 30.8167 72.0506 30.2114C71.1146 29.606 70.3706 28.7467 69.9039 27.734C69.4086 26.6707 69.1593 25.4674 69.1593 24.1287C69.1593 22.8074 69.4179 21.614 69.9313 20.5507C70.4126 19.5234 71.1766 18.6547 72.1333 18.046C73.1046 17.4407 74.2153 17.1374 75.4639 17.1374C76.3993 17.1374 77.2353 17.34 77.9686 17.7434C78.7019 18.148 79.2526 18.6987 79.6199 19.3947V17.4954H83.8033V30.762H79.6199V28.89C79.2526 29.5507 78.6839 30.0914 77.9133 30.514C77.1426 30.9227 76.2813 31.1307 75.4086 31.12ZM76.6199 27.624C77.6286 27.624 78.4086 27.294 78.9593 26.6334C79.5099 25.9727 79.7853 25.1374 79.7853 24.1287C79.7853 23.138 79.5099 22.312 78.9593 21.6514C78.4086 20.9907 77.6286 20.6607 76.6199 20.6607C75.6646 20.6607 74.8953 20.9814 74.3079 21.624C73.7393 22.2667 73.4546 23.1007 73.4546 24.1287C73.4546 25.1567 73.7393 26 74.3079 26.6607C74.8953 27.3034 75.6659 27.624 76.6199 27.624ZM86.7486 17.4954H90.9599V19.422C91.2546 18.742 91.7306 18.1914 92.3906 17.7707C93.0706 17.35 93.8593 17.1374 94.7579 17.1374C96.8499 17.1374 98.2359 17.9534 98.9139 19.5874C99.2873 18.8467 99.8713 18.234 100.593 17.826C101.365 17.3614 102.252 17.1234 103.153 17.1374C106.291 17.1374 107.859 18.9347 107.859 22.532V30.762H103.621V23.3027C103.621 22.4047 103.455 21.744 103.125 21.3214C102.795 20.9 102.299 20.688 101.639 20.688C100.923 20.688 100.373 20.936 99.9873 21.4314C99.6019 21.9087 99.4093 22.7427 99.4093 23.936V30.762H95.1706V23.2754C95.1706 22.3767 95.0059 21.7247 94.6753 21.3214C94.3646 20.9 93.8773 20.688 93.2179 20.688C92.4833 20.688 91.9233 20.936 91.5379 21.4314C91.1526 21.9087 90.9599 22.7427 90.9599 23.936V30.762H86.7499V17.4954H86.7486ZM123.679 23.4407C123.679 24.0087 123.642 24.624 123.567 25.2847H113.771C113.808 26.1474 114.101 26.8067 114.651 27.2667C115.202 27.7247 115.947 27.9547 116.881 27.9547C118.184 27.9547 119.01 27.5594 119.358 26.7707H123.487C123.284 28.074 122.569 29.128 121.339 29.936C120.129 30.7247 118.642 31.12 116.881 31.12C114.606 31.12 112.817 30.5047 111.513 29.2754C110.229 28.0454 109.587 26.3307 109.587 24.1287C109.587 22.6974 109.88 21.4587 110.467 20.4127C111.035 19.368 111.909 18.5227 112.972 17.9907C114.055 17.4227 115.312 17.1374 116.745 17.1374C118.101 17.1374 119.303 17.4034 120.349 17.936C121.413 18.4687 122.23 19.2114 122.798 20.1654C123.386 21.1207 123.679 22.212 123.679 23.4407ZM119.521 22.67C119.503 21.7894 119.256 21.1187 118.778 20.6607C118.302 20.2027 117.613 19.9727 116.714 19.9727C115.815 19.9727 115.1 20.22 114.567 20.716C114.054 21.1934 113.788 21.844 113.769 22.67H119.521ZM125.536 17.4954H129.747V20.2754C129.967 19.32 130.417 18.5867 131.096 18.0734C131.755 17.5547 132.569 17.2734 133.408 17.2754C133.848 17.2754 134.216 17.3127 134.509 17.3854V21.294C134.089 21.2434 133.666 21.216 133.243 21.2114C132.087 21.2114 131.216 21.5867 130.628 22.3394C130.04 23.0734 129.747 24.174 129.747 25.6427V30.762H125.536V17.4954Z" fill="black"></path></svg>