<svg xmlns="http://www.w3.org/2000/svg" width="189" height="35" viewBox="0 0 189 35" fill="none"><path d="M60.5706 23.0788C57.8338 23.0788 56.2294 20.9398 56.2294 18.5175C56.2294 15.7178 58.054 13.8618 60.5706 13.8618C61.8918 13.8618 62.7727 14.3965 63.5906 14.8999L64.9117 12.5406C63.9681 11.9429 62.3952 11.2194 60.7279 11.2194C56.3867 11.2194 53.2725 14.3022 53.2725 18.5175C53.2725 22.7013 56.4496 25.8157 60.7279 25.8157C62.5525 25.8157 63.8737 25.0607 64.9117 24.4316L63.5906 22.0723C62.7727 22.6384 61.5458 23.0788 60.5706 23.0788ZM69.8506 4.77051H72.6504V25.4382H69.8506V4.77051ZM88.7881 11.6598L88.4735 12.8552C87.7186 12.0373 86.1142 11.2194 84.4155 11.2194C80.9552 11.2194 77.778 13.9561 77.778 18.4231C77.778 23.0474 80.9552 25.8472 84.4155 25.8472C86.1142 25.8472 87.6557 25.0293 88.4735 24.2113L88.7881 25.4697H91.1475V11.7542H88.7881V11.6598ZM88.5364 18.6119C88.5364 21.7577 86.6176 23.1732 84.793 23.1732C82.937 23.1732 80.7979 21.915 80.7979 18.4546C80.7979 16.2526 81.9618 13.8932 84.5728 13.8932C86.5547 13.8932 88.5364 15.4976 88.5364 18.4546V18.6119ZM101.151 19.7129C103.07 20.2162 103.888 20.5937 103.888 21.5689C103.888 22.3239 103.227 23.1103 101.686 23.1103C100.27 23.1103 99.1062 22.6071 98.0053 22.0094L96.7469 24.3686C97.7221 24.9663 99.8927 25.7843 101.686 25.7843C104.769 25.7843 106.561 23.708 106.561 21.6004C106.561 17.9827 103.007 17.4166 102.063 17.102C100.081 16.5672 99.5781 16.1582 99.5781 15.3403C99.5781 14.4595 100.333 13.8618 101.78 13.8618C103.038 13.8618 103.982 14.2393 104.864 14.6797L106.184 12.3204C104.926 11.7856 103.447 11.2194 101.78 11.2194C98.7602 11.2194 96.9357 13.3584 96.9357 15.3403C96.9357 18.5175 99.6096 19.3354 101.151 19.7129ZM116.156 19.7129C118.075 20.2162 118.893 20.5937 118.893 21.5689C118.893 22.3239 118.232 23.1103 116.691 23.1103C115.275 23.1103 114.111 22.6071 113.01 22.0094L111.752 24.3686C112.727 24.9663 114.898 25.7843 116.691 25.7843C119.774 25.7843 121.567 23.708 121.567 21.6004C121.567 17.9827 118.012 17.4166 117.069 17.102C115.086 16.5672 114.583 16.1582 114.583 15.3403C114.583 14.4595 115.339 13.8618 116.785 13.8618C118.044 13.8618 118.987 14.2393 119.869 14.6797L121.19 12.3204C119.931 11.7856 118.453 11.2194 116.785 11.2194C113.766 11.2194 111.941 13.3584 111.941 15.3403C111.909 18.5175 114.615 19.3354 116.156 19.7129ZM133.709 11.2194C132.011 11.2194 130.47 12.0373 129.652 12.8552L129.337 11.5969H126.978V31.1321H129.62V24.3372L129.715 24.2743C130.47 25.0922 132.011 25.7528 133.49 25.7528C137.044 25.7528 140.347 23.4563 140.347 18.3287C140.41 13.7359 137.233 11.2194 133.709 11.2194ZM133.395 23.1732C131.571 23.1732 129.652 21.7577 129.652 18.6119V18.4546C129.652 15.4347 131.633 13.8932 133.616 13.8932C136.257 13.8932 137.391 16.2526 137.391 18.4546C137.391 21.915 135.251 23.1732 133.395 23.1732ZM156.014 11.6598L155.699 12.9181C154.944 12.1002 153.34 11.2823 151.641 11.2823C148.18 11.2823 145.003 14.0191 145.003 18.486C145.003 23.1103 148.18 25.9101 151.641 25.9101C153.34 25.9101 154.88 25.0922 155.699 24.2743L156.014 25.5326H158.373V11.8171H156.014V11.6598ZM155.73 18.6119C155.73 21.7577 153.811 23.1732 151.986 23.1732C150.13 23.1732 147.992 21.915 147.992 18.4546C147.992 16.2526 149.155 13.8932 151.767 13.8932C153.748 13.8932 155.73 15.4976 155.73 18.4546V18.6119ZM168.376 19.7129C170.295 20.2162 171.112 20.5937 171.112 21.5689C171.112 22.3239 170.452 23.1103 168.91 23.1103C167.495 23.1103 166.331 22.6071 165.23 22.0094L163.972 24.3686C164.947 24.9663 167.118 25.7843 168.91 25.7843C171.994 25.7843 173.786 23.708 173.786 21.6004C173.786 17.9827 170.232 17.4166 169.289 17.102C167.306 16.5672 166.803 16.1582 166.803 15.3403C166.803 14.4595 167.558 13.8618 169.005 13.8618C170.264 13.8618 171.207 14.2393 172.089 14.6797L173.409 12.3204C172.151 11.7856 170.673 11.2194 169.005 11.2194C165.985 11.2194 164.16 13.3584 164.16 15.3403C164.129 18.5175 166.834 19.3354 168.376 19.7129ZM183.35 19.7129C185.269 20.2162 186.086 20.5937 186.086 21.5689C186.086 22.3239 185.426 23.1103 183.884 23.1103C182.469 23.1103 181.305 22.6071 180.204 22.0094L178.946 24.3686C179.921 24.9663 182.092 25.7843 183.884 25.7843C186.968 25.7843 188.76 23.708 188.76 21.6004C188.76 17.9827 185.206 17.4166 184.262 17.102C182.28 16.5672 181.777 16.1582 181.777 15.3403C181.777 14.4595 182.532 13.8618 183.979 13.8618C185.237 13.8618 186.181 14.2393 187.061 14.6797L188.383 12.3204C187.125 11.7856 185.646 11.2194 183.979 11.2194C180.959 11.2194 179.134 13.3584 179.134 15.3403C179.134 18.5175 181.84 19.3354 183.35 19.7129Z" fill="#333333"></path><path d="M29.2669 0.398438H24.2022C23.3214 0.398438 22.4406 1.05896 22.3462 1.93979L21.5912 5.5575C21.4969 6.21802 20.9306 6.65844 20.27 6.65844H14.6706C7.08928 6.75281 0.0742188 12.4781 0.0742188 20.5942C0.0742188 27.8295 6.11409 34.4356 14.7964 34.4356H20.5217C21.4025 34.4356 22.2833 33.775 22.3777 32.8942L23.1327 29.2766C23.2271 28.6159 23.7933 28.1755 24.4538 28.1755H29.3927C37.8549 28.1755 44.1149 21.6952 44.1149 14.3342C43.9891 6.21802 37.0684 0.398438 29.2669 0.398438ZM29.141 22.7963H23.1956C22.3148 22.7963 21.5598 23.4569 21.3396 24.3377L20.5846 27.8609C20.4902 28.5216 19.9239 28.962 19.2634 28.962H14.8593C10.3609 28.962 5.51639 25.7847 5.51639 20.4998C5.51639 15.6553 9.79463 12.0377 14.8593 12.0377H21.6542C22.535 12.0377 23.29 11.3771 23.5102 10.4964L24.2651 6.97302C24.3595 6.3124 24.9257 5.87198 25.5863 5.87198H29.1096C33.8282 5.87198 38.4525 9.1751 38.4525 14.3342C38.3896 19.0528 34.3315 22.7963 29.141 22.7963Z" fill="#333333"></path></svg>