<svg xmlns="http://www.w3.org/2000/svg" width="132" height="33" viewBox="0 0 132 33" fill="none"><path d="M27.7053 0H5.75829C2.7158 0 0.25 2.4658 0.25 5.50829V27.4553C0.25 30.4977 2.7158 32.9635 5.75829 32.9635H27.7053C30.7477 32.9635 33.2135 30.4977 33.2135 27.4553V5.50829C33.2135 2.4658 30.7477 0 27.7053 0ZM27.2214 25.2314C27.2214 26.1925 26.4425 26.9714 25.4814 26.9714H7.98215C7.02102 26.9714 6.24217 26.1925 6.24217 25.2314V7.73215C6.24217 6.77102 7.02102 5.99217 7.98215 5.99217H25.4814C26.4425 5.99217 27.2214 6.77102 27.2214 7.73215V25.2314ZM13.2352 20.956C12.6818 20.956 12.2376 20.5086 12.2376 19.9551V12.9687C12.2376 12.4152 12.6818 11.9644 13.2352 11.9644H20.2316C20.7818 11.9644 21.2292 12.4119 21.2292 12.9687V19.9518C21.2292 20.5053 20.7818 20.9527 20.2316 20.9527H13.2352V20.956ZM41.9532 20.4788H45.5525C45.7315 22.517 47.1135 24.1079 49.9008 24.1079C52.3898 24.1079 53.921 22.8783 53.921 21.019C53.921 19.279 52.7212 18.5001 50.5603 17.9898L47.7697 17.3899C44.7405 16.7303 42.4603 14.7816 42.4603 11.5999C42.4603 8.09009 45.579 5.69057 49.629 5.69057C53.9177 5.69057 56.6784 7.94095 56.9171 11.2685H53.4371C53.0228 9.71076 51.7303 8.78277 49.6323 8.78277C47.4118 8.78277 45.8839 9.98252 45.8839 11.5137C45.8839 13.0449 47.203 13.9729 49.4832 14.4833L52.244 15.0832C55.2732 15.7427 57.3413 17.5722 57.3413 20.7804C57.3413 24.8602 54.2822 27.2895 49.9041 27.2895C44.9824 27.2862 42.2548 24.6183 41.9532 20.4788ZM70.2172 32.9635V26.9946L70.4525 24.3763H70.2172C69.3919 26.2588 67.6586 27.2895 65.3054 27.2895C61.5106 27.2895 58.6869 24.2007 58.6869 19.4646C58.6869 14.7285 61.5106 11.6397 65.3054 11.6397C67.6287 11.6397 69.2759 12.7267 70.2172 14.4336H70.4525V11.9313H73.5712V32.9635H70.2172ZM70.3332 19.4613C70.3332 16.4321 68.4805 14.6656 66.2135 14.6656C63.9466 14.6656 62.0939 16.4321 62.0939 19.4613C62.0939 22.4905 63.9466 24.257 66.2135 24.257C68.4805 24.257 70.3332 22.4938 70.3332 19.4613ZM76.0602 21.0223V11.9313H79.4142V20.7273C79.4142 23.1103 80.5609 24.257 82.4733 24.257C84.8264 24.257 86.3576 22.58 86.3576 19.9617V11.9313H89.7116V26.9913H86.5929V23.8726H86.3576C85.6218 25.8744 84.0044 27.2862 81.5055 27.2862C77.9128 27.2862 76.0602 24.9928 76.0602 21.0223ZM91.7532 22.7855C91.7532 19.9617 93.7252 18.3146 97.225 18.1091L101.371 17.8439V16.6674C101.371 15.2555 100.34 14.4037 98.5176 14.4037C96.8405 14.4037 95.8396 15.2555 95.5745 16.4619H92.2205C92.5751 13.4028 95.1039 11.6363 98.5142 11.6363C102.369 11.6363 104.722 13.2835 104.722 16.4619V26.9913H101.603V24.1973H101.368C100.662 26.05 99.1904 27.2862 96.3666 27.2862C93.6655 27.2862 91.7532 25.4634 91.7532 22.7855ZM101.374 20.9328V20.1374L97.9906 20.3727C96.1678 20.4887 95.3425 21.1681 95.3425 22.5203C95.3425 23.6671 96.2838 24.4923 97.6061 24.4923C99.9924 24.4923 101.374 22.9644 101.374 20.9328ZM107.224 26.9946V11.9313H110.343V14.8147H110.578C111.019 12.8427 112.52 11.9313 114.754 11.9313H116.285V14.9605H114.373C112.195 14.9605 110.578 16.3724 110.578 19.0503V26.9913H107.224V26.9946ZM131.63 20.081H120.186C120.362 22.8451 122.304 24.4061 124.452 24.4061C126.274 24.4061 127.421 23.6704 128.071 22.4342H131.395C130.484 25.4932 127.806 27.2862 124.422 27.2862C119.981 27.2862 116.862 23.962 116.862 19.4613C116.862 14.9605 120.067 11.6363 124.452 11.6363C128.863 11.6363 131.746 14.6656 131.746 18.4305C131.75 19.1696 131.69 19.5508 131.63 20.081ZM128.425 17.7578C128.309 15.6698 126.573 14.2579 124.455 14.2579C122.453 14.2579 120.779 15.524 120.365 17.7578H128.425Z" fill="#111111"></path></svg>