<svg xmlns="http://www.w3.org/2000/svg" width="55" height="55" viewBox="0 0 55 55" fill="none"><g opacity="0.9" clip-path="url(#clip0_5970_35334)"><path d="M10.2075 37.6151C15.8454 47.1136 28.1158 50.2433 37.6144 44.6054C47.1129 38.9676 50.2426 26.6971 44.6047 17.1986C38.9669 7.70008 26.6964 4.57038 17.1979 10.2082C7.69936 15.8461 4.56967 28.1166 10.2075 37.6151Z" fill="#3C5A9A"></path><path d="M42.6446 25.9239L40.3832 22.114C39.0412 19.853 36.5977 17.9027 33.3204 19.8479C32.185 20.5367 31.0848 21.1748 29.8539 21.9054L28.3015 19.2898L24.1393 21.7603L25.7398 24.4568L13.7576 31.5688L16.6987 36.5239L28.7599 29.3649L30.7011 32.6354L34.9715 30.5008L32.804 26.849C32.804 26.849 34.6304 25.776 35.1546 25.4539C36.4497 24.6852 37.1754 26.0768 37.2235 26.1579C37.6041 26.7992 38.3424 28.0471 38.5342 28.3661L42.6457 25.9258L42.6446 25.9239Z" fill="white"></path></g><defs><clipPath id="clip0_5970_35334"><rect width="40" height="40" fill="white" transform="translate(34.3965) rotate(59.3087)"></rect></clipPath></defs></svg>