<svg xmlns="http://www.w3.org/2000/svg" width="57" height="57" viewBox="0 0 57 57" fill="none"><g opacity="0.8" clip-path="url(#clip0_5970_35378)"><path d="M41.2483 15.3205C34.0887 8.16092 22.4807 8.16094 15.321 15.3206C8.16143 22.4802 8.16141 34.0882 15.321 41.2478C22.4806 48.4074 34.0887 48.4074 41.2483 41.2478C48.4079 34.0882 48.4079 22.4801 41.2483 15.3205Z" fill="url(#paint0_linear_5970_35378)"></path><path d="M21.2517 18.9911C20.0424 20.3995 19.9356 22.1854 20.9718 24.2985C22.4609 27.3526 22.4919 30.0255 21.0574 33.224C20.2057 35.1138 20.0734 35.9442 20.4668 37.1911C20.7824 38.1939 21.6785 39.2332 22.7092 39.8172C23.397 40.2063 25.0615 40.3204 25.9836 40.0284C26.856 39.7583 27.9711 38.7197 29.3152 36.8912C30.1025 35.8198 30.3204 35.5873 31.3451 34.8989C32.7844 33.9343 34.4945 33.3715 36.3059 33.2392C37.982 33.1184 38.5253 32.9453 39.3321 32.362C40.1097 31.7932 40.5632 31.2074 40.959 30.2373C41.3098 29.3741 41.2953 28.0179 40.9353 27.1116C40.8048 26.7771 40.3762 26.1725 39.958 25.7506C39.0546 24.8425 38.158 24.5007 36.6022 24.3871C35.0845 24.2779 33.7733 23.9671 32.6922 23.4651C31.4113 22.8677 29.4505 21.0538 28.5327 19.6091C27.5031 17.9919 26.3394 17.3211 24.6445 17.366C23.4492 17.3994 22.7189 17.6598 21.8272 18.4193C21.6092 18.6044 21.4265 18.792 21.2535 18.9929M25.9721 26.2393C26.6265 25.5521 27.5729 25.1083 28.6541 25.0895C31.336 25.0495 33.1384 27.4965 32.2988 30.0382C32.0329 30.8395 31.2219 31.7695 30.423 32.1799C29.669 32.5684 28.4076 32.6776 27.511 32.4075C27.1292 32.2964 26.6714 31.948 26.1287 31.4089C25.4483 30.7332 25.3056 30.4862 25.1113 29.742C24.7629 28.4065 25.1277 27.1213 25.9721 26.2393Z" fill="white" fill-opacity="0.846774"></path></g><defs><linearGradient id="paint0_linear_5970_35378" x1="41.2483" y1="41.2479" x2="15.3211" y2="15.3206" gradientUnits="userSpaceOnUse"><stop stop-color="#E02D2D"></stop><stop offset="1" stop-color="#F75151"></stop></linearGradient><clipPath id="clip0_5970_35378"><rect width="40" height="40" fill="white" transform="translate(0 28.2842) rotate(-45)"></rect></clipPath></defs></svg>