<svg xmlns="http://www.w3.org/2000/svg" width="57" height="57" viewBox="0 0 57 57" fill="none"><g clip-path="url(#clip0_5970_35385)"><path d="M24.0416 4.24255L4.24264 24.0415C1.8995 26.3847 1.8995 30.1837 4.24264 32.5268L24.0416 52.3258C26.3848 54.669 30.1838 54.669 32.5269 52.3258L52.3259 32.5268C54.669 30.1837 54.669 26.3847 52.3259 24.0415L32.5269 4.24255C30.1838 1.8994 26.3848 1.8994 24.0416 4.24255Z" fill="white"></path><path d="M23.4006 28.8809L30.6043 26.1298L31.3114 16.7938C30.3228 15.2904 28.8379 14.1852 27.1087 13.6657C25.3796 13.1462 23.5126 13.2444 21.8246 13.9436C20.1366 14.6429 18.7315 15.9002 17.8477 17.5021C16.964 19.104 16.6559 20.952 16.9759 22.7324L20.3899 27.8147L23.4006 28.8809Z" fill="#FFD00A"></path><path d="M23.4177 39.2056C23.706 39.6412 24.0373 40.0465 24.4066 40.4154C25.5867 41.5939 27.1208 42.3558 28.7841 42.5895C30.4474 42.8231 32.1524 42.5162 33.6492 41.7138C35.1459 40.9114 36.3558 39.6556 37.1013 38.1305C37.8468 36.6055 38.0888 34.8913 37.7919 33.2393L34.3834 28.1736L31.207 27.2068L23.9757 29.9745L23.4177 39.2056Z" fill="#20B9AF"></path><path d="M14.9428 30.7863L19.1413 28.1678L16.0808 23.6158C15.2732 23.7374 14.5212 24.1162 13.9371 24.6957C13.353 25.2753 12.9682 26.0243 12.8402 26.8311C12.7122 27.6379 12.8478 28.459 13.2267 29.1719C13.6057 29.8847 14.2077 30.4511 14.9428 30.7863Z" fill="#EE5096"></path><path d="M15.4407 31.8806C14.9427 32.8565 14.7558 33.9568 14.9057 35.0305C15.0556 36.1043 15.5349 37.099 16.2779 37.8783C17.0209 38.6576 17.9912 39.1834 19.0558 39.3834C20.1204 39.5835 21.2273 39.4481 22.2245 38.9958L22.7659 29.9692L20.0479 29.008L15.4407 31.8806Z" fill="#12A5DF"></path><path d="M38.6702 32.3606C39.4765 32.2405 40.2273 31.8636 40.8104 31.286C41.3935 30.7085 41.7777 29.9614 41.9057 29.1561C42.0337 28.3508 41.8986 27.5306 41.5206 26.8178C41.1426 26.1051 40.5419 25.538 39.8082 25.2011L35.6153 27.8252L38.6702 32.3606Z" fill="#90C640"></path><path d="M34.6918 27.0029L39.3046 24.1137C39.8064 23.1177 39.9878 21.9957 39.8234 20.9044C39.659 19.8131 39.1571 18.8068 38.3876 18.026C37.6396 17.2796 36.6779 16.7826 35.6301 16.6011C34.5823 16.4196 33.4979 16.562 32.5208 17.0095L31.8358 26.1356L34.6918 27.0029Z" fill="#05799F"></path></g><defs><clipPath id="clip0_5970_35385"><rect y="28.2842" width="40" height="40" rx="20" transform="rotate(-45 0 28.2842)" fill="white"></rect></clipPath></defs></svg>