<svg xmlns="http://www.w3.org/2000/svg" width="57" height="57" viewBox="0 0 57 57" fill="none"><g opacity="0.5" clip-path="url(#clip0_5970_35382)"><path fill-rule="evenodd" clip-rule="evenodd" d="M14.4887 14.4918C6.68023 22.3002 6.67938 34.9645 14.4904 42.7756C20.7379 49.0231 30.0909 50.2723 37.5816 46.5235C38.4186 45.9454 38.2397 45.2508 37.8646 44.8757C37.5286 44.5397 36.6273 43.663 35.44 42.4905C32.3606 47.2786 28.7802 45.3582 28.7802 45.3582C26.503 44.3676 25.1408 44.8598 25.1408 44.8598C22.9799 45.267 24.3784 43.9031 24.3784 43.9031C25.8978 42.5835 28.0022 43.1946 28.0022 43.1946C31.4246 44.0941 32.8494 41.421 33.293 40.2533C32.5082 39.2115 32.2503 38.2226 32.3007 37.4655C28.8028 40.248 24.2882 42.3369 18.869 36.9177C17.3245 35.3732 16.6143 33.5604 16.5301 31.6669C16.0264 31.4551 14.1034 30.5026 12.9263 27.7851C12.9263 27.7851 13.7329 26.218 18.264 25.3455C19.0783 23.9043 20.1323 22.5378 21.3287 21.3293C22.5351 20.1326 23.902 19.0807 25.3449 18.2646C26.2157 13.7352 27.781 12.9304 27.781 12.9304C30.5001 14.1059 31.4526 16.029 31.6653 16.5317C33.5605 16.6142 35.369 17.3287 36.9135 18.8732C42.3466 24.3063 40.2351 28.8087 37.4352 32.3083C38.3789 32.238 39.6942 32.6487 41.0139 33.9684C42.9039 35.8584 44.4121 37.401 44.8757 37.8646C45.2542 38.2431 45.9497 38.4281 46.5287 37.5729C50.2698 30.0831 49.0213 20.7379 42.7747 14.4913C34.9636 6.68026 22.2997 6.68072 14.4887 14.4918Z" fill="#1B1817"></path></g><defs><clipPath id="clip0_5970_35382"><rect width="40" height="40" fill="white" transform="translate(0 28.2842) rotate(-45)"></rect></clipPath></defs></svg>