<svg xmlns="http://www.w3.org/2000/svg" width="40" height="40" viewBox="0 0 40 40" fill="none"><g clip-path="url(#clip0_5970_35347)"><path d="M20.0211 40.0002C31.0547 40.0002 39.9992 31.0557 39.9992 20.0221C39.9992 8.98846 31.0547 0.0439453 20.0211 0.0439453C8.98748 0.0439453 0.0429688 8.98846 0.0429688 20.0221C0.0429688 31.0557 8.98748 40.0002 20.0211 40.0002Z" fill="#F5BB60"></path><path d="M17.9836 35.9672C27.9157 35.9672 35.9672 27.9157 35.9672 17.9836C35.9672 8.05153 27.9157 0 17.9836 0C8.05153 0 0 8.05153 0 17.9836C0 27.9157 8.05153 35.9672 17.9836 35.9672Z" fill="#E86F32"></path><path d="M20.373 31.2109C28.9917 31.2109 35.9785 24.2241 35.9785 15.6055C35.9785 6.98681 28.9917 0 20.373 0C11.7544 0 4.76758 6.98681 4.76758 15.6055C4.76758 24.2241 11.7544 31.2109 20.373 31.2109Z" fill="#E53D42"></path><path d="M21.6227 31.2004C29.5454 31.2004 35.968 24.7778 35.968 16.8551C35.968 8.93238 29.5454 2.50977 21.6227 2.50977C13.7 2.50977 7.27734 8.93238 7.27734 16.8551C7.27734 24.7778 13.7 31.2004 21.6227 31.2004Z" fill="#BFD141"></path><path d="M20.5812 31.1996C27.9288 31.1996 33.8852 25.2432 33.8852 17.8957C33.8852 10.5482 27.9288 4.5918 20.5812 4.5918C13.2337 4.5918 7.27734 10.5482 7.27734 17.8957C7.27734 25.2432 13.2337 31.1996 20.5812 31.1996Z" fill="#6DB64C"></path><path d="M18.4652 26.992C24.6387 26.992 29.6434 21.9874 29.6434 15.8139C29.6434 9.64036 24.6387 4.63574 18.4652 4.63574C12.2917 4.63574 7.28711 9.64036 7.28711 15.8139C7.28711 21.9874 12.2917 26.992 18.4652 26.992Z" fill="#AFDBE7"></path><path d="M20.2844 23.309C25.453 23.309 29.643 19.119 29.643 13.9504C29.643 8.78178 25.453 4.5918 20.2844 4.5918C15.1158 4.5918 10.9258 8.78178 10.9258 13.9504C10.9258 19.119 15.1158 23.309 20.2844 23.309Z" fill="#57BADF"></path><path d="M21.4473 23.3535C25.9928 23.3535 29.6777 19.6686 29.6777 15.123C29.6777 10.5775 25.9928 6.89258 21.4473 6.89258C16.9017 6.89258 13.2168 10.5775 13.2168 15.123C13.2168 19.6686 16.9017 23.3535 21.4473 23.3535Z" fill="#02B2D6"></path><path d="M20.2418 23.3215C24.1216 23.3215 27.2668 20.1763 27.2668 16.2965C27.2668 12.4167 24.1216 9.27148 20.2418 9.27148C16.362 9.27148 13.2168 12.4167 13.2168 16.2965C13.2168 20.1763 16.362 23.3215 20.2418 23.3215Z" fill="url(#paint0_radial_5970_35347)"></path><path d="M20.2418 23.3215C24.1216 23.3215 27.2668 20.1763 27.2668 16.2965C27.2668 12.4167 24.1216 9.27148 20.2418 9.27148C16.362 9.27148 13.2168 12.4167 13.2168 16.2965C13.2168 20.1763 16.362 23.3215 20.2418 23.3215Z" fill="#231F20"></path><path d="M24.2268 13.9762C24.7151 12.8881 24.5466 11.7528 23.8506 11.4405C23.1546 11.1282 22.1946 11.7571 21.7063 12.8452C21.2181 13.9333 21.3865 15.0686 22.0825 15.3809C22.7785 15.6932 23.7386 15.0643 24.2268 13.9762Z" fill="white"></path></g><defs><radialGradient id="paint0_radial_5970_35347" cx="0" cy="0" r="1" gradientUnits="userSpaceOnUse" gradientTransform="translate(20.2584 16.2965) scale(7.03776)"><stop stop-color="#797979"></stop><stop offset="1" stop-color="#4C4C4C"></stop></radialGradient><clipPath id="clip0_5970_35347"><rect width="40" height="40" fill="white"></rect></clipPath></defs></svg>