<svg xmlns="http://www.w3.org/2000/svg" width="500" height="503" viewBox="0 0 500 503" fill="none"><path d="M500 361.266H18.544" stroke="#111111" stroke-width="2"></path><path d="M107.06 333.062C107.054 333.022 107.054 332.981 107.06 332.942C107.064 332.891 107.064 332.841 107.06 332.79C107.06 332.79 107.06 332.733 107.06 332.695C107.045 332.802 107.024 332.907 106.997 333.011C107.012 333.035 107.034 333.053 107.06 333.062Z" fill="white"></path><path d="M107.081 333.082H107.063L107.081 333.1V333.082Z" fill="white"></path><path d="M107.041 333.04C106.883 332.901 106.75 332.807 106.592 332.668C106.725 332.788 106.883 332.921 107.022 333.06C107.022 333.06 107.022 333.06 107.06 333.06L107.041 333.04Z" fill="white"></path><path d="M107.397 332.971V333.065C107.39 333.025 107.39 332.985 107.397 332.946C107.4 332.895 107.4 332.844 107.397 332.794C107.397 332.794 107.397 332.738 107.397 332.699C107.401 332.79 107.401 332.88 107.397 332.971Z" fill="white"></path><path d="M107.333 333.091C107.333 332.964 107.352 332.84 107.39 332.719C107.352 332.952 107.333 333.091 107.333 333.091Z" fill="white"></path><path d="M182.507 326.086C185.963 317.8 189.995 309.76 194.571 302.026C192.717 292.285 191.453 275.22 195.473 267.475C198.444 261.751 210.438 260.882 218.718 261.001C225.111 252.62 230.279 248.301 230.279 248.301C230.279 248.301 268.769 254.484 277.556 254.535C286.343 254.585 286.337 259.415 286.337 259.415C286.337 259.415 292.458 277.732 299.378 286.832C306.299 295.931 324.915 306.982 351.741 311.239C378.566 315.495 399.665 310.25 404.503 307.58C409.341 304.91 409.5 307.485 400.84 324.405C392.179 341.325 378.846 353.491 356.452 357.503C342.64 359.861 328.478 359.255 314.921 355.727C314.921 355.727 279.486 346.867 269.093 340.11C258.699 333.354 257.074 342.541 257.074 342.541L258.089 480.557L230.66 485.985L206.965 372.936L181.695 414.873L155.441 404.169C158.533 388.068 174.413 345.607 182.507 326.086Z" fill="#007456"></path><path d="M254.309 141.642C254.867 145.46 256.501 149.043 259.02 151.977C260.955 154.436 263.418 156.435 266.229 157.828C266.889 158.144 267.574 158.405 268.279 158.605C268.279 156.429 268.317 154.216 268.436 152.058C268.884 143.975 270.524 135.559 275.702 129.345C278.193 126.376 281.337 124.016 284.892 122.447C284.791 120.954 284.671 119.474 284.576 117.981C284.305 115.429 284.318 112.856 284.614 110.306C284.948 108.759 285.138 107.184 285.182 105.603C285.125 104.129 285.34 98.4725 284.166 97.2493C282.209 98.0611 280.112 98.4868 277.992 98.5038C273.243 98.4662 269.471 95.5691 266.929 91.8629C265.994 91.5591 265.022 91.3816 264.04 91.3359C261.164 91.7625 269.748 99.4573 266.948 98.5854C268.771 99.1436 270.102 101.865 270.959 103.421C272.221 105.829 272.952 108.663 271.716 111.209C270.505 113.642 267.969 115.737 266.172 117.737C263.749 120.267 261.482 122.941 259.385 125.745C256.068 130.336 253.646 135.973 254.309 141.642Z" fill="#111111"></path><path d="M182.774 58.4685L168.431 51.5936C167.12 50.9664 165.974 50.0434 165.087 48.8982L158.39 40.2786C156.787 38.1038 157.216 35.058 159.359 33.402C161.502 31.7451 164.584 32.0784 166.317 34.1529L167.542 35.5696L164.959 29.5058C164.604 28.6625 164.636 27.7082 165.047 26.8901C165.457 26.071 166.206 25.4706 167.098 25.243L171.179 25.7789L158.422 8.49498C156.614 6.04595 158.371 3.08614 161.018 2.24919C164.065 1.28589 166.882 3.27522 168.774 5.47961C176.554 14.5714 182.451 25.0862 187.928 35.6637C189.768 39.2194 191.543 42.8038 193.253 46.4178" stroke="#111111" stroke-width="2" stroke-linejoin="round"></path><path d="M171.171 25.7812C171.171 25.7812 179.491 36.0505 167.534 35.572" stroke="#111111" stroke-width="2"></path><path d="M409.019 199.602C428.154 250.709 419.383 301.501 419.383 301.501C390.48 317.456 349.5 316.071 320.147 302.049C309.764 297.074 298.569 289.582 294.037 278.601C290.711 270.561 287.253 262.584 284.403 254.43" fill="#FAF6EB"></path><path d="M409.019 199.602C428.154 250.709 419.383 301.501 419.383 301.501C390.48 317.456 349.5 316.071 320.147 302.049C309.764 297.074 298.569 289.582 294.037 278.601C290.711 270.561 287.253 262.584 284.403 254.43" stroke="#111111" stroke-width="2"></path><path d="M298.317 119.051C293.77 119.331 289.311 120.415 285.149 122.252C281.574 123.83 278.411 126.201 275.905 129.183C270.693 135.433 269.042 143.882 268.591 152.004C268.47 154.19 268.413 156.414 268.432 158.582C268.528 177.812 271.753 196.841 277.048 215.447H229.113H204.072M198.366 242.138L199.82 242.389C207.527 243.971 224.758 246.725 241.577 249.283C256.96 251.646 272.006 253.833 279.123 254.847C281.822 255.238 284.577 255.527 287.377 255.704C303.993 256.718 321.147 253.051 325.591 234.281C328.486 222.259 327.852 209.298 327.718 196.784" stroke="#111111" stroke-width="2"></path><path d="M218.771 261.626C208.017 261.135 198.379 262.716 194.246 269.395C192.163 272.772 192.672 284.681 194.818 301.29" stroke="#111111" stroke-width="3"></path><path d="M398.946 328.055C398.923 328.083 398.904 328.116 398.889 328.15C394.286 337.462 386.191 345.502 375.836 351.128C339.349 370.938 284.469 347.726 264.731 338.067C263.129 337.284 261.234 337.379 259.72 338.317C258.205 339.254 257.286 340.901 257.29 342.673V491.228L215.064 501.845C213.742 502.181 212.34 501.969 211.181 501.255C210.021 500.542 209.206 499.388 208.924 498.065C208.345 495.416 210.007 492.795 212.663 492.167L230.878 486.212C230.034 480.34 217.679 426.638 207.178 373.093" stroke="#111111" stroke-width="2"></path><path d="M231.277 247.672C220.484 256.745 212.733 270.695 205.476 282.547C187.794 311.424 174.569 342.853 164.297 375.012C161.192 384.728 158.335 394.545 155.637 404.362L135.015 400.159C132.581 399.374 129.961 400.661 129.115 403.058C128.268 405.455 129.504 408.084 131.898 408.98L176.118 425.362C176.118 425.362 189.058 401.375 207.139 373.065C233.639 331.53 282.608 267.513 295.535 281.167" stroke="#111111" stroke-width="2"></path><path d="M269.853 105.539C269.853 105.539 226.49 102.558 196.765 44.1562C196.765 44.1562 187.368 50.5893 174.271 70.7139C174.271 70.7139 211.018 144.731 268.59 164.263" stroke="#111111" stroke-width="2"></path><path d="M273.564 37.5195L271.054 41.3539L269.543 43.6865C268.009 47.278 266.661 50.9467 265.503 54.678L265.428 54.9432L262.555 65.9787C262.549 65.9903 262.549 66.0037 262.555 66.0163C261.589 67.614 260.258 68.9564 258.672 69.9322C258.296 70.1356 257.947 70.383 257.63 70.6697C255.906 72.4108 260.453 72.9154 261.394 73.4889C262.237 74.0704 262.745 75.0283 262.755 76.0553C268.156 98.6494 264.681 92.7155 267.002 97.7417C264.989 96.0266 259.983 90.572 259.983 90.572C259.355 90.1616 258.766 88.9322 258.358 88.3201C257.063 86.3227 255.948 84.2124 255.027 82.0143C252.164 75.4504 251.504 68.1284 253.145 61.1541C255.736 50.314 261.777 39.4685 273.564 37.5195Z" fill="#1F2E54"></path><path d="M274.363 43.9682C274.828 46.3133 275.946 48.4819 277.59 50.2248C279.374 52.1675 281.454 53.8208 283.75 55.1264C288.073 57.6875 292.883 59.623 296.515 63.0802C300.152 66.5597 302.329 71.2813 302.607 76.2949C302.861 81.4286 301.016 86.7461 299.894 91.5528C296.339 107.088 297.479 122.018 299.444 137.655C301.308 152.408 305.275 166.846 312.969 179.688C322.046 194.827 336.948 206.944 353.719 213.163C367.663 218.341 394.759 222.934 405.008 208.527C406.777 203.98 406.796 198.775 406.111 193.874C402.086 165.124 379.934 135.617 353.504 123.658C339.344 117.25 316.253 107.404 323.713 87.8187C326.09 81.6437 329.418 76.3137 330.052 69.8609C330.109 69.274 330.166 68.6879 330.222 68.0634C331.288 52.9247 322.433 38.5558 308.096 33.371C298.606 29.8054 288.032 30.4954 279.092 35.2635C277.523 36.0942 276.119 37.2018 274.946 38.5307C274.866 38.6212 274.794 38.718 274.731 38.8211C274.642 39.0442 274.57 39.2745 274.515 39.5084C274.165 40.9699 274.114 42.4861 274.363 43.9682Z" fill="#111111"></path><path d="M268.524 158.295C260.851 156.537 254.119 151.086 252.195 143.122C250.404 135.743 253.237 128.168 257.626 122.233C261.696 116.75 270.175 112.151 269.508 104.375C269.292 101.854 268.034 99.6492 266.396 97.6957C265.805 97.0156 265.196 96.3856 264.529 95.7422" stroke="#111111" stroke-width="2"></path><path d="M284.344 97.1289L284.7 122.857" stroke="#111111" stroke-width="4"></path><path fill-rule="evenodd" clip-rule="evenodd" d="M326.642 84.227C329.011 78.052 332.358 72.7274 332.992 66.288C333.056 65.6957 333.113 65.1034 333.158 64.4726C334.231 49.35 325.353 35.0017 310.993 29.816C301.482 26.2567 290.886 26.9458 281.924 31.7068C280.357 32.5402 278.954 33.6477 277.784 34.9767L277.485 35.336C275.387 37.88 274.5 41.2 275.053 44.4412C275.515 46.7782 276.628 48.9396 278.266 50.6798C280.062 52.6235 282.148 54.2813 284.452 55.5949C288.784 58.1533 293.598 60.0745 297.25 63.5281C300.895 67.0139 303.07 71.7435 303.334 76.7607C303.594 81.89 301.739 87.1949 300.634 92.0096C297.072 107.529 298.208 122.438 300.177 138.052C302.044 152.791 306.014 167.221 313.737 180.05C322.831 195.173 337.756 207.284 354.567 213.491C368.813 218.759 396.744 223.421 406.557 208.002C409.853 202.829 410.069 196.282 409.218 190.22C405.185 161.505 382.975 132.016 356.505 120.075C342.291 113.597 319.154 103.786 326.642 84.227Z" stroke="#111111" stroke-width="2"></path><path d="M269.545 64.4303C269.545 65.5662 270.473 66.4934 271.627 66.4934C272.78 66.4934 273.708 65.5662 273.708 64.4303C273.708 63.2943 272.78 62.3672 271.627 62.3672C270.473 62.3672 269.545 63.2943 269.545 64.4303Z" fill="#111111" stroke="#111111"></path><path d="M272.414 56.4492C272.414 56.4492 280.772 60.1895 278.126 67.4614Z" fill="#111111"></path><path d="M272.414 56.4492C272.414 56.4492 280.772 60.1895 278.126 67.4614" stroke="#111111" stroke-width="2" stroke-linecap="round"></path><path d="M264.69 95.8646C262.596 95.1083 260.362 92.7158 258.839 91.1485C257.154 89.3653 255.649 87.4225 254.346 85.3498C246.848 73.447 246.984 58.3128 254.694 46.5453C257.31 42.5406 260.794 38.9894 265.16 36.975C268.8 35.2742 272.872 34.7034 276.844 35.3378C274.625 37.1354 272.634 39.1946 270.916 41.4707C268.329 44.8391 266.518 48.7291 265.61 52.8663C265.471 53.5904 265.35 54.3091 265.224 55.0394C264.589 58.9302 264.233 62.8713 262.31 66.0578C261.33 67.6663 259.976 69.0194 258.362 70.0051C257.983 70.2085 257.629 70.4558 257.31 70.7417C255.563 72.4801 260.165 72.9774 261.117 73.55C263.561 74.9668 262.653 79.0341 262.977 81.3891C263.367 84.1374 264.196 86.8069 265.433 89.2971C265.871 90.1816 266.369 91.0365 266.925 91.8537C269.462 95.5868 273.271 98.509 278.056 98.5341C280.185 98.5153 282.292 98.087 284.257 97.2742C287.628 95.9157 290.644 93.8117 293.072 91.1234" fill="#111111"></path><path d="M264.69 95.8646C262.596 95.1083 260.362 92.7158 258.839 91.1485C257.154 89.3653 255.649 87.4225 254.346 85.3498C246.848 73.447 246.984 58.3128 254.694 46.5453C257.31 42.5406 260.794 38.9894 265.16 36.975C268.8 35.2742 272.872 34.7034 276.844 35.3378C274.625 37.1354 272.634 39.1946 270.916 41.4707C268.329 44.8391 266.518 48.7291 265.61 52.8663C265.471 53.5904 265.35 54.3091 265.224 55.0394C264.589 58.9302 264.233 62.8713 262.31 66.0578C261.33 67.6663 259.976 69.0194 258.362 70.0051C257.983 70.2085 257.629 70.4558 257.31 70.7417C255.563 72.4801 260.165 72.9774 261.117 73.55C263.561 74.9668 262.653 79.0341 262.977 81.3891C263.367 84.1374 264.196 86.8069 265.433 89.2971C265.871 90.1816 266.369 91.0365 266.925 91.8537C269.462 95.5868 273.271 98.509 278.056 98.5341C280.185 98.5153 282.292 98.087 284.257 97.2742C287.628 95.9157 290.644 93.8117 293.072 91.1234" stroke="#111111" stroke-width="4" stroke-linecap="round"></path><path d="M269.285 82.836C269.285 82.836 275.041 86.0912 277.536 78.5977Z" fill="#111111"></path><path d="M269.285 82.836C269.285 82.836 275.041 86.0912 277.536 78.5977" stroke="#111111" stroke-width="2" stroke-linecap="round"></path><path d="M276.888 215.73L278.704 221.819" stroke="#111111" stroke-width="2" stroke-linecap="round"></path><path d="M398.699 328.343C398.699 328.343 406.112 315.222 408.524 306.488" stroke="#111111" stroke-width="2"></path><path d="M212.455 186.944L206.798 206.596L196.596 243.805C196.228 245.147 194.891 245.988 193.512 245.747L178.48 243.114C177.008 242.855 176.024 241.461 176.284 239.999L186.734 181.217C186.994 179.756 188.398 178.78 189.871 179.037L200.091 180.822L210.311 182.607C211.88 182.881 212.874 185.418 212.455 186.944Z" stroke="#111111" stroke-width="2"></path><path d="M210.435 179.898L190.21 178.388C188.612 178.268 187.468 176.806 187.745 175.241L194.033 139.809C194.311 138.242 195.892 137.256 197.435 137.688L216.952 143.147C218.29 143.521 219.125 144.84 218.884 146.2L213.306 177.683C213.064 179.044 211.823 180.002 210.435 179.898Z" stroke="#111111" stroke-width="2"></path><mask id="mask0_2188_24511" style="mask-type:alpha" maskUnits="userSpaceOnUse" x="0" y="46" width="199" height="162"><path fill-rule="evenodd" clip-rule="evenodd" d="M46.5468 47.339C45.7369 46.9268 44.8919 46.6401 44.0134 46.4868C29.626 43.9688 11.5632 77.9497 3.66886 122.386C-4.22454 166.822 1.03894 204.886 15.4264 207.404C16.7644 207.638 18.1348 207.557 19.5261 207.18L137.622 186.087L186.913 188.791L198.739 122.108L151.495 107.935L46.5549 47.2924L46.5468 47.339Z" fill="white"></path></mask><g mask="url(#mask0_2188_24511)"><mask id="path-35-inside-1_2188_24511" fill="white"><path d="M46.5467 47.3429L44.8981 50.5321L49.2533 52.75L50.1029 47.9657L46.5467 47.3429ZM19.526 207.184L18.8859 203.656L18.7288 203.684L18.5753 203.726L19.526 207.184ZM137.622 186.091L137.821 182.512L137.398 182.489L136.982 182.563L137.622 186.091ZM186.913 188.794L186.714 192.373L189.914 192.549L190.47 189.416L186.913 188.794ZM151.495 107.939L149.678 111.037L150.045 111.248L150.45 111.37L151.495 107.939ZM46.5548 47.2963L48.3722 44.1994L43.8978 41.6133L42.9986 46.6744L46.5548 47.2963ZM48.1952 44.1537C47.0784 43.5847 45.8903 43.1788 44.6399 42.9601L43.3859 50.0205C43.8942 50.1092 44.3961 50.2758 44.8981 50.5321L48.1952 44.1537ZM44.6399 42.9601C39.4297 42.0488 34.5011 44.5471 30.2976 48.4075C26.0408 52.3163 21.9618 58.1059 18.2124 65.16C10.6927 79.3058 4.10663 99.2861 0.112534 121.767L7.22589 123.012C11.1261 101.058 17.5172 81.8292 24.5999 68.5051C28.1516 61.8239 31.7791 56.8129 35.2027 53.6694C38.6776 50.4784 41.4033 49.6728 43.3859 50.0205L44.6399 42.9601ZM0.112534 121.767C-3.88157 144.249 -4.57675 165.26 -2.38559 181.106C-1.29317 189.007 0.54499 195.832 3.19839 200.95C5.81839 206.005 9.58859 210.026 14.7988 210.938L16.0528 203.878C14.0702 203.531 11.787 201.85 9.62019 197.67C7.48682 193.555 5.80484 187.614 4.7693 180.131C2.70544 165.206 3.32478 144.967 7.22589 123.012L0.112534 121.767ZM14.7988 210.938C16.711 211.272 18.6214 211.144 20.4758 210.642L18.5753 203.726C17.6481 203.977 16.8175 204.012 16.0528 203.878L14.7988 210.938ZM136.982 182.563L18.8859 203.656L20.1652 210.711L138.261 189.618L136.982 182.563ZM187.112 185.215L137.821 182.512L137.422 189.67L186.714 192.373L187.112 185.215ZM195.182 121.49L183.356 188.173L190.47 189.416L202.295 122.733L195.182 121.49ZM150.45 111.37L197.693 125.543L199.783 118.68L152.54 104.508L150.45 111.37ZM44.7383 50.3941L149.678 111.037L153.312 104.841L48.3722 44.1994L44.7383 50.3941ZM50.1029 47.9657L50.1119 47.9191L42.9986 46.6744L42.9904 46.721L50.1029 47.9657Z"></path></mask><path d="M43.3859 50.0205L44.8627 50.283L41.909 49.7582L43.3859 50.0205ZM7.22589 123.012L7.48442 121.534L6.96758 124.49L7.22589 123.012ZM16.0528 203.878L14.5759 203.615L17.5298 204.14L16.0528 203.878ZM45.4902 46.7533L44.8627 50.283L41.909 49.7579L42.5365 46.2282L45.4902 46.7533ZM3.92706 120.913L7.48421 121.534L6.96758 124.49L3.41043 123.868L3.92706 120.913ZM13.9493 207.146L14.5759 203.615L17.5298 204.14L16.9032 207.67L13.9493 207.146ZM46.1168 43.2225L44.8627 50.2828L41.909 49.7582L43.163 42.6978L46.1168 43.2225ZM0.371063 120.29L7.48442 121.534L6.96736 124.49L-0.145996 123.245L0.371063 120.29ZM13.3219 210.676L14.5759 203.615L17.5297 204.14L16.2757 211.2L13.3219 210.676ZM46.5467 47.3429L43.8817 45.9654L44.8936 44.0078L47.0642 44.3879L46.5467 47.3429ZM44.8981 50.5321L43.5368 53.2055L43.534 53.204L44.8981 50.5321ZM49.2533 52.75L52.2071 53.2745L51.4993 57.2603L47.892 55.4233L49.2533 52.75ZM43.3859 50.0205L42.8701 52.9758L42.8677 52.9754L43.3859 50.0205ZM7.22589 123.012L10.1796 123.537L10.1796 123.537L7.22589 123.012ZM16.0528 203.878L16.5697 200.922L16.5722 200.923L16.0528 203.878ZM19.526 207.184L22.4778 206.649L16.6333 207.979L19.526 207.184ZM18.7288 203.684L17.9348 200.791L18.0692 200.754L18.2063 200.73L18.7288 203.684ZM137.622 186.091L140.617 186.257L134.67 186.627L137.622 186.091ZM137.398 182.489L136.87 179.535L137.214 179.474L137.563 179.493L137.398 182.489ZM186.913 188.794L183.917 188.628L184.104 185.258L187.429 185.839L186.913 188.794ZM189.914 192.549L192.867 193.073L192.403 195.69L189.749 195.545L189.914 192.549ZM190.47 189.416L193.424 189.94L193.424 189.941L190.47 189.416ZM202.295 122.733L202.811 119.778L205.774 120.296L205.249 123.257L202.295 122.733ZM199.783 118.68L200.645 115.807L203.531 116.672L202.653 119.554L199.783 118.68ZM151.495 107.939L148.907 106.421L154.365 108.812L151.495 107.939ZM149.678 111.037L148.179 113.635L148.177 113.634L149.678 111.037ZM150.045 111.248L149.181 114.121L148.847 114.021L148.546 113.847L150.045 111.248ZM150.45 111.37L149.588 114.243L149.587 114.243L150.45 111.37ZM46.5548 47.2963L49.1422 48.8147L48.0886 50.6101L46.038 50.2515L46.5548 47.2963ZM43.8978 41.6133L40.944 41.0885L41.6929 36.8738L45.399 39.0159L43.8978 41.6133ZM42.9986 46.6744L40.0431 46.1596L40.0448 46.1497L42.9986 46.6744ZM48.1952 44.1537L49.5571 41.4807L52.2459 42.8506L50.8602 45.5313L48.1952 44.1537ZM44.6399 42.9601L44.1232 45.9153L44.123 45.9153L44.6399 42.9601ZM30.2976 48.4075L32.3268 50.6171L32.3266 50.6172L30.2976 48.4075ZM18.2124 65.16L20.8614 66.5681L20.8614 66.5682L18.2124 65.16ZM24.5999 68.5051L21.9509 67.097L21.9509 67.097L24.5999 68.5051ZM35.2027 53.6694L37.2318 55.8791L37.2317 55.8791L35.2027 53.6694ZM-2.38559 181.106L0.586136 180.695V180.695L-2.38559 181.106ZM3.19839 200.95L5.86169 199.569L5.86188 199.569L3.19839 200.95ZM14.7988 210.938L14.2822 213.893L14.2814 213.893L14.7988 210.938ZM9.62019 197.67L6.95685 199.051L6.95674 199.051L9.62019 197.67ZM4.7693 180.131L1.79762 180.542L1.79758 180.542L4.7693 180.131ZM20.4758 210.642L23.3685 209.847L24.1665 212.751L21.2594 213.538L20.4758 210.642ZM20.1652 210.711L20.6927 213.664L17.7472 214.191L17.2133 211.246L20.1652 210.711ZM138.261 189.618L141.213 189.083L141.75 192.042L138.789 192.571L138.261 189.618ZM187.112 185.215L187.276 182.22L190.274 182.384L190.107 185.382L187.112 185.215ZM137.422 189.67L137.258 192.665L134.26 192.501L134.427 189.503L137.422 189.67ZM195.182 121.49L192.228 120.967L192.75 118.02L195.698 118.535L195.182 121.49ZM183.356 188.173L182.84 191.129L179.877 190.611L180.402 187.65L183.356 188.173ZM197.693 125.543L200.563 126.417L199.693 129.274L196.831 128.416L197.693 125.543ZM152.54 104.508L149.67 103.634L150.541 100.776L153.402 101.634L152.54 104.508ZM44.7383 50.3941L43.2373 52.9916L40.6228 51.4808L42.1507 48.8762L44.7383 50.3941ZM153.312 104.841L154.813 102.243L157.427 103.754L155.9 106.359L153.312 104.841ZM50.1119 47.9191L50.629 44.964L53.6385 45.4906L53.0571 48.4901L50.1119 47.9191ZM42.9904 46.721L42.4733 49.6761L39.5205 49.1594L40.035 46.2062L42.9904 46.721ZM49.2117 48.7205L47.5631 51.9097L42.2331 49.1545L43.8817 45.9654L49.2117 48.7205ZM46.2595 47.8588L50.6147 50.0766L47.892 55.4233L43.5368 53.2055L46.2595 47.8588ZM46.2995 52.2255L47.1491 47.4412L53.0567 48.4902L52.2071 53.2745L46.2995 52.2255ZM49.5854 50.9208L46.0292 50.298L47.0642 44.3879L50.6204 45.0107L49.5854 50.9208ZM16.5742 207.72L15.9341 204.192L21.8377 203.121L22.4778 206.649L16.5742 207.72ZM19.4084 206.61L19.2513 206.638L18.2063 200.73L18.3634 200.702L19.4084 206.61ZM19.5227 206.577L19.3693 206.619L17.7814 200.833L17.9348 200.791L19.5227 206.577ZM21.468 202.931L22.4187 206.389L16.6333 207.979L15.6826 204.521L21.468 202.931ZM134.627 185.925L134.825 182.346L140.816 182.678L140.617 186.257L134.627 185.925ZM137.655 185.507L137.233 185.484L137.563 179.493L137.986 179.516L137.655 185.507ZM137.926 185.442L137.51 185.516L136.454 179.61L136.87 179.535L137.926 185.442ZM139.934 182.027L140.574 185.555L134.67 186.627L134.03 183.099L139.934 182.027ZM189.908 188.961L189.709 192.54L183.719 192.207L183.917 188.628L189.908 188.961ZM186.878 189.378L190.078 189.554L189.749 195.545L186.55 195.369L186.878 189.378ZM186.96 192.025L187.516 188.892L193.424 189.941L192.867 193.073L186.96 192.025ZM189.953 192.372L186.396 191.75L187.429 185.839L190.986 186.461L189.953 192.372ZM154.083 109.456L152.266 112.554L147.09 109.519L148.907 106.421L154.083 109.456ZM151.177 108.438L151.544 108.65L148.546 113.847L148.179 113.635L151.177 108.438ZM150.908 108.375L151.314 108.497L149.587 114.243L149.181 114.121L150.908 108.375ZM147.58 110.496L148.625 107.065L154.365 108.812L153.32 112.244L147.58 110.496ZM43.9674 45.778L45.7848 42.681L50.9596 45.7178L49.1422 48.8147L43.9674 45.778ZM46.871 46.7968L42.3965 44.2106L45.399 39.0159L49.8734 41.6021L46.871 46.7968ZM46.8515 42.1381L45.9523 47.1992L40.0448 46.1497L40.944 41.0885L46.8515 42.1381ZM43.5154 43.7193L47.0716 44.3412L46.038 50.2515L42.4818 49.6296L43.5154 43.7193ZM46.8333 46.8268C45.9714 46.3876 45.0673 46.0804 44.1232 45.9153L45.1566 40.005C46.7134 40.2772 48.1854 40.7818 49.5571 41.4807L46.8333 46.8268ZM43.9017 47.0651C44.7148 47.2071 45.502 47.4721 46.2623 47.8602L43.534 53.204C43.2903 53.0796 43.0735 53.0113 42.8701 52.9758L43.9017 47.0651ZM42.2331 49.1546L45.5302 42.7762L50.8602 45.5313L47.5631 51.9097L42.2331 49.1546ZM44.123 45.9153C40.2468 45.2373 36.2294 47.0331 32.3268 50.6171L28.2684 46.1979C32.7729 42.0611 38.6126 38.8603 45.1568 40.005L44.123 45.9153ZM32.3266 50.6172C28.4172 54.207 24.5273 59.6711 20.8614 66.5681L15.5633 63.752C19.3963 56.5408 23.6644 50.4255 28.2685 46.1978L32.3266 50.6172ZM20.8614 66.5682C13.5251 80.369 7.02095 100.033 3.06628 122.292L-2.84122 121.243C1.19232 98.5393 7.86038 78.2426 15.5634 63.7519L20.8614 66.5682ZM4.27214 122.487C8.21178 100.311 14.6848 80.7661 21.9509 67.097L27.2489 69.9133C20.3496 82.8923 14.0404 101.804 10.1796 123.537L4.27214 122.487ZM21.9509 67.097C25.586 60.2589 29.4026 54.9222 33.1736 51.4596L37.2317 55.8791C34.1557 58.7036 30.7172 63.3888 27.2489 69.9133L21.9509 67.097ZM33.1735 51.4597C36.9623 47.9806 40.598 46.4858 43.9041 47.0656L42.8677 52.9754C42.2085 52.8598 40.393 52.9762 37.2318 55.8791L33.1735 51.4597ZM3.06628 122.292C-0.888382 144.551 -1.55139 165.237 0.586136 180.695L-5.35732 181.517C-7.6021 165.283 -6.87474 143.946 -2.84122 121.243L3.06628 122.292ZM0.586136 180.695C1.65414 188.419 3.42644 194.872 5.86169 199.569L0.535095 202.331C-2.33646 196.793 -4.24048 189.594 -5.35732 181.517L0.586136 180.695ZM5.86188 199.569C8.2921 204.258 11.4434 207.305 15.3162 207.983L14.2814 213.893C7.73376 212.747 3.34468 207.752 0.534912 202.331L5.86188 199.569ZM15.5359 206.833C12.2273 206.254 9.32175 203.613 6.95685 199.051L12.2835 196.289C14.2522 200.087 15.9132 200.808 16.5697 200.922L15.5359 206.833ZM6.95674 199.051C4.60529 194.514 2.85753 188.202 1.79762 180.542L7.74098 179.72C8.75215 187.027 10.3683 192.595 12.2836 196.29L6.95674 199.051ZM1.79758 180.542C-0.319916 165.229 0.331619 144.664 4.27216 122.487L10.1796 123.537C6.31795 145.27 5.7308 165.183 7.74103 179.72L1.79758 180.542ZM15.3154 207.983C16.7549 208.234 18.2204 208.145 19.6921 207.746L21.2594 213.538C19.0224 214.143 16.6671 214.31 14.2822 213.893L15.3154 207.983ZM17.583 211.437L15.6826 204.521L21.4681 202.931L23.3685 209.847L17.583 211.437ZM19.359 206.622C18.0491 206.976 16.7725 207.05 15.5335 206.832L16.5722 200.923C16.8625 200.974 17.2472 200.978 17.7917 200.83L19.359 206.622ZM137.509 185.516L19.4134 206.609L18.3584 200.703L136.454 179.61L137.509 185.516ZM21.8378 203.121L23.1171 210.176L17.2133 211.246L15.934 204.191L21.8378 203.121ZM19.6377 207.758L137.734 186.665L138.789 192.571L20.6927 213.664L19.6377 207.758ZM135.309 190.153L134.03 183.098L139.934 182.028L141.213 189.083L135.309 190.153ZM186.948 188.211L137.656 185.507L137.985 179.516L187.276 182.22L186.948 188.211ZM140.816 182.679L140.418 189.837L134.427 189.503L134.825 182.345L140.816 182.679ZM137.587 186.674L186.878 189.378L186.55 195.369L137.258 192.665L137.587 186.674ZM183.719 192.207L184.117 185.049L190.107 185.382L189.709 192.54L183.719 192.207ZM198.135 122.014L186.31 188.697L180.402 187.65L192.228 120.967L198.135 122.014ZM183.873 185.218L190.986 186.461L189.953 192.372L182.84 191.129L183.873 185.218ZM187.516 188.893L199.341 122.209L205.249 123.257L193.424 189.94L187.516 188.893ZM201.779 125.689L194.665 124.446L195.698 118.535L202.811 119.778L201.779 125.689ZM151.312 108.496L198.555 122.669L196.831 128.416L149.588 114.243L151.312 108.496ZM194.823 124.669L196.913 117.806L202.653 119.554L200.563 126.417L194.823 124.669ZM198.921 121.554L151.678 107.381L153.402 101.634L200.645 115.807L198.921 121.554ZM155.41 105.382L153.32 112.244L147.58 110.496L149.67 103.634L155.41 105.382ZM46.2393 47.7967L151.179 108.439L148.177 113.634L43.2373 52.9916L46.2393 47.7967ZM147.091 109.519L150.724 103.323L155.9 106.359L152.266 112.554L147.091 109.519ZM151.811 107.438L46.8712 46.7969L49.8732 41.6019L154.813 102.243L151.811 107.438ZM50.9598 45.7174L47.3259 51.9121L42.1507 48.8762L45.7846 42.6815L50.9598 45.7174ZM47.1577 47.3948L47.1667 47.3482L53.0571 48.4901L53.0481 48.5367L47.1577 47.3948ZM49.5948 50.8742L42.4815 49.6295L43.5156 43.7193L50.629 44.964L49.5948 50.8742ZM45.9541 47.1893L45.9459 47.2359L40.035 46.2062L40.0431 46.1596L45.9541 47.1893ZM43.5076 43.766L50.62 45.0106L49.5857 50.9208L42.4733 49.6761L43.5076 43.766Z" fill="#111111" mask="url(#path-35-inside-1_2188_24511)"></path><path d="M38.5928 189.459C47.4766 179.257 56.113 157.695 60.6858 131.955C64.066 112.926 64.5734 95.2892 62.6549 82.294C61.7015 75.8341 60.1486 70.5202 58.0523 66.7539" stroke="#111111" stroke-width="2" stroke-linecap="round"></path><path d="M49.9539 129.061C56.9617 89.6104 53.8912 56.0982 43.0943 54.2083C32.2974 52.3194 17.863 82.7678 10.8544 122.218C3.84666 161.668 6.91717 195.18 17.7141 197.07C28.5109 198.959 42.9453 168.511 49.9539 129.061Z" fill="#007456"></path></g><mask id="mask1_2188_24511" style="mask-type:alpha" maskUnits="userSpaceOnUse" x="7" y="54" width="47" height="144"><path d="M49.9574 129.061C56.9651 89.6104 53.8946 56.0982 43.0968 54.2083C32.3 52.3194 17.8665 82.7679 10.8579 122.218C3.84922 161.668 6.92063 195.18 17.7175 197.07C28.5144 198.959 42.9488 168.511 49.9574 129.061Z" fill="#007456"></path></mask><g mask="url(#mask1_2188_24511)"><path d="M57.1908 161.129C74.6424 161.129 88.7898 147.087 88.7898 129.766C88.7898 112.444 74.6424 98.4023 57.1908 98.4023C39.7391 98.4023 25.5918 112.444 25.5918 129.766C25.5918 147.087 39.7391 161.129 57.1908 161.129Z" fill="#FFD75E" stroke="#111111" stroke-width="2"></path></g></svg>