<svg xmlns="http://www.w3.org/2000/svg" width="100" height="138" viewBox="0 0 100 138" fill="none"><ellipse cx="3.125" cy="3.125" rx="3.125" ry="3.125" fill="#007456"></ellipse><ellipse cx="21.875" cy="3.125" rx="3.125" ry="3.125" fill="#007456"></ellipse><ellipse cx="40.625" cy="3.125" rx="3.125" ry="3.125" fill="#007456"></ellipse><ellipse cx="59.375" cy="3.125" rx="3.125" ry="3.125" fill="#007456"></ellipse><ellipse cx="78.125" cy="3.125" rx="3.125" ry="3.125" fill="#007456"></ellipse><ellipse cx="96.875" cy="3.125" rx="3.125" ry="3.125" fill="#007456"></ellipse><ellipse cx="3.125" cy="21.875" rx="3.125" ry="3.125" fill="#007456"></ellipse><ellipse cx="21.875" cy="21.875" rx="3.125" ry="3.125" fill="#007456"></ellipse><ellipse cx="40.625" cy="21.875" rx="3.125" ry="3.125" fill="#007456"></ellipse><ellipse cx="59.375" cy="21.875" rx="3.125" ry="3.125" fill="#007456"></ellipse><ellipse cx="78.125" cy="21.875" rx="3.125" ry="3.125" fill="#007456"></ellipse><ellipse cx="96.875" cy="21.875" rx="3.125" ry="3.125" fill="#007456"></ellipse><ellipse cx="3.125" cy="40.625" rx="3.125" ry="3.125" fill="#007456"></ellipse><ellipse cx="21.875" cy="40.625" rx="3.125" ry="3.125" fill="#007456"></ellipse><ellipse cx="40.625" cy="40.625" rx="3.125" ry="3.125" fill="#007456"></ellipse><ellipse cx="59.375" cy="40.625" rx="3.125" ry="3.125" fill="#007456"></ellipse><ellipse cx="78.125" cy="40.625" rx="3.125" ry="3.125" fill="#007456"></ellipse><ellipse cx="96.875" cy="40.625" rx="3.125" ry="3.125" fill="#007456"></ellipse><ellipse cx="3.125" cy="59.375" rx="3.125" ry="3.125" fill="#007456"></ellipse><ellipse cx="21.875" cy="59.375" rx="3.125" ry="3.125" fill="#007456"></ellipse><ellipse cx="40.625" cy="59.375" rx="3.125" ry="3.125" fill="#007456"></ellipse><ellipse cx="59.375" cy="59.375" rx="3.125" ry="3.125" fill="#007456"></ellipse><ellipse cx="78.125" cy="59.375" rx="3.125" ry="3.125" fill="#007456"></ellipse><ellipse cx="96.875" cy="59.375" rx="3.125" ry="3.125" fill="#007456"></ellipse><ellipse cx="3.125" cy="78.125" rx="3.125" ry="3.125" fill="#007456"></ellipse><ellipse cx="21.875" cy="78.125" rx="3.125" ry="3.125" fill="#007456"></ellipse><ellipse cx="40.625" cy="78.125" rx="3.125" ry="3.125" fill="#007456"></ellipse><ellipse cx="59.375" cy="78.125" rx="3.125" ry="3.125" fill="#007456"></ellipse><ellipse cx="78.125" cy="78.125" rx="3.125" ry="3.125" fill="#007456"></ellipse><ellipse cx="96.875" cy="78.125" rx="3.125" ry="3.125" fill="#007456"></ellipse><ellipse cx="3.125" cy="96.875" rx="3.125" ry="3.125" fill="#007456"></ellipse><ellipse cx="21.875" cy="96.875" rx="3.125" ry="3.125" fill="#007456"></ellipse><ellipse cx="40.625" cy="96.875" rx="3.125" ry="3.125" fill="#007456"></ellipse><ellipse cx="59.375" cy="96.875" rx="3.125" ry="3.125" fill="#007456"></ellipse><ellipse cx="78.125" cy="96.875" rx="3.125" ry="3.125" fill="#007456"></ellipse><ellipse cx="96.875" cy="96.875" rx="3.125" ry="3.125" fill="#007456"></ellipse><ellipse cx="3.125" cy="115.625" rx="3.125" ry="3.125" fill="#007456"></ellipse><ellipse cx="21.875" cy="115.625" rx="3.125" ry="3.125" fill="#007456"></ellipse><ellipse cx="40.625" cy="115.625" rx="3.125" ry="3.125" fill="#007456"></ellipse><ellipse cx="59.375" cy="115.625" rx="3.125" ry="3.125" fill="#007456"></ellipse><ellipse cx="78.125" cy="115.625" rx="3.125" ry="3.125" fill="#007456"></ellipse><ellipse cx="96.875" cy="115.625" rx="3.125" ry="3.125" fill="#007456"></ellipse><ellipse cx="3.125" cy="134.375" rx="3.125" ry="3.125" fill="#007456"></ellipse><ellipse cx="21.875" cy="134.375" rx="3.125" ry="3.125" fill="#007456"></ellipse><ellipse cx="40.625" cy="134.375" rx="3.125" ry="3.125" fill="#007456"></ellipse><ellipse cx="59.375" cy="134.375" rx="3.125" ry="3.125" fill="#007456"></ellipse><ellipse cx="78.125" cy="134.375" rx="3.125" ry="3.125" fill="#007456"></ellipse><ellipse cx="96.875" cy="134.375" rx="3.125" ry="3.125" fill="#007456"></ellipse></svg>